<?xml version="1.0" standalone="no"?>
<!DOCTYPE svg PUBLIC "-//W3C//DTD SVG 1.1//EN" "http://www.w3.org/Graphics/SVG/1.1/DTD/svg11.dtd" >
<svg xmlns="http://www.w3.org/2000/svg" xmlns:xlink="http://www.w3.org/1999/xlink" version="1.1">
<metadata>
Created by FontForge 20170731 at Tue Oct  9 23:05:01 2001
 By Aleksey,,,
Copyright (c) 1985, 1987, 1991, 1993 Adobe Systems Incorporated. All Rights Reserved.Helvetica is a trademark of Linotype-Hell AG and/or its subsidiaries.
</metadata>
<defs>
<font id="HelveticaLT-Condensed-BoldObl" horiz-adv-x="500" >
  <font-face 
    font-family="Helvetica LT Condensed"
    font-weight="700"
    font-style="italic"
    font-stretch="normal"
    units-per-em="1000"
    panose-1="2 0 8 6 5 0 0 2 0 4"
    ascent="800"
    descent="-200"
    x-height="564"
    cap-height="750"
    bbox="-169 -250 1140 991"
    underline-thickness="50"
    underline-position="-175"
    slope="-12"
    unicode-range="U+0020-FB02"
  />
<missing-glyph horiz-adv-x="250" 
 />
    <glyph glyph-name=".notdef" horiz-adv-x="250" 
 />
    <glyph glyph-name=".null" horiz-adv-x="0" 
 />
    <glyph glyph-name="nonmarkingreturn" horiz-adv-x="250" 
 />
    <glyph glyph-name="space" unicode=" " horiz-adv-x="250" 
 />
    <glyph glyph-name="space" unicode="&#xa0;" horiz-adv-x="250" 
 />
    <glyph glyph-name="exclam" unicode="!" horiz-adv-x="333" 
d="M102 0l27 132h130l-27 -132h-130zM256 750h130l-43 -210q-7 -43 -18 -86t-24 -87t-26 -86.5t-25 -86.5h-85q7 44 11.5 86.5t9.5 86.5t11 87t16 86z" />
    <glyph glyph-name="quotedbl" unicode="&#x22;" horiz-adv-x="333" 
d="M113 468l56 271h119l-56 -271h-119zM296 468l56 271h119l-56 -271h-119z" />
    <glyph glyph-name="numbersign" unicode="#" 
d="M311 423l-30 -92h71l31 92h-72zM493 233h-86l-77 -233h-85l76 233h-72l-77 -233h-84l76 233h-85l20 98h98l30 92h-84l21 98h95l72 217h83l-71 -217h73l71 217h86l-72 -217h76l-21 -98h-88l-30 -92h75z" />
    <glyph glyph-name="dollar" unicode="$" 
d="M351 640q-27 -4 -45 -25.5t-24 -49.5q-3 -14 -3 -25q0 -26 10.5 -43.5t23.5 -35.5zM296 85q27 8 49 30t31 64q2 6 2 11v11q0 30 -13 52.5t-27 33.5zM282 308q-27 20 -50.5 38.5t-41 39.5t-27.5 46.5t-10 60.5q0 29 7 61q7 33 22.5 64t41 56.5t61.5 42.5t83 23l13 63h68
l-13 -63q72 -9 104.5 -40.5t32.5 -75.5q0 -5 -0.5 -11t-1.5 -11q-3 -16 -4 -31.5t-5 -31.5h-116q6 25 6 46t-8.5 34.5t-31.5 20.5l-42 -199q61 -35 102 -83t41 -111q0 -20 -4 -37q-20 -104 -74 -157.5t-156 -67.5l-22 -109h-68l22 106q-77 7 -110 46.5t-33 101.5q0 44 13 92
h120q-5 -21 -8.5 -40t-3.5 -36q0 -22 10 -37.5t36 -23.5z" />
    <glyph glyph-name="percent" unicode="%" horiz-adv-x="833" 
d="M710 293q-22 0 -35.5 -8t-21.5 -22t-13 -34.5t-10 -45.5q-5 -20 -7.5 -37t-2.5 -31q0 -20 9.5 -31t35.5 -11q21 0 34.5 8t21.5 22t13.5 34.5t10.5 45.5q4 20 7 36.5t3 30.5q0 20 -9.5 31.5t-35.5 11.5zM323 663q-22 0 -35.5 -8t-22 -22t-14 -34.5t-10.5 -45.5
q-4 -20 -6.5 -36t-2.5 -30q0 -21 9.5 -32.5t36.5 -11.5q21 0 34.5 8t21.5 22t13 34.5t10 45.5q5 20 7.5 37t2.5 31q0 20 -9 31t-35 11zM205 -15l495 765h70l-494 -765h-71zM725 366q38 0 62.5 -7.5t39 -21t20 -31.5t5.5 -40q0 -20 -3 -40.5t-8 -42.5q-8 -36 -18 -69
t-30.5 -58.5t-54.5 -40.5t-89 -15q-38 0 -62 7.5t-38.5 21t-20 31.5t-5.5 40q0 19 3 40t8 43q7 36 17.5 69t31 58.5t54.5 40.5t88 15zM337 736q38 0 62.5 -7.5t39 -21t20 -32t5.5 -39.5q0 -20 -3 -40.5t-8 -42.5q-7 -36 -17.5 -69t-31.5 -58.5t-55 -40.5t-89 -15
q-38 0 -62 7.5t-38.5 21t-20 31.5t-5.5 40q0 19 3 40t8 43q7 36 18 69t31.5 58.5t54.5 40.5t88 15z" />
    <glyph glyph-name="ampersand" unicode="&#x26;" horiz-adv-x="667" 
d="M413 518q25 17 48 39.5t29 51.5q1 4 1 7v7q0 20 -11 32t-28 13h-2q-17 0 -34 -11.5t-22 -37.5q-1 -5 -1.5 -8.5t-0.5 -8.5q0 -23 8 -44t13 -40zM335 343q-11 -4 -27 -15.5t-31 -29.5t-27 -40.5t-13 -47.5v-10q0 -20 4.5 -38.5t13.5 -33.5t23.5 -24t34.5 -9q27 0 52 12
t48 29zM511 262q17 33 30 67.5t21 69.5h111q-14 -67 -43 -130.5t-75 -121.5l59 -150h-150l-17 50q-47 -38 -91 -51.5t-97 -13.5q-37 0 -66.5 12.5t-50 35t-31.5 54t-11 68.5q0 27 6 56q9 42 26 75.5t41 61.5t55.5 52t68.5 47q-11 29 -20.5 60t-9.5 64q0 9 1 18.5t3 19.5
q9 44 31 75t50.5 50.5t61.5 28t64 8.5q26 0 49.5 -8t41.5 -24t28.5 -38.5t10.5 -51.5q0 -8 -1 -16.5t-3 -17.5q-13 -62 -54 -108.5t-99 -78.5z" />
    <glyph glyph-name="quotesingle" unicode="'" horiz-adv-x="250" 
d="M163 468l56 271h119l-56 -271h-119z" />
    <glyph glyph-name="parenleft" unicode="(" horiz-adv-x="333" 
d="M438 768q-32 -44 -59 -90.5t-51 -104.5t-46.5 -133t-43.5 -177q-14 -69 -21.5 -126.5t-7.5 -111.5t7.5 -107.5t22.5 -115.5h-83q-32 85 -49 154t-17 143q0 87 25 205q27 130 85 244t157 220h81z" />
    <glyph glyph-name="parenright" unicode=")" horiz-adv-x="333" 
d="M12 -198q32 44 59.5 90.5t51.5 104.5t46 133t43 177q14 70 22 128t8 112t-7.5 106.5t-23.5 114.5h83q16 -43 28.5 -81t20.5 -74t12.5 -71.5t4.5 -72.5q0 -45 -6 -94t-18 -109q-27 -131 -85 -244.5t-158 -219.5h-81z" />
    <glyph glyph-name="asterisk" unicode="*" 
d="M401 413l-38 77q-2 4 -3 7t-3 8q-3 -5 -7 -9.5t-8 -9.5l-70 -74l-56 47l71 76q6 7 14 14q-5 2 -9.5 3t-9.5 3l-82 28l40 76l83 -28q4 -2 8 -3t8 -3q1 5 1.5 10t2.5 10l19 93h80l-19 -93q-2 -5 -2.5 -9t-2.5 -9q5 2 10.5 3.5t11.5 3.5l92 29l11 -78l-95 -27q-5 -2 -9.5 -3
t-9.5 -1q5 -6 10 -18l38 -75z" />
    <glyph glyph-name="plus" unicode="+" 
d="M297 492h110l-39 -188h170l-23 -110h-170l-40 -194h-110l40 194h-169l23 110h169z" />
    <glyph glyph-name="comma" unicode="," horiz-adv-x="333" 
d="M80 -101q36 4 60 32t31 69h-70l27 132h132l-27 -129q-14 -64 -54 -102t-109 -46z" />
    <glyph glyph-name="hyphen" unicode="-" horiz-adv-x="333" 
d="M101 255l23 115h238l-23 -115h-238z" />
    <glyph glyph-name="hyphen" unicode="&#xad;" horiz-adv-x="333" 
d="M101 255l23 115h238l-23 -115h-238z" />
    <glyph glyph-name="period" unicode="." horiz-adv-x="333" 
d="M101 0l27 132h132l-27 -132h-132z" />
    <glyph glyph-name="slash" unicode="/" horiz-adv-x="278" 
d="M380 750h87l-411 -844h-86z" />
    <glyph glyph-name="zero" unicode="0" 
d="M229 201q-4 -17 -6 -29.5t-2 -23.5q0 -31 13.5 -42t33.5 -11q28 0 52 21.5t34 84.5l70 337q4 16 6 28t2 23q0 31 -14.5 42.5t-35.5 11.5q-27 0 -50 -21.5t-33 -83.5zM159 538q12 60 34.5 101t54 66.5t71.5 36.5t88 11q78 0 122 -31.5t44 -108.5q0 -33 -9 -75l-70 -337
q-12 -60 -34.5 -101t-54 -66.5t-71.5 -37t-88 -11.5q-78 0 -122 32t-44 109q0 33 9 75z" />
    <glyph glyph-name="one" unicode="1" 
d="M321 520h-169l20 100q37 0 71 6t64 20.5t55 39.5t43 64h103l-155 -750h-140z" />
    <glyph glyph-name="two" unicode="2" 
d="M32 0q5 24 15.5 59.5t22.5 67.5q15 39 56 90.5t120 120.5l83 72q21 18 36.5 33t27.5 30.5t20.5 34.5t14.5 46q4 19 4 35q0 30 -14.5 42t-38.5 12q-22 0 -41.5 -8t-31.5 -29q-15 -25 -20.5 -52.5t-12.5 -53.5h-131l5 21q5 25 16 64t38 76.5t75 64.5t128 27h4
q77 -1 121.5 -39.5t44.5 -107.5q0 -11 -1.5 -22.5t-3.5 -24.5q-14 -63 -46.5 -111.5t-85.5 -93.5l-134 -114q-13 -11 -28.5 -25.5t-30 -31.5t-26 -35.5t-15.5 -37.5h261l-22 -110h-410z" />
    <glyph glyph-name="three" unicode="3" 
d="M265 456q23 2 45 2q23 0 46 9q31 14 43.5 39t18.5 53q4 16 4 32q0 52 -54 52q-22 0 -46 -11.5t-33 -47.5l-11 -53h-131q16 105 75.5 163.5t167.5 58.5q88 0 129 -36t41 -101q0 -26 -6 -56q-5 -24 -15.5 -50t-26.5 -48t-38 -37.5t-50 -19.5l-1 -2q38 -5 61 -32.5t23 -80.5
q0 -30 -9 -69q-23 -111 -87 -173.5t-180 -62.5q-52 0 -85.5 12.5t-52.5 33t-26 46.5t-7 52q0 20 3 39.5t7 36.5l9 44h131q-4 -22 -9 -46.5t-5 -46.5q0 -26 12.5 -43.5t48.5 -17.5q29 0 47 12.5t29 32.5t17 45.5t12 51.5q2 10 4 23t2 26q0 9 -1 17t-5 13q-7 11 -20 17
t-28.5 9t-32.5 3.5t-32 0.5h-7z" />
    <glyph glyph-name="four" unicode="4" 
d="M320 262l63 304h-2l-201 -304h140zM559 738l-99 -476h64l-23 -110h-64l-31 -152h-140l31 152h-243l23 110l326 476h156z" />
    <glyph glyph-name="five" unicode="5" 
d="M115 345l101 393h361l-23 -110h-253l-42 -160q31 25 57 33.5t61 8.5q43 0 71.5 -12t45 -32.5t23 -48t6.5 -58.5q0 -26 -4 -53.5t-9 -54.5q-14 -64 -34.5 -113.5t-51.5 -83.5t-74.5 -51.5t-102.5 -17.5q-96 0 -135.5 34.5t-39.5 105.5q0 44 14 111h131q-4 -18 -8 -39.5
t-4 -41.5q0 -24 10.5 -41t41.5 -19h7q28 0 46 14.5t29 37t18 50.5t13 55q12 51 12 81q0 39 -16.5 53t-44.5 14q-26 0 -50 -15.5t-32 -39.5h-124z" />
    <glyph glyph-name="six" unicode="6" 
d="M236 260q-7 -32 -12.5 -59.5t-5.5 -50.5q0 -26 10 -40.5t36 -14.5h9q27 0 43.5 12.5t26.5 34.5t16 52t14 66q4 18 8.5 39.5t4.5 40.5q0 23 -11 39t-42 16q-26 0 -42.5 -12.5t-27 -32t-17 -43.5t-10.5 -47zM135 450q19 90 44 148.5t59 93t77.5 48t99.5 13.5
q70 0 113.5 -28.5t43.5 -90.5q0 -11 -2 -23.5t-5 -26.5h-130q1 5 1.5 11t0.5 12q0 14 -8 25t-34 11h-8q-30 -2 -48.5 -18t-29 -37.5t-16 -44.5t-9.5 -40l-10 -48q10 9 21 18t25 16t32 11.5t42 4.5q69 0 100.5 -35t31.5 -104q0 -21 -2.5 -45t-8.5 -51q-15 -71 -35.5 -124
t-52 -89t-75 -54t-104.5 -18q-46 0 -77.5 10.5t-51.5 31t-29 49.5t-9 67q0 54 17 127z" />
    <glyph glyph-name="seven" unicode="7" 
d="M185 738h422l-21 -101q-68 -88 -120.5 -178.5t-95.5 -184.5q-31 -67 -57 -136t-43 -138h-144q32 119 89.5 233t124.5 225q9 15 22.5 36.5t30 44.5t34 46.5t34.5 42.5h-299z" />
    <glyph glyph-name="eight" unicode="8" 
d="M344 452q22 0 37 10.5t24.5 26t14.5 34.5t9 36q2 9 3 16.5t1 14.5q0 27 -12.5 40t-34.5 13q-20 0 -34.5 -7.5t-24 -20.5t-15.5 -30t-10 -36q-2 -11 -4 -23t-2 -23q0 -21 9.5 -36t38.5 -15zM224 208q-4 -17 -6.5 -32.5t-2.5 -28.5q0 -23 12 -37t44 -15q26 2 42 13t26 28
t15.5 38.5t10.5 45.5q5 21 8 40t3 36q0 26 -11 41t-42 15q-28 0 -44.5 -11t-26.5 -30.5t-16 -45.5t-12 -57zM230 406q-29 18 -45 40t-16 63q0 29 9 71q6 30 23 61t45 55.5t68.5 40.5t93.5 16q85 0 122 -31.5t37 -94.5q0 -29 -8 -67q-6 -30 -15 -53.5t-23.5 -42.5
t-36.5 -33.5t-53 -26.5v-2q45 -10 64 -37t19 -72q0 -17 -2.5 -37t-7.5 -43q-13 -62 -36.5 -105.5t-55.5 -70.5t-72.5 -39.5t-88.5 -12.5q-95 0 -135.5 35.5t-40.5 106.5q0 39 10 85q9 42 21 72.5t29 53.5t40.5 39t54.5 29z" />
    <glyph glyph-name="nine" unicode="9" 
d="M418 478q7 32 12.5 59.5t5.5 50.5q0 26 -10.5 40.5t-36.5 14.5h-9q-27 0 -43.5 -12.5t-26 -34.5t-16 -52t-13.5 -66q-4 -18 -8.5 -39.5t-4.5 -40.5q0 -23 11 -39t42 -16q26 0 42.5 12.5t27 32t16.5 43.5t11 47zM518 288q-18 -90 -43.5 -148.5t-59 -93t-77.5 -48
t-99 -13.5q-70 0 -113 28t-43 90q0 24 7 51h130q-1 -5 -2 -10.5t-1 -11.5q0 -14 9 -25.5t36 -11.5h6q30 0 48 15.5t28.5 37.5t16 46t9.5 41l10 48q-11 -9 -21.5 -18t-24.5 -16t-32 -11.5t-42 -4.5q-69 0 -100.5 35t-31.5 104q0 21 2.5 45t8.5 51q15 70 35.5 123.5t52 89.5
t75 54t104.5 18q91 0 128.5 -41.5t37.5 -116.5q0 -28 -4 -60t-12 -67z" />
    <glyph glyph-name="colon" unicode=":" horiz-adv-x="278" 
d="M73 0l27 132h132l-27 -132h-132zM161 424l27 132h132l-27 -132h-132z" />
    <glyph glyph-name="semicolon" unicode=";" horiz-adv-x="278" 
d="M161 424l27 132h132l-27 -132h-132zM52 -101q36 4 60 32t31 69h-70l27 132h132l-27 -129q-14 -64 -54 -102t-109 -46z" />
    <glyph glyph-name="less" unicode="&#x3c;" 
d="M477 87l-23 -111l-371 225l21 99l464 227l-23 -111l-332 -167z" />
    <glyph glyph-name="equal" unicode="=" 
d="M494 96h-449l23 110h449zM535 291h-449l23 110h449z" />
    <glyph glyph-name="greater" unicode="&#x3e;" 
d="M390 249l-262 167l23 111l370 -227l-21 -99l-463 -225l23 111z" />
    <glyph glyph-name="question" unicode="?" 
d="M301 130l-27 -130h-127l27 130h127zM166 553q17 111 80 163t160 52q76 0 118 -37t42 -103q0 -11 -1.5 -22.5t-3.5 -23.5q-6 -29 -15 -51t-22 -42t-29.5 -39t-38.5 -41q-23 -19 -43 -38t-42 -38q-29 -29 -42.5 -63t-21.5 -69h-117q3 17 8 34.5t10 34.5q10 36 25.5 62
t35.5 48t43 43.5t48 47.5q15 15 25 27.5t17 25t12 26.5t9 33q2 11 3 20t1 17q0 44 -44 44q-23 0 -37 -5t-24 -18q-16 -20 -20 -43t-12 -45h-124z" />
    <glyph glyph-name="at" unicode="@" horiz-adv-x="833" 
d="M580 370q8 26 8 48q0 29 -14 47.5t-45 18.5h-7q-24 -2 -46 -13t-40.5 -28.5t-32.5 -39.5t-20 -46q-6 -23 -6 -40q0 -31 15 -48t39 -21q5 -1 14 -1q25 0 47 12t40 30t30 39.5t18 41.5zM780 148q-72 -77 -159 -121.5t-184 -44.5q-73 0 -134 23t-104.5 64t-67.5 98.5
t-24 126.5q0 40 9 84q17 84 63 155t110.5 123.5t143 82t161.5 29.5q69 0 126.5 -19.5t100.5 -64.5q34 -35 53.5 -78.5t19.5 -95.5q0 -28 -6 -58q-13 -62 -42.5 -115t-81.5 -98q-18 -15 -43 -31t-52 -28.5t-54 -20.5t-49 -8q-14 0 -24.5 10t-10.5 27q0 11 6 26l-2 2
q-76 -61 -135 -61q-67 0 -101.5 38.5t-34.5 98.5q0 11 1.5 23t3.5 24q9 46 33 89t58.5 76t78 53t91.5 20q40 0 69.5 -14.5t45.5 -46.5l22 53h98l-117 -308q-3 -8 -3 -11q0 -11 11 -11q5 0 7 1q14 4 37.5 22.5t44.5 41.5q7 7 15.5 20t17 29t15.5 34t11 36q9 39 9 72
q0 47 -17 84t-48 62.5t-74.5 39t-97.5 13.5q-69 0 -132 -23.5t-114 -65.5t-86.5 -100t-49.5 -127q-8 -40 -8 -73q0 -57 20 -103.5t56 -78.5t86.5 -49.5t111.5 -17.5q60 0 116.5 26.5t107.5 65.5h96z" />
    <glyph glyph-name="A" unicode="A" horiz-adv-x="556" 
d="M280 300h120l6 213q0 26 3 52t5 52q2 13 3 25.5t2 24.5h-2q-4 -12 -8 -24.5t-7 -25.5q-8 -26 -16.5 -52t-19.5 -52zM9 0l334 750h189l15 -750h-150l2 190h-164l-76 -190h-150z" />
    <glyph glyph-name="B" unicode="B" horiz-adv-x="556" 
d="M323 447h13q24 0 49 3.5t44 22.5q13 14 19.5 34t12.5 47q4 19 4 37q0 24 -13.5 35.5t-48.5 13.5h-65l-41 -193h26zM257 110h31q14 0 28 1.5t27 6.5q31 13 45 44t20 60q3 16 5 29t2 24q0 32 -18.5 47t-67.5 15h-54l-48 -227h30zM65 0l155 750h226q22 0 44 -1.5t41.5 -7
t35.5 -16.5t27 -30q10 -17 13.5 -34t3.5 -36q0 -28 -8 -65q-5 -24 -13.5 -48t-22.5 -44.5t-35 -37.5t-52 -27v-2q43 -6 62 -33.5t19 -72.5q0 -28 -8 -68q-5 -23 -11.5 -46t-17.5 -46q-38 -71 -87.5 -103t-124.5 -32h-247z" />
    <glyph glyph-name="C" unicode="C" horiz-adv-x="556" 
d="M567 267q-3 -11 -6 -21.5t-6 -21.5q-13 -51 -33 -95.5t-51 -77t-74 -51t-101 -18.5t-96 12t-60.5 33.5t-32 52.5t-9.5 70q0 38 7 83t18 95l22 107q17 72 37 133t53.5 105.5t86.5 69.5t137 25q168 -3 168 -154q0 -19 -3 -40q-2 -14 -3.5 -28.5t-5.5 -28.5h-138l4.5 36
t2.5 40q0 26 -9.5 44t-38.5 18q-41 0 -66.5 -21.5t-40.5 -51.5t-22.5 -62t-11.5 -54l-43 -208q-4 -17 -7 -36.5t-3 -39.5q0 -17 3.5 -33t12 -28t23.5 -19t38 -7q29 0 47.5 20t30 48t18 57t11.5 47h141z" />
    <glyph glyph-name="D" unicode="D" horiz-adv-x="611" 
d="M295 110q47 0 76.5 13.5t49.5 46.5t34.5 87.5t31.5 135.5q11 51 17 90.5t6 68.5q0 46 -17 67t-56 21h-92l-111 -530h61zM72 0l155 750h292q13 0 30.5 -3.5t35.5 -13t34.5 -26t27.5 -42.5q12 -30 12 -76q0 -35 -6.5 -80.5t-18.5 -102.5q-12 -56 -25.5 -113.5t-35 -110
t-54 -95t-80.5 -67.5q-26 -14 -54 -17t-54 -3h-259z" />
    <glyph glyph-name="E" unicode="E" 
d="M64 0l155 750h394l-22 -110h-254l-40 -189h234l-23 -110h-234l-48 -231h254l-22 -110h-394z" />
    <glyph glyph-name="F" unicode="F" 
d="M73 0l155 750h397l-22 -110h-257l-40 -190h241l-23 -110h-241l-70 -340h-140z" />
    <glyph glyph-name="G" unicode="G" horiz-adv-x="611" 
d="M145 435q17 72 37 133t53.5 105.5t86.5 69.5t137 25q45 0 81.5 -7.5t62.5 -25.5t40.5 -49t16.5 -80v-6q0 -21 -3.5 -42.5t-7.5 -42.5h-140q3 18 5.5 34.5t2.5 31.5q0 32 -16.5 52t-64.5 22q-41 0 -66.5 -21.5t-40.5 -51.5t-22.5 -62t-11.5 -54l-43 -208q-4 -17 -7 -36.5
t-3 -39.5q0 -17 3.5 -33t12 -28t23.5 -19t38 -7q30 0 53.5 15t41 41.5t29.5 63t20 78.5h-97l23 110h233l-83 -403h-105l17 86h-2q-17 -29 -35.5 -48.5t-38 -31.5t-40 -17.5t-39.5 -6.5q-58 0 -96 12t-60.5 33.5t-32 52.5t-9.5 70q0 38 7 83t18 95z" />
    <glyph glyph-name="H" unicode="H" horiz-adv-x="611" 
d="M68 0l155 750h140l-61 -297h196l61 297h140l-155 -750h-140l71 343h-196l-71 -343h-140z" />
    <glyph glyph-name="I" unicode="I" horiz-adv-x="278" 
d="M69 0l155 750h140l-155 -750h-140z" />
    <glyph glyph-name="J" unicode="J" horiz-adv-x="444" 
d="M197 238l-19 -93q-1 -5 -1.5 -8.5t-0.5 -7.5q0 -14 8 -24t28 -10q19 0 30.5 6.5t19 17.5t11.5 25.5t7 29.5l119 576h140l-113 -547q-4 -19 -9 -41.5t-13 -45.5t-21 -45t-34 -40q-38 -33 -84 -41t-97 -8q-38 0 -73 16.5t-55 60.5q-5 13 -5 36q0 29 6 67.5t16 75.5h140z
" />
    <glyph glyph-name="K" unicode="K" horiz-adv-x="556" 
d="M68 0l155 750h140l-69 -333h2q26 45 60 91.5t66 88.5l113 153h158l-252 -322l106 -428h-158l-71 296l-66 -81l-44 -215h-140z" />
    <glyph glyph-name="L" unicode="L" 
d="M68 0l155 750h140l-133 -640h260l-22 -110h-400z" />
    <glyph glyph-name="M" unicode="M" horiz-adv-x="778" 
d="M207 0h-140l155 750h223l3 -348q0 -43 -2.5 -86t-7.5 -87h2q17 56 30 96t28 77l147 348h222l-155 -750h-140l49 236q23 112 49 223.5t56 223.5h-2l-292 -683h-85l-5 683h-5q-17 -112 -37.5 -223.5t-43.5 -223.5z" />
    <glyph glyph-name="N" unicode="N" horiz-adv-x="611" 
d="M558 750h140l-155 -750h-146l-54 267q-14 67 -23 138t-15 160h-2q-6 -47 -13.5 -102t-16.5 -112q-8 -57 -17.5 -111t-18.5 -99l-29 -141h-140l155 750h145l53 -273q13 -65 22 -136t16 -162h2q7 51 14.5 105t15.5 108t17 107t20 104z" />
    <glyph glyph-name="O" unicode="O" horiz-adv-x="611" 
d="M258 258q-4 -17 -7 -36.5t-3 -39.5q0 -17 3.5 -33t12 -28t23.5 -19t38 -7q37 0 61.5 17t39.5 43.5t23 57t14 57.5l40 192q4 20 9 47t5 54q0 18 -3.5 34.5t-12 29.5t-23 20.5t-36.5 7.5q-41 0 -66.5 -21.5t-40.5 -51.5t-22.5 -62t-11.5 -54zM151 435q17 72 37 133
t53.5 105.5t86.5 69.5t137 25q58 0 95.5 -12t59.5 -34.5t31 -54t9 -70.5q0 -35 -5.5 -76t-13.5 -86l-22 -107q-16 -75 -35 -138.5t-53 -109.5t-88.5 -72t-140.5 -26q-58 0 -96 12t-60.5 33.5t-32 52.5t-9.5 70q0 38 7 83t18 95z" />
    <glyph glyph-name="P" unicode="P" horiz-adv-x="556" 
d="M296 424h75q46 0 79 24.5t47 92.5q2 12 3.5 22t1.5 18q0 38 -24.5 48.5t-72.5 10.5h-64zM68 0l155 750h286q39 0 65.5 -11.5t43 -31t23.5 -45.5t7 -55q0 -33 -8 -70q-10 -48 -35 -97t-72 -81q-37 -26 -78.5 -35.5t-80.5 -9.5h-7h-94l-65 -314h-140z" />
    <glyph glyph-name="Q" unicode="Q" horiz-adv-x="611" 
d="M430 190l6 -7q7 17 13 37t10 38l44 208q4 20 10 47.5t6 55.5q0 17 -3.5 32.5t-12 27.5t-23.5 19t-38 7q-41 0 -66.5 -21.5t-40.5 -51.5t-22.5 -62t-11.5 -54l-43 -208q-4 -17 -7 -36.5t-3 -39.5q0 -17 3.5 -33t12 -28t23.5 -19t38 -7q20 0 37 5l-21 26zM501 -71l-62 76
q-29 -13 -61 -18t-76 -5q-58 0 -96 12t-60.5 33.5t-32 52.5t-9.5 70q0 38 7 83t18 95l22 107q17 72 37 133t53.5 105.5t86.5 69.5t137 25q58 0 95.5 -12t59.5 -34.5t31 -54t9 -70.5q0 -35 -5.5 -76t-13.5 -86l-22 -107q-8 -36 -16.5 -72.5t-20 -70t-26 -62.5t-32.5 -51
l61 -77z" />
    <glyph glyph-name="R" unicode="R" horiz-adv-x="611" 
d="M296 433h110q34 2 63 27t41 81q5 25 5 40q0 37 -20 47.5t-52 11.5h-104zM273 323l-67 -323h-140l155 750h265q39 0 72.5 -6.5t58 -21.5t38 -39.5t13.5 -61.5q0 -23 -6 -51q-6 -31 -17.5 -61t-29.5 -55t-44 -42.5t-62 -22.5v-2q48 -7 66.5 -30.5t18.5 -59.5
q0 -11 -1.5 -22.5t-3.5 -23.5l-7 -31.5t-10 -51t-9 -58.5t-4 -54q0 -33 10 -42l-2 -14h-154q-1 5 -1.5 11t-0.5 12q0 19 3 41.5t7 45t8.5 43.5t7.5 37t6 33.5t3 34.5q0 20 -6.5 34.5t-24.5 20.5q-23 7 -47.5 8.5t-50.5 1.5h-19h-25z" />
    <glyph glyph-name="S" unicode="S" horiz-adv-x="556" 
d="M462 522q4 18 7 35.5t3 33.5q0 28 -13.5 46t-50.5 18q-35 0 -59.5 -16t-32.5 -54q-3 -12 -3 -23q0 -31 18.5 -48.5t42.5 -35.5q15 -11 35 -26t40.5 -32t38.5 -34t30 -31q20 -24 28.5 -48.5t8.5 -52.5q0 -25 -6 -56q-11 -53 -36.5 -93.5t-61.5 -67.5t-81.5 -41t-96.5 -14
t-87 11t-58.5 31.5t-33 49.5t-10.5 65q0 31 8 71l12 55h140l-10 -44q-8 -32 -8 -55q0 -32 16 -51.5t54 -19.5q87 0 106 88q3 13 3 25q0 23 -10 41t-29 33q-23 21 -49 40.5t-51 39.5t-47 42.5t-38 50.5q-16 33 -16 75q0 10 1 20t3 20q20 97 84.5 147.5t176.5 50.5
q55 0 90 -13t55 -34t27 -48t7 -54q0 -28 -4 -53t-8 -44h-135z" />
    <glyph glyph-name="T" unicode="T" 
d="M172 750h467l-22 -110h-163l-133 -640h-140l133 640h-164z" />
    <glyph glyph-name="U" unicode="U" horiz-adv-x="611" 
d="M559 750h140l-108 -523q-13 -62 -34 -108t-54.5 -76.5t-82 -45.5t-117.5 -15q-109 0 -154.5 37t-45.5 113q0 41 12 95l108 523h140l-106 -511q-4 -19 -7 -36.5t-3 -34.5q0 -32 16.5 -52.5t63.5 -20.5q34 0 56 12.5t35.5 32.5t21 46t13.5 53z" />
    <glyph glyph-name="V" unicode="V" horiz-adv-x="556" 
d="M541 750h150l-317 -750h-187l-11 750h150l-12 -481q0 -32 -2.5 -64t-6.5 -64q-2 -15 -3 -30.5t-4 -31.5h2q3 16 8.5 31.5t10.5 30.5q10 32 20.5 64t22.5 64z" />
    <glyph glyph-name="W" unicode="W" horiz-adv-x="833" 
d="M625 362q-2 -57 -9.5 -126t-15.5 -141h2q5 14 8.5 27t7.5 27q14 48 29 96t32 96l141 409h145l-294 -750h-168l5 296q1 60 8 119.5t12 119.5h-2q-20 -60 -38.5 -119.5t-41.5 -119.5l-111 -296h-168l12 750h145l-22 -409q-2 -48 -7 -96t-12 -96q-1 -14 -3 -27t-4 -27h2
q23 72 44 141t44 126l148 388h116z" />
    <glyph glyph-name="X" unicode="X" horiz-adv-x="556" 
d="M545 0h-160l-42 183q-5 20 -7.5 41.5t-2.5 43.5v10h-2q-12 -38 -33 -72t-44 -68l-90 -138h-153l263 380l-101 370h157l41 -170q4 -17 7 -34t3 -34v-13q0 -6 -2 -13h3q11 37 32 70.5t42 66.5l80 127h158l-256 -370z" />
    <glyph glyph-name="Y" unicode="Y" horiz-adv-x="556" 
d="M358 553q5 -23 8 -46.5t3 -48.5q0 -5 -0.5 -10t-0.5 -10h2q17 44 36 77t39 65l102 170h153l-287 -431l-66 -319h-140l66 319l-106 431h153z" />
    <glyph glyph-name="Z" unicode="Z" 
d="M56 112l337 465q13 17 25 33.5t28 32.5q-14 -2 -27 -2.5t-27 -0.5h-210l22 110h410l-23 -112l-338 -465q-12 -17 -24 -33.5t-28 -32.5q14 2 27 2.5t27 0.5h235l-22 -110h-435z" />
    <glyph glyph-name="bracketleft" unicode="[" horiz-adv-x="333" 
d="M61 -94l175 844h199l-15 -76h-89l-144 -692h89l-16 -76h-199z" />
    <glyph glyph-name="backslash" unicode="\" horiz-adv-x="250" 
d="M267 -94h-87l-61 844h87z" />
    <glyph glyph-name="bracketright" unicode="]" horiz-adv-x="333" 
d="M407 750l-175 -844h-199l16 76h89l144 692h-89l15 76h199z" />
    <glyph glyph-name="asciicircum" unicode="^" 
d="M87 373l258 377h120l102 -377l-114 -47l-78 279l-194 -279z" />
    <glyph glyph-name="underscore" unicode="_" 
d="M-25 -125l10 50h499l-10 -50h-499z" />
    <glyph glyph-name="grave" unicode="`" horiz-adv-x="333" 
d="M317 775l63 -146h-101l-117 146h155z" />
    <glyph glyph-name="a" unicode="a" 
d="M360 297q-27 -17 -58.5 -34t-61.5 -38q-17 -12 -24.5 -31t-11.5 -37q-3 -15 -3 -28q0 -20 10.5 -32t38.5 -12q29 0 45.5 16t26.5 39t15 49.5t11 46.5zM317 0q-3 10 -3 21q0 9 2 18t5 19h-2q-15 -17 -31 -31t-33 -23q-33 -19 -66 -19q-123 0 -123 106q0 14 2 29.5t6 33.5
q10 48 32 80t53.5 53.5t69.5 37t80 31.5q44 17 63.5 37.5t19.5 53.5v3q-1 19 -15 24t-40 5q-44 0 -61 -22t-24 -60h-124q8 40 22.5 73.5t41.5 57.5t68.5 37.5t102.5 13.5q48 0 79 -8.5t49 -23t25 -33.5t7 -40q0 -15 -2.5 -31t-6.5 -31l-69 -333q-6 -29 -6 -55v-12t1 -12
h-123z" />
    <glyph glyph-name="b" unicode="b" 
d="M232 185q-3 -12 -4 -23t-1 -20q0 -57 47 -57q30 0 48 28t29 69l39 188q2 18 5 35t3 31q0 20 -9 31.5t-35 11.5q-23 0 -38.5 -13t-25.5 -32.5t-15 -41t-8 -38.5zM219 750h130l-37 -180q-3 -14 -7 -28.5t-9 -34.5h2q27 40 57 56t70 16h4q24 -1 43 -6.5t32.5 -18.5
t20.5 -34.5t7 -52.5q0 -38 -10 -88l-42 -204q-8 -34 -21 -68t-33.5 -61t-50 -44t-70.5 -17q-40 2 -65 17.5t-38 57.5h-2l-12 -60h-124z" />
    <glyph glyph-name="c" unicode="c" horiz-adv-x="444" 
d="M349 368l13 63q1 5 1 13q0 35 -36 35q-19 0 -31 -10t-20.5 -27t-13.5 -40t-10 -49l-28 -133q-15 -63 -15 -91q0 -24 9.5 -33t26.5 -11q15 0 24.5 7t16.5 18t11.5 26t9.5 32l11 52h130l-11 -52q-18 -89 -68.5 -136t-147.5 -47q-69 0 -106 30t-37 98q0 18 2.5 39t8.5 44
l38 183q12 59 33.5 98t50 61.5t63 31.5t71.5 9q40 0 68.5 -10t46 -26.5t25.5 -39t8 -47.5q0 -11 -1.5 -21.5t-3.5 -21.5l-9 -45h-130z" />
    <glyph glyph-name="d" unicode="d" 
d="M376 354q4 14 7 32t3 35q0 23 -9.5 40.5t-35.5 17.5q-23 0 -36.5 -9t-21.5 -24.5t-13 -35t-11 -40.5l-39 -188q-3 -21 -3 -38q0 -26 8.5 -42.5t31.5 -16.5q62 0 84 100zM315 60h-2q-28 -43 -58.5 -58t-69.5 -17q-30 0 -50 9.5t-32 25.5t-16.5 37.5t-4.5 45.5q0 17 2 35.5
t5 36.5l42 204q13 58 31 96.5t40 61t48.5 32t58.5 10.5h4q39 0 62.5 -16t34.5 -56h2q0 13 2 25t4 25l40 193h130l-155 -750h-130z" />
    <glyph glyph-name="e" unicode="e" 
d="M386 355l10 49q4 17 4 33q0 23 -13 32.5t-43 9.5q-24 0 -38.5 -8.5t-23 -23t-13 -32.5t-8.5 -37l-5 -23h130zM129 370q17 100 77 154.5t157 54.5q48 0 79.5 -8.5t50 -24.5t26.5 -40t8 -54q0 -26 -4 -56t-12 -65l-15 -76h-260l-18 -82q-4 -19 -4 -36q0 -32 15 -42t39 -10
q36 0 54 26t28 80h130q-16 -95 -69.5 -150.5t-153.5 -55.5q-88 0 -129.5 33.5t-41.5 107.5q0 21 3.5 44.5t9.5 51.5z" />
    <glyph glyph-name="f" unicode="f" horiz-adv-x="278" 
d="M118 469l20 95h50l11 56q8 38 21.5 63t33 40t46.5 21t63 6h49l-21 -104q-8 2 -15 4t-13 2q-27 0 -32 -22l-13 -66h56l-20 -95h-56l-97 -469h-130l97 469h-50z" />
    <glyph glyph-name="g" unicode="g" 
d="M376 354q4 14 7 32t3 35q0 23 -9.5 40.5t-35.5 17.5q-23 0 -36.5 -9t-21.5 -24.5t-13 -35t-11 -40.5l-39 -188q-3 -21 -3 -38q0 -26 8.5 -42.5t31.5 -16.5q62 0 84 100l35 169v0zM175 -63q0 -2 -0.5 -3t-0.5 -3q0 -13 11 -19q7 -5 17 -6.5t22 -1.5q21 0 35 7.5t23.5 20
t15.5 28t9 32.5l13 65l-1 2q-28 -41 -60 -56.5t-75 -17.5q-30 0 -49.5 9.5t-31.5 25t-16.5 36.5t-4.5 45q0 18 2 36.5t5 36.5l42 204q13 58 30.5 96.5t39.5 61.5t48.5 32.5t58.5 10.5h4q43 0 65.5 -17.5t28.5 -55.5h2l12 58h130l-114 -547q-9 -43 -24.5 -81t-44 -66t-73 -44
t-111.5 -16q-30 0 -55 5.5t-44 18t-29.5 32.5t-10.5 49v11q0 5 1 11h130z" />
    <glyph glyph-name="h" unicode="h" 
d="M61 0l155 750h130l-50 -244h2q19 25 38 39.5t36.5 22t32 9.5t25.5 2q46 0 76 -22.5t30 -73.5q0 -21 -6 -48l-90 -435h-130l80 386q6 28 6 49q0 20 -9 31.5t-33 12.5h-3q-35 0 -55 -29.5t-28 -74.5l-77 -375h-130z" />
    <glyph glyph-name="i" unicode="i" horiz-adv-x="278" 
d="M205 632l24 118h130l-24 -118h-130zM74 0l117 564h130l-117 -564h-130z" />
    <glyph glyph-name="j" unicode="j" horiz-adv-x="278" 
d="M210 632l24 118h130l-24 -118h-130zM12 -90h11q17 0 28 6t15 24l130 624h130l-118 -567q-5 -22 -9.5 -48.5t-13.5 -51.5t-25 -46t-42 -32q-24 -11 -82 -11q-11 0 -21.5 0.5t-22.5 1.5z" />
    <glyph glyph-name="k" unicode="k" horiz-adv-x="444" 
d="M48 0l155 750h130l-70 -339q-4 -18 -8 -35.5t-9 -35.5h2l170 224h142l-189 -227l68 -337h-145l-34 230l-47 -58l-35 -172h-130z" />
    <glyph glyph-name="l" unicode="l" horiz-adv-x="278" 
d="M74 0l155 750h130l-155 -750h-130z" />
    <glyph glyph-name="m" unicode="m" horiz-adv-x="778" 
d="M301 506h2q16 23 33.5 37t35.5 22t36 10.5t34 3.5h3q17 0 35 -4t33 -12t24.5 -21.5t9.5 -31.5v-4h2q26 37 61.5 55t83.5 18q31 0 53 -7.5t36 -20.5t20.5 -30.5t6.5 -36.5q0 -13 -3 -25l-95 -459h-130l79 381q2 14 4 27t2 24q0 20 -8.5 33.5t-34.5 13.5h-5
q-43 -2 -60.5 -30t-27.5 -78l-77 -371h-130l80 388q3 13 5 24t2 22q0 20 -10.5 32.5t-39.5 12.5h-2q-23 0 -37.5 -8.5t-23.5 -22.5t-14.5 -34t-10.5 -43l-77 -371h-130l117 564h130z" />
    <glyph glyph-name="n" unicode="n" 
d="M296 506h2q16 24 34 38.5t36 22t34.5 10t27.5 2.5q46 0 76 -22.5t30 -73.5q0 -21 -6 -48l-90 -435h-130l78 376q6 28 6 49q0 20 -9 31.5t-33 12.5h-3q-35 0 -55 -29.5t-28 -74.5l-75 -365h-130l117 564h130z" />
    <glyph glyph-name="o" unicode="o" 
d="M221 184q-4 -17 -6 -31t-2 -25q0 -23 12 -33t44 -10q22 0 36.5 6t23.5 18t14.5 30.5t11.5 44.5l39 188q3 15 5.5 30t2.5 28q0 21 -10.5 35t-40.5 14q-26 0 -42 -9.5t-25.5 -24.5t-14.5 -34t-9 -39zM239 -15q-85 0 -118.5 31.5t-33.5 98.5q0 56 20 147q15 72 31 131
t43.5 100t72 63.5t118.5 22.5q45 0 75 -9t48 -25.5t25.5 -41.5t7.5 -56q0 -38 -8 -84.5t-19 -100.5q-15 -72 -32 -124.5t-44 -86.5t-67.5 -50t-100.5 -16h-9h-9z" />
    <glyph glyph-name="p" unicode="p" 
d="M226 185q-3 -12 -4 -23t-1 -20q0 -57 47 -57q30 0 48 28t29 69l39 188q2 18 5 35t3 31q0 20 -9 31.5t-35 11.5q-23 0 -38.5 -13t-25.5 -32.5t-15 -41t-8 -38.5zM292 505h2q26 41 56 57.5t69 16.5h4q49 -2 76 -26t27 -88q0 -18 -2.5 -40t-7.5 -48l-43 -204
q-8 -34 -20.5 -67.5t-33 -60.5t-50 -43.5t-70.5 -16.5q-38 2 -63 16t-40 57h-2l-52 -247h-124l157 753h130z" />
    <glyph glyph-name="q" unicode="q" 
d="M373 354q4 14 7 32t3 35q0 23 -9.5 40.5t-35.5 17.5q-23 0 -36.5 -9t-21.5 -24.5t-13 -35t-11 -40.5l-39 -188q-3 -21 -3 -38q0 -26 8.5 -42.5t31.5 -16.5q62 0 84 100zM390 -188h-130l52 248h-2q-28 -42 -58.5 -57.5t-70.5 -17.5q-30 0 -49.5 9.5t-31.5 25t-16.5 37
t-4.5 45.5q0 18 2 36.5t5 36.5l42 204q13 58 30.5 96.5t39.5 61t48.5 32t58.5 10.5h4q38 0 61 -15.5t33 -56.5h2l12 57h130z" />
    <glyph glyph-name="r" unicode="r" horiz-adv-x="333" 
d="M281 464h2q18 31 34.5 49.5t33.5 30.5q32 23 52.5 26t34.5 4l-32 -154q-7 1 -13 1h-13q-45 0 -77.5 -20.5t-45.5 -74.5l-67 -326h-130l117 564h125z" />
    <glyph glyph-name="s" unicode="s" horiz-adv-x="444" 
d="M197 186q-6 -20 -8.5 -35t-2.5 -26q0 -29 14.5 -34.5t30.5 -5.5h5q27 0 47 17t20 43v3q0 2 0.5 3t0.5 3q0 21 -18 35t-33 26l-61 49q-34 28 -54 60t-20 77q0 22 4 41q14 66 71.5 101.5t151.5 35.5q77 0 113.5 -31.5t36.5 -91.5q0 -27 -8 -64h-130q3 13 5 23.5t2 19.5
q0 44 -49 44q-23 0 -41 -11t-23 -35q-1 -4 -1 -12q0 -19 11 -30.5t25 -22.5l91 -72q10 -7 22 -19t21.5 -26.5t16 -30.5t6.5 -30v-5q-3 -37 -15 -72.5t-38.5 -64t-70.5 -46t-111 -17.5q-22 0 -48.5 5t-50 18.5t-39 38.5t-15.5 65q0 32 12 74h130z" />
    <glyph glyph-name="t" unicode="t" horiz-adv-x="278" 
d="M251 -2q-16 -2 -33 -3.5t-34 -1.5q-20 0 -38.5 3t-32.5 11t-22.5 21t-8.5 34q0 11 3 25l79 382h-53l20 95h52l32 155h131l-32 -155h55l-20 -95h-55l-73 -350v-2q0 -11 10 -14.5t22 -3.5h10t9 1z" />
    <glyph glyph-name="u" unicode="u" 
d="M324 84h-2q-26 -51 -60 -74.5t-82 -24.5q-58 0 -80.5 21.5t-22.5 62.5q0 25 8 63l90 432h130l-80 -386q-3 -12 -5.5 -24.5t-2.5 -24.5q0 -16 5 -26q12 -18 36 -18q23 0 37.5 11.5t24 28.5t14.5 36.5t8 36.5l76 366h130l-117 -564h-124z" />
    <glyph glyph-name="v" unicode="v" horiz-adv-x="444" 
d="M127 564h140l-11 -316q0 -19 -2 -44t-5 -49t-6 -44t-4 -30h2q3 10 8.5 30t12.5 44t15.5 49t16.5 44l122 316h135l-247 -564h-162z" />
    <glyph glyph-name="w" unicode="w" horiz-adv-x="667" 
d="M489 218q-1 -30 -4 -60t-8 -61h3q2 9 7 27.5t11 38t11 36.5t8 23l114 342h131l-231 -564h-142l4 228q1 35 4 70.5t8 71.5h-4q-8 -34 -18 -67.5t-22 -66.5l-89 -236h-145l1 564h137l-26 -344q0 -6 -1.5 -23t-4 -36.5t-5 -38t-4.5 -27.5h2q8 31 17.5 61t20.5 60l127 348
h107z" />
    <glyph glyph-name="x" unicode="x" horiz-adv-x="444" 
d="M132 564h153l22 -102q1 -13 2 -25.5t1 -25.5h2q6 14 12.5 26.5t14.5 26.5l67 100h144l-198 -273l84 -291h-146l-21 91q-4 17 -6.5 34t-2.5 34q0 4 0.5 7.5t0.5 7.5h-2q-9 -24 -21.5 -46t-26.5 -44l-54 -84h-149l208 288z" />
    <glyph glyph-name="y" unicode="y" horiz-adv-x="444" 
d="M259 564l-5 -299q-2 -38 -5 -75t-8 -75h2q23 76 51 146l120 303h132l-256 -572q-20 -42 -35.5 -76.5t-35.5 -59t-49 -38t-74 -13.5q-14 0 -28.5 1.5t-31.5 3.5l21 101q6 0 15 -1t19 -1q16 0 30.5 5t17.5 22q2 10 3 23t1 26q0 6 -0.5 12t-0.5 11l-20 556h137z" />
    <glyph glyph-name="z" unicode="z" horiz-adv-x="389" 
d="M181 100h206l-20 -100h-344l21 102l273 362h-194l21 100h340l-20 -93z" />
    <glyph glyph-name="braceleft" unicode="{" horiz-adv-x="274" 
d="M171 620q14 66 47.5 98t102.5 32h74v-2q-49 -11 -69 -39.5t-29 -70.5l-38 -184q-11 -53 -33 -84t-75 -42l-1 -2q35 -5 48.5 -26t13.5 -50q0 -14 -2.5 -29t-5.5 -30l-36 -172q-4 -17 -4 -37q0 -25 12 -44t45 -28l-1 -2h-65q-61 0 -85 21t-24 64q0 25 8 63l34 162
q5 23 5 38q0 26 -13 43.5t-45 25.5v2q22 3 39 13t29 25t19 33.5t11 37.5z" />
    <glyph glyph-name="bar" unicode="|" horiz-adv-x="250" 
d="M330 750l-207 -1000h-100l207 1000h100z" />
    <glyph glyph-name="braceright" unicode="}" horiz-adv-x="274" 
d="M321 435q-2 -10 -3 -19.5t-1 -18.5q0 -27 12 -46.5t44 -24.5v-2q-26 -3 -42.5 -12t-27.5 -23t-17.5 -32.5t-10.5 -40.5l-33 -162q-8 -38 -19 -65.5t-29 -46t-45 -27.5t-67 -9h-68v2q47 10 68 38.5t30 71.5l36 171q5 25 12 46.5t19 38.5t31 29.5t48 20.5v2
q-35 8 -48.5 26.5t-13.5 47.5q0 23 6 52l39 185q5 23 5 40q0 28 -13 46t-44 24v3h68q57 -1 82.5 -19.5t25.5 -62.5q0 -22 -6 -50z" />
    <glyph glyph-name="asciitilde" unicode="~" 
d="M534 286q-16 -20 -32.5 -41t-35 -38t-39.5 -27.5t-46 -10.5q-23 0 -48 10.5t-49 22.5t-44 22.5t-32 10.5q-15 0 -28.5 -8t-24.5 -20t-21.5 -26.5t-19.5 -27.5l-41 74q15 21 32.5 43t37 40t42 29.5t46.5 11.5t48.5 -10.5t47 -22.5t42.5 -22.5t36 -10.5q14 0 26 7.5
t22.5 18.5t20 24t18.5 24z" />
    <glyph glyph-name="Euro" 
d="M468 22q-31 -19 -67.5 -28t-72.5 -9q-57 0 -96 19t-63.5 52t-35.5 77t-11 95q0 27 3 54h-62l23 52h46l5 26q2 11 5 22.5t6 22.5h-59l24 52h51q20 61 50 115t70.5 94.5t92 63.5t115.5 23q45 0 84 -13.5t65 -40.5l-58 -129q-10 16 -20 29t-22 22t-27.5 13.5t-36.5 4.5
q-35 0 -62.5 -16.5t-48.5 -42.5t-36.5 -58.5t-25.5 -64.5h229l-23 -52h-221q-6 -20 -9 -38q-2 -8 -3.5 -16.5t-2.5 -16.5h204l-24 -52h-186q-1 -8 -1 -17v-16q0 -29 4.5 -56t15 -48t28.5 -34t46 -13q41 0 72 12t63 44z" />
    <glyph glyph-name="Euro" unicode="&#x20ac;" 
d="M468 22q-31 -19 -67.5 -28t-72.5 -9q-57 0 -96 19t-63.5 52t-35.5 77t-11 95q0 27 3 54h-62l23 52h46l5 26q2 11 5 22.5t6 22.5h-59l24 52h51q20 61 50 115t70.5 94.5t92 63.5t115.5 23q45 0 84 -13.5t65 -40.5l-58 -129q-10 16 -20 29t-22 22t-27.5 13.5t-36.5 4.5
q-35 0 -62.5 -16.5t-48.5 -42.5t-36.5 -58.5t-25.5 -64.5h229l-23 -52h-221q-6 -20 -9 -38q-2 -8 -3.5 -16.5t-2.5 -16.5h204l-24 -52h-186q-1 -8 -1 -17v-16q0 -29 4.5 -56t15 -48t28.5 -34t46 -13q41 0 72 12t63 44z" />
    <glyph glyph-name="exclamdown" unicode="&#xa1;" horiz-adv-x="333" 
d="M222 579h130l-28 -132h-130zM66 -170l44 210q8 44 18.5 86.5t23.5 86.5t26.5 87t24.5 86h88q-8 -43 -13 -86t-10 -87t-11.5 -86.5t-16.5 -86.5l-44 -210h-130z" />
    <glyph glyph-name="cent" unicode="&#xa2;" 
d="M222 137h2l125 332l-9 1q-19 0 -31 -9.5t-20 -26.5t-13.5 -39.5t-10.5 -48.5zM473 218q-4 -21 -9.5 -41.5t-10.5 -39.5q-22 -72 -74.5 -113.5t-119.5 -41.5q-11 0 -21.5 1t-21.5 3l-43 -108h-69l50 126q-26 15 -39.5 41.5t-13.5 67.5q0 32 11 81l38 183q11 55 33.5 93.5
t50.5 63t59 36t59 11.5q21 0 39 -6l37 96h70l-44 -110q35 -17 49.5 -45t14.5 -62q0 -11 -1.5 -21.5t-3.5 -21.5l-9 -45h-130l16 79h-3l-132 -343q6 -9 21 -9q12 0 28 7q11 11 16.5 28t11.5 38l11 52h130z" />
    <glyph glyph-name="sterling" unicode="&#xa3;" 
d="M107 337l12 59h63q-19 44 -19 99q0 17 1.5 33.5t5.5 33.5q10 51 35.5 89.5t61 64.5t79.5 39t91 13q56 0 98 -22t59 -73q6 -20 6 -42q0 -24 -5 -49l-10 -50h-128q4 18 7 35.5t3 33.5q0 25 -13 41t-50 16q-24 0 -42 -8.5t-30.5 -23t-20.5 -34t-12 -40.5q-3 -17 -3 -36
q0 -31 6 -63t11 -57h146l-12 -59h-124q1 -5 1 -16q0 -20 -5 -43q-6 -30 -22 -57.5t-37.5 -52t-47.5 -45t-53 -35.5l2 -2q32 16 55 23.5t49 7.5h7q28 0 59.5 -7.5t49.5 -10.5q3 -1 6 -1h7q22 0 45.5 9t46.5 23l5 -109q-29 -17 -66 -26.5t-68 -9.5q-36 0 -65.5 9t-59.5 16
q-25 7 -51 7t-52.5 -7.5t-61.5 -24.5l-16 94q56 28 93.5 79t49.5 109q2 9 3 18t1 18q0 16 -5 34h-86z" />
    <glyph glyph-name="currency" unicode="&#xa4;" 
d="M342 437q-25 0 -48.5 -10.5t-43 -28.5t-33.5 -41t-19 -47q-3 -14 -3 -26q0 -21 6.5 -39.5t19 -32.5t30 -22.5t38.5 -8.5q25 0 48.5 11t43 29t33.5 41.5t19 47.5q3 13 3 26q0 42 -25 71.5t-69 29.5zM88 181q-7 20 -10.5 38t-3.5 38q0 23 6 52q8 37 22.5 67.5t39.5 61.5
l-34 42l93 80l33 -43q31 17 65.5 27.5t65.5 10.5q33 0 63.5 -10t55.5 -28l52 43l55 -80l-49 -42q7 -19 11 -38t4 -39q0 -24 -6 -51q-7 -34 -22.5 -67.5t-40.5 -61.5l32 -44l-88 -79l-35 43q-32 -17 -64.5 -27.5t-65.5 -10.5q-70 0 -120 38l-50 -43l-60 79z" />
    <glyph glyph-name="yen" unicode="&#xa5;" 
d="M386 319l-13 -60h108l-10 -50h-108l-13 -61h108l-10 -50h-108l-20 -98h-140l20 98h-112l10 50h112l13 61h-112l10 50h112l13 60l-109 431h156l38 -197q5 -25 8 -50.5t3 -52.5v-12h2q11 30 25.5 58.5t31.5 56.5l120 197h152z" />
    <glyph glyph-name="brokenbar" unicode="&#xa6;" horiz-adv-x="250" 
d="M242 325h-100l73 350h100zM111 175h100l-73 -350h-100z" />
    <glyph glyph-name="section" unicode="&#xa7;" 
d="M276 413q-8 -3 -17 -9.5t-17.5 -16t-14 -21.5t-5.5 -26q0 -7 1 -10q2 -12 7 -22t14 -18l102 -100q18 9 32.5 26t18.5 37q1 5 1 13q0 17 -8 29.5t-19 24.5zM181 12q-2 -11 -3.5 -21t-1.5 -19q0 -24 12.5 -38.5t46.5 -14.5q22 0 41 14t28 35q6 15 6 28q0 23 -13.5 42
t-29.5 33l-99 93q-32 30 -50 56t-18 66q0 21 6 50q9 44 38.5 82.5t78.5 62.5q-17 14 -24.5 32t-7.5 41q0 22 6 52q6 29 23.5 58t45.5 52t67 37.5t88 14.5q68 0 108 -31.5t40 -91.5q0 -23 -8 -53h-123q5 17 5 29q0 22 -13 34.5t-40 12.5q-23 0 -43 -13t-26 -42q-1 -5 -1.5 -9
t-0.5 -9q0 -19 9 -32.5t23 -26.5l114 -108q28 -25 43.5 -52t15.5 -63q0 -9 -1.5 -19t-3.5 -21q-9 -45 -39 -84t-74 -63q15 -13 23.5 -41t8.5 -58q0 -19 -3 -35q-8 -39 -31.5 -71t-56 -55.5t-70.5 -36t-75 -12.5q-78 0 -113.5 34.5t-40.5 88.5v10q0 16 3 31t5 31h125z" />
    <glyph glyph-name="dieresis" unicode="&#xa8;" horiz-adv-x="333" 
d="M138 644l24 115h127l-24 -115h-127zM333 644l24 115h128l-24 -115h-128z" />
    <glyph glyph-name="copyright" unicode="&#xa9;" horiz-adv-x="830" 
d="M679 306q-12 -36 -34 -64t-51 -48t-63 -30.5t-68 -10.5q-42 0 -74.5 13t-55 35.5t-34 54t-11.5 69.5q0 26 6 55q10 49 33.5 90.5t57.5 71.5t77 47t93 17q71 0 113.5 -38t42.5 -107v-4h-89v2q0 36 -22.5 55.5t-59.5 19.5q-32 0 -58 -13t-46.5 -34t-34 -48.5t-19.5 -56.5
q-4 -17 -4 -39q0 -23 6 -44.5t18.5 -38t31 -26t44.5 -9.5q18 0 36 6t33 16.5t26.5 25.5t16.5 33h89zM427 57q65 0 128 25t115.5 68.5t90 102t51.5 124.5q3 17 5 32.5t2 31.5q0 54 -19 100.5t-53.5 80t-82 53t-104.5 19.5q-66 0 -129.5 -25t-116 -68t-90 -100.5t-50.5 -123.5
q-7 -32 -7 -66q0 -54 19 -100.5t53.5 -80.5t82 -53.5t105.5 -19.5zM575 768q71 0 129.5 -23.5t100.5 -65t65.5 -98.5t23.5 -124q0 -20 -1.5 -39.5t-6.5 -40.5q-17 -82 -63 -154t-110 -125.5t-142 -84.5t-159 -31q-71 0 -130 23.5t-101.5 65.5t-66 99.5t-23.5 124.5
q0 40 9 82q17 81 62.5 152.5t110 124.5t142.5 83.5t160 30.5z" />
    <glyph glyph-name="ordfeminine" unicode="&#xaa;" horiz-adv-x="300" 
d="M313 599q-27 -15 -44.5 -23.5t-28.5 -16.5t-17 -17.5t-9 -26.5q-1 -5 -1.5 -9.5t-0.5 -8.5q0 -12 7 -19t24 -7q19 0 30 9.5t17 24t9 30t6 27.5zM162 659q4 24 13.5 44t26.5 34.5t43.5 22.5t66.5 8q32 0 52.5 -5.5t32 -14.5t16 -20.5t4.5 -24.5q0 -17 -5 -35l-41 -200
q-4 -15 -4 -32q0 -10 1 -15h-80q-2 4 -2 12q0 5 1 11t3 11h-2q-14 -19 -37 -31t-46 -12q-81 0 -81 66q0 8 1 16.5t3 18.5q6 29 20 48t34 32t44.5 22.5t51.5 18.5q29 11 41.5 23t12.5 32v2q-1 21 -35 21q-29 0 -39.5 -15t-15.5 -38h-80z" />
    <glyph glyph-name="guillemotleft" unicode="&#xab;" 
d="M116 204l21 102l186 141l-23 -112l-110 -79l77 -81l-24 -113zM302 204l21 102l188 141l-23 -112l-112 -79l79 -81l-24 -113z" />
    <glyph glyph-name="logicalnot" unicode="&#xac;" 
d="M425 291h-339l23 110h449l-62 -296h-110z" />
    <glyph glyph-name="registered" unicode="&#xae;" horiz-adv-x="830" 
d="M544 404h6q33 0 56.5 12.5t31.5 51.5q1 4 1 12q0 16 -9 25t-22.5 13t-29.5 4.5t-30 0.5h-103l-25 -119h124zM644 161h-97l-57 180h-83l-37 -180h-83l88 425h205q27 0 58.5 -3t52.5 -18q17 -13 24 -31.5t7 -39.5q0 -9 -1 -19t-3 -20q-12 -58 -47.5 -84t-92.5 -30zM427 56
q66 0 129 25t115.5 68.5t89.5 101.5t51 125q7 31 7 65q0 54 -19 100.5t-53 80.5t-81.5 53t-105.5 19q-66 0 -129.5 -25t-116 -68t-90 -101t-50.5 -124q-7 -32 -7 -66q0 -55 19 -101.5t53.5 -80.5t82 -53t105.5 -19zM412 -18q-71 0 -130 23.5t-101.5 65.5t-66 99t-23.5 124
q0 40 9 82q17 81 62.5 152.5t110 124.5t142.5 84t160 31q71 0 129.5 -23.5t100.5 -65.5t65.5 -99t23.5 -124q0 -20 -1.5 -40t-6.5 -40q-17 -82 -63 -153.5t-110.5 -125t-142 -84.5t-158.5 -31z" />
    <glyph glyph-name="macron" unicode="&#xaf;" horiz-adv-x="333" 
d="M132 666l15 74h346l-15 -74h-346z" />
    <glyph glyph-name="macron" unicode="&#x2c9;" horiz-adv-x="333" 
d="M132 666l15 74h346l-15 -74h-346z" />
    <glyph glyph-name="degree" unicode="&#xb0;" horiz-adv-x="400" 
d="M253 600q-1 -5 -1 -15q0 -25 16 -40.5t42 -15.5q29 0 54 20.5t31 50.5q2 10 2 15q0 24 -16 40t-42 16q-15 0 -29 -5.5t-26 -15.5t-20 -22.5t-11 -27.5zM474 600q-6 -31 -23.5 -58.5t-42.5 -47.5t-54.5 -32t-60.5 -12q-55 0 -88.5 34t-33.5 85q0 16 3 31q6 31 23.5 58
t42 47.5t54.5 32.5t61 12q27 0 49.5 -9t38.5 -25.5t25 -38.5t9 -47q0 -15 -3 -30z" />
    <glyph glyph-name="plusminus" unicode="&#xb1;" 
d="M45 95h449l-23 -110h-449zM301 513h110l-28 -134h170l-23 -110h-170l-27 -134h-110l27 134h-169l23 110h169z" />
    <glyph glyph-name="twosuperior" unicode="&#xb2;" horiz-adv-x="300" 
d="M249 444q-17 -14 -37.5 -34.5t-25.5 -43.5h170l-14 -66h-267l10 35t14 41q9 23 35 54t77 73l53 43q13 11 23.5 20t18 18.5t13 20.5t8.5 27q1 5 1.5 10t0.5 10q0 20 -9.5 27t-25.5 7q-14 0 -26.5 -5t-19.5 -17q-11 -15 -14 -31.5t-7 -32.5h-85l3 13q3 15 9.5 38.5t24 46
t48.5 38.5t83 16h2q51 -1 80.5 -25t29.5 -67q0 -12 -3 -25q-8 -37 -29 -66.5t-55 -56.5z" />
    <glyph glyph-name="threesuperior" unicode="&#xb3;" horiz-adv-x="300" 
d="M224 573q14 1 29 1t29 5q20 8 28 23t11 32q3 10 3 20q0 31 -35 31q-14 0 -30.5 -7t-21.5 -29l-6 -31h-85q11 65 47 98q40 35 109 35q59 0 85 -22.5t26 -62.5q0 -15 -3 -31q-3 -15 -9.5 -30t-17 -28.5t-24.5 -22.5t-32 -12v-2q25 -2 40 -19t15 -49q0 -9 -1 -19t-4 -21
q-14 -67 -54.5 -104.5t-115.5 -37.5q-35 0 -57 8t-35 20.5t-17.5 28.5t-4.5 32q0 12 2 22.5t4 20.5l6 26h85q-2 -12 -5 -26.5t-3 -27.5q0 -16 8 -27t32 -11q19 0 30.5 7.5t18 19.5t10.5 27t7 31q2 6 3 14t1 16q0 13 -4 18q-10 13 -34.5 15.5t-43.5 2.5z" />
    <glyph glyph-name="acute" unicode="&#xb4;" horiz-adv-x="333" 
d="M338 775h155l-179 -146h-101z" />
    <glyph glyph-name="mu" unicode="&#xb5;" 
d="M307 0l17 84h-2q-21 -40 -46 -62t-57 -22q-8 0 -15 1.5t-15 3.5l-41 -194h-130l157 753h130l-80 -386q-3 -12 -5.5 -24.5t-2.5 -24.5q0 -16 5 -26q12 -18 36 -18q23 0 37.5 11.5t24 28.5t14.5 36.5t8 36.5l76 366h130l-117 -564h-124z" />
    <glyph glyph-name="mu" unicode="&#x3bc;" 
d="M307 0l17 84h-2q-21 -40 -46 -62t-57 -22q-8 0 -15 1.5t-15 3.5l-41 -194h-130l157 753h130l-80 -386q-3 -12 -5.5 -24.5t-2.5 -24.5q0 -16 5 -26q12 -18 36 -18q23 0 37.5 11.5t24 28.5t14.5 36.5t8 36.5l76 366h130l-117 -564h-124z" />
    <glyph glyph-name="paragraph" unicode="&#xb6;" horiz-adv-x="550" 
d="M497 632h-68l-156 -748h-118l108 517q-65 0 -96 33.5t-31 89.5q0 20 5 48q10 51 31 85t51 54.5t69 29.5t86 9h303l-24 -118h-42l-156 -748h-118z" />
    <glyph glyph-name="periodcentered" unicode="&#xb7;" horiz-adv-x="333" 
d="M298 315l-27 -132h-132l27 132h132z" />
    <glyph glyph-name="periodcentered" unicode="&#x2219;" horiz-adv-x="333" 
d="M298 315l-27 -132h-132l27 132h132z" />
    <glyph glyph-name="cedilla" unicode="&#xb8;" horiz-adv-x="333" 
d="M24 -161q23 -8 40.5 -12t42.5 -4q9 0 18 3.5t16.5 10t13 15t5.5 17.5q0 18 -15 24q-9 5 -23 5q-11 0 -21.5 -2.5t-20.5 -5.5l-17 20l78 90h53l-55 -61l1 -2q7 3 16 4.5t17 1.5q19 0 35.5 -5t27.5 -19q7 -6 10 -15.5t3 -20.5q0 -5 -0.5 -8.5t-1.5 -8.5q-3 -14 -8 -23.5
t-15 -22.5q-26 -26 -59 -37t-65 -11q-24 0 -43 4q-16 5 -30.5 10.5t-29.5 10.5z" />
    <glyph glyph-name="onesuperior" unicode="&#xb9;" horiz-adv-x="300" 
d="M287 612h-110l12 60q24 0 46 3.5t41 12.5t35 24t28 38h67l-93 -450h-91z" />
    <glyph glyph-name="ordmasculine" unicode="&#xba;" horiz-adv-x="300" 
d="M217 535q-5 -18 -5 -32q0 -13 7.5 -22t27.5 -9q16 0 26 5.5t16 14.5t9 20t6 23l23 113q2 11 3.5 18.5t1.5 14.5q0 14 -8 20.5t-28 6.5q-30 0 -39.5 -14t-16.5 -46zM309 768q61 0 82.5 -22t21.5 -62q0 -22 -4.5 -48.5t-10.5 -57.5q-9 -43 -20 -74.5t-28.5 -51.5t-43 -30
t-64.5 -10h-6h-6q-56 0 -78 19t-22 61q0 35 12 86q9 43 18.5 78.5t26.5 60t46 38t76 13.5z" />
    <glyph glyph-name="guillemotright" unicode="&#xbb;" 
d="M305 175l113 85l-80 75l23 112l128 -141l-21 -102l-187 -142zM117 175l114 85l-81 75l23 112l130 -141l-21 -102l-189 -142z" />
    <glyph glyph-name="onequarter" unicode="&#xbc;" horiz-adv-x="750" 
d="M628 157l38 183h-2l-127 -183h91zM257 612h-110l12 60q24 0 46 3.5t41 12.5t35 24t28 38h67l-93 -450h-91zM131 0l578 738h75l-578 -738h-75zM779 443l-60 -286h42l-14 -66h-42l-18 -91h-91l18 91h-158l14 66l208 286h101z" />
    <glyph glyph-name="onehalf" unicode="&#xbd;" horiz-adv-x="750" 
d="M249 612h-110l12 60q24 0 46 3.5t41 12.5t35 24t28 38h67l-93 -450h-91zM108 0l578 738h75l-578 -738h-75zM638 144q-17 -14 -37 -34.5t-26 -43.5h170l-13 -66h-267q3 14 9 35t14 41q10 23 36 54t77 73l53 43q13 11 23.5 20t18 18.5t13 20.5t8.5 27q1 5 1.5 10t0.5 10
q0 20 -9.5 27t-25.5 7q-14 0 -26.5 -5t-20.5 -17q-10 -15 -13.5 -31.5t-6.5 -32.5h-85l3 13q3 15 9.5 38.5t24 46t48.5 38.5t82 16h2q51 -1 80.5 -25t29.5 -66q0 -13 -3 -26q-8 -37 -28.5 -66.5t-54.5 -56.5z" />
    <glyph glyph-name="threequarters" unicode="&#xbe;" horiz-adv-x="750" 
d="M638 157l38 183h-2l-127 -183h91zM159 0l578 738h75l-578 -738h-75zM224 573q14 1 29 1t29 5q20 8 28 23t11 32q3 10 3 20q0 31 -35 31q-14 0 -30.5 -7t-21.5 -29l-6 -31h-85q11 65 47 98q40 35 109 35q59 0 85 -22.5t26 -62.5q0 -15 -3 -31q-3 -15 -9.5 -30t-17 -28.5
t-24.5 -22.5t-32 -12v-2q25 -2 40 -19t15 -49q0 -9 -1 -19t-4 -21q-14 -67 -54.5 -104.5t-115.5 -37.5q-35 0 -57 8t-35 20.5t-17.5 28.5t-4.5 32q0 12 2 22.5t4 20.5l6 26h85q-2 -12 -5 -26.5t-3 -27.5q0 -16 8 -27t32 -11q19 0 30.5 7.5t18 19.5t10.5 27t7 31q2 6 3 14
t1 16q0 13 -4 18q-10 13 -34.5 15.5t-43.5 2.5zM789 443l-60 -286h42l-14 -66h-42l-18 -91h-91l18 91h-158l14 66l208 286h101z" />
    <glyph glyph-name="questiondown" unicode="&#xbf;" 
d="M318 450l27 129h128l-27 -129h-128zM453 25q-17 -111 -80 -163t-160 -52q-76 0 -117.5 36t-41.5 102q0 11 1 23t4 25q6 28 15 50.5t21.5 42.5t29.5 39t39 41q22 19 42 38t42 38q29 29 42.5 63t21.5 69h117q-3 -17 -7.5 -34.5t-9.5 -34.5q-10 -36 -26 -62t-36 -48
t-43 -43.5t-48 -47.5q-15 -15 -25 -27.5t-17 -25t-12 -26.5t-9 -33t-4 -36q0 -24 11 -34.5t34 -10.5t36.5 5t23.5 18q16 20 20.5 43t11.5 45h124z" />
    <glyph glyph-name="Agrave" unicode="&#xc0;" horiz-adv-x="556" 
d="M467 961l64 -146h-101l-118 146h155zM280 300h120l6 213q0 26 3 52t5 52q2 13 3 25.5t2 24.5h-2q-4 -12 -8 -24.5t-7 -25.5q-8 -26 -16.5 -52t-19.5 -52zM9 0l334 750h189l15 -750h-150l2 190h-164l-76 -190h-150z" />
    <glyph glyph-name="Aacute" unicode="&#xc1;" horiz-adv-x="556" 
d="M488 961h155l-178 -146h-101zM280 300h120l6 213q0 26 3 52t5 52q2 13 3 25.5t2 24.5h-2q-4 -12 -8 -24.5t-7 -25.5q-8 -26 -16.5 -52t-19.5 -52zM9 0l334 750h189l15 -750h-150l2 190h-164l-76 -190h-150z" />
    <glyph glyph-name="Acircumflex" unicode="&#xc2;" horiz-adv-x="556" 
d="M280 300h120l6 213q0 26 3 52t5 52q2 13 3 25.5t2 24.5h-2q-4 -12 -8 -24.5t-7 -25.5q-8 -26 -16.5 -52t-19.5 -52zM528 956l85 -146h-114l-46 82l-81 -82h-112l143 146h125zM9 0l334 750h189l15 -750h-150l2 190h-164l-76 -190h-150z" />
    <glyph glyph-name="Atilde" unicode="&#xc3;" horiz-adv-x="556" 
d="M280 300h120l6 213q0 26 3 52t5 52q2 13 3 25.5t2 24.5h-2q-4 -12 -8 -24.5t-7 -25.5q-8 -26 -16.5 -52t-19.5 -52zM655 930q-15 -38 -33 -61.5t-36.5 -37t-37.5 -18t-35 -4.5q-8 0 -19.5 2.5t-23.5 6t-23 7.5t-18 6q-11 5 -23.5 9t-25.5 4t-22 -5q-7 -3 -13 -9
t-10.5 -12t-7 -10.5t-3.5 -5.5h-62q9 31 26 54t36.5 38.5t40 23t37.5 7.5q25 0 38 -5t34 -13q9 -4 28 -11.5t29 -7.5q21 0 35 11t24 31h65zM9 0l334 750h189l15 -750h-150l2 190h-164l-76 -190h-150z" />
    <glyph glyph-name="Adieresis" unicode="&#xc4;" horiz-adv-x="556" 
d="M289 830l24 115h127l-24 -115h-127zM484 830l24 115h128l-24 -115h-128zM280 300h120l6 213q0 26 3 52t5 52q2 13 3 25.5t2 24.5h-2q-4 -12 -8 -24.5t-7 -25.5q-8 -26 -16.5 -52t-19.5 -52zM9 0l334 750h189l15 -750h-150l2 190h-164l-76 -190h-150z" />
    <glyph glyph-name="Aring" unicode="&#xc5;" horiz-adv-x="556" 
d="M474 942q-24 0 -44.5 -17t-25.5 -41q-1 -3 -1 -10q0 -20 13.5 -33.5t33.5 -13.5q23 0 44 17t26 40q1 4 1 11q0 20 -13.5 33.5t-33.5 13.5zM280 300h120l6 213q0 26 3 52t5 52q2 13 3 25.5t2 24.5h-2q-4 -12 -8 -24.5t-7 -25.5q-8 -26 -16.5 -52t-19.5 -52zM440 778
q-38 0 -62.5 24.5t-24.5 60.5q0 5 0.5 10.5t1.5 10.5q4 22 17 41.5t31 34t39 23t43 8.5q38 0 61.5 -24.5t23.5 -60.5v-11q0 -5 -2 -11q-5 -22 -17 -41.5t-29.5 -33.5t-38.5 -22.5t-43 -8.5zM9 0l334 750h189l15 -750h-150l2 190h-164l-76 -190h-150z" />
    <glyph glyph-name="AE" unicode="&#xc6;" horiz-adv-x="778" 
d="M465 611l-172 -309h134l65 309h-27zM404 192h-172l-104 -192h-150l443 750h484l-22 -110h-245l-40 -190h229l-23 -110h-229l-48 -230h245l-22 -110h-385z" />
    <glyph glyph-name="Ccedilla" unicode="&#xc7;" horiz-adv-x="556" 
d="M256 -16q-45 4 -75.5 17t-49 34.5t-26 50.5t-7.5 64q0 38 7 83t18 95l22 107q17 72 37 133t53.5 105.5t86.5 69.5t137 25q168 -3 168 -154q0 -19 -3 -40q-2 -14 -3.5 -28.5t-5.5 -28.5h-138l4.5 36t2.5 40q0 26 -9.5 44t-38.5 18q-41 0 -66.5 -21.5t-40.5 -51.5
t-22.5 -62t-11.5 -54l-43 -208q-4 -17 -7 -36.5t-3 -39.5q0 -17 3.5 -33t12 -28t23.5 -19t38 -7q29 0 47.5 20t30 48t18 57t11.5 47h141q-3 -11 -6 -21.5t-6 -21.5q-13 -50 -32.5 -93t-48.5 -75.5t-69.5 -51.5t-95.5 -21l-40 -44l1 -2q7 3 16 4.5t17 1.5q19 0 35.5 -5
t27.5 -19q7 -6 10 -15.5t3 -20.5q0 -5 -0.5 -8.5t-1.5 -8.5q-3 -14 -8 -23.5t-15 -22.5q-26 -26 -59 -37t-65 -11q-24 0 -43 4q-16 5 -30.5 10.5t-30.5 10.5l28 42q23 -8 40.5 -12t42.5 -4q9 0 18 3.5t16.5 10t13 15t5.5 17.5q0 18 -15 24q-9 5 -23 5q-11 0 -21.5 -2.5
t-20.5 -5.5l-17 20z" />
    <glyph glyph-name="Egrave" unicode="&#xc8;" 
d="M439 961l64 -146h-101l-118 146h155zM64 0l155 750h394l-22 -110h-254l-40 -189h234l-23 -110h-234l-48 -231h254l-22 -110h-394z" />
    <glyph glyph-name="Eacute" unicode="&#xc9;" 
d="M460 961h155l-178 -146h-101zM64 0l155 750h394l-22 -110h-254l-40 -189h234l-23 -110h-234l-48 -231h254l-22 -110h-394z" />
    <glyph glyph-name="Ecircumflex" unicode="&#xca;" 
d="M510 956l85 -146h-114l-46 82l-81 -82h-112l143 146h125zM64 0l155 750h394l-22 -110h-254l-40 -189h234l-23 -110h-234l-48 -231h254l-22 -110h-394z" />
    <glyph glyph-name="Edieresis" unicode="&#xcb;" 
d="M261 830l24 115h127l-24 -115h-127zM456 830l24 115h128l-24 -115h-128zM64 0l155 750h394l-22 -110h-254l-40 -189h234l-23 -110h-234l-48 -231h254l-22 -110h-394z" />
    <glyph glyph-name="Igrave" unicode="&#xcc;" horiz-adv-x="278" 
d="M328 961l64 -146h-101l-118 146h155zM69 0l155 750h140l-155 -750h-140z" />
    <glyph glyph-name="Iacute" unicode="&#xcd;" horiz-adv-x="278" 
d="M349 961h155l-178 -146h-101zM69 0l155 750h140l-155 -750h-140z" />
    <glyph glyph-name="Icircumflex" unicode="&#xce;" horiz-adv-x="278" 
d="M399 956l85 -146h-114l-46 82l-81 -82h-112l143 146h125zM69 0l155 750h140l-155 -750h-140z" />
    <glyph glyph-name="Idieresis" unicode="&#xcf;" horiz-adv-x="278" 
d="M150 830l24 115h127l-24 -115h-127zM345 830l24 115h128l-24 -115h-128zM69 0l155 750h140l-155 -750h-140z" />
    <glyph glyph-name="Eth" unicode="&#xd0;" horiz-adv-x="611" 
d="M310 473h105l-14 -67h-105l-62 -296h92q38 0 63 20t42 55.5t28.5 84t23.5 105.5q11 52 19.5 97t8.5 80q0 42 -16 65t-58 23h-92zM156 406h-52l14 67h52l57 277h292q13 0 30.5 -3.5t35.5 -13t34.5 -26t27.5 -42.5q12 -30 12 -76q0 -35 -6.5 -80.5t-18.5 -102.5
q-12 -56 -25.5 -113.5t-35 -110t-54 -95t-80.5 -67.5q-26 -14 -54 -17t-54 -3h-259z" />
    <glyph glyph-name="Ntilde" unicode="&#xd1;" horiz-adv-x="611" 
d="M682 930q-15 -38 -33 -61.5t-36.5 -37t-37.5 -18t-35 -4.5q-8 0 -19.5 2.5t-23.5 6t-23 7.5t-18 6q-11 5 -23.5 9t-25.5 4t-22 -5q-7 -3 -13 -9t-10.5 -12t-7 -10.5t-3.5 -5.5h-62q9 31 26 54t36.5 38.5t40 23t37.5 7.5q25 0 38 -5t34 -13q9 -4 28 -11.5t29 -7.5
q21 0 35 11t24 31h65zM558 750h140l-155 -750h-146l-54 267q-14 67 -23 138t-15 160h-2q-6 -47 -13.5 -102t-16.5 -112q-8 -57 -17.5 -111t-18.5 -99l-29 -141h-140l155 750h145l53 -273q13 -65 22 -136t16 -162h2q7 51 14.5 105t15.5 108t17 107t20 104z" />
    <glyph glyph-name="Ograve" unicode="&#xd2;" horiz-adv-x="611" 
d="M494 961l64 -146h-101l-118 146h155zM258 258q-4 -17 -7 -36.5t-3 -39.5q0 -17 3.5 -33t12 -28t23.5 -19t38 -7q37 0 61.5 17t39.5 43.5t23 57t14 57.5l40 192q4 20 9 47t5 54q0 18 -3.5 34.5t-12 29.5t-23 20.5t-36.5 7.5q-41 0 -66.5 -21.5t-40.5 -51.5t-22.5 -62
t-11.5 -54zM151 435q17 72 37 133t53.5 105.5t86.5 69.5t137 25q58 0 95.5 -12t59.5 -34.5t31 -54t9 -70.5q0 -35 -5.5 -76t-13.5 -86l-22 -107q-16 -75 -35 -138.5t-53 -109.5t-88.5 -72t-140.5 -26q-58 0 -96 12t-60.5 33.5t-32 52.5t-9.5 70q0 38 7 83t18 95z" />
    <glyph glyph-name="Oacute" unicode="&#xd3;" horiz-adv-x="611" 
d="M515 961h155l-178 -146h-101zM258 258q-4 -17 -7 -36.5t-3 -39.5q0 -17 3.5 -33t12 -28t23.5 -19t38 -7q37 0 61.5 17t39.5 43.5t23 57t14 57.5l40 192q4 20 9 47t5 54q0 18 -3.5 34.5t-12 29.5t-23 20.5t-36.5 7.5q-41 0 -66.5 -21.5t-40.5 -51.5t-22.5 -62t-11.5 -54z
M151 435q17 72 37 133t53.5 105.5t86.5 69.5t137 25q58 0 95.5 -12t59.5 -34.5t31 -54t9 -70.5q0 -35 -5.5 -76t-13.5 -86l-22 -107q-16 -75 -35 -138.5t-53 -109.5t-88.5 -72t-140.5 -26q-58 0 -96 12t-60.5 33.5t-32 52.5t-9.5 70q0 38 7 83t18 95z" />
    <glyph glyph-name="Ocircumflex" unicode="&#xd4;" horiz-adv-x="611" 
d="M565 956l85 -146h-114l-46 82l-81 -82h-112l143 146h125zM258 258q-4 -17 -7 -36.5t-3 -39.5q0 -17 3.5 -33t12 -28t23.5 -19t38 -7q37 0 61.5 17t39.5 43.5t23 57t14 57.5l40 192q4 20 9 47t5 54q0 18 -3.5 34.5t-12 29.5t-23 20.5t-36.5 7.5q-41 0 -66.5 -21.5
t-40.5 -51.5t-22.5 -62t-11.5 -54zM151 435q17 72 37 133t53.5 105.5t86.5 69.5t137 25q58 0 95.5 -12t59.5 -34.5t31 -54t9 -70.5q0 -35 -5.5 -76t-13.5 -86l-22 -107q-16 -75 -35 -138.5t-53 -109.5t-88.5 -72t-140.5 -26q-58 0 -96 12t-60.5 33.5t-32 52.5t-9.5 70
q0 38 7 83t18 95z" />
    <glyph glyph-name="Otilde" unicode="&#xd5;" horiz-adv-x="611" 
d="M682 930q-15 -38 -33 -61.5t-36.5 -37t-37.5 -18t-35 -4.5q-8 0 -19.5 2.5t-23.5 6t-23 7.5t-18 6q-11 5 -23.5 9t-25.5 4t-22 -5q-7 -3 -13 -9t-10.5 -12t-7 -10.5t-3.5 -5.5h-62q9 31 26 54t36.5 38.5t40 23t37.5 7.5q25 0 38 -5t34 -13q9 -4 28 -11.5t29 -7.5
q21 0 35 11t24 31h65zM258 258q-4 -17 -7 -36.5t-3 -39.5q0 -17 3.5 -33t12 -28t23.5 -19t38 -7q37 0 61.5 17t39.5 43.5t23 57t14 57.5l40 192q4 20 9 47t5 54q0 18 -3.5 34.5t-12 29.5t-23 20.5t-36.5 7.5q-41 0 -66.5 -21.5t-40.5 -51.5t-22.5 -62t-11.5 -54zM151 435
q17 72 37 133t53.5 105.5t86.5 69.5t137 25q58 0 95.5 -12t59.5 -34.5t31 -54t9 -70.5q0 -35 -5.5 -76t-13.5 -86l-22 -107q-16 -75 -35 -138.5t-53 -109.5t-88.5 -72t-140.5 -26q-58 0 -96 12t-60.5 33.5t-32 52.5t-9.5 70q0 38 7 83t18 95z" />
    <glyph glyph-name="Odieresis" unicode="&#xd6;" horiz-adv-x="611" 
d="M316 830l24 115h127l-24 -115h-127zM511 830l24 115h128l-24 -115h-128zM258 258q-4 -17 -7 -36.5t-3 -39.5q0 -17 3.5 -33t12 -28t23.5 -19t38 -7q37 0 61.5 17t39.5 43.5t23 57t14 57.5l40 192q4 20 9 47t5 54q0 18 -3.5 34.5t-12 29.5t-23 20.5t-36.5 7.5
q-41 0 -66.5 -21.5t-40.5 -51.5t-22.5 -62t-11.5 -54zM151 435q17 72 37 133t53.5 105.5t86.5 69.5t137 25q58 0 95.5 -12t59.5 -34.5t31 -54t9 -70.5q0 -35 -5.5 -76t-13.5 -86l-22 -107q-16 -75 -35 -138.5t-53 -109.5t-88.5 -72t-140.5 -26q-58 0 -96 12t-60.5 33.5
t-32 52.5t-9.5 70q0 38 7 83t18 95z" />
    <glyph glyph-name="multiply" unicode="&#xd7;" 
d="M107 393l94 78l114 -144l180 149l62 -78l-180 -149l118 -149l-94 -78l-118 149l-174 -144l-62 78l174 144z" />
    <glyph glyph-name="Oslash" unicode="&#xd8;" horiz-adv-x="611" 
d="M512 575q1 5 1 10v10q0 26 -14.5 43t-56.5 17q-41 0 -66 -21t-41 -55t-25.5 -77.5t-18.5 -87.5q-11 -54 -19 -86.5t-11 -52.5h2zM250 172q0 -35 14.5 -56t60.5 -21q40 0 65.5 21t41 52.5t23.5 67t14 65.5q9 44 19 88t18 89h-2zM655 652q7 -25 7 -58q0 -38 -7 -79.5
t-14 -79.5l-22 -107q-16 -75 -35 -138.5t-53 -109.5t-88.5 -72t-140.5 -26q-65 0 -102 11t-62 43l-61 -74l-43 30l78 94q-4 14 -5.5 30t-1.5 34q0 40 7 86t17 92l22 107q17 72 37 133t53.5 105.5t86.5 69.5t137 25q59 0 98 -10.5t68 -49.5l58 71l43 -35z" />
    <glyph glyph-name="Ugrave" unicode="&#xd9;" horiz-adv-x="611" 
d="M494 961l64 -146h-101l-118 146h155zM559 750h140l-108 -523q-13 -62 -34 -108t-54.5 -76.5t-82 -45.5t-117.5 -15q-109 0 -154.5 37t-45.5 113q0 41 12 95l108 523h140l-106 -511q-4 -19 -7 -36.5t-3 -34.5q0 -32 16.5 -52.5t63.5 -20.5q34 0 56 12.5t35.5 32.5t21 46
t13.5 53z" />
    <glyph glyph-name="Uacute" unicode="&#xda;" horiz-adv-x="611" 
d="M515 961h155l-178 -146h-101zM559 750h140l-108 -523q-13 -62 -34 -108t-54.5 -76.5t-82 -45.5t-117.5 -15q-109 0 -154.5 37t-45.5 113q0 41 12 95l108 523h140l-106 -511q-4 -19 -7 -36.5t-3 -34.5q0 -32 16.5 -52.5t63.5 -20.5q34 0 56 12.5t35.5 32.5t21 46t13.5 53z
" />
    <glyph glyph-name="Ucircumflex" unicode="&#xdb;" horiz-adv-x="611" 
d="M565 956l85 -146h-114l-46 82l-81 -82h-112l143 146h125zM559 750h140l-108 -523q-13 -62 -34 -108t-54.5 -76.5t-82 -45.5t-117.5 -15q-109 0 -154.5 37t-45.5 113q0 41 12 95l108 523h140l-106 -511q-4 -19 -7 -36.5t-3 -34.5q0 -32 16.5 -52.5t63.5 -20.5
q34 0 56 12.5t35.5 32.5t21 46t13.5 53z" />
    <glyph glyph-name="Udieresis" unicode="&#xdc;" horiz-adv-x="611" 
d="M316 830l24 115h127l-24 -115h-127zM511 830l24 115h128l-24 -115h-128zM559 750h140l-108 -523q-13 -62 -34 -108t-54.5 -76.5t-82 -45.5t-117.5 -15q-109 0 -154.5 37t-45.5 113q0 41 12 95l108 523h140l-106 -511q-4 -19 -7 -36.5t-3 -34.5q0 -32 16.5 -52.5
t63.5 -20.5q34 0 56 12.5t35.5 32.5t21 46t13.5 53z" />
    <glyph glyph-name="Yacute" unicode="&#xdd;" horiz-adv-x="556" 
d="M488 961h155l-178 -146h-101zM358 553q5 -23 8 -46.5t3 -48.5q0 -5 -0.5 -10t-0.5 -10h2q17 44 36 77t39 65l102 170h153l-287 -431l-66 -319h-140l66 319l-106 431h153z" />
    <glyph glyph-name="Thorn" unicode="&#xde;" horiz-adv-x="556" 
d="M271 306h75q57 0 85 25.5t40 82.5q5 25 5 41q0 35 -20 51t-65 16h-75zM223 750h140l-24 -118h134q43 0 71.5 -11.5t46 -31t25 -46.5t7.5 -57q0 -34 -8 -72q-12 -56 -38 -97t-60 -68t-72 -40t-75 -13h-122l-40 -196h-140z" />
    <glyph glyph-name="germandbls" unicode="&#xdf;" 
d="M444 434q32 -8 45.5 -35t13.5 -71t-12 -104q-8 -40 -21 -80t-33 -73t-47.5 -56t-64.5 -29q-5 -1 -10 -1h-9q-20 0 -38 4.5t-32 10.5l19 92q8 -4 14.5 -5t12.5 -1q16 0 28 9.5t20.5 23.5t14 32t8.5 35l23 117q3 15 3 28q0 23 -12.5 35t-42.5 14l19 95q16 1 28 3.5t21 9
t15.5 20t11.5 37.5l12 61q1 5 1.5 9t0.5 9q0 19 -11 31.5t-36 12.5q-22 0 -36 -12t-23 -29.5t-14 -37.5t-8 -35l-115 -554h-130l110 533q7 33 19 74t37.5 76.5t69 60t113.5 24.5q42 0 70.5 -11.5t46 -31t25 -45t7.5 -53.5q0 -12 -1.5 -24t-3.5 -24q-14 -68 -42.5 -100
t-66.5 -43v-2z" />
    <glyph glyph-name="agrave" unicode="&#xe0;" 
d="M401 775l63 -146h-101l-117 146h155zM360 297q-27 -17 -58.5 -34t-61.5 -38q-17 -12 -24.5 -31t-11.5 -37q-3 -15 -3 -28q0 -20 10.5 -32t38.5 -12q29 0 45.5 16t26.5 39t15 49.5t11 46.5zM317 0q-3 10 -3 21q0 9 2 18t5 19h-2q-15 -17 -31 -31t-33 -23q-33 -19 -66 -19
q-123 0 -123 106q0 14 2 29.5t6 33.5q10 48 32 80t53.5 53.5t69.5 37t80 31.5q44 17 63.5 37.5t19.5 53.5v3q-1 19 -15 24t-40 5q-44 0 -61 -22t-24 -60h-124q8 40 22.5 73.5t41.5 57.5t68.5 37.5t102.5 13.5q48 0 79 -8.5t49 -23t25 -33.5t7 -40q0 -15 -2.5 -31t-6.5 -31
l-69 -333q-6 -29 -6 -55v-12t1 -12h-123z" />
    <glyph glyph-name="aacute" unicode="&#xe1;" 
d="M422 775h155l-179 -146h-101zM360 297q-27 -17 -58.5 -34t-61.5 -38q-17 -12 -24.5 -31t-11.5 -37q-3 -15 -3 -28q0 -20 10.5 -32t38.5 -12q29 0 45.5 16t26.5 39t15 49.5t11 46.5zM317 0q-3 10 -3 21q0 9 2 18t5 19h-2q-15 -17 -31 -31t-33 -23q-33 -19 -66 -19
q-123 0 -123 106q0 14 2 29.5t6 33.5q10 48 32 80t53.5 53.5t69.5 37t80 31.5q44 17 63.5 37.5t19.5 53.5v3q-1 19 -15 24t-40 5q-44 0 -61 -22t-24 -60h-124q8 40 22.5 73.5t41.5 57.5t68.5 37.5t102.5 13.5q48 0 79 -8.5t49 -23t25 -33.5t7 -40q0 -15 -2.5 -31t-6.5 -31
l-69 -333q-6 -29 -6 -55v-12t1 -12h-123z" />
    <glyph glyph-name="acircumflex" unicode="&#xe2;" 
d="M360 297q-27 -17 -58.5 -34t-61.5 -38q-17 -12 -24.5 -31t-11.5 -37q-3 -15 -3 -28q0 -20 10.5 -32t38.5 -12q29 0 45.5 16t26.5 39t15 49.5t11 46.5zM472 770l84 -146h-114l-46 82l-81 -82h-112l144 146h125zM317 0q-3 10 -3 21q0 9 2 18t5 19h-2q-15 -17 -31 -31
t-33 -23q-33 -19 -66 -19q-123 0 -123 106q0 14 2 29.5t6 33.5q10 48 32 80t53.5 53.5t69.5 37t80 31.5q44 17 63.5 37.5t19.5 53.5v3q-1 19 -15 24t-40 5q-44 0 -61 -22t-24 -60h-124q8 40 22.5 73.5t41.5 57.5t68.5 37.5t102.5 13.5q48 0 79 -8.5t49 -23t25 -33.5t7 -40
q0 -15 -2.5 -31t-6.5 -31l-69 -333q-6 -29 -6 -55v-12t1 -12h-123z" />
    <glyph glyph-name="atilde" unicode="&#xe3;" 
d="M360 297q-27 -17 -58.5 -34t-61.5 -38q-17 -12 -24.5 -31t-11.5 -37q-3 -15 -3 -28q0 -20 10.5 -32t38.5 -12q29 0 45.5 16t26.5 39t15 49.5t11 46.5zM588 744q-15 -38 -33 -61.5t-36.5 -37t-37.5 -18t-35 -4.5q-8 0 -19.5 2.5t-23.5 6t-23 7.5t-17 6q-11 5 -24 9t-26 4
t-22 -5q-6 -3 -12 -9t-10.5 -12t-7.5 -10.5t-3 -5.5h-62q9 31 25.5 54t36 38.5t40 23t37.5 7.5q25 0 38.5 -5t33.5 -13q9 -4 28 -11.5t29 -7.5q40 0 59 42h65zM317 0q-3 10 -3 21q0 9 2 18t5 19h-2q-15 -17 -31 -31t-33 -23q-33 -19 -66 -19q-123 0 -123 106q0 14 2 29.5
t6 33.5q10 48 32 80t53.5 53.5t69.5 37t80 31.5q44 17 63.5 37.5t19.5 53.5v3q-1 19 -15 24t-40 5q-44 0 -61 -22t-24 -60h-124q8 40 22.5 73.5t41.5 57.5t68.5 37.5t102.5 13.5q48 0 79 -8.5t49 -23t25 -33.5t7 -40q0 -15 -2.5 -31t-6.5 -31l-69 -333q-6 -29 -6 -55v-12
t1 -12h-123z" />
    <glyph glyph-name="adieresis" unicode="&#xe4;" 
d="M222 644l24 115h127l-24 -115h-127zM417 644l24 115h128l-24 -115h-128zM360 297q-27 -17 -58.5 -34t-61.5 -38q-17 -12 -24.5 -31t-11.5 -37q-3 -15 -3 -28q0 -20 10.5 -32t38.5 -12q29 0 45.5 16t26.5 39t15 49.5t11 46.5zM317 0q-3 10 -3 21q0 9 2 18t5 19h-2
q-15 -17 -31 -31t-33 -23q-33 -19 -66 -19q-123 0 -123 106q0 14 2 29.5t6 33.5q10 48 32 80t53.5 53.5t69.5 37t80 31.5q44 17 63.5 37.5t19.5 53.5v3q-1 19 -15 24t-40 5q-44 0 -61 -22t-24 -60h-124q8 40 22.5 73.5t41.5 57.5t68.5 37.5t102.5 13.5q48 0 79 -8.5t49 -23
t25 -33.5t7 -40q0 -15 -2.5 -31t-6.5 -31l-69 -333q-6 -29 -6 -55v-12t1 -12h-123z" />
    <glyph glyph-name="aring" unicode="&#xe5;" 
d="M399 786q-24 0 -44.5 -17t-25.5 -41q-1 -4 -1 -11q0 -20 13.5 -33t33.5 -13q23 0 44 17t26 40q1 4 1 11q0 20 -13.5 33.5t-33.5 13.5zM360 297q-27 -17 -58.5 -34t-61.5 -38q-17 -12 -24.5 -31t-11.5 -37q-3 -15 -3 -28q0 -20 10.5 -32t38.5 -12q29 0 45.5 16t26.5 39
t15 49.5t11 46.5zM365 622q-38 0 -62.5 24.5t-24.5 60.5q0 5 0.5 10.5t1.5 10.5q4 22 17 41.5t30.5 34t38.5 23t43 8.5q39 0 62.5 -24.5t23.5 -60.5v-11t-2 -11q-5 -22 -17 -41.5t-29.5 -33.5t-38.5 -22.5t-43 -8.5zM317 0q-3 10 -3 21q0 9 2 18t5 19h-2q-15 -17 -31 -31
t-33 -23q-33 -19 -66 -19q-123 0 -123 106q0 14 2 29.5t6 33.5q10 48 32 80t53.5 53.5t69.5 37t80 31.5q44 17 63.5 37.5t19.5 53.5v3q-1 19 -15 24t-40 5q-44 0 -61 -22t-24 -60h-124q8 40 22.5 73.5t41.5 57.5t68.5 37.5t102.5 13.5q48 0 79 -8.5t49 -23t25 -33.5t7 -40
q0 -15 -2.5 -31t-6.5 -31l-69 -333q-6 -29 -6 -55v-12t1 -12h-123z" />
    <glyph glyph-name="ae" unicode="&#xe6;" horiz-adv-x="722" 
d="M615 359l12 56q3 13 3 24q0 26 -14 33t-33 7q-29 0 -46 -19t-25 -45l-12 -56h115zM357 296q-23 -15 -47 -26.5t-45 -25.5t-36.5 -33.5t-21.5 -50.5q-4 -19 -4 -36q0 -21 9.5 -30t30.5 -9q38 0 59.5 24.5t30.5 72.5zM129 400q4 23 12 44t19 43q15 29 38.5 47t51 28
t57 13.5t57.5 3.5q35 0 66 -8t56 -28q32 22 62.5 29t62.5 7q33 0 60 -6t46.5 -20.5t30.5 -38t11 -59.5q0 -11 -1.5 -24t-3.5 -27l-30 -145h-245l-10 -50q-4 -17 -8 -36t-4 -37q0 -21 9.5 -36t36.5 -15q26 0 42 14t24 40l11 53h131q-7 -41 -22.5 -78.5t-42.5 -66t-67 -45.5
t-97 -17q-48 0 -75.5 13t-47.5 46q-28 -32 -67.5 -45.5t-76.5 -13.5q-70 0 -109 24t-39 84q0 21 6 50q7 35 17.5 60t26.5 45t39.5 36t56.5 33q33 16 62.5 26.5t53 21.5t39.5 25.5t21 39.5q1 5 1.5 8.5t0.5 6.5q0 20 -14.5 27t-37.5 7t-36.5 -5.5t-21.5 -16t-13 -25t-9 -32.5
h-130z" />
    <glyph glyph-name="ccedilla" unicode="&#xe7;" horiz-adv-x="444" 
d="M199 -13q-58 4 -89.5 34t-31.5 92q0 18 2.5 38.5t8.5 44.5l38 183q12 59 33.5 98t50 61.5t63 31.5t71.5 9q40 0 68.5 -10t46 -26.5t25.5 -39t8 -47.5q0 -11 -1.5 -21.5t-3.5 -21.5l-9 -45h-130l13 63q1 5 1 13q0 35 -36 35q-19 0 -31 -10t-20.5 -27t-13.5 -40t-10 -49
l-28 -133q-15 -63 -15 -91q0 -24 9.5 -33t26.5 -11q15 0 24.5 7t16.5 18t11.5 26t9.5 32l11 52h130l-11 -52q-17 -81 -60 -127.5t-125 -53.5l-43 -48l1 -2q7 3 16 4.5t17 1.5q19 0 35.5 -5t27.5 -19q7 -6 10 -15.5t3 -20.5q0 -5 -0.5 -8.5t-1.5 -8.5q-3 -14 -8 -23.5
t-15 -22.5q-26 -26 -59 -37t-65 -11q-24 0 -43 4q-16 5 -30.5 10.5t-30.5 10.5l28 42q23 -8 40.5 -12t42.5 -4q9 0 18 3.5t16.5 10t13 15t5.5 17.5q0 18 -15 24q-9 5 -23 5q-11 0 -21.5 -2.5t-20.5 -5.5l-17 20z" />
    <glyph glyph-name="egrave" unicode="&#xe8;" 
d="M386 355l10 49q4 17 4 33q0 23 -13 32.5t-43 9.5q-24 0 -38.5 -8.5t-23 -23t-13 -32.5t-8.5 -37l-5 -23h130zM401 775l63 -146h-101l-117 146h155zM129 370q17 100 77 154.5t157 54.5q48 0 79.5 -8.5t50 -24.5t26.5 -40t8 -54q0 -26 -4 -56t-12 -65l-15 -76h-260l-18 -82
q-4 -19 -4 -36q0 -32 15 -42t39 -10q36 0 54 26t28 80h130q-16 -95 -69.5 -150.5t-153.5 -55.5q-88 0 -129.5 33.5t-41.5 107.5q0 21 3.5 44.5t9.5 51.5z" />
    <glyph glyph-name="eacute" unicode="&#xe9;" 
d="M386 355l10 49q4 17 4 33q0 23 -13 32.5t-43 9.5q-24 0 -38.5 -8.5t-23 -23t-13 -32.5t-8.5 -37l-5 -23h130zM422 775h155l-179 -146h-101zM129 370q17 100 77 154.5t157 54.5q48 0 79.5 -8.5t50 -24.5t26.5 -40t8 -54q0 -26 -4 -56t-12 -65l-15 -76h-260l-18 -82
q-4 -19 -4 -36q0 -32 15 -42t39 -10q36 0 54 26t28 80h130q-16 -95 -69.5 -150.5t-153.5 -55.5q-88 0 -129.5 33.5t-41.5 107.5q0 21 3.5 44.5t9.5 51.5z" />
    <glyph glyph-name="ecircumflex" unicode="&#xea;" 
d="M386 355l10 49q4 17 4 33q0 23 -13 32.5t-43 9.5q-24 0 -38.5 -8.5t-23 -23t-13 -32.5t-8.5 -37l-5 -23h130zM472 770l84 -146h-114l-46 82l-81 -82h-112l144 146h125zM129 370q17 100 77 154.5t157 54.5q48 0 79.5 -8.5t50 -24.5t26.5 -40t8 -54q0 -26 -4 -56t-12 -65
l-15 -76h-260l-18 -82q-4 -19 -4 -36q0 -32 15 -42t39 -10q36 0 54 26t28 80h130q-16 -95 -69.5 -150.5t-153.5 -55.5q-88 0 -129.5 33.5t-41.5 107.5q0 21 3.5 44.5t9.5 51.5z" />
    <glyph glyph-name="edieresis" unicode="&#xeb;" 
d="M222 644l24 115h127l-24 -115h-127zM417 644l24 115h128l-24 -115h-128zM386 355l10 49q4 17 4 33q0 23 -13 32.5t-43 9.5q-24 0 -38.5 -8.5t-23 -23t-13 -32.5t-8.5 -37l-5 -23h130zM129 370q17 100 77 154.5t157 54.5q48 0 79.5 -8.5t50 -24.5t26.5 -40t8 -54
q0 -26 -4 -56t-12 -65l-15 -76h-260l-18 -82q-4 -19 -4 -36q0 -32 15 -42t39 -10q36 0 54 26t28 80h130q-16 -95 -69.5 -150.5t-153.5 -55.5q-88 0 -129.5 33.5t-41.5 107.5q0 21 3.5 44.5t9.5 51.5z" />
    <glyph glyph-name="igrave" unicode="&#xec;" horiz-adv-x="278" 
d="M290 775l63 -146h-101l-117 146h155zM74 0l117 564h130l-117 -564h-130z" />
    <glyph glyph-name="iacute" unicode="&#xed;" horiz-adv-x="278" 
d="M311 775h155l-179 -146h-101zM74 0l117 564h130l-117 -564h-130z" />
    <glyph glyph-name="icircumflex" unicode="&#xee;" horiz-adv-x="278" 
d="M351 770l84 -146h-114l-46 82l-81 -82h-112l144 146h125zM74 0l117 564h130l-117 -564h-130z" />
    <glyph glyph-name="idieresis" unicode="&#xef;" horiz-adv-x="278" 
d="M111 644l24 115h127l-24 -115h-127zM306 644l24 115h128l-24 -115h-128zM74 0l117 564h130l-117 -564h-130z" />
    <glyph glyph-name="eth" unicode="&#xf0;" 
d="M221 184q-4 -17 -6 -31t-2 -25q0 -23 11.5 -33t42.5 -10q23 0 37.5 6t24 18t15 30.5t11.5 44.5l33 162q3 15 6 29.5t3 28.5q0 21 -11 35t-42 14q-25 0 -40.5 -9.5t-25.5 -24.5t-15 -34t-9 -39zM306 666q-14 11 -29 20.5t-32 18.5l102 74q17 -8 34 -18t31 -22l58 40
l38 -35l-58 -40q16 -14 32 -33t28 -44.5t19.5 -58.5t7.5 -75q0 -27 -3 -57.5t-11 -65.5l-22 -108q-15 -74 -33 -126t-46 -86t-70 -49.5t-106 -15.5q-44 0 -74.5 7.5t-49.5 23.5t-27 40.5t-8 58.5q0 29 5.5 65.5t14.5 81.5q16 75 34.5 128.5t44 87.5t59 50t80.5 16
q29 0 51 -6t33 -20l3 2q-1 16 -7.5 33t-16 32.5t-20.5 28t-21 20.5l-68 -47l-38 35z" />
    <glyph glyph-name="ntilde" unicode="&#xf1;" 
d="M588 744q-15 -38 -33 -61.5t-36.5 -37t-37.5 -18t-35 -4.5q-8 0 -19.5 2.5t-23.5 6t-23 7.5t-17 6q-11 5 -24 9t-26 4t-22 -5q-6 -3 -12 -9t-10.5 -12t-7.5 -10.5t-3 -5.5h-62q9 31 25.5 54t36 38.5t40 23t37.5 7.5q25 0 38.5 -5t33.5 -13q9 -4 28 -11.5t29 -7.5
q40 0 59 42h65zM296 506h2q16 24 34 38.5t36 22t34.5 10t27.5 2.5q46 0 76 -22.5t30 -73.5q0 -21 -6 -48l-90 -435h-130l78 376q6 28 6 49q0 20 -9 31.5t-33 12.5h-3q-35 0 -55 -29.5t-28 -74.5l-75 -365h-130l117 564h130z" />
    <glyph glyph-name="ograve" unicode="&#xf2;" 
d="M401 775l63 -146h-101l-117 146h155zM221 184q-4 -17 -6 -31t-2 -25q0 -23 12 -33t44 -10q22 0 36.5 6t23.5 18t14.5 30.5t11.5 44.5l39 188q3 15 5.5 30t2.5 28q0 21 -10.5 35t-40.5 14q-26 0 -42 -9.5t-25.5 -24.5t-14.5 -34t-9 -39zM239 -15q-85 0 -118.5 31.5
t-33.5 98.5q0 56 20 147q15 72 31 131t43.5 100t72 63.5t118.5 22.5q45 0 75 -9t48 -25.5t25.5 -41.5t7.5 -56q0 -38 -8 -84.5t-19 -100.5q-15 -72 -32 -124.5t-44 -86.5t-67.5 -50t-100.5 -16h-9h-9z" />
    <glyph glyph-name="oacute" unicode="&#xf3;" 
d="M422 775h155l-179 -146h-101zM221 184q-4 -17 -6 -31t-2 -25q0 -23 12 -33t44 -10q22 0 36.5 6t23.5 18t14.5 30.5t11.5 44.5l39 188q3 15 5.5 30t2.5 28q0 21 -10.5 35t-40.5 14q-26 0 -42 -9.5t-25.5 -24.5t-14.5 -34t-9 -39zM239 -15q-85 0 -118.5 31.5t-33.5 98.5
q0 56 20 147q15 72 31 131t43.5 100t72 63.5t118.5 22.5q45 0 75 -9t48 -25.5t25.5 -41.5t7.5 -56q0 -38 -8 -84.5t-19 -100.5q-15 -72 -32 -124.5t-44 -86.5t-67.5 -50t-100.5 -16h-9h-9z" />
    <glyph glyph-name="ocircumflex" unicode="&#xf4;" 
d="M472 770l84 -146h-114l-46 82l-81 -82h-112l144 146h125zM221 184q-4 -17 -6 -31t-2 -25q0 -23 12 -33t44 -10q22 0 36.5 6t23.5 18t14.5 30.5t11.5 44.5l39 188q3 15 5.5 30t2.5 28q0 21 -10.5 35t-40.5 14q-26 0 -42 -9.5t-25.5 -24.5t-14.5 -34t-9 -39zM239 -15
q-85 0 -118.5 31.5t-33.5 98.5q0 56 20 147q15 72 31 131t43.5 100t72 63.5t118.5 22.5q45 0 75 -9t48 -25.5t25.5 -41.5t7.5 -56q0 -38 -8 -84.5t-19 -100.5q-15 -72 -32 -124.5t-44 -86.5t-67.5 -50t-100.5 -16h-9h-9z" />
    <glyph glyph-name="otilde" unicode="&#xf5;" 
d="M588 744q-15 -38 -33 -61.5t-36.5 -37t-37.5 -18t-35 -4.5q-8 0 -19.5 2.5t-23.5 6t-23 7.5t-17 6q-11 5 -24 9t-26 4t-22 -5q-6 -3 -12 -9t-10.5 -12t-7.5 -10.5t-3 -5.5h-62q9 31 25.5 54t36 38.5t40 23t37.5 7.5q25 0 38.5 -5t33.5 -13q9 -4 28 -11.5t29 -7.5
q40 0 59 42h65zM221 184q-4 -17 -6 -31t-2 -25q0 -23 12 -33t44 -10q22 0 36.5 6t23.5 18t14.5 30.5t11.5 44.5l39 188q3 15 5.5 30t2.5 28q0 21 -10.5 35t-40.5 14q-26 0 -42 -9.5t-25.5 -24.5t-14.5 -34t-9 -39zM239 -15q-85 0 -118.5 31.5t-33.5 98.5q0 56 20 147
q15 72 31 131t43.5 100t72 63.5t118.5 22.5q45 0 75 -9t48 -25.5t25.5 -41.5t7.5 -56q0 -38 -8 -84.5t-19 -100.5q-15 -72 -32 -124.5t-44 -86.5t-67.5 -50t-100.5 -16h-9h-9z" />
    <glyph glyph-name="odieresis" unicode="&#xf6;" 
d="M222 644l24 115h127l-24 -115h-127zM417 644l24 115h128l-24 -115h-128zM221 184q-4 -17 -6 -31t-2 -25q0 -23 12 -33t44 -10q22 0 36.5 6t23.5 18t14.5 30.5t11.5 44.5l39 188q3 15 5.5 30t2.5 28q0 21 -10.5 35t-40.5 14q-26 0 -42 -9.5t-25.5 -24.5t-14.5 -34t-9 -39z
M239 -15q-85 0 -118.5 31.5t-33.5 98.5q0 56 20 147q15 72 31 131t43.5 100t72 63.5t118.5 22.5q45 0 75 -9t48 -25.5t25.5 -41.5t7.5 -56q0 -38 -8 -84.5t-19 -100.5q-15 -72 -32 -124.5t-44 -86.5t-67.5 -50t-100.5 -16h-9h-9z" />
    <glyph glyph-name="divide" unicode="&#xf7;" 
d="M264 377l24 115h127l-24 -115h-127zM187 6l24 115h127l-24 -115h-127zM89 304h449l-23 -110h-449z" />
    <glyph glyph-name="oslash" unicode="&#xf8;" 
d="M214 142q0 -4 -0.5 -7.5t-0.5 -6.5q0 -23 12 -33t44 -10q22 0 36.5 6t23.5 18t14.5 30.5t11.5 44.5l32 154h-2zM401 414q1 5 1 9v8q0 21 -10.5 34.5t-40.5 13.5q-26 0 -42 -9.5t-25.5 -24.5t-14.5 -34t-9 -39l-32 -153h2zM571 617l42 -35l-87 -99q3 -17 3 -37
q0 -38 -8.5 -84t-19.5 -100q-15 -72 -32 -124.5t-44 -86.5t-67 -50t-100 -16h-9h-8q-88 0 -123 35l-71 -78l-45 34l89 99q-2 10 -3 21t-1 23q0 57 20 143q15 72 31 131t43.5 100t72.5 63.5t118 22.5q49 0 80.5 -10t49.5 -30z" />
    <glyph glyph-name="ugrave" unicode="&#xf9;" 
d="M401 775l63 -146h-101l-117 146h155zM324 84h-2q-26 -51 -60 -74.5t-82 -24.5q-58 0 -80.5 21.5t-22.5 62.5q0 25 8 63l90 432h130l-80 -386q-3 -12 -5.5 -24.5t-2.5 -24.5q0 -16 5 -26q12 -18 36 -18q23 0 37.5 11.5t24 28.5t14.5 36.5t8 36.5l76 366h130l-117 -564
h-124z" />
    <glyph glyph-name="uacute" unicode="&#xfa;" 
d="M422 775h155l-179 -146h-101zM324 84h-2q-26 -51 -60 -74.5t-82 -24.5q-58 0 -80.5 21.5t-22.5 62.5q0 25 8 63l90 432h130l-80 -386q-3 -12 -5.5 -24.5t-2.5 -24.5q0 -16 5 -26q12 -18 36 -18q23 0 37.5 11.5t24 28.5t14.5 36.5t8 36.5l76 366h130l-117 -564h-124z" />
    <glyph glyph-name="ucircumflex" unicode="&#xfb;" 
d="M474 780l84 -146h-114l-46 82l-81 -82h-112l144 146h125zM324 84h-2q-26 -51 -60 -74.5t-82 -24.5q-58 0 -80.5 21.5t-22.5 62.5q0 25 8 63l90 432h130l-80 -386q-3 -12 -5.5 -24.5t-2.5 -24.5q0 -16 5 -26q12 -18 36 -18q23 0 37.5 11.5t24 28.5t14.5 36.5t8 36.5
l76 366h130l-117 -564h-124z" />
    <glyph glyph-name="udieresis" unicode="&#xfc;" 
d="M222 644l24 115h127l-24 -115h-127zM417 644l24 115h128l-24 -115h-128zM324 84h-2q-26 -51 -60 -74.5t-82 -24.5q-58 0 -80.5 21.5t-22.5 62.5q0 25 8 63l90 432h130l-80 -386q-3 -12 -5.5 -24.5t-2.5 -24.5q0 -16 5 -26q12 -18 36 -18q23 0 37.5 11.5t24 28.5
t14.5 36.5t8 36.5l76 366h130l-117 -564h-124z" />
    <glyph glyph-name="yacute" unicode="&#xfd;" horiz-adv-x="444" 
d="M394 775h155l-179 -146h-101zM259 564l-5 -299q-2 -38 -5 -75t-8 -75h2q23 76 51 146l120 303h132l-256 -572q-20 -42 -35.5 -76.5t-35.5 -59t-49 -38t-74 -13.5q-14 0 -28.5 1.5t-31.5 3.5l21 101q6 0 15 -1t19 -1q16 0 30.5 5t17.5 22q2 10 3 23t1 26q0 6 -0.5 12
t-0.5 11l-20 556h137z" />
    <glyph glyph-name="thorn" unicode="&#xfe;" 
d="M387 382q2 12 3.5 23t1.5 21q0 24 -10 38.5t-34 14.5q-20 0 -34 -9t-23.5 -25.5t-16.5 -39.5t-13 -51l-35 -169q-3 -12 -4 -23t-1 -20q0 -57 47 -57q30 0 49.5 29.5t30.5 79.5zM213 750h130l-51 -245h2q27 42 57.5 58t71.5 16q48 0 75.5 -25t27.5 -88q0 -39 -12 -96
l-39 -188q-8 -37 -20.5 -72.5t-33.5 -63t-51 -44.5t-71 -17q-38 0 -62.5 14.5t-36.5 52.5h-2l-50 -241h-130z" />
    <glyph glyph-name="ydieresis" unicode="&#xff;" horiz-adv-x="444" 
d="M194 644l24 115h127l-24 -115h-127zM389 644l24 115h128l-24 -115h-128zM259 564l-5 -299q-2 -38 -5 -75t-8 -75h2q23 76 51 146l120 303h132l-256 -572q-20 -42 -35.5 -76.5t-35.5 -59t-49 -38t-74 -13.5q-14 0 -28.5 1.5t-31.5 3.5l21 101q6 0 15 -1t19 -1q16 0 30.5 5
t17.5 22q2 10 3 23t1 26q0 6 -0.5 12t-0.5 11l-20 556h137z" />
    <glyph glyph-name="dotlessi" unicode="&#x131;" horiz-adv-x="278" 
d="M74 0l117 564h130l-117 -564h-130z" />
    <glyph glyph-name="Lslash" unicode="&#x141;" 
d="M74 0l60 290l-86 -59l26 127l86 59l69 333h140l-47 -226l122 88l-27 -128l-121 -88l-60 -286h260l-22 -110h-400z" />
    <glyph glyph-name="lslash" unicode="&#x142;" horiz-adv-x="278" 
d="M149 362l-83 -50l20 95l83 51l60 292h130l-49 -238l78 48l-20 -96l-78 -48l-86 -416h-130z" />
    <glyph glyph-name="OE" unicode="&#x152;" horiz-adv-x="833" 
d="M516 535q5 25 5 44q0 32 -15 54t-54 22h-8q-31 -2 -53.5 -18.5t-39.5 -41.5t-29 -56t-20 -62t-13.5 -59t-9.5 -47q-3 -14 -7.5 -34.5t-9 -43.5t-7.5 -47.5t-3 -47.5q0 -43 15 -73t57 -30q33 0 55 10t36 27.5t22 41.5t14 52zM814 110l-22 -110h-379l15 73h-2
q-18 -23 -40 -40t-43 -28.5t-39 -17t-28 -5.5q-49 0 -81 14.5t-51 40t-26.5 60t-7.5 73.5q0 33 4 67.5t10.5 69t13.5 67t13 61.5q10 54 31 113t55.5 107.5t83.5 80.5t116 32q18 0 36.5 -4t34.5 -13t29 -24t19 -36h2l1 2l1 -2l12 59h375l-22 -110h-247l-40 -190h229l-23 -110
h-229l-48 -230h247z" />
    <glyph glyph-name="oe" unicode="&#x153;" horiz-adv-x="722" 
d="M622 358l7 35q2 12 3.5 22t1.5 18q0 23 -11 34.5t-37 11.5q-21 0 -35 -10t-22.5 -25t-13.5 -33t-8 -33l-4 -20h119zM220 215q-5 -28 -8 -48.5t-3 -34.5q0 -31 11.5 -38.5t33.5 -8.5q16 0 29.5 5t24.5 19.5t20.5 41.5t18.5 72l34 165l3.5 24.5t1.5 19.5q0 26 -11.5 36.5
t-38.5 10.5q-35 0 -54.5 -25t-28.5 -82zM731 258h-247l-12 -58q-10 -43 -10 -70q0 -26 10.5 -35.5t30.5 -9.5q32 0 50.5 17.5t25.5 47.5l8 42h130q-11 -55 -29.5 -94.5t-48 -64.5t-71 -36.5t-97.5 -11.5q-30 0 -57 13.5t-42 39.5q-35 -30 -71.5 -41.5t-59.5 -11.5h-9
q-85 0 -118.5 31.5t-33.5 98.5q0 56 20 147q15 72 30.5 130.5t42.5 100t71 64t116 22.5h5q34 -1 58.5 -13t49.5 -44q32 35 72 46t78 11q11 0 27 -1.5t33 -7t32 -16t24 -27.5q11 -23 16 -46.5t5 -49.5q0 -17 -1.5 -34t-5.5 -34z" />
    <glyph glyph-name="Scaron" unicode="&#x160;" horiz-adv-x="556" 
d="M506 800h-125l-83 146h112l47 -82l80 82h114zM462 522q4 18 7 35.5t3 33.5q0 28 -13.5 46t-50.5 18q-35 0 -59.5 -16t-32.5 -54q-3 -12 -3 -23q0 -31 18.5 -48.5t42.5 -35.5q15 -11 35 -26t40.5 -32t38.5 -34t30 -31q20 -24 28.5 -48.5t8.5 -52.5q0 -25 -6 -56
q-11 -53 -36.5 -93.5t-61.5 -67.5t-81.5 -41t-96.5 -14t-87 11t-58.5 31.5t-33 49.5t-10.5 65q0 31 8 71l12 55h140l-10 -44q-8 -32 -8 -55q0 -32 16 -51.5t54 -19.5q87 0 106 88q3 13 3 25q0 23 -10 41t-29 33q-23 21 -49 40.5t-51 39.5t-47 42.5t-38 50.5q-16 33 -16 75
q0 10 1 20t3 20q20 97 84.5 147.5t176.5 50.5q55 0 90 -13t55 -34t27 -48t7 -54q0 -28 -4 -53t-8 -44h-135z" />
    <glyph glyph-name="scaron" unicode="&#x161;" horiz-adv-x="444" 
d="M401 614h-125l-82 146h112l46 -82l81 82h114zM197 186q-6 -20 -8.5 -35t-2.5 -26q0 -29 14.5 -34.5t30.5 -5.5h5q27 0 47 17t20 43v3q0 2 0.5 3t0.5 3q0 21 -18 35t-33 26l-61 49q-34 28 -54 60t-20 77q0 22 4 41q14 66 71.5 101.5t151.5 35.5q77 0 113.5 -31.5
t36.5 -91.5q0 -27 -8 -64h-130q3 13 5 23.5t2 19.5q0 44 -49 44q-23 0 -41 -11t-23 -35q-1 -4 -1 -12q0 -19 11 -30.5t25 -22.5l91 -72q10 -7 22 -19t21.5 -26.5t16 -30.5t6.5 -30v-5q-3 -37 -15 -72.5t-38.5 -64t-70.5 -46t-111 -17.5q-22 0 -48.5 5t-50 18.5t-39 38.5
t-15.5 65q0 32 12 74h130z" />
    <glyph glyph-name="Ydieresis" unicode="&#x178;" horiz-adv-x="556" 
d="M289 830l24 115h127l-24 -115h-127zM484 830l24 115h128l-24 -115h-128zM358 553q5 -23 8 -46.5t3 -48.5q0 -5 -0.5 -10t-0.5 -10h2q17 44 36 77t39 65l102 170h153l-287 -431l-66 -319h-140l66 319l-106 431h153z" />
    <glyph glyph-name="Zcaron" unicode="&#x17d;" 
d="M478 800h-125l-83 146h112l47 -82l80 82h114zM56 112l337 465q13 17 25 33.5t28 32.5q-14 -2 -27 -2.5t-27 -0.5h-210l22 110h410l-23 -112l-338 -465q-12 -17 -24 -33.5t-28 -32.5q14 2 27 2.5t27 0.5h235l-22 -110h-435z" />
    <glyph glyph-name="zcaron" unicode="&#x17e;" horiz-adv-x="389" 
d="M383 614h-125l-82 146h112l46 -82l81 82h114zM181 100h206l-20 -100h-344l21 102l273 362h-194l21 100h340l-20 -93z" />
    <glyph glyph-name="florin" unicode="&#x192;" 
d="M603 644q-8 5 -18 8.5t-21 3.5q-27 0 -44 -12t-28 -30.5t-18.5 -41t-14.5 -42.5l-12 -31h111l-20 -95h-124l-109 -295q-20 -54 -46 -115t-61 -109q-26 -35 -65 -52.5t-76 -17.5q-23 0 -43 3.5t-40 8.5l38 108q17 -15 40 -15q13 0 25 5.5t21 18.5q14 20 23 40.5t17 41.5
l143 378h-111l20 95h126l32 78q15 37 34.5 71t46 59.5t60 40.5t76.5 15q20 0 39 -4.5t36 -9.5q2 -1 3 -1q2 0 4 -1z" />
    <glyph glyph-name="circumflex" unicode="&#x2c6;" horiz-adv-x="333" 
d="M392 790l84 -146h-114l-46 82l-81 -82h-112l144 146h125z" />
    <glyph glyph-name="caron" unicode="&#x2c7;" horiz-adv-x="333" 
d="M359 634h-125l-82 146h112l47 -82l80 82h114z" />
    <glyph glyph-name="breve" unicode="&#x2d8;" horiz-adv-x="333" 
d="M497 780q-24 -71 -75.5 -108t-122.5 -37q-69 0 -105.5 30.5t-36.5 79.5q0 19 4 35h65v-9q0 -32 22.5 -46.5t60.5 -14.5q54 0 82 17t41 53h65z" />
    <glyph glyph-name="dotaccent" unicode="&#x2d9;" horiz-adv-x="333" 
d="M236 644l24 115h127l-24 -115h-127z" />
    <glyph glyph-name="ring" unicode="&#x2da;" horiz-adv-x="333" 
d="M332 796q-24 0 -44.5 -17t-25.5 -41q-1 -4 -1 -11q0 -20 13.5 -33t33.5 -13q23 0 44 17t26 40q1 4 1 11q0 20 -13.5 33.5t-33.5 13.5zM298 632q-38 0 -62.5 24.5t-24.5 60.5q0 5 0.5 10.5t1.5 10.5q4 22 17 41.5t30.5 34t38.5 23t43 8.5q39 0 62.5 -24.5t23.5 -60.5v-11
t-2 -11q-5 -22 -17 -41.5t-29.5 -33.5t-38.5 -22.5t-43 -8.5z" />
    <glyph glyph-name="ogonek" unicode="&#x2db;" horiz-adv-x="333" 
d="M238 -190q-10 -5 -32 -10t-45 -5q-41 0 -69.5 18.5t-28.5 58.5v11q0 5 2 11q4 18 15 33.5t26 28.5t32 24t33 20h68l-1 -2q-26 -12 -50 -34t-29 -42q-1 -3 -1 -9q0 -16 10.5 -25.5t27.5 -9.5q14 0 30 6.5t30 11.5z" />
    <glyph glyph-name="tilde" unicode="&#x2dc;" horiz-adv-x="333" 
d="M508 764q-15 -38 -33 -61.5t-36.5 -37t-37.5 -18t-35 -4.5q-8 0 -19 2.5t-23 6t-23 7.5t-18 6q-11 5 -24 9t-26 4t-22 -5q-6 -3 -12 -9t-10.5 -12t-7.5 -10.5t-3 -5.5h-62q9 31 25.5 54t36 38.5t40 23t37.5 7.5q25 0 38.5 -5t34.5 -13q9 -4 28 -11.5t29 -7.5q21 0 35 11
t23 31h65z" />
    <glyph glyph-name="hungarumlaut" unicode="&#x2dd;" horiz-adv-x="333" 
d="M454 780h155l-179 -146h-101zM239 780h155l-179 -146h-101z" />
    <glyph glyph-name="endash" unicode="&#x2013;" 
d="M53 259l23 110h500l-23 -110h-500z" />
    <glyph glyph-name="emdash" unicode="&#x2014;" horiz-adv-x="1000" 
d="M53 259l23 110h1000l-23 -110h-1000z" />
    <glyph glyph-name="quoteleft" unicode="&#x2018;" horiz-adv-x="278" 
d="M346 720q-33 -5 -54.5 -27t-29.5 -68h64l-27 -130h-121l25 119q14 67 47.5 104t105.5 48z" />
    <glyph glyph-name="quoteright" unicode="&#x2019;" horiz-adv-x="278" 
d="M190 525q33 5 54.5 27t28.5 68h-64l27 130h121l-24 -119q-14 -67 -47.5 -104t-105.5 -48z" />
    <glyph glyph-name="quotesinglbase" unicode="&#x201a;" horiz-adv-x="278" 
d="M67 -92q43 8 59.5 31.5t23.5 62.5h-63l27 130h120l-25 -119q-7 -34 -18 -59.5t-28.5 -43.5t-43 -29.5t-61.5 -18.5z" />
    <glyph glyph-name="quotedblleft" unicode="&#x201c;" 
d="M554 720q-33 -5 -54.5 -27t-29.5 -68h64l-27 -130h-121l25 119q14 67 47.5 104t105.5 48zM357 720q-33 -5 -54.5 -27t-29.5 -68h64l-27 -130h-121l25 119q14 67 47.5 104t105.5 48z" />
    <glyph glyph-name="quotedblright" unicode="&#x201d;" 
d="M204 525q33 5 54.5 27t28.5 68h-64l27 130h121l-24 -119q-14 -67 -47.5 -104t-105.5 -48zM401 525q33 5 54.5 27t28.5 68h-64l27 130h121l-24 -119q-14 -67 -47.5 -104t-105.5 -48z" />
    <glyph glyph-name="quotedblbase" unicode="&#x201e;" 
d="M76 -92q43 8 59.5 31.5t23.5 62.5h-63l27 130h120l-25 -119q-7 -34 -18 -59.5t-28.5 -43.5t-43 -29.5t-61.5 -18.5zM273 -92q17 4 31.5 10t27.5 20q11 15 15.5 31t8.5 33h-63l27 130h120l-25 -119q-7 -34 -18 -59.5t-28.5 -43.5t-43 -29.5t-61.5 -18.5z" />
    <glyph glyph-name="dagger" unicode="&#x2020;" 
d="M124 422l24 112h151l48 234h128l-48 -234h147l-24 -112h-147l-120 -577h-128l120 577h-151z" />
    <glyph glyph-name="daggerdbl" unicode="&#x2021;" 
d="M51 77l23 113h153l48 230h-153l23 113h153l49 235h128l-49 -235h150l-23 -113h-150l-48 -230h150l-23 -113h-150l-50 -238h-128l50 238h-153z" />
    <glyph glyph-name="bullet" unicode="&#x2022;" horiz-adv-x="420" 
d="M475 375q-8 -39 -30 -73.5t-53 -60t-68.5 -40.5t-76.5 -15q-34 0 -62 11.5t-48 31.5t-31 48t-11 60q0 9 1 18.5t3 19.5q8 39 30 73t52.5 59.5t67.5 40t76 14.5q34 0 62.5 -11.5t48.5 -31.5t31.5 -47t11.5 -59q0 -9 -1 -18.5t-3 -19.5z" />
    <glyph glyph-name="ellipsis" unicode="&#x2026;" horiz-adv-x="1000" 
d="M434 0l27 132h132l-27 -132h-132zM767 0l27 132h132l-27 -132h-132zM101 0l27 132h132l-27 -132h-132z" />
    <glyph glyph-name="perthousand" unicode="&#x2030;" horiz-adv-x="1111" 
d="M640 293q-22 0 -35.5 -8t-21.5 -22t-13 -34.5t-10 -45.5q-5 -20 -7.5 -37t-2.5 -31q0 -20 9.5 -31t35.5 -11q21 0 34.5 8t21.5 22t13.5 34.5t10.5 45.5q4 20 7 36.5t3 30.5q0 20 -9.5 31.5t-35.5 11.5zM312 663q-22 0 -35.5 -8t-21.5 -22t-13.5 -34.5t-10.5 -45.5
q-4 -20 -7 -36.5t-3 -30.5q0 -20 10 -31.5t36 -11.5q21 0 34.5 8t21.5 22t13 34.5t10 45.5q5 20 7.5 37t2.5 31q0 20 -9 31t-35 11zM998 293q-22 0 -35.5 -8t-21.5 -22t-13 -34.5t-10 -45.5q-5 -20 -7.5 -37t-2.5 -31q0 -20 9.5 -31t35.5 -11q21 0 34.5 8t21.5 22t13.5 34.5
t10.5 45.5q4 20 7 36.5t3 30.5q0 20 -9.5 31.5t-35.5 11.5zM169 -18l498 766h72l-497 -766h-73zM1013 366q38 0 62.5 -7.5t39 -21t20 -31.5t5.5 -40q0 -20 -3 -40.5t-8 -42.5q-8 -36 -18 -69t-30.5 -58.5t-54.5 -40.5t-89 -15q-38 0 -62 7.5t-38.5 21t-20 31.5t-5.5 40
q0 19 3 40t8 43q7 36 17.5 69t31 58.5t54.5 40.5t88 15zM327 736q37 0 62 -7.5t39 -20.5t20 -31.5t6 -39.5q0 -20 -3.5 -40.5t-8.5 -43.5q-7 -36 -17.5 -69t-31 -58.5t-54.5 -40.5t-89 -15q-38 0 -62 7.5t-38.5 21t-20 31.5t-5.5 40q0 19 3 40t8 43q7 36 18 69t31.5 58.5
t54.5 40.5t88 15zM655 366q38 0 62.5 -7.5t39 -21t20 -31.5t5.5 -40q0 -20 -3 -40.5t-8 -42.5q-8 -36 -18 -69t-30.5 -58.5t-54.5 -40.5t-89 -15q-38 0 -62 7.5t-38.5 21t-20 31.5t-5.5 40q0 19 3 40t8 43q7 36 17.5 69t31 58.5t54.5 40.5t88 15z" />
    <glyph glyph-name="guilsinglleft" unicode="&#x2039;" horiz-adv-x="278" 
d="M100 204l21 102l186 141l-23 -112l-110 -75l77 -85l-24 -113z" />
    <glyph glyph-name="guilsinglright" unicode="&#x203a;" horiz-adv-x="278" 
d="M99 175l111 81l-78 79l23 112l128 -141l-21 -102l-187 -142z" />
    <glyph glyph-name="fraction" unicode="&#x2044;" horiz-adv-x="167" 
d="M-169 0l578 738h75l-578 -738h-75z" />
    <glyph glyph-name="fraction" unicode="&#x2215;" horiz-adv-x="167" 
d="M-169 0l578 738h75l-578 -738h-75z" />
    <glyph glyph-name="trademark" unicode="&#x2122;" horiz-adv-x="860" 
d="M449 672h-115l-68 -326h-80l68 326h-114l16 78h309zM845 346h-80l68 326h-2l-173 -326h-47l-37 326h-2l-68 -326h-80l84 404h129l32 -239h2l129 239h129z" />
    <glyph glyph-name="minus" unicode="&#x2212;" 
d="M89 304h449l-23 -110h-449z" />
    <glyph glyph-name="fi" unicode="&#xfb01;" 
d="M577 632h-130l24 118h130zM446 0h-130l117 564h130zM380 646q-8 2 -15 4t-13 2q-27 0 -32 -22l-13 -66h56l-20 -95h-56l-97 -469h-130l97 469h-50l20 95h50l11 56q8 38 21.5 63t33 40t46.5 21t63 6h49z" />
    <glyph glyph-name="fl" unicode="&#xfb02;" 
d="M443 0h-130l155 750h130zM107 469l20 95h50l11 56q8 38 21.5 63t33 40t46.5 21t63 6h49l-21 -104q-8 2 -15 4t-13 2q-27 0 -32 -22l-13 -66h56l-20 -95h-56l-97 -469h-130l97 469h-50z" />
    <glyph glyph-name="nonbreakingspace" horiz-adv-x="250" 
 />
    </font>
</defs>
</svg>
