<?xml version="1.0" standalone="no"?>
<!DOCTYPE svg PUBLIC "-//W3C//DTD SVG 1.1//EN" "http://www.w3.org/Graphics/SVG/1.1/DTD/svg11.dtd" >
<svg xmlns="http://www.w3.org/2000/svg" xmlns:xlink="http://www.w3.org/1999/xlink" version="1.1">
<metadata>
Created by FontForge 20170731 at Tue Oct  9 23:05:06 2001
 By Aleksey,,,
Copyright (c) 1985, 1987, 1991, 1993 Adobe Systems Incorporated. All Rights Reserved.Helvetica is a trademark of Linotype-Hell AG and/or its subsidiaries.
</metadata>
<defs>
<font id="HelveticaLT-Condensed-BlackObl" horiz-adv-x="500" >
  <font-face 
    font-family="Helvetica LT CondensedBlack"
    font-weight="900"
    font-style="italic"
    font-stretch="normal"
    units-per-em="1000"
    panose-1="2 0 10 6 5 0 0 2 0 4"
    ascent="800"
    descent="-200"
    x-height="560"
    cap-height="750"
    bbox="-168 -250 1160 1000"
    underline-thickness="50"
    underline-position="-175"
    slope="-12"
    unicode-range="U+0020-FB02"
  />
<missing-glyph horiz-adv-x="250" 
 />
    <glyph glyph-name=".notdef" horiz-adv-x="250" 
 />
    <glyph glyph-name=".null" horiz-adv-x="0" 
 />
    <glyph glyph-name="nonmarkingreturn" horiz-adv-x="250" 
 />
    <glyph glyph-name="space" unicode=" " horiz-adv-x="250" 
 />
    <glyph glyph-name="space" unicode="&#xa0;" horiz-adv-x="250" 
 />
    <glyph glyph-name="exclam" unicode="!" horiz-adv-x="333" 
d="M83 0l35 171h169l-35 -171h-169zM195 561l39 189h176l-39 -189l-109 -320h-90z" />
    <glyph glyph-name="quotedbl" unicode="&#x22;" horiz-adv-x="333" 
d="M113 468l56 271h119l-56 -271h-119zM296 468l56 271h119l-56 -271h-119z" />
    <glyph glyph-name="numbersign" unicode="#" 
d="M307 430l-32 -94h86l32 94h-86zM511 222h-101l-76 -222h-87l75 222h-85l-76 -222h-90l76 222h-92l23 114h108l34 94h-94l24 115h108l70 205h87l-69 -205h86l69 205h90l-70 -205h83l-24 -115h-99l-32 -94h85z" />
    <glyph glyph-name="dollar" unicode="$" 
d="M353 608q-29 -8 -50.5 -21.5t-29.5 -48.5q-1 -5 -1.5 -9t-0.5 -8q0 -24 13.5 -41t36.5 -24zM291 100q17 3 33 10.5t28.5 18.5t20.5 26t9 33q-2 8 -2 12q0 3 0.5 5.5t0.5 5.5q0 10 -9 22.5t-46 33.5zM197 215v-4q0 -9 -3.5 -23t-3.5 -30q0 -18 10 -34t40 -26l39 187
q-33 18 -61.5 35.5t-49 39t-32 48.5t-11.5 64q0 26 6 58q8 40 30 74t53 59t68 40t76 17l14 66h88l-14 -66q71 -7 109 -47.5t38 -105.5q0 -14 -1.5 -28.5t-5.5 -29.5h-140q2 8 3 16.5t1 16.5q0 24 -10.5 42.5t-36.5 21.5l-36 -175q35 -16 65 -32.5t51.5 -37.5t34 -48.5
t12.5 -64.5q0 -25 -6 -55q-20 -94 -81.5 -148t-157.5 -61l-23 -110h-88l23 111q-78 14 -113 49.5t-35 100.5q0 35 9 80h139z" />
    <glyph glyph-name="percent" unicode="%" horiz-adv-x="833" 
d="M278 454q17 0 27.5 11t16.5 26t9.5 31.5t5.5 28.5q3 12 7.5 29t4.5 32q0 14 -6.5 23.5t-24.5 9.5h-4q-16 0 -25.5 -10.5t-15.5 -25.5t-8.5 -31t-5.5 -27q-4 -17 -8 -34.5t-4 -31.5t6.5 -22.5t24.5 -8.5zM703 278q-16 0 -25.5 -10.5t-15 -25t-8.5 -30.5t-5 -27
q-4 -17 -8 -34.5t-4 -31.5t6.5 -23t24.5 -9q17 0 27.5 11t16.5 26.5t9.5 32t5.5 28.5t6.5 28.5t4.5 31.5q0 14 -6.5 23.5t-24.5 9.5h-4zM288 -18h-84l497 768h82zM726 369q72 0 101.5 -29.5t29.5 -83.5q0 -33 -9 -73q-8 -39 -20.5 -73.5t-35 -59.5t-57 -39.5t-86.5 -14.5
q-72 0 -101.5 29t-29.5 82q0 17 2.5 36t7.5 40q8 41 23 75t39 59t57.5 38.5t78.5 13.5zM259 363q-73 0 -101.5 29t-28.5 83q0 33 9 75q9 41 24 75t39 59t57.5 38.5t78.5 13.5q69 0 99.5 -27t30.5 -84q0 -33 -9 -75q-8 -39 -20.5 -73.5t-35 -59.5t-57 -39.5t-86.5 -14.5z" />
    <glyph glyph-name="ampersand" unicode="&#x26;" horiz-adv-x="667" 
d="M444 658q-20 0 -34.5 -13.5t-18.5 -32.5q-1 -5 -1.5 -10t-0.5 -10q0 -20 7 -38.5t18 -31.5q11 5 22.5 14.5t21 21.5t17 24.5t9.5 23.5q2 5 2 10v9q0 33 -42 33zM322 331q-16 -14 -28.5 -26.5t-21.5 -26t-15 -29t-10 -35.5q-1 -5 -1.5 -10.5t-0.5 -10.5q0 -32 20 -54
t55 -22q20 1 41 11t41 22zM447 43q-83 -61 -179 -61q-87 0 -136 45t-49 123q0 25 6 55q17 78 65.5 138t123.5 101q-31 53 -31 116q0 13 1 25t4 26q8 39 31.5 68.5t55.5 49t69 29.5t71 10q33 0 61 -8t48.5 -23.5t32.5 -39t12 -54.5q0 -9 -1 -18.5t-3 -19.5
q-13 -64 -58.5 -110t-106.5 -75q14 -32 28 -63.5t26 -63.5h2q12 28 22 54l20 52h129q-14 -63 -45.5 -122.5t-70.5 -114.5l70 -162h-179z" />
    <glyph glyph-name="quotesingle" unicode="'" horiz-adv-x="250" 
d="M163 468l56 271h119l-56 -271h-119z" />
    <glyph glyph-name="parenleft" unicode="(" horiz-adv-x="278" 
d="M413 750q-69 -115 -111.5 -233.5t-68.5 -241.5q-29 -136 -29 -267q0 -103 19 -195h-125q-17 81 -27.5 144t-10.5 128q0 46 5.5 97t19.5 116q26 124 78 232t129 220h121z" />
    <glyph glyph-name="parenright" unicode=")" horiz-adv-x="278" 
d="M-18 -187q68 115 110.5 233.5t68.5 241.5q29 136 29 267q0 103 -19 195h125q17 -81 27.5 -144t10.5 -128q0 -46 -5.5 -97t-19.5 -116q-26 -124 -78.5 -232t-128.5 -220h-120z" />
    <glyph glyph-name="asterisk" unicode="*" 
d="M360 750h93l-23 -113l118 42l11 -92l-122 -35l57 -101l-86 -58l-55 103l-92 -100l-67 54l98 99l-107 33l48 90l103 -38z" />
    <glyph glyph-name="plus" unicode="+" 
d="M295 492h115l-39 -185h167l-24 -115h-167l-39 -192h-115l39 192h-167l24 115h167z" />
    <glyph glyph-name="comma" unicode="," horiz-adv-x="333" 
d="M61 -99q41 1 71 28q14 13 24 31t17 40h-91l35 171h169l-36 -172q-16 -78 -71 -114t-130 -41z" />
    <glyph glyph-name="hyphen" unicode="-" horiz-adv-x="333" 
d="M92 237l31 150h248l-31 -150h-248z" />
    <glyph glyph-name="hyphen" unicode="&#xad;" horiz-adv-x="333" 
d="M92 237l31 150h248l-31 -150h-248z" />
    <glyph glyph-name="period" unicode="." horiz-adv-x="333" 
d="M82 0l35 171h169l-35 -171h-169z" />
    <glyph glyph-name="slash" unicode="/" horiz-adv-x="278" 
d="M-47 -94l399 844h110l-403 -844h-106z" />
    <glyph glyph-name="zero" unicode="0" 
d="M416 538q1 4 3.5 14.5t2.5 24.5q0 17 -8 32.5t-34 15.5q-20 0 -33 -7.5t-21 -20t-12.5 -28t-7.5 -31.5l-70 -337q-2 -13 -4.5 -26t-2.5 -24q0 -19 9 -31.5t35 -12.5q21 1 34.5 12t21.5 26t11.5 30.5t5.5 25.5zM139 538q24 113 91.5 162.5t175.5 49.5q101 0 142 -36
t41 -107q0 -49 -15 -112l-56 -270q-13 -62 -33 -107.5t-52 -75.5t-78 -45t-110 -15q-89 0 -137 34.5t-48 110.5q0 30 7 62z" />
    <glyph glyph-name="one" unicode="1" 
d="M295 506h-153l24 115h5q30 0 62.5 5.5t62.5 18.5t54.5 34.5t37.5 54.5h113l-152 -734h-159z" />
    <glyph glyph-name="two" unicode="2" 
d="M123 479l8 39q23 112 93.5 172t184.5 60q87 0 134.5 -36.5t47.5 -111.5q0 -14 -2 -28t-5 -30q-8 -35 -19.5 -63.5t-28.5 -54t-39.5 -49t-51.5 -48.5l-78 -63q-12 -10 -31 -25.5t-38 -34t-35 -37t-22 -34.5h259l-28 -135h-449l5 25q9 46 31.5 89.5t52.5 83.5t66 76.5
t73 69.5l93 80q33 30 49.5 58t24.5 69q3 12 3 24q0 20 -10.5 35t-34.5 15h-6q-20 -1 -34 -13t-23.5 -29t-14.5 -35.5t-8 -32.5l-8 -36h-159z" />
    <glyph glyph-name="three" unicode="3" 
d="M248 442q26 2 54 3t54 17q10 6 18 16t14.5 22t10.5 24t6 22q2 8 3 16t1 15q0 20 -10.5 33t-36.5 13q-22 0 -35 -11.5t-21 -28t-12.5 -35.5t-8.5 -34h-160l13 55q10 42 36.5 75.5t61.5 57t76 36t80 12.5q82 0 131 -32.5t49 -106.5q0 -24 -6 -54q-12 -60 -43.5 -100.5
t-91.5 -66.5l-1 -2q49 -13 68 -47.5t19 -78.5q0 -29 -6 -59q-24 -114 -96 -167.5t-182 -53.5q-90 0 -134 41t-44 118q0 11 1 23.5t3 25.5l10 51h158q-3 -18 -7.5 -39.5t-4.5 -41.5q0 -23 9.5 -38t38.5 -15q20 0 34 9t23.5 23t15 31t8.5 33q5 23 5 46q0 18 -4.5 34t-16.5 25
q-11 7 -23.5 9.5t-26.5 3t-28 0.5t-27 1z" />
    <glyph glyph-name="four" unicode="4" 
d="M314 268l51 243h-2l-173 -243h124zM67 283l328 451h175l-97 -466h66l-26 -125h-66l-29 -143h-159l29 143h-250z" />
    <glyph glyph-name="five" unicode="5" 
d="M102 325l104 409h388l-28 -135h-261l-36 -140q31 23 61 34.5t65 11.5q41 0 68.5 -11.5t44 -31.5t23 -47.5t6.5 -58.5q0 -26 -3.5 -54t-9.5 -56q-13 -61 -34.5 -109.5t-55 -83t-81.5 -53t-114 -18.5q-94 0 -134.5 42.5t-40.5 129.5v10l11 57h158q-1 -13 -4 -30t-3 -34
q0 -19 7 -33.5t29 -16.5h7q22 0 37 14t24.5 33.5t15 41t8.5 35.5q3 17 8 41.5t5 47.5q0 25 -9.5 42.5t-37.5 17.5q-55 0 -71 -55h-147z" />
    <glyph glyph-name="six" unicode="6" 
d="M272 107q18 0 31 9t22 23.5t15 31.5t9 34l16 75q3 15 3 29q0 20 -10 34.5t-36 14.5q-17 0 -28.5 -6.5t-19.5 -17t-13.5 -24.5t-8.5 -28l-23 -110q-1 -5 -1.5 -9.5t-0.5 -9.5q0 -20 10.5 -33t34.5 -13zM419 556q3 15 3 27q0 19 -9 30.5t-35 11.5q-24 0 -38.5 -14
t-22.5 -34.5t-12.5 -42.5t-7.5 -38l-11 -50q17 11 31.5 18.5t28 11.5t28.5 5.5t34 1.5q37 0 62 -10.5t40 -29t21.5 -43.5t6.5 -53q0 -40 -11 -89q-13 -63 -33.5 -114t-53.5 -87t-82 -55.5t-118 -19.5q-48 0 -81 12t-54 33.5t-30 52t-9 67.5q0 46 12 99l41 198
q12 58 29.5 113.5t47.5 98t76.5 68.5t117.5 26q46 0 82 -6.5t60.5 -22.5t37.5 -42.5t13 -66.5q0 -13 -1 -27t-4 -29h-159z" />
    <glyph glyph-name="seven" unicode="7" 
d="M176 734h432l-26 -125q-65 -84 -115 -173.5t-94 -182.5q-31 -66 -53 -125.5t-43 -127.5h-173q5 25 18 60t30 74t37.5 80.5t41.5 80.5t41 72.5t36 57.5l114 174h-274z" />
    <glyph glyph-name="eight" unicode="8" 
d="M303 537q-2 -9 -3 -18t-1 -18q0 -20 8.5 -35t33.5 -15q19 0 33 8t23.5 21t15.5 29t9 32q2 8 3 16.5t1 16.5q0 22 -9 38.5t-35 16.5q-20 0 -33.5 -8t-22.5 -21.5t-14.5 -30t-8.5 -32.5zM270 104q24 0 39 11.5t24.5 29t14.5 37.5t9 38q3 14 5.5 28t2.5 28q0 23 -10.5 39
t-39.5 16q-24 0 -39 -11t-23 -28t-12.5 -37t-7.5 -38q-3 -13 -5.5 -28t-2.5 -30q0 -22 9.5 -38.5t35.5 -16.5zM203 396q-33 20 -47 46.5t-14 61.5q0 11 1.5 23t3.5 26q10 50 33.5 87t57 61.5t76 36.5t90.5 12q85 0 134 -35t49 -109q0 -25 -6 -53q-10 -48 -38.5 -89.5
t-84.5 -67.5l-1 -2q36 -24 51 -50.5t15 -62.5q0 -15 -2 -31.5t-6 -36.5q-26 -123 -96 -177t-188 -54q-81 0 -123.5 42t-42.5 120q0 29 8 69q6 30 14 54.5t22 45.5t36 40.5t57 40.5z" />
    <glyph glyph-name="nine" unicode="9" 
d="M380 625q-23 0 -38 -15t-24 -36.5t-14 -44t-8 -37.5q-3 -16 -7 -34t-4 -35q0 -20 9.5 -34.5t35.5 -14.5q23 0 37 11.5t22 29t12.5 37t7.5 35.5q4 18 9.5 41.5t5.5 45.5q0 21 -9 36t-35 15zM233 176q-3 -15 -3 -27q0 -19 9 -30.5t35 -11.5q24 0 38.5 14t23 34.5t13 42.5
t7.5 38l10 50q-17 -11 -31.5 -18.5t-28 -11.5t-28.5 -5.5t-34 -1.5q-37 0 -62 10.5t-40 29t-21 43t-6 53.5q0 21 2.5 43.5t7.5 45.5q13 63 33.5 114t53.5 87t82 55.5t118 19.5q48 0 81.5 -12t54 -34t29.5 -52.5t9 -67.5q0 -43 -11 -98l-42 -198q-12 -59 -29.5 -114
t-47.5 -97.5t-77 -68.5t-117 -26q-46 0 -82 6.5t-60.5 22.5t-37.5 42.5t-13 66.5q0 13 1 27t4 29h159z" />
    <glyph glyph-name="colon" unicode=":" horiz-adv-x="278" 
d="M55 0l35 171h169l-35 -171h-169zM134 384l36 171h169l-36 -171h-169z" />
    <glyph glyph-name="semicolon" unicode=";" horiz-adv-x="278" 
d="M134 384l36 171h169l-36 -171h-169zM34 -99q41 1 71 28q14 13 24 31t17 40h-91l35 171h169l-36 -172q-16 -78 -71 -114t-130 -41z" />
    <glyph glyph-name="less" unicode="&#x3c;" 
d="M477 88l-23 -111l-371 225l21 99l464 227l-23 -111l-332 -167z" />
    <glyph glyph-name="equal" unicode="=" 
d="M494 95h-449l24 115h449zM535 290h-449l24 115h449z" />
    <glyph glyph-name="greater" unicode="&#x3e;" 
d="M390 250l-262 167l23 111l370 -227l-21 -99l-463 -225l23 111z" />
    <glyph glyph-name="question" unicode="?" 
d="M149 0l35 171h169l-34 -171h-170zM131 531q8 52 32 96t59.5 75t81.5 48.5t98 17.5q40 0 76 -8t62 -25.5t41.5 -45t15.5 -66.5q0 -11 -1.5 -22t-3.5 -23q-10 -48 -36 -84t-63 -72q-20 -20 -41 -40t-41 -41q-12 -14 -19.5 -25.5t-13 -22.5t-9.5 -24t-9 -29h-151
q7 36 18 72.5t37 68.5q15 15 38.5 37.5t46.5 47.5t41 51t23 50q3 10 3 21q0 20 -10.5 32.5t-34.5 12.5q-22 0 -36 -9.5t-23 -24t-13.5 -32.5t-8.5 -36h-159z" />
    <glyph glyph-name="at" unicode="@" horiz-adv-x="830" 
d="M579 370q8 26 8 48q0 29 -14 47.5t-45 18.5h-7q-24 -2 -46 -13t-40.5 -28.5t-32.5 -39.5t-20 -46q-6 -23 -6 -40q0 -31 15 -48t39 -21q5 -1 14 -1q25 0 47 12t40 30t30 39.5t18 41.5zM666 569h98l-117 -308q-3 -8 -3 -11q0 -11 11 -11q5 0 7 1q14 4 37.5 22.5t44.5 41.5
q7 7 15.5 20t17 29t15.5 34t11 36q9 39 9 72q0 47 -17 84.5t-48 63t-74.5 39t-97.5 13.5q-69 0 -132.5 -24t-114.5 -66t-86.5 -100t-49.5 -127q-8 -40 -8 -72q0 -57 20 -103.5t56.5 -78.5t87 -49.5t111.5 -17.5q60 0 116.5 26t107.5 65h96q-72 -77 -159 -121.5t-184 -44.5
q-73 0 -134 23t-104.5 64t-67.5 98.5t-24 126.5q0 40 9 84q17 84 63 155t110.5 123.5t143 82t161.5 29.5q69 0 126.5 -19.5t100.5 -64.5q34 -35 53.5 -78.5t19.5 -95.5q0 -28 -6 -58q-13 -62 -42.5 -115t-81.5 -98q-18 -15 -43 -31t-52 -28.5t-54 -20.5t-49 -8
q-14 0 -24.5 10t-10.5 27q0 11 6 26l-2 2q-76 -61 -135 -61q-67 0 -101.5 38.5t-34.5 98.5q0 11 1.5 23t3.5 24q9 46 33 89t58.5 76t78 53t91.5 20q40 0 69.5 -14.5t45.5 -46.5z" />
    <glyph glyph-name="A" unicode="A" horiz-adv-x="556" 
d="M406 614h-2l-121 -336h102zM9 0l319 750h212l8 -750h-178l5 146h-138l-51 -146h-177z" />
    <glyph glyph-name="B" unicode="B" horiz-adv-x="556" 
d="M314 455q29 2 50.5 3.5t37.5 9.5t26.5 25.5t17.5 50.5q3 13 3 23q0 17 -7 27t-19 14.5t-28 5.5t-34 1h-14zM248 135q33 1 57 2t41 9.5t28 28t19 57.5q2 9 3 16.5t1 14.5q0 21 -8.5 32t-23 16.5t-35 6.5t-44.5 2zM44 0l155 750h228q43 0 80.5 -7t64.5 -23t42.5 -43.5
t15.5 -67.5q0 -25 -6 -53q-11 -50 -39 -91.5t-79 -66.5v-2q38 -25 53.5 -49.5t15.5 -60.5q0 -29 -9 -69q-24 -114 -95.5 -165.5t-178.5 -51.5h-248z" />
    <glyph glyph-name="C" unicode="C" horiz-adv-x="556" 
d="M440 488l10 48q2 11 3.5 21t1.5 19q0 29 -11 43t-30 14h-3q-40 0 -56.5 -21t-24.5 -57l-78 -371q-3 -12 -3 -23q0 -21 12 -32.5t40 -11.5q22 0 37.5 10.5t25 26.5t15.5 35t9 36l14 68h176l-19 -92q-10 -48 -32.5 -88.5t-59.5 -69.5t-88.5 -45t-118.5 -16q-99 0 -142 40.5
t-43 117.5q0 36 9 81l64 308q26 123 95.5 181t190.5 58q96 0 149 -36.5t53 -117.5q0 -31 -7 -63l-13 -63h-176z" />
    <glyph glyph-name="D" unicode="D" horiz-adv-x="556" 
d="M250 135q6 -1 12 -1h11q35 0 56 9t33.5 26.5t19.5 44t13 61.5l51 245q2 12 3.5 22.5t1.5 18.5q0 18 -6 28.5t-18.5 16t-32 7t-45.5 2.5zM46 0l155 750h191q24 0 50 -1t51 -4.5t48 -10.5t42 -19q29 -19 39.5 -47.5t10.5 -60.5q0 -19 -2.5 -38t-6.5 -39l-70 -333
q-25 -115 -108 -162q-39 -23 -80.5 -29t-82.5 -6h-237z" />
    <glyph glyph-name="E" unicode="E" 
d="M46 0l155 750h403l-31 -150h-227l-28 -138h220l-32 -150h-220l-33 -162h239l-31 -150h-415z" />
    <glyph glyph-name="F" unicode="F" 
d="M49 0l155 750h414l-31 -150h-238l-27 -133h219l-32 -150h-219l-65 -317h-176z" />
    <glyph glyph-name="G" unicode="G" horiz-adv-x="556" 
d="M391 -1l6 67h-2q-18 -24 -36 -40t-38 -26t-43.5 -14t-51.5 -4q-44 0 -74 11t-48.5 31.5t-27 48.5t-8.5 62q0 20 2.5 41.5t7.5 44.5l64 308q26 123 95.5 181t190.5 58q96 0 148.5 -36t52.5 -117q0 -14 -1.5 -30.5t-5.5 -33.5l-12 -56h-176l9 41q3 16 5 29.5t2 24.5
q0 21 -9.5 31.5t-32.5 11.5h-3q-40 0 -56.5 -21t-24.5 -57l-77 -371q-3 -12 -3 -22q0 -45 54 -45q22 0 36.5 8t23.5 21.5t13.5 31t8.5 35.5l12 59h-63l28 135h239l-85 -408h-120z" />
    <glyph glyph-name="H" unicode="H" horiz-adv-x="556" 
d="M41 0l155 750h176l-59 -288h122l59 288h176l-155 -750h-176l64 312h-122l-64 -312h-176z" />
    <glyph glyph-name="I" unicode="I" horiz-adv-x="278" 
d="M51 0l155 750h176l-155 -750h-176z" />
    <glyph glyph-name="J" unicode="J" horiz-adv-x="444" 
d="M199 250l-19 -95q-2 -10 -2 -14q0 -24 27 -24h3q20 1 28.5 6t10.5 21l127 606h176l-108 -522q-8 -40 -18.5 -81.5t-38.5 -79.5q-19 -26 -41.5 -42.5t-47 -26t-52 -13t-55.5 -3.5q-32 0 -59 7.5t-47.5 23t-32.5 38.5t-13 55v11q0 23 4 45.5t9 44.5l8 43h141z" />
    <glyph glyph-name="K" unicode="K" horiz-adv-x="556" 
d="M44 0l155 750h176l-62 -300h2l192 300h180l-228 -331l83 -419h-186l-43 261l-55 -76l-38 -185h-176z" />
    <glyph glyph-name="L" unicode="L" horiz-adv-x="444" 
d="M37 0l155 750h176l-124 -600h215l-31 -150h-391z" />
    <glyph glyph-name="M" unicode="M" horiz-adv-x="778" 
d="M49 0l155 750h248l-1 -443h2l186 443h246l-155 -750h-168l140 588h-2l-246 -588h-131l1 588h-2l-106 -588h-167z" />
    <glyph glyph-name="N" unicode="N" horiz-adv-x="556" 
d="M283 420l-3 -2l-70 -418h-167l155 750h181l49 -419h3l70 419h167l-155 -750h-180z" />
    <glyph glyph-name="O" unicode="O" horiz-adv-x="556" 
d="M451 532q3 12 5 25t2 25q0 22 -10 36.5t-38 14.5q-21 0 -35.5 -9.5t-24 -24t-15 -32.5t-9.5 -35l-64 -308q-2 -11 -4 -23.5t-2 -24.5q0 -23 9.5 -41t38.5 -18q21 0 35.5 10.5t24 26.5t15 35t8.5 35zM566 239q-13 -63 -35 -111.5t-56.5 -80.5t-83 -48.5t-115.5 -16.5
q-106 0 -152 41t-46 122q0 21 3 44.5t8 49.5l64 305q23 109 96.5 166.5t189.5 57.5q98 0 148 -41.5t50 -119.5q0 -14 -1.5 -30t-5.5 -33z" />
    <glyph glyph-name="P" unicode="P" horiz-adv-x="556" 
d="M317 427q25 1 52 1.5t51 17.5q17 15 25.5 35.5t12.5 40.5q5 20 5 42q0 14 -4.5 26.5t-15.5 18.5q-12 5 -29.5 5.5t-38.5 0.5h-19zM53 0l155 750h209q25 0 55 -2t58 -8t52 -18.5t38 -33.5q14 -20 19 -41.5t5 -45.5q0 -18 -2.5 -37t-6.5 -39q-6 -30 -17 -61.5t-28 -59.5
t-41 -51t-57 -37q-25 -11 -50.5 -16t-51 -6.5t-51 -1t-50.5 -0.5l-60 -292h-176z" />
    <glyph glyph-name="Q" unicode="Q" horiz-adv-x="556" 
d="M262 224q-2 -11 -4 -23.5t-2 -24.5q0 -23 9.5 -41t38.5 -18q21 0 35.5 10.5t24 26.5t15 35t8.5 35l64 308q3 12 5 25t2 25q0 22 -10 36.5t-38 14.5q-21 0 -35.5 -9.5t-24 -24t-15 -32.5t-9.5 -35zM566 239q-12 -60 -32.5 -106.5t-54.5 -79.5l63 -88l-121 -88l-76 111
q-8 -2 -16.5 -2.5t-16.5 -1.5t-17 -1.5t-19 -0.5q-106 0 -152 41t-46 122q0 21 3 44.5t8 49.5l64 305q23 109 96.5 166.5t189.5 57.5q98 0 148 -41.5t50 -119.5q0 -14 -1.5 -30t-5.5 -33z" />
    <glyph glyph-name="R" unicode="R" horiz-adv-x="556" 
d="M307 431h60q19 0 33 8t23.5 21t16 30t9.5 34q5 25 5 39q0 34 -21 43t-63 9h-25zM218 0h-176l155 750h257q90 0 135.5 -32t45.5 -106q0 -15 -2 -32t-6 -37q-12 -60 -39.5 -102.5t-88.5 -68.5l-1 -2q32 -8 50 -28t18 -52v-8t-1 -9q-3 -23 -8.5 -56t-11 -67t-9.5 -65t-4 -49
q2 -8 4.5 -14.5t7.5 -11.5l-2 -10h-192q-3 13 -3 27v8t1 8q8 50 18.5 94.5t14.5 79.5q1 5 1 9v10q0 26 -9.5 42t-35.5 18h-58z" />
    <glyph glyph-name="S" unicode="S" 
d="M231 251l-11 -53q-3 -15 -3 -29q0 -23 12 -37.5t44 -14.5q31 0 50 23t24 52q3 12 3 22q0 18 -7 31t-18 23.5t-25 20t-27 18.5q-35 23 -64 46t-48 52q-13 20 -19.5 42.5t-6.5 51.5q0 24 6 56q22 106 92 159.5t173 53.5q93 0 138.5 -45t45.5 -120q0 -34 -11 -78h-162
q2 14 4.5 28t2.5 28q0 20 -8.5 35t-34.5 17h-7q-23 0 -39.5 -13.5t-24.5 -36.5q-5 -14 -5 -29q0 -20 11 -34.5t28 -28.5q43 -32 79.5 -54.5t62.5 -51.5q17 -20 26.5 -44.5t9.5 -59.5q0 -32 -9 -75q-23 -109 -92.5 -166.5t-179.5 -57.5q-52 0 -89 11.5t-60.5 32t-34.5 47.5
t-11 57q0 18 5 41l17 80h163z" />
    <glyph glyph-name="T" unicode="T" 
d="M177 750h456l-31 -150h-142l-124 -600h-176l124 600h-138z" />
    <glyph glyph-name="U" unicode="U" horiz-adv-x="556" 
d="M197 750h176l-117 -566q-3 -14 -3 -25q0 -18 10.5 -30t39.5 -12q17 0 30 6.5t22 17t14.5 23.5t8.5 25l116 561h176l-112 -543q-10 -48 -30.5 -89t-54 -71t-83 -47.5t-116.5 -17.5q-95 0 -145.5 39t-50.5 120q0 32 7 66z" />
    <glyph glyph-name="V" unicode="V" horiz-adv-x="556" 
d="M174 0l-8 750h176l-19 -526h2l199 526h176l-319 -750h-207z" />
    <glyph glyph-name="W" unicode="W" horiz-adv-x="778" 
d="M590 224h2l164 526h167l-280 -750h-198l55 528h-2l-167 -528h-195l29 750h170l-56 -527l2 2l180 525h170z" />
    <glyph glyph-name="X" unicode="X" horiz-adv-x="556" 
d="M387 522h2l127 228h176l-234 -376l86 -374h-176l-39 224h-2l-146 -224h-168l244 374l-80 376h175z" />
    <glyph glyph-name="Y" unicode="Y" horiz-adv-x="556" 
d="M381 505h2l141 245h176l-271 -435l-65 -315h-176l65 315l-87 435h178z" />
    <glyph glyph-name="Z" unicode="Z" horiz-adv-x="444" 
d="M181 750h398l-29 -140l-313 -460h228l-31 -150h-424l27 134l319 466h-206z" />
    <glyph glyph-name="bracketleft" unicode="[" horiz-adv-x="278" 
d="M197 750h220l-19 -95h-81l-156 -747h81l-19 -95h-220z" />
    <glyph glyph-name="backslash" unicode="\" horiz-adv-x="250" 
d="M166 -94l-53 844h110l50 -844h-107z" />
    <glyph glyph-name="bracketright" unicode="]" horiz-adv-x="278" 
d="M197 -187h-219l19 95h80l156 747h-81l19 95h220z" />
    <glyph glyph-name="asciicircum" unicode="^" 
d="M92 373l254 377h118l98 -377l-112 -47l-76 279l-190 -279z" />
    <glyph glyph-name="underscore" unicode="_" 
d="M-25 -125l10 50h499l-10 -50h-499z" />
    <glyph glyph-name="grave" unicode="`" horiz-adv-x="333" 
d="M332 782l69 -148h-137l-140 148h208z" />
    <glyph glyph-name="a" unicode="a" 
d="M357 272q-26 -13 -48.5 -21.5t-39.5 -19.5t-32 -27t-20 -45q-1 -5 -1.5 -9t-0.5 -8q0 -20 12 -31.5t36 -11.5q18 0 30.5 8t21.5 21t15 27.5t9 28.5zM317 50q-37 -33 -70.5 -50.5t-80.5 -17.5q-57 0 -88 30t-31 81q0 20 4 39q10 48 28.5 80t42.5 54t51.5 34.5t55.5 21.5
t54 15.5t47.5 15.5t36 22.5t19.5 36.5q2 10 2 16q0 18 -10 30t-30 12q-22 0 -35 -7t-21.5 -19t-13 -27.5t-9.5 -33.5h-159q8 52 31 89t56.5 60t76.5 33.5t91 10.5q99 0 142 -27t43 -89q0 -25 -6 -55l-72 -343q-2 -6 -2 -13v-12q0 -19 3 -37h-155z" />
    <glyph glyph-name="b" unicode="b" 
d="M378 354q2 11 4.5 23.5t2.5 25.5q0 17 -7 29.5t-27 12.5q-32 0 -48 -28.5t-24 -69.5l-28 -132q-2 -13 -4 -25.5t-2 -24.5q0 -22 7 -37.5t26 -15.5h1q19 0 31 10t19.5 25t11.5 31.5t7 30.5zM313 514h2q26 36 61.5 49t70.5 13q29 0 49 -10t32 -27t17.5 -39.5t5.5 -47.5
q0 -33 -8 -68l-40 -194q-8 -36 -20.5 -72t-34 -66t-52.5 -49.5t-75 -20.5q-38 2 -68.5 22.5t-41.5 59.5h-2l-13 -64h-148l155 750h159z" />
    <glyph glyph-name="c" unicode="c" 
d="M379 352l1 10q1 16 4 32t3 32q-2 17 -10 26t-26 9q-31 0 -43.5 -20.5t-18.5 -47.5l-48 -231q-3 -14 -3 -25q0 -17 9 -28.5t32 -11.5q22 0 35.5 14.5t21.5 35t12 42.5t7 38h154q-3 -12 -7.5 -30.5t-10 -37.5t-11.5 -36.5t-12 -28.5q-27 -53 -73 -78.5t-100 -30.5
q-11 -1 -23 -2t-30 -1q-37 0 -67.5 6.5t-52.5 21.5t-34.5 39t-12.5 58q0 22 6 49l47 228q11 54 32.5 90.5t51.5 59t68.5 32.5t84.5 10q92 -2 135 -33.5t43 -99.5q0 -37 -14 -91h-150z" />
    <glyph glyph-name="d" unicode="d" 
d="M241 202q-2 -11 -4 -23.5t-2 -24.5q0 -17 7 -29.5t27 -12.5q32 0 46.5 28t22.5 69l27 132q3 14 5 28.5t2 28.5q0 20 -6.5 34t-23.5 14h-1q-19 0 -31.5 -10.5t-20 -25.5t-11 -32.5t-6.5 -30.5zM306 0l13 65h-2q-30 -41 -68 -62t-73 -21q-31 1 -51.5 11.5t-32.5 27.5
t-17 39t-5 47q0 20 2.5 41t7.5 42l40 194q7 33 20.5 67t35 62t51.5 45.5t69 17.5q32 0 58.5 -15t43.5 -52h2l50 241h159l-155 -750h-148z" />
    <glyph glyph-name="e" unicode="e" 
d="M381 359l12 55q1 3 1 11q0 15 -9 30.5t-35 15.5q-34 0 -49.5 -23t-21.5 -52l-8 -37h110zM249 254l-20 -98q-1 -5 -1.5 -9t-0.5 -9q0 -17 9 -28t30 -13h5q20 0 32 8.5t19 22.5t11 31.5t9 34.5h158q-17 -109 -82.5 -159.5t-169.5 -52.5h-4q-37 0 -69.5 7t-57 23t-38.5 40.5
t-14 60.5q0 18 5 43l47 228q11 54 35 90.5t57 59t74.5 32.5t87.5 10h4q36 0 69 -6.5t58 -21.5t39.5 -39t14.5 -58q0 -8 -1 -17.5t-3 -19.5l-34 -160h-269z" />
    <glyph glyph-name="f" unicode="f" horiz-adv-x="333" 
d="M175 444h-64l24 115h63l11 49q18 80 63.5 111t122.5 31h70l-23 -115h-34q-14 0 -25 -4t-13 -15l-12 -57h68l-24 -115h-68l-92 -444h-159z" />
    <glyph glyph-name="g" unicode="g" 
d="M241 204q-3 -12 -3 -23q0 -16 8 -26.5t29 -10.5q16 0 27 6.5t18.5 17t11.5 23.5t7 26l32 155q2 8 3 15.5t1 15.5q0 19 -9 31t-32 12q-15 0 -26 -9t-17.5 -21.5t-10.5 -27t-6 -25.5zM188 -31q-2 -8 -3 -15t-1 -12q0 -14 7.5 -20t27.5 -6h10q26 2 38.5 10.5t19.5 35.5
l23 113h-2q-30 -28 -62 -44.5t-64 -16.5q-30 0 -50.5 10t-33.5 27t-19 39t-6 47q0 26 6 53l40 194q7 33 21 67t35.5 62t51.5 45.5t69 17.5q42 -2 69.5 -22t39.5 -62h2l14 68h148l-119 -571q-10 -49 -33.5 -83t-57 -55t-74 -30.5t-85.5 -9.5q-39 0 -71.5 5t-55.5 17.5
t-35.5 35t-12.5 57.5q0 10 1 20.5t3 22.5h159z" />
    <glyph glyph-name="h" unicode="h" 
d="M312 516h2q35 35 67 47.5t66 12.5q50 0 77 -27t27 -70q0 -15 -3 -30l-93 -449h-159l82 398q3 12 3 20q0 14 -8.5 21t-29.5 7q-26 0 -39.5 -19t-18.5 -40l-80 -387h-159l155 750h159z" />
    <glyph glyph-name="i" unicode="i" horiz-adv-x="278" 
d="M187 615l28 135h159l-28 -135h-159zM60 0l116 560h159l-116 -560h-159z" />
    <glyph glyph-name="j" unicode="j" horiz-adv-x="278" 
d="M191 615l28 135h159l-28 -135h-159zM-1 -74h19q20 2 28.5 18t12.5 33l121 583h159l-119 -574q-8 -38 -20 -69.5t-31.5 -54.5t-48 -36.5t-70.5 -14.5h-75z" />
    <glyph glyph-name="k" unicode="k" 
d="M40 0l155 750h159l-78 -377h2l148 187h174l-205 -225l91 -335h-167l-49 216l-34 -36l-37 -180h-159z" />
    <glyph glyph-name="l" unicode="l" horiz-adv-x="278" 
d="M60 0l155 750h159l-155 -750h-159z" />
    <glyph glyph-name="m" unicode="m" horiz-adv-x="722" 
d="M302 560l-14 -65h2q28 38 66 58.5t70 22.5h7q37 0 63.5 -20t32.5 -54h2q29 38 63 56t68 18q25 0 47 -6t38.5 -17.5t26 -29t9.5 -40.5q0 -12 -3 -24l-95 -459h-159l83 400q0 3 0.5 6t0.5 6q0 14 -6.5 24t-23.5 10h-4q-43 -2 -52 -46l-83 -400h-159l83 400q0 18 -4.5 32
t-24.5 14q-24 0 -37 -11.5t-19 -34.5l-83 -400h-159l116 560h148z" />
    <glyph glyph-name="n" unicode="n" 
d="M313 560l-15 -70h2q9 16 23 31.5t31.5 27.5t36.5 19.5t38 7.5q25 0 47 -6t38.5 -17.5t26 -29t9.5 -40.5q0 -12 -3 -24l-95 -459h-159l83 400q0 3 0.5 6t0.5 6q0 14 -6.5 24t-23.5 10h-4q-43 -2 -52 -46l-83 -400h-159l116 560h148z" />
    <glyph glyph-name="o" unicode="o" 
d="M231 146q-1 -4 -1 -12q0 -37 40 -37q25 0 38 12.5t21 36.5l52 250q3 12 3 24q0 18 -9 29.5t-30 11.5q-28 0 -42.5 -19t-19.5 -46zM121 384q11 54 34 90.5t55 59t72.5 32.5t86.5 10q175 0 175 -135q0 -13 -2 -27t-5 -30l-47 -228q-26 -95 -89.5 -134.5t-154.5 -39.5
q-38 0 -70 7t-56 22.5t-37.5 40t-13.5 59.5q0 11 1.5 22t3.5 23z" />
    <glyph glyph-name="p" unicode="p" 
d="M372 354q2 11 4.5 23.5t2.5 25.5q0 17 -7 30t-27 13q-32 0 -48 -29t-24 -70l-28 -132q-2 -13 -4 -25.5t-2 -24.5q0 -22 7 -37.5t26 -15.5h1q19 0 31 10t19.5 25t11.5 31.5t7 30.5zM306 560l-14 -68h2q32 42 68.5 62t78.5 22q29 0 49 -10t32 -27t17.5 -39.5t5.5 -47.5
q0 -33 -8 -68l-40 -194q-8 -36 -20.5 -72t-34 -66t-52.5 -49.5t-75 -20.5h-2q-11 0 -24 3.5t-27 12t-26.5 22t-21.5 33.5h-2l-51 -242h-159l156 749h148z" />
    <glyph glyph-name="q" unicode="q" 
d="M362 341q6 25 6 52q0 22 -7 37.5t-25 15.5h-1q-19 0 -31.5 -10.5t-20 -25.5t-11 -32.5t-6.5 -30.5l-31 -145q-2 -11 -4 -23.5t-2 -24.5q0 -17 7 -29.5t27 -12.5q32 0 48 28t24 69zM411 -188h-159l51 241h-2q-36 -40 -71.5 -55.5t-57.5 -15.5h-2q-31 1 -51.5 11.5
t-32.5 27.5t-17 39t-5 47q0 20 2.5 41t7.5 42l40 194q7 33 20.5 67t35 62t51.5 45.5t69 17.5q42 -2 70 -22t43 -62h2l14 68h148z" />
    <glyph glyph-name="r" unicode="r" horiz-adv-x="333" 
d="M306 560l-18 -85h2q23 45 58.5 73t85.5 28l-37 -180q-12 2 -23.5 3t-23.5 1q-34 0 -51 -10.5t-27 -44.5l-71 -345h-159l116 560h148z" />
    <glyph glyph-name="s" unicode="s" horiz-adv-x="444" 
d="M356 394q1 10 2.5 20t1.5 19q0 17 -8 27.5t-33 10.5q-23 0 -40 -11t-22 -36q-1 -4 -1 -11q0 -17 12 -27.5t26 -18.5q31 -16 62.5 -30t56.5 -32t40.5 -43t15.5 -62q0 -9 -1 -19t-3 -21q-10 -47 -33.5 -80.5t-57 -55.5t-74 -32t-84.5 -10q-80 0 -128.5 30.5t-48.5 99.5
q0 14 2 28t6 31h152q-5 -18 -5 -35q0 -20 9.5 -34.5t35.5 -14.5t44 13t24 40q1 3 1 10q0 20 -13 33q-21 13 -46.5 24.5t-50.5 24.5t-46.5 29t-36.5 37q-21 33 -21 72q0 15 3 33q9 45 32.5 78t56.5 54t72.5 31t81.5 10q37 0 68.5 -8t54.5 -24t36 -41t13 -58q0 -24 -7 -51
h-149z" />
    <glyph glyph-name="t" unicode="t" horiz-adv-x="333" 
d="M104 445l24 115h63l33 160h159l-33 -160h76l-24 -115h-76l-61 -295q-1 -5 -1.5 -8.5t-0.5 -6.5q0 -14 8 -19t21 -5q8 2 13 2h11h17l-23 -112q-26 -4 -52 -6.5t-52 -2.5q-110 0 -110 91q0 19 4 38l67 324h-63z" />
    <glyph glyph-name="u" unicode="u" 
d="M301 0l14 69h-2q-9 -16 -23.5 -31.5t-31.5 -28t-36 -20t-38 -7.5q-121 0 -121 88q0 13 3 30l96 460h159l-83 -401q-1 -5 -1.5 -9t-0.5 -8q0 -13 5.5 -21.5t21.5 -8.5h4q21 1 36 13t20 34l83 401h159l-116 -560h-148z" />
    <glyph glyph-name="v" unicode="v" horiz-adv-x="444" 
d="M263 198h2l132 362h155l-239 -560h-182l-6 560h160z" />
    <glyph glyph-name="w" unicode="w" horiz-adv-x="667" 
d="M502 198h2l119 362h152l-224 -560h-170l15 291h-2l-108 -291h-170l9 560h154l-30 -362h2l133 362h136z" />
    <glyph glyph-name="x" unicode="x" horiz-adv-x="444" 
d="M547 560l-183 -280l71 -280h-159l-18 161h-2l-84 -161h-163l189 280l-67 280h158l14 -157h2l83 157h159z" />
    <glyph glyph-name="y" unicode="y" horiz-adv-x="444" 
d="M261 198h2l130 362h156l-201 -479q-27 -57 -47.5 -106.5t-48 -85.5t-68 -57t-105.5 -21q-21 0 -35.5 2.5t-26.5 2.5l25 118q8 -1 15 -1.5t15 -2.5q2 0 3.5 -0.5t3.5 -0.5q13 0 28.5 7.5t18.5 21.5q3 18 3 43q0 14 -0.5 27.5t-0.5 24.5l-6 507h160z" />
    <glyph glyph-name="z" unicode="z" horiz-adv-x="389" 
d="M141 560h350l-24 -116l-249 -319h182l-25 -125h-361l23 111l249 324h-171z" />
    <glyph glyph-name="braceleft" unicode="{" horiz-adv-x="274" 
d="M110 216q5 23 5 39q0 26 -13 43t-44 25v2q22 3 39 13t28.5 25t19 33.5t11.5 37.5l38 184q7 32 18.5 60t42.5 47q28 17 56 21t72 4h55v-2q-49 -11 -69.5 -40.5t-28.5 -71.5l-39 -184q-5 -26 -12.5 -47t-20 -36.5t-30.5 -26t-45 -16.5v-2q35 -5 48 -26.5t13 -50.5
q0 -14 -2 -28.5t-5 -29.5l-36 -172q-4 -17 -4 -37q0 -25 12 -44t44 -28v-2q-16 0 -30 -0.5t-28 -0.5q-46 0 -76.5 6t-46.5 29q-8 10 -11 23t-3 27q0 16 2.5 32t6.5 32z" />
    <glyph glyph-name="bar" unicode="|" horiz-adv-x="250" 
d="M351 750l-207 -1000h-142l207 1000h142z" />
    <glyph glyph-name="braceright" unicode="}" horiz-adv-x="274" 
d="M298 435q-2 -10 -3 -19.5t-1 -18.5q0 -27 12 -46.5t44 -24.5v-2q-26 -3 -42.5 -12t-27.5 -23t-17.5 -32.5t-10.5 -40.5l-33 -162q-7 -30 -17 -61.5t-36 -52.5q-26 -22 -59.5 -28.5t-81.5 -6.5q-12 0 -25.5 0.5t-27.5 0.5v2q47 11 67.5 39t29.5 71l36 171q5 25 12 46.5
t19 38.5t31 29.5t48 20.5v2q-35 8 -48.5 26.5t-13.5 47.5q0 23 6 52l39 185q5 23 5 40q0 28 -13 46.5t-44 24.5v2h57q44 0 70 -3.5t46 -20.5q14 -11 19 -25.5t5 -31.5q0 -12 -2 -24.5t-5 -26.5z" />
    <glyph glyph-name="asciitilde" unicode="~" 
d="M534 286q-16 -20 -32.5 -41t-35 -38t-39.5 -27.5t-46 -10.5q-23 0 -48 10.5t-49 22.5t-44 22.5t-32 10.5q-15 0 -28.5 -8t-24.5 -20t-21.5 -26.5t-19.5 -27.5l-41 74q15 21 32.5 43t37 40t42 29.5t46.5 11.5t48.5 -10.5t47 -22.5t42.5 -22.5t36 -10.5q14 0 26 7.5
t22.5 18.5t20 24t18.5 24z" />
    <glyph glyph-name="Euro" 
d="M464 26q-32 -23 -70 -34t-76 -11q-54 0 -91.5 19.5t-60.5 53t-33 77.5t-10 93q0 11 0.5 23t1.5 23h-64l30 62h41l6 29q3 20 9 40h-59l30 62h47q25 74 59.5 128t75 89.5t85.5 52.5t91 17q51 0 93.5 -15t69.5 -51l-71 -145q-4 12 -11 25.5t-18.5 24.5t-29 18.5t-41.5 7.5
q-25 0 -45.5 -13t-37.5 -34.5t-30 -49t-23 -55.5h198l-30 -62h-187q-4 -15 -7 -28t-5 -24l-3 -17h168l-30 -62h-145q-1 -8 -1 -15v-14q0 -24 3.5 -46.5t12 -39.5t23 -27.5t35.5 -10.5q9 0 24 1.5t33 8.5t37.5 22t39.5 42z" />
    <glyph glyph-name="Euro" unicode="&#x20ac;" 
d="M464 26q-32 -23 -70 -34t-76 -11q-54 0 -91.5 19.5t-60.5 53t-33 77.5t-10 93q0 11 0.5 23t1.5 23h-64l30 62h41l6 29q3 20 9 40h-59l30 62h47q25 74 59.5 128t75 89.5t85.5 52.5t91 17q51 0 93.5 -15t69.5 -51l-71 -145q-4 12 -11 25.5t-18.5 24.5t-29 18.5t-41.5 7.5
q-25 0 -45.5 -13t-37.5 -34.5t-30 -49t-23 -55.5h198l-30 -62h-187q-4 -15 -7 -28t-5 -24l-3 -17h168l-30 -62h-145q-1 -8 -1 -15v-14q0 -24 3.5 -46.5t12 -39.5t23 -27.5t35.5 -10.5q9 0 24 1.5t33 8.5t37.5 22t39.5 42z" />
    <glyph glyph-name="exclamdown" unicode="&#xa1;" horiz-adv-x="333" 
d="M331 389h-169l36 171h169zM278 319l-24 -320l-39 -188h-176l39 188l110 320h90z" />
    <glyph glyph-name="cent" unicode="&#xa2;" 
d="M235 174q-1 -4 -4 -20t-3 -29q0 -12 3 -13l132 358q-2 0 -5.5 1t-9.5 1q-8 0 -17 -3t-19 -12t-18.5 -26t-14.5 -45zM514 685l-52 -123q81 -28 81 -118q0 -38 -14 -92h-141q4 19 7 38.5t3 38.5v9q0 5 -1 10q-2 6 -4 7l-134 -366q8 -2 14 -2q33 0 48 14.5t24 46.5
q6 20 11 39.5t10 39.5h143q-12 -55 -28.5 -100t-44.5 -77.5t-70.5 -50t-105.5 -17.5h-19t-19 2l-54 -131h-86l59 147q-38 20 -51.5 48.5t-13.5 63.5q0 23 4 47t9 50l27 131q7 35 16 66.5t24 59.5t39.5 50.5t63.5 39.5q32 13 61 16.5t59 3.5l49 109h86z" />
    <glyph glyph-name="sterling" unicode="&#xa3;" 
d="M74 334l13 62h64q-10 23 -14 47t-4 49q0 20 2 39.5t6 39.5q9 47 35 83.5t62 62t79 38.5t87 13q82 0 130.5 -39.5t48.5 -117.5q0 -7 -0.5 -13.5t-1.5 -13.5l-12 -63h-153q3 16 6 33t3 33q0 23 -10.5 39.5t-39.5 16.5q-18 0 -31.5 -8t-23 -21t-15 -29t-8.5 -31
q-6 -29 -6 -58q0 -26 3 -50.5t6 -49.5h143l-13 -62h-126q-2 -11 -2.5 -23.5t-2.5 -23.5q-6 -29 -22 -55.5t-37.5 -50.5t-47 -44.5t-50.5 -36.5v-2q57 30 115 30q21 0 38 -3t31 -7t26 -7t23 -3q48 0 94 34l7 -125q-35 -15 -66.5 -25t-68.5 -10q-23 0 -44 5.5t-41.5 11.5
t-41.5 11.5t-44 5.5q-59 0 -118 -32l-34 107q25 15 48.5 34.5t42 43t32 49t19.5 52.5q2 12 3.5 23.5t1.5 22.5v9t-1 9h-90z" />
    <glyph glyph-name="currency" unicode="&#xa4;" 
d="M292 187q26 0 50.5 10t45 27t34.5 39.5t19 46.5q2 6 2 12v12q0 42 -26.5 70.5t-72.5 28.5q-26 0 -51 -10t-45 -27t-34 -39.5t-19 -46.5q-3 -14 -3 -25q0 -41 27 -69.5t73 -28.5zM81 181q-8 21 -12 40t-4 39q0 22 6 49q15 71 64 131l-35 43l96 80l34 -44q32 17 68 27.5
t69 10.5q35 0 67.5 -9.5t58.5 -28.5l54 44l62 -80l-53 -43q7 -19 11 -38.5t4 -40.5q0 -24 -6 -51q-7 -34 -23 -67.5t-40 -61.5l35 -44l-95 -79l-35 44q-34 -18 -68 -28.5t-69 -10.5q-36 0 -68 9.5t-58 29.5l-53 -44l-63 79z" />
    <glyph glyph-name="yen" unicode="&#xa5;" 
d="M403 315l-7 -32h91l-13 -62h-91l-10 -49h91l-13 -62h-91l-22 -110h-180l22 110h-89l13 62h89l10 49h-89l13 62h89l7 31l-85 436h192l23 -245h2l127 245h190z" />
    <glyph glyph-name="brokenbar" unicode="&#xa6;" horiz-adv-x="250" 
d="M336 675l-73 -350h-142l73 350h142zM90 175h142l-73 -350h-142z" />
    <glyph glyph-name="section" unicode="&#xa7;" 
d="M271 397q-12 -8 -24 -20.5t-15 -26.5q-1 -4 -1 -11q0 -23 14.5 -38.5t28.5 -29.5q19 -19 38.5 -36t38.5 -36q15 14 24 24.5t13 29.5q1 4 1.5 7t0.5 6q0 12 -5.5 18t-10.5 14q-22 28 -49.5 51.5t-53.5 47.5zM187 7q-4 -13 -4 -30q0 -19 9 -32.5t32 -13.5q30 0 49.5 13
t22.5 36q0 3 0.5 6t0.5 5q0 21 -10 38t-25.5 32.5t-35.5 30.5t-41 32q-18 15 -35 32t-30 37t-21 44t-8 53q0 11 1.5 22t3.5 24q9 42 39.5 82.5t70.5 64.5q-26 29 -26 75q0 15 3 32q7 32 25.5 63.5t48 57t69 41.5t88.5 16q34 0 63.5 -8t51.5 -24t34.5 -40t12.5 -56
q0 -22 -6 -47h-143q3 13 3 23q0 17 -9.5 27t-32.5 10q-47 0 -58 -47q-1 -3 -1 -10q0 -18 12 -35q25 -32 62 -61.5t69 -61.5q27 -27 44.5 -58t17.5 -71q0 -16 -3 -34q-9 -42 -26 -69t-35 -43.5t-32.5 -24.5t-18.5 -11q16 -17 24 -39.5t8 -47.5q0 -15 -3 -30
q-11 -51 -35 -87.5t-58 -60.5t-76.5 -35t-90.5 -11q-72 0 -111.5 38t-39.5 101q0 25 6 52h144z" />
    <glyph glyph-name="dieresis" unicode="&#xa8;" horiz-adv-x="333" 
d="M298 770l-27 -130h-158l27 130h158zM356 770h158l-27 -130h-158z" />
    <glyph glyph-name="copyright" unicode="&#xa9;" horiz-adv-x="830" 
d="M678 306q-12 -36 -34 -64t-51 -48t-63 -30.5t-68 -10.5q-42 0 -74.5 13t-55 35.5t-34 54t-11.5 69.5q0 26 6 55q10 49 33.5 90.5t57.5 71.5t77 47t93 17q71 0 113.5 -38t42.5 -107v-4h-89v2q0 36 -23.5 53.5t-60.5 17.5q-32 0 -57 -12t-43.5 -32t-31.5 -46.5t-19 -55.5
q-5 -25 -5 -44q0 -22 5 -41t16 -33.5t28.5 -23t42.5 -8.5q18 0 36.5 4.5t34.5 13.5t28 22.5t17 31.5h89zM552 672q-66 0 -125 -21.5t-105.5 -60.5t-79 -93.5t-45.5 -120.5q-4 -20 -6 -39t-2 -36q0 -51 16.5 -92t47 -70.5t75 -45t101.5 -15.5q66 0 125.5 22t107 62t81 95.5
t47.5 122.5q7 34 7 69q0 51 -17 92t-48.5 70.5t-77 45t-102.5 15.5zM411 -18q-87 0 -148 25t-100 67t-56.5 97t-17.5 114q0 23 2.5 45.5t7.5 45.5q14 68 51 138t96.5 126.5t141.5 92t186 35.5q82 0 142.5 -24t100.5 -65t59.5 -96t19.5 -117q0 -45 -9 -90q-17 -82 -60 -153.5
t-106 -125t-142 -84.5t-168 -31z" />
    <glyph glyph-name="ordfeminine" unicode="&#xaa;" horiz-adv-x="300" 
d="M308 586q-17 -8 -31 -13t-24.5 -12t-17.5 -16.5t-11 -26.5q-1 -4 -1 -10q0 -12 6.5 -19.5t20.5 -7.5q22 0 33 17.5t14 34.5zM283 422l1 30h-1q-23 -20 -44 -30t-50 -10q-36 0 -56.5 18.5t-20.5 50.5v10q0 6 2 11q5 24 13.5 40t29.5 36q13 15 35 23.5t45 16.5
q24 7 45 13.5t34 17.5q4 5 6 9.5t4 11.5q1 3 1 8q0 21 -27 21q-11 0 -19.5 -2.5t-16.5 -13.5q-5 -7 -7.5 -15t-4.5 -16h-99q10 63 53.5 89.5t103.5 26.5q26 0 47.5 -3t36.5 -11t23 -22t8 -36q0 -15 -3 -31l-43 -205q-2 -5 -2 -10v-9v-10q0 -4 1 -9h-95z" />
    <glyph glyph-name="guillemotleft" unicode="&#xab;" 
d="M326 239l31 146l204 120l-27 -131l-115 -63l90 -58l-27 -130zM86 239l31 146l204 120l-27 -131l-114 -63l89 -58l-27 -130z" />
    <glyph glyph-name="logicalnot" unicode="&#xac;" 
d="M420 290h-334l24 115h449l-61 -290h-115z" />
    <glyph glyph-name="registered" unicode="&#xae;" horiz-adv-x="830" 
d="M533 404h6q32 0 51 11.5t27 50.5q1 4 1 11q0 13 -8 20.5t-20 11t-26.5 4.5t-28.5 1h-103l-23 -110h124zM359 161h-93l88 425h238q57 -2 88.5 -22t31.5 -69q0 -9 -1.5 -19t-3.5 -21q-12 -58 -47.5 -84t-92.5 -30l66 -180h-107l-59 170h-73zM552 672q-66 0 -125 -21.5
t-105.5 -60.5t-79 -93.5t-45.5 -120.5q-4 -20 -6 -39t-2 -36q0 -51 16.5 -92t47 -70.5t75 -45t101.5 -15.5q66 0 125.5 22t107 62t81 95.5t47.5 122.5q7 34 7 69q0 51 -17 92t-48.5 70.5t-77 45t-102.5 15.5zM411 -18q-87 0 -148 25t-100 67t-56.5 97t-17.5 114
q0 23 2.5 45.5t7.5 45.5q14 68 51 138t96.5 126.5t141.5 92t186 35.5q82 0 142.5 -24t100.5 -65t59.5 -96t19.5 -117q0 -45 -9 -90q-17 -82 -60 -153.5t-106 -125t-142 -84.5t-168 -31z" />
    <glyph glyph-name="macron" unicode="&#xaf;" horiz-adv-x="333" 
d="M116 663l19 90h376l-19 -90h-376z" />
    <glyph glyph-name="macron" unicode="&#x2c9;" horiz-adv-x="333" 
d="M116 663l19 90h376l-19 -90h-376z" />
    <glyph glyph-name="degree" unicode="&#xb0;" horiz-adv-x="400" 
d="M368 600q1 3 1 9q0 15 -10 25t-26 10q-18 0 -33.5 -13t-19.5 -31q-1 -3 -1 -9q0 -15 10 -25t26 -10q18 0 33.5 13t19.5 31zM474 600q-6 -31 -23.5 -58.5t-42.5 -47.5t-54.5 -32t-60.5 -12q-55 0 -88.5 34t-33.5 85q0 16 3 31q6 31 23.5 58t42 47.5t54.5 32.5t61 12
q27 0 49.5 -9t38.5 -25.5t25 -38.5t9 -47q0 -15 -3 -30z" />
    <glyph glyph-name="plusminus" unicode="&#xb1;" 
d="M47 103h449l-24 -115h-449zM299 510h115l-25 -118h167l-24 -115h-167l-26 -125h-115l26 125h-167l24 115h167z" />
    <glyph glyph-name="twosuperior" unicode="&#xb2;" horiz-adv-x="300" 
d="M230 587h-103l5 24q14 67 58.5 103t118.5 36q57 0 88.5 -22t31.5 -69q0 -8 -1 -16t-3 -17q-9 -42 -29.5 -70t-58.5 -59l-50 -37q-8 -6 -20 -15.5t-24 -20.5t-22 -22.5t-14 -20.5h168l-17 -81h-292l3 15q6 28 20 54t33 50t42 45.5t47 41.5l59 48q22 18 32.5 35t15.5 42
q1 4 1 12q0 13 -6.5 22.5t-23.5 9.5h-3q-14 -1 -23 -8t-15 -17t-9 -21t-5 -20z" />
    <glyph glyph-name="threesuperior" unicode="&#xb3;" horiz-adv-x="300" 
d="M211 565q17 1 35 2t34 10q13 8 21 23.5t10 27.5q1 5 1.5 9t0.5 9q0 12 -6.5 20t-23.5 8q-14 0 -22.5 -6.5t-13.5 -17.5q-5 -10 -8 -21.5t-5 -20.5h-104l7 33q5 25 22 45.5t40 34.5t49.5 21.5t52.5 7.5q54 0 86 -20.5t32 -65.5q0 -14 -3 -30q-7 -35 -27.5 -60t-58.5 -40
l-1 -2q32 -8 45 -29t13 -47q0 -8 -1 -17t-3 -17q-14 -69 -60 -101t-117 -32q-57 0 -88.5 24t-31.5 69q0 8 1 16t3 16l6 31h103q-2 -11 -4.5 -25t-2.5 -27q1 -12 7.5 -20.5t23.5 -8.5q26 0 37 19t15 39q3 12 3 27q0 11 -3 21t-12 15q-8 5 -18.5 6t-21.5 1h-11q-4 0 -8 0.5
t-8 0.5z" />
    <glyph glyph-name="acute" unicode="&#xb4;" horiz-adv-x="333" 
d="M533 782l-202 -148h-137l131 148h208z" />
    <glyph glyph-name="mu" unicode="&#xb5;" 
d="M301 0l14 69h-2q-8 -14 -20 -28t-26.5 -25t-31 -17.5t-32.5 -6.5l-38 -181h-159l156 749h159l-83 -401q-1 -5 -1.5 -9t-0.5 -8q0 -13 5.5 -21.5t21.5 -8.5h4q21 1 36 13t20 34l83 401h159l-116 -560h-148z" />
    <glyph glyph-name="mu" unicode="&#x3bc;" 
d="M301 0l14 69h-2q-8 -14 -20 -28t-26.5 -25t-31 -17.5t-32.5 -6.5l-38 -181h-159l156 749h159l-83 -401q-1 -5 -1.5 -9t-0.5 -8q0 -13 5.5 -21.5t21.5 -8.5h4q21 1 36 13t20 34l83 401h159l-116 -560h-148z" />
    <glyph glyph-name="paragraph" unicode="&#xb6;" horiz-adv-x="550" 
d="M513 635h-66l-157 -751h-135l108 517q-65 0 -102 33.5t-37 93.5q0 11 1.5 21.5t3.5 22.5q10 51 32 85t54.5 54.5t74 29.5t92.5 9h326l-23 -115h-37l-157 -751h-135z" />
    <glyph glyph-name="periodcentered" unicode="&#xb7;" horiz-adv-x="333" 
d="M116 164l35 171h169l-35 -171h-169z" />
    <glyph glyph-name="periodcentered" unicode="&#x2219;" horiz-adv-x="333" 
d="M116 164l35 171h169l-35 -171h-169z" />
    <glyph glyph-name="cedilla" unicode="&#xb8;" horiz-adv-x="333" 
d="M26 -158q20 -6 39 -13t42 -7q19 0 38 9t22 28q0 2 0.5 3t0.5 3q0 14 -11 21t-23 8h-4q-18 0 -40 -10l-21 24l76 92h58l-53 -62l1 -2q8 3 17.5 4t20.5 1q31 -2 55.5 -16t24.5 -45q0 -4 -0.5 -7.5t-1.5 -8.5q-5 -24 -20.5 -42t-36.5 -30t-44.5 -18t-44.5 -6q-38 0 -65.5 8
t-59.5 20z" />
    <glyph glyph-name="onesuperior" unicode="&#xb9;" horiz-adv-x="300" 
d="M275 614h-99l15 69h5q19 0 39.5 3.5t39.5 11t34.5 20.5t23.5 32h73l-91 -440h-103z" />
    <glyph glyph-name="ordmasculine" unicode="&#xba;" horiz-adv-x="300" 
d="M224 510v-6q0 -23 26 -23q29 0 38 29l31 150q1 5 1 13q0 11 -5.5 18.5t-19.5 7.5q-18 0 -27.5 -11t-12.5 -28zM150 653q14 65 56.5 90t102.5 25q115 0 115 -83q0 -8 -1 -16t-3 -16l-28 -137q-16 -57 -56.5 -80.5t-100.5 -23.5q-24 0 -45.5 4t-37 13.5t-24.5 24.5t-9 37
q0 11 3 25z" />
    <glyph glyph-name="guillemotright" unicode="&#xbb;" 
d="M68 123l27 130l114 58l-89 63l27 131l156 -120l-31 -146zM308 123l27 130l113 58l-88 63l27 131l156 -120l-31 -146z" />
    <glyph glyph-name="onequarter" unicode="&#xbc;" horiz-adv-x="750" 
d="M623 161l30 146h-2l-109 -146h81zM240 614h-99l15 69h5q19 0 39.5 3.5t39.5 11t34.5 20.5t23.5 32h73l-91 -440h-103zM130 0l565 750h84l-562 -750h-87zM463 170l208 270h113l-58 -279h43l-16 -75h-43l-17 -86h-103l17 86h-162z" />
    <glyph glyph-name="onehalf" unicode="&#xbd;" horiz-adv-x="750" 
d="M236 614h-99l15 69h5q19 0 39.5 3.5t39.5 11t34.5 20.5t23.5 32h73l-91 -440h-103zM108 0l565 750h84l-562 -750h-87zM611 287h-103l5 24q14 67 59 103t119 36q57 0 88 -22t31 -68q0 -8 -1 -16.5t-3 -17.5q-8 -42 -29 -70t-59 -59l-49 -37q-8 -6 -20.5 -15.5t-24.5 -20.5
t-22 -22.5t-14 -20.5h168l-16 -81h-292l3 15q6 28 20 54t33 50t42 45.5t46 41.5l59 48q22 18 32.5 35t15.5 42q2 8 2 13q0 12 -6.5 21.5t-23.5 9.5h-4q-13 -1 -22 -8t-15 -17t-9 -21t-5 -20z" />
    <glyph glyph-name="threequarters" unicode="&#xbe;" horiz-adv-x="750" 
d="M630 161l30 146h-2l-109 -146h81zM160 0l565 750h84l-562 -750h-87zM208 565q17 1 35 2t34 10q13 8 21 23.5t10 27.5q1 5 1.5 9t0.5 9q0 12 -6.5 20t-23.5 8q-14 0 -22.5 -6.5t-13.5 -17.5q-5 -10 -8 -21.5t-5 -20.5h-104l7 33q5 25 22 45.5t40 34.5t49.5 21.5t52.5 7.5
q54 0 86 -20.5t32 -65.5q0 -14 -3 -30q-7 -35 -27.5 -60t-58.5 -40l-1 -2q32 -8 45 -29t13 -47q0 -8 -1 -17t-3 -17q-14 -69 -60 -101t-117 -32q-57 0 -88.5 24t-31.5 69q0 8 1 16t3 16l6 31h103q-2 -11 -4.5 -25t-2.5 -27q1 -12 7.5 -20.5t23.5 -8.5q26 0 37 19t15 39
q3 12 3 27q0 11 -3 21t-12 15q-8 5 -18.5 6t-21.5 1h-11q-4 0 -8 0.5t-8 0.5zM470 170l208 270h113l-58 -279h43l-16 -75h-43l-17 -86h-103l17 86h-162z" />
    <glyph glyph-name="questiondown" unicode="&#xbf;" 
d="M469 576l-35 -171h-169l35 171h169zM488 48q-8 -53 -32 -96.5t-59.5 -74.5t-81.5 -48.5t-98 -17.5q-41 0 -76 8t-61.5 25.5t-41.5 44.5t-15 66q0 11 1.5 22.5t3.5 23.5q10 48 35.5 84t62.5 72q21 20 41.5 40t40.5 41q13 14 20.5 25.5t13 22.5t9 23.5t8.5 29.5h151
q-7 -36 -17.5 -72.5t-36.5 -68.5q-16 -15 -39.5 -37.5t-46.5 -47.5t-41 -51t-23 -50q-1 -5 -1.5 -10.5t-0.5 -10.5q0 -20 10 -32.5t34 -12.5q22 0 36 9.5t23 24t14 32.5t8 36h159z" />
    <glyph glyph-name="Agrave" unicode="&#xc0;" horiz-adv-x="556" 
d="M406 614h-2l-121 -336h102zM484 972l69 -148h-137l-140 148h208zM9 0l319 750h212l8 -750h-178l5 146h-138l-51 -146h-177z" />
    <glyph glyph-name="Aacute" unicode="&#xc1;" horiz-adv-x="556" 
d="M406 614h-2l-121 -336h102zM685 972l-202 -148h-137l131 148h208zM9 0l319 750h212l8 -750h-178l5 146h-138l-51 -146h-177z" />
    <glyph glyph-name="Acircumflex" unicode="&#xc2;" horiz-adv-x="556" 
d="M406 614h-2l-121 -336h102zM383 952h165l91 -148h-148l-40 75l-71 -75h-147zM9 0l319 750h212l8 -750h-178l5 146h-138l-51 -146h-177z" />
    <glyph glyph-name="Atilde" unicode="&#xc3;" horiz-adv-x="556" 
d="M406 614h-2l-121 -336h102zM517 810q-23 0 -42.5 5.5t-36.5 13.5q-16 7 -30 12.5t-26 5.5q-18 0 -32.5 -13t-20.5 -30h-79q10 25 23.5 50t32 45.5t42 33t54.5 12.5q24 0 43 -6t36 -13q17 -8 31 -14t28 -6q15 0 30.5 11.5t19.5 25.5h80q-9 -27 -22.5 -51t-33 -42
t-43.5 -29t-54 -11zM9 0l319 750h212l8 -750h-178l5 146h-138l-51 -146h-177z" />
    <glyph glyph-name="Adieresis" unicode="&#xc4;" horiz-adv-x="556" 
d="M406 614h-2l-121 -336h102zM507 960h158l-27 -130h-158zM449 960l-27 -130h-158l27 130h158zM9 0l319 750h212l8 -750h-178l5 146h-138l-51 -146h-177z" />
    <glyph glyph-name="Aring" unicode="&#xc5;" horiz-adv-x="556" 
d="M474 940q-20 0 -39 -15.5t-24 -36.5q-1 -4 -1 -10q0 -17 11.5 -29.5t30.5 -12.5q21 0 40 16t23 36q1 3 1 10q0 17 -12 29.5t-30 12.5zM406 614h-2l-121 -336h102zM440 775q-41 0 -66.5 26t-25.5 64v11t2 12q5 23 18 43.5t32 35.5t41 24t45 9q40 0 65.5 -26t25.5 -64v-11
q0 -5 -2 -11q-5 -23 -18 -43.5t-31 -36t-40.5 -24.5t-45.5 -9zM9 0l319 750h212l8 -750h-178l5 146h-138l-51 -146h-177z" />
    <glyph glyph-name="AE" unicode="&#xc6;" horiz-adv-x="778" 
d="M455 600l-146 -288h102l60 288h-16zM383 162h-142l-80 -162h-184l426 750h490l-31 -150h-222l-29 -140h213l-31 -150h-213l-33 -160h229l-31 -150h-395z" />
    <glyph glyph-name="Ccedilla" unicode="&#xc7;" horiz-adv-x="556" 
d="M236 -16q-85 5 -123 44t-38 111q0 37 9 82l64 308q26 123 95.5 181t190.5 58q96 0 149 -36.5t53 -117.5q0 -31 -7 -63l-13 -63h-176l10 48q2 11 3.5 21t1.5 19q0 29 -11 43t-30 14h-3q-40 0 -56.5 -21t-24.5 -57l-78 -371q-3 -12 -3 -23q0 -21 12 -32.5t40 -11.5
q22 0 37.5 10.5t25 26.5t15.5 35t9 36l14 68h176l-19 -92q-9 -45 -29.5 -83t-53 -66.5t-78 -46t-104.5 -21.5l-39 -46l1 -2q8 3 17.5 4t20.5 1q31 -2 55.5 -16t24.5 -45q0 -4 -0.5 -7.5t-1.5 -8.5q-5 -24 -20.5 -42t-36.5 -30t-44.5 -18t-44.5 -6q-38 0 -66 8t-60 20l31 46
q20 -6 39 -13t42 -7q19 0 38 9t22 28q0 2 0.5 3t0.5 3q0 14 -11 21t-23 8h-4q-18 0 -40 -10l-21 24z" />
    <glyph glyph-name="Egrave" unicode="&#xc8;" 
d="M456 972l69 -148h-137l-140 148h208zM46 0l155 750h403l-31 -150h-227l-28 -138h220l-32 -150h-220l-33 -162h239l-31 -150h-415z" />
    <glyph glyph-name="Eacute" unicode="&#xc9;" 
d="M657 972l-202 -148h-137l131 148h208zM46 0l155 750h403l-31 -150h-227l-28 -138h220l-32 -150h-220l-33 -162h239l-31 -150h-415z" />
    <glyph glyph-name="Ecircumflex" unicode="&#xca;" 
d="M365 952h165l91 -148h-148l-40 75l-71 -75h-147zM46 0l155 750h403l-31 -150h-227l-28 -138h220l-32 -150h-220l-33 -162h239l-31 -150h-415z" />
    <glyph glyph-name="Edieresis" unicode="&#xcb;" 
d="M479 960h158l-27 -130h-158zM421 960l-27 -130h-158l27 130h158zM46 0l155 750h403l-31 -150h-227l-28 -138h220l-32 -150h-220l-33 -162h239l-31 -150h-415z" />
    <glyph glyph-name="Igrave" unicode="&#xcc;" horiz-adv-x="278" 
d="M345 972l69 -148h-137l-140 148h208zM51 0l155 750h176l-155 -750h-176z" />
    <glyph glyph-name="Iacute" unicode="&#xcd;" horiz-adv-x="278" 
d="M546 972l-202 -148h-137l131 148h208zM51 0l155 750h176l-155 -750h-176z" />
    <glyph glyph-name="Icircumflex" unicode="&#xce;" horiz-adv-x="278" 
d="M254 952h165l91 -148h-148l-40 75l-71 -75h-147zM51 0l155 750h176l-155 -750h-176z" />
    <glyph glyph-name="Idieresis" unicode="&#xcf;" horiz-adv-x="278" 
d="M368 960h158l-27 -130h-158zM310 960l-27 -130h-158l27 130h158zM51 0l155 750h176l-155 -750h-176z" />
    <glyph glyph-name="Eth" unicode="&#xd0;" horiz-adv-x="556" 
d="M322 485h74l-18 -90h-74l-54 -260h22q29 0 48.5 5t32.5 18t21 35.5t15 56.5l57 270q2 12 3.5 22t1.5 18q0 37 -24.5 46t-77.5 9zM128 395h-44l18 90h44l55 265h179q60 0 112.5 -5t90.5 -30q29 -19 39.5 -47.5t10.5 -60.5q0 -19 -2.5 -38t-6.5 -39l-67 -320
q-14 -65 -43.5 -109.5t-67.5 -65.5q-40 -22 -81 -28.5t-82 -6.5h-237z" />
    <glyph glyph-name="Ntilde" unicode="&#xd1;" horiz-adv-x="556" 
d="M517 810q-23 0 -42.5 5.5t-36.5 13.5q-16 7 -30 12.5t-26 5.5q-18 0 -32.5 -13t-20.5 -30h-79q10 25 23.5 50t32 45.5t42 33t54.5 12.5q24 0 43 -6t36 -13q17 -8 31 -14t28 -6q15 0 30.5 11.5t19.5 25.5h80q-9 -27 -22.5 -51t-33 -42t-43.5 -29t-54 -11zM283 420l-3 -2
l-70 -418h-167l155 750h181l49 -419h3l70 419h167l-155 -750h-180z" />
    <glyph glyph-name="Ograve" unicode="&#xd2;" horiz-adv-x="556" 
d="M484 972l69 -148h-137l-140 148h208zM451 532q3 12 5 25t2 25q0 22 -10 36.5t-38 14.5q-21 0 -35.5 -9.5t-24 -24t-15 -32.5t-9.5 -35l-64 -308q-2 -11 -4 -23.5t-2 -24.5q0 -23 9.5 -41t38.5 -18q21 0 35.5 10.5t24 26.5t15 35t8.5 35zM566 239q-13 -63 -35 -111.5
t-56.5 -80.5t-83 -48.5t-115.5 -16.5q-106 0 -152 41t-46 122q0 21 3 44.5t8 49.5l64 305q23 109 96.5 166.5t189.5 57.5q98 0 148 -41.5t50 -119.5q0 -14 -1.5 -30t-5.5 -33z" />
    <glyph glyph-name="Oacute" unicode="&#xd3;" horiz-adv-x="556" 
d="M685 972l-202 -148h-137l131 148h208zM451 532q3 12 5 25t2 25q0 22 -10 36.5t-38 14.5q-21 0 -35.5 -9.5t-24 -24t-15 -32.5t-9.5 -35l-64 -308q-2 -11 -4 -23.5t-2 -24.5q0 -23 9.5 -41t38.5 -18q21 0 35.5 10.5t24 26.5t15 35t8.5 35zM566 239q-13 -63 -35 -111.5
t-56.5 -80.5t-83 -48.5t-115.5 -16.5q-106 0 -152 41t-46 122q0 21 3 44.5t8 49.5l64 305q23 109 96.5 166.5t189.5 57.5q98 0 148 -41.5t50 -119.5q0 -14 -1.5 -30t-5.5 -33z" />
    <glyph glyph-name="Ocircumflex" unicode="&#xd4;" horiz-adv-x="556" 
d="M393 952h165l91 -148h-148l-40 75l-71 -75h-147zM451 532q3 12 5 25t2 25q0 22 -10 36.5t-38 14.5q-21 0 -35.5 -9.5t-24 -24t-15 -32.5t-9.5 -35l-64 -308q-2 -11 -4 -23.5t-2 -24.5q0 -23 9.5 -41t38.5 -18q21 0 35.5 10.5t24 26.5t15 35t8.5 35zM566 239
q-13 -63 -35 -111.5t-56.5 -80.5t-83 -48.5t-115.5 -16.5q-106 0 -152 41t-46 122q0 21 3 44.5t8 49.5l64 305q23 109 96.5 166.5t189.5 57.5q98 0 148 -41.5t50 -119.5q0 -14 -1.5 -30t-5.5 -33z" />
    <glyph glyph-name="Otilde" unicode="&#xd5;" horiz-adv-x="556" 
d="M517 810q-23 0 -42.5 5.5t-36.5 13.5q-16 7 -30 12.5t-26 5.5q-18 0 -32.5 -13t-20.5 -30h-79q10 25 23.5 50t32 45.5t42 33t54.5 12.5q24 0 43 -6t36 -13q17 -8 31 -14t28 -6q15 0 30.5 11.5t19.5 25.5h80q-9 -27 -22.5 -51t-33 -42t-43.5 -29t-54 -11zM451 532
q3 12 5 25t2 25q0 22 -10 36.5t-38 14.5q-21 0 -35.5 -9.5t-24 -24t-15 -32.5t-9.5 -35l-64 -308q-2 -11 -4 -23.5t-2 -24.5q0 -23 9.5 -41t38.5 -18q21 0 35.5 10.5t24 26.5t15 35t8.5 35zM566 239q-13 -63 -35 -111.5t-56.5 -80.5t-83 -48.5t-115.5 -16.5q-106 0 -152 41
t-46 122q0 21 3 44.5t8 49.5l64 305q23 109 96.5 166.5t189.5 57.5q98 0 148 -41.5t50 -119.5q0 -14 -1.5 -30t-5.5 -33z" />
    <glyph glyph-name="Odieresis" unicode="&#xd6;" horiz-adv-x="556" 
d="M449 960l-27 -130h-158l27 130h158zM507 960h158l-27 -130h-158zM451 532q3 12 5 25t2 25q0 22 -10 36.5t-38 14.5q-21 0 -35.5 -9.5t-24 -24t-15 -32.5t-9.5 -35l-64 -308q-2 -11 -4 -23.5t-2 -24.5q0 -23 9.5 -41t38.5 -18q21 0 35.5 10.5t24 26.5t15 35t8.5 35z
M566 239q-13 -63 -35 -111.5t-56.5 -80.5t-83 -48.5t-115.5 -16.5q-106 0 -152 41t-46 122q0 21 3 44.5t8 49.5l64 305q23 109 96.5 166.5t189.5 57.5q98 0 148 -41.5t50 -119.5q0 -14 -1.5 -30t-5.5 -33z" />
    <glyph glyph-name="multiply" unicode="&#xd7;" 
d="M114 391l99 81l106 -136l165 136l64 -81l-163 -136l106 -136l-98 -81l-107 136l-164 -136l-65 81l165 136z" />
    <glyph glyph-name="Oslash" unicode="&#xd8;" horiz-adv-x="556" 
d="M425 408h-2l-166 -218q0 -4 -0.5 -7t-0.5 -7q0 -24 10 -41.5t38 -17.5q21 0 35.5 10.5t24 26.5t15 35t8.5 35zM277 294h2l170 227l2 11q3 12 5 25t2 25q0 22 -10 36.5t-38 14.5q-21 0 -35.5 -9.5t-24 -24t-15 -32.5t-9.5 -35zM660 819l78 -46l-104 -132q3 -15 3 -33
q0 -14 -2 -30.5t-5 -33.5l-64 -305q-13 -63 -35 -111.5t-56.5 -80.5t-83 -48.5t-115.5 -16.5q-88 0 -136 30l-71 -97l-71 48l90 115q-10 27 -10 68q0 21 3 44t8 49l64 305q23 109 96.5 166.5t189.5 57.5q98 0 147 -43z" />
    <glyph glyph-name="Ugrave" unicode="&#xd9;" horiz-adv-x="556" 
d="M484 972l69 -148h-137l-140 148h208zM197 750h176l-117 -566q-3 -14 -3 -25q0 -18 10.5 -30t39.5 -12q17 0 30 6.5t22 17t14.5 23.5t8.5 25l116 561h176l-112 -543q-10 -48 -30.5 -89t-54 -71t-83 -47.5t-116.5 -17.5q-95 0 -145.5 39t-50.5 120q0 32 7 66z" />
    <glyph glyph-name="Uacute" unicode="&#xda;" horiz-adv-x="556" 
d="M685 972l-202 -148h-137l131 148h208zM197 750h176l-117 -566q-3 -14 -3 -25q0 -18 10.5 -30t39.5 -12q17 0 30 6.5t22 17t14.5 23.5t8.5 25l116 561h176l-112 -543q-10 -48 -30.5 -89t-54 -71t-83 -47.5t-116.5 -17.5q-95 0 -145.5 39t-50.5 120q0 32 7 66z" />
    <glyph glyph-name="Ucircumflex" unicode="&#xdb;" horiz-adv-x="556" 
d="M393 952h165l91 -148h-148l-40 75l-71 -75h-147zM197 750h176l-117 -566q-3 -14 -3 -25q0 -18 10.5 -30t39.5 -12q17 0 30 6.5t22 17t14.5 23.5t8.5 25l116 561h176l-112 -543q-10 -48 -30.5 -89t-54 -71t-83 -47.5t-116.5 -17.5q-95 0 -145.5 39t-50.5 120q0 32 7 66z
" />
    <glyph glyph-name="Udieresis" unicode="&#xdc;" horiz-adv-x="556" 
d="M507 960h158l-27 -130h-158zM449 960l-27 -130h-158l27 130h158zM197 750h176l-117 -566q-3 -14 -3 -25q0 -18 10.5 -30t39.5 -12q17 0 30 6.5t22 17t14.5 23.5t8.5 25l116 561h176l-112 -543q-10 -48 -30.5 -89t-54 -71t-83 -47.5t-116.5 -17.5q-95 0 -145.5 39
t-50.5 120q0 32 7 66z" />
    <glyph glyph-name="Yacute" unicode="&#xdd;" horiz-adv-x="556" 
d="M685 972l-202 -148h-137l131 148h208zM381 505h2l141 245h176l-271 -435l-65 -315h-176l65 315l-87 435h178z" />
    <glyph glyph-name="Thorn" unicode="&#xde;" horiz-adv-x="556" 
d="M298 332h31q24 0 41.5 2.5t30 12t21.5 28.5t16 51q6 28 6 45q0 33 -19 41t-57 8h-31zM208 750h176l-19 -95h33q54 0 96 -7t70.5 -24t43.5 -46t15 -73q0 -34 -9 -79q-14 -67 -40.5 -111t-65.5 -70.5t-90.5 -37t-115.5 -10.5h-33l-40 -197h-176z" />
    <glyph glyph-name="germandbls" unicode="&#xdf;" 
d="M343 482h4q17 0 27.5 8t16.5 21t9 27.5t6 28.5q3 13 5.5 26t2.5 25q0 15 -7 25t-28 10q-22 0 -33.5 -14.5t-17.5 -34.5l-125 -604h-159l122 589q19 90 85 134.5t159 44.5q75 0 119.5 -37.5t44.5 -103.5q0 -25 -8 -57q-6 -23 -13.5 -42t-19 -35.5t-27.5 -30.5t-40 -26v-2
q16 -5 27 -17t18 -28t9.5 -33.5t2.5 -33.5q0 -21 -3 -34l-23 -113q-10 -41 -26.5 -75.5t-41.5 -60t-59 -41t-78 -16.5h-3q-14 0 -26.5 5.5t-20.5 10.5l24 115q5 -1 9.5 -1.5t9.5 -0.5q25 0 36 17.5t19 55.5l24 118q3 15 3 26q0 19 -9 29t-32 10h-7z" />
    <glyph glyph-name="agrave" unicode="&#xe0;" 
d="M357 272q-26 -13 -48.5 -21.5t-39.5 -19.5t-32 -27t-20 -45q-1 -5 -1.5 -9t-0.5 -8q0 -20 12 -31.5t36 -11.5q18 0 30.5 8t21.5 21t15 27.5t9 28.5zM416 782l69 -148h-137l-140 148h208zM317 50q-37 -33 -70.5 -50.5t-80.5 -17.5q-57 0 -88 30t-31 81q0 20 4 39
q10 48 28.5 80t42.5 54t51.5 34.5t55.5 21.5t54 15.5t47.5 15.5t36 22.5t19.5 36.5q2 10 2 16q0 18 -10 30t-30 12q-22 0 -35 -7t-21.5 -19t-13 -27.5t-9.5 -33.5h-159q8 52 31 89t56.5 60t76.5 33.5t91 10.5q99 0 142 -27t43 -89q0 -25 -6 -55l-72 -343q-2 -6 -2 -13v-12
q0 -19 3 -37h-155z" />
    <glyph glyph-name="aacute" unicode="&#xe1;" 
d="M357 272q-26 -13 -48.5 -21.5t-39.5 -19.5t-32 -27t-20 -45q-1 -5 -1.5 -9t-0.5 -8q0 -20 12 -31.5t36 -11.5q18 0 30.5 8t21.5 21t15 27.5t9 28.5zM617 782l-202 -148h-137l131 148h208zM317 50q-37 -33 -70.5 -50.5t-80.5 -17.5q-57 0 -88 30t-31 81q0 20 4 39
q10 48 28.5 80t42.5 54t51.5 34.5t55.5 21.5t54 15.5t47.5 15.5t36 22.5t19.5 36.5q2 10 2 16q0 18 -10 30t-30 12q-22 0 -35 -7t-21.5 -19t-13 -27.5t-9.5 -33.5h-159q8 52 31 89t56.5 60t76.5 33.5t91 10.5q99 0 142 -27t43 -89q0 -25 -6 -55l-72 -343q-2 -6 -2 -13v-12
q0 -19 3 -37h-155z" />
    <glyph glyph-name="acircumflex" unicode="&#xe2;" 
d="M357 272q-26 -13 -48.5 -21.5t-39.5 -19.5t-32 -27t-20 -45q-1 -5 -1.5 -9t-0.5 -8q0 -20 12 -31.5t36 -11.5q18 0 30.5 8t21.5 21t15 27.5t9 28.5zM326 762h165l90 -148h-148l-39 75l-72 -75h-147zM317 50q-37 -33 -70.5 -50.5t-80.5 -17.5q-57 0 -88 30t-31 81
q0 20 4 39q10 48 28.5 80t42.5 54t51.5 34.5t55.5 21.5t54 15.5t47.5 15.5t36 22.5t19.5 36.5q2 10 2 16q0 18 -10 30t-30 12q-22 0 -35 -7t-21.5 -19t-13 -27.5t-9.5 -33.5h-159q8 52 31 89t56.5 60t76.5 33.5t91 10.5q99 0 142 -27t43 -89q0 -25 -6 -55l-72 -343
q-2 -6 -2 -13v-12q0 -19 3 -37h-155z" />
    <glyph glyph-name="atilde" unicode="&#xe3;" 
d="M357 272q-26 -13 -48.5 -21.5t-39.5 -19.5t-32 -27t-20 -45q-1 -5 -1.5 -9t-0.5 -8q0 -20 12 -31.5t36 -11.5q18 0 30.5 8t21.5 21t15 27.5t9 28.5zM449 620q-23 0 -42.5 5.5t-36.5 13.5q-16 7 -30 12.5t-26 5.5q-18 0 -32 -13t-21 -30h-79q10 25 23.5 50t32 45.5t42 33
t54.5 12.5q24 0 43.5 -6t36.5 -13q16 -8 30 -14t28 -6q15 0 30.5 11.5t19.5 25.5h80q-9 -27 -22.5 -51t-33 -42t-43.5 -29t-54 -11zM317 50q-37 -33 -70.5 -50.5t-80.5 -17.5q-57 0 -88 30t-31 81q0 20 4 39q10 48 28.5 80t42.5 54t51.5 34.5t55.5 21.5t54 15.5t47.5 15.5
t36 22.5t19.5 36.5q2 10 2 16q0 18 -10 30t-30 12q-22 0 -35 -7t-21.5 -19t-13 -27.5t-9.5 -33.5h-159q8 52 31 89t56.5 60t76.5 33.5t91 10.5q99 0 142 -27t43 -89q0 -25 -6 -55l-72 -343q-2 -6 -2 -13v-12q0 -19 3 -37h-155z" />
    <glyph glyph-name="adieresis" unicode="&#xe4;" 
d="M357 272q-26 -13 -48.5 -21.5t-39.5 -19.5t-32 -27t-20 -45q-1 -5 -1.5 -9t-0.5 -8q0 -20 12 -31.5t36 -11.5q18 0 30.5 8t21.5 21t15 27.5t9 28.5zM440 770h158l-27 -130h-158zM382 770l-27 -130h-158l27 130h158zM317 50q-37 -33 -70.5 -50.5t-80.5 -17.5q-57 0 -88 30
t-31 81q0 20 4 39q10 48 28.5 80t42.5 54t51.5 34.5t55.5 21.5t54 15.5t47.5 15.5t36 22.5t19.5 36.5q2 10 2 16q0 18 -10 30t-30 12q-22 0 -35 -7t-21.5 -19t-13 -27.5t-9.5 -33.5h-159q8 52 31 89t56.5 60t76.5 33.5t91 10.5q99 0 142 -27t43 -89q0 -25 -6 -55l-72 -343
q-2 -6 -2 -13v-12q0 -19 3 -37h-155z" />
    <glyph glyph-name="aring" unicode="&#xe5;" 
d="M415 790q-20 0 -39 -15.5t-24 -36.5q-1 -4 -1 -10q0 -17 11.5 -29.5t30.5 -12.5q21 0 39.5 16t23.5 36q1 3 1 10q0 17 -12 29.5t-30 12.5zM357 272q-26 -13 -48.5 -21.5t-39.5 -19.5t-32 -27t-20 -45q-1 -5 -1.5 -9t-0.5 -8q0 -20 12 -31.5t36 -11.5q18 0 30.5 8t21.5 21
t15 27.5t9 28.5zM380 625q-41 0 -66 26t-25 64v11t2 12q5 23 18 43.5t32 35.5t41 24t45 9q40 0 65.5 -26t25.5 -64v-11q0 -5 -2 -11q-5 -23 -18 -43.5t-31.5 -36t-41 -24.5t-45.5 -9zM317 50q-37 -33 -70.5 -50.5t-80.5 -17.5q-57 0 -88 30t-31 81q0 20 4 39q10 48 28.5 80
t42.5 54t51.5 34.5t55.5 21.5t54 15.5t47.5 15.5t36 22.5t19.5 36.5q2 10 2 16q0 18 -10 30t-30 12q-22 0 -35 -7t-21.5 -19t-13 -27.5t-9.5 -33.5h-159q8 52 31 89t56.5 60t76.5 33.5t91 10.5q99 0 142 -27t43 -89q0 -25 -6 -55l-72 -343q-2 -6 -2 -13v-12q0 -19 3 -37
h-155z" />
    <glyph glyph-name="ae" unicode="&#xe6;" horiz-adv-x="722" 
d="M632 351l13 59q1 5 1 9v9q0 18 -7.5 30.5t-30.5 12.5q-19 0 -32 -6.5t-21 -17.5t-13 -24.5t-8 -28.5l-9 -43h107zM352 271q-26 -13 -48 -20.5t-40 -17.5q-18 -11 -31 -27.5t-20 -48.5q-2 -6 -2 -12v-10q0 -17 9 -27.5t34 -10.5q24 0 39.5 14t25.5 34t15 42.5t9 39.5z
M506 246l-17 -82q-3 -15 -3 -30q0 -17 8 -29.5t31 -12.5q20 0 31.5 9.5t18.5 24t10.5 30.5t6.5 29h159q-17 -107 -82.5 -155t-172.5 -48q-18 0 -38 3t-38.5 10.5t-33 18.5t-19.5 28q-41 -37 -92.5 -48.5t-98.5 -11.5q-62 0 -96.5 30.5t-34.5 86.5q0 17 5 42q9 44 24.5 74
t39 51.5t56 36t75.5 27.5q18 5 40 10.5t42 13.5q21 9 36 22.5t20 36.5q1 5 1.5 8.5t0.5 7.5q0 20 -12 31t-34 11q-20 0 -34 -7.5t-23.5 -19.5t-14.5 -27.5t-7 -31.5h-159q7 53 29.5 89.5t57 59t78.5 32.5t95 10q36 0 70.5 -10.5t57.5 -33.5q34 23 67 33.5t71 10.5
q84 0 130 -35.5t46 -107.5q0 -14 -2 -28t-5 -30l-26 -129h-264z" />
    <glyph glyph-name="ccedilla" unicode="&#xe7;" 
d="M211 -16q-61 5 -98 34t-37 90q0 11 1 22.5t4 25.5l47 228q11 54 32.5 90.5t51.5 59t68.5 32.5t84.5 10q92 -2 135 -33.5t43 -99.5q0 -37 -14 -91h-150l1 10q1 16 4 32t3 32q-2 17 -10 26t-26 9q-31 0 -43.5 -20.5t-18.5 -47.5l-48 -231q-3 -14 -3 -25q0 -17 9 -28.5
t32 -11.5q22 0 35.5 14.5t21.5 35t12 42.5t7 38h154q-3 -12 -7.5 -30.5t-10 -37.5t-11.5 -36.5t-12 -28.5q-27 -53 -73 -78.5t-100 -30.5q-5 0 -11.5 -0.5t-14.5 -0.5l-39 -46l1 -2q8 3 17.5 4t20.5 1q31 -2 55.5 -16t24.5 -45q0 -4 -0.5 -7.5t-1.5 -8.5q-5 -24 -20.5 -42
t-36.5 -30t-44.5 -18t-44.5 -6q-38 0 -66 8t-60 20l31 46q20 -6 39 -13t42 -7q19 0 38 9t22 28q0 2 0.5 3t0.5 3q0 14 -11 21t-23 8h-4q-18 0 -40 -10l-21 24z" />
    <glyph glyph-name="egrave" unicode="&#xe8;" 
d="M381 359l12 55q1 3 1 11q0 15 -9 30.5t-35 15.5q-34 0 -49.5 -23t-21.5 -52l-8 -37h110zM416 782l69 -148h-137l-140 148h208zM249 254l-20 -98q-1 -5 -1.5 -9t-0.5 -9q0 -17 9 -28t30 -13h5q20 0 32 8.5t19 22.5t11 31.5t9 34.5h158q-17 -109 -82.5 -159.5t-169.5 -52.5
h-4q-37 0 -69.5 7t-57 23t-38.5 40.5t-14 60.5q0 18 5 43l47 228q11 54 35 90.5t57 59t74.5 32.5t87.5 10h4q36 0 69 -6.5t58 -21.5t39.5 -39t14.5 -58q0 -8 -1 -17.5t-3 -19.5l-34 -160h-269z" />
    <glyph glyph-name="eacute" unicode="&#xe9;" 
d="M381 359l12 55q1 3 1 11q0 15 -9 30.5t-35 15.5q-34 0 -49.5 -23t-21.5 -52l-8 -37h110zM617 782l-202 -148h-137l131 148h208zM249 254l-20 -98q-1 -5 -1.5 -9t-0.5 -9q0 -17 9 -28t30 -13h5q20 0 32 8.5t19 22.5t11 31.5t9 34.5h158q-17 -109 -82.5 -159.5
t-169.5 -52.5h-4q-37 0 -69.5 7t-57 23t-38.5 40.5t-14 60.5q0 18 5 43l47 228q11 54 35 90.5t57 59t74.5 32.5t87.5 10h4q36 0 69 -6.5t58 -21.5t39.5 -39t14.5 -58q0 -8 -1 -17.5t-3 -19.5l-34 -160h-269z" />
    <glyph glyph-name="ecircumflex" unicode="&#xea;" 
d="M381 359l12 55q1 3 1 11q0 15 -9 30.5t-35 15.5q-34 0 -49.5 -23t-21.5 -52l-8 -37h110zM326 762h165l90 -148h-148l-39 75l-72 -75h-147zM249 254l-20 -98q-1 -5 -1.5 -9t-0.5 -9q0 -17 9 -28t30 -13h5q20 0 32 8.5t19 22.5t11 31.5t9 34.5h158q-17 -109 -82.5 -159.5
t-169.5 -52.5h-4q-37 0 -69.5 7t-57 23t-38.5 40.5t-14 60.5q0 18 5 43l47 228q11 54 35 90.5t57 59t74.5 32.5t87.5 10h4q36 0 69 -6.5t58 -21.5t39.5 -39t14.5 -58q0 -8 -1 -17.5t-3 -19.5l-34 -160h-269z" />
    <glyph glyph-name="edieresis" unicode="&#xeb;" 
d="M381 359l12 55q1 3 1 11q0 15 -9 30.5t-35 15.5q-34 0 -49.5 -23t-21.5 -52l-8 -37h110zM440 770h158l-27 -130h-158zM382 770l-27 -130h-158l27 130h158zM249 254l-20 -98q-1 -5 -1.5 -9t-0.5 -9q0 -17 9 -28t30 -13h5q20 0 32 8.5t19 22.5t11 31.5t9 34.5h158
q-17 -109 -82.5 -159.5t-169.5 -52.5h-4q-37 0 -69.5 7t-57 23t-38.5 40.5t-14 60.5q0 18 5 43l47 228q11 54 35 90.5t57 59t74.5 32.5t87.5 10h4q36 0 69 -6.5t58 -21.5t39.5 -39t14.5 -58q0 -8 -1 -17.5t-3 -19.5l-34 -160h-269z" />
    <glyph glyph-name="igrave" unicode="&#xec;" horiz-adv-x="278" 
d="M305 782l69 -148h-137l-140 148h208zM60 0l116 560h159l-116 -560h-159z" />
    <glyph glyph-name="iacute" unicode="&#xed;" horiz-adv-x="278" 
d="M506 782l-202 -148h-137l131 148h208zM60 0l116 560h159l-116 -560h-159z" />
    <glyph glyph-name="icircumflex" unicode="&#xee;" horiz-adv-x="278" 
d="M205 762h165l90 -148h-148l-39 75l-72 -75h-147zM60 0l116 560h159l-116 -560h-159z" />
    <glyph glyph-name="idieresis" unicode="&#xef;" horiz-adv-x="278" 
d="M329 770h158l-27 -130h-158zM271 770l-27 -130h-158l27 130h158zM60 0l116 560h159l-116 -560h-159z" />
    <glyph glyph-name="eth" unicode="&#xf0;" 
d="M231 146q-1 -5 -1.5 -8t-0.5 -7q0 -34 41 -34q48 0 59 49l46 222q3 13 3 25q0 18 -8.5 29t-29.5 11q-28 0 -43 -19t-20 -46zM272 706l-50 62l116 71l51 -65l87 51l32 -50l-81 -48q23 -33 44 -65t36.5 -65.5t25 -70t9.5 -79.5q0 -44 -10 -91l-42 -200q-10 -48 -32 -81
t-54 -53.5t-72.5 -30t-85.5 -9.5q-38 0 -70 7t-56 22.5t-37.5 40t-13.5 59.5q0 11 1.5 22t3.5 23l42 200q11 54 33.5 90.5t50.5 59t59 32.5t60 10t44.5 -6t26.5 -17l2 2q-14 29 -33.5 61.5t-48.5 70.5l-97 -57l-32 50z" />
    <glyph glyph-name="ntilde" unicode="&#xf1;" 
d="M449 620q-23 0 -42.5 5.5t-36.5 13.5q-16 7 -30 12.5t-26 5.5q-18 0 -32 -13t-21 -30h-79q10 25 23.5 50t32 45.5t42 33t54.5 12.5q24 0 43.5 -6t36.5 -13q16 -8 30 -14t28 -6q15 0 30.5 11.5t19.5 25.5h80q-9 -27 -22.5 -51t-33 -42t-43.5 -29t-54 -11zM313 560l-15 -70
h2q9 16 23 31.5t31.5 27.5t36.5 19.5t38 7.5q25 0 47 -6t38.5 -17.5t26 -29t9.5 -40.5q0 -12 -3 -24l-95 -459h-159l83 400q0 3 0.5 6t0.5 6q0 14 -6.5 24t-23.5 10h-4q-43 -2 -52 -46l-83 -400h-159l116 560h148z" />
    <glyph glyph-name="ograve" unicode="&#xf2;" 
d="M416 782l69 -148h-137l-140 148h208zM231 146q-1 -4 -1 -12q0 -37 40 -37q25 0 38 12.5t21 36.5l52 250q3 12 3 24q0 18 -9 29.5t-30 11.5q-28 0 -42.5 -19t-19.5 -46zM121 384q11 54 34 90.5t55 59t72.5 32.5t86.5 10q175 0 175 -135q0 -13 -2 -27t-5 -30l-47 -228
q-26 -95 -89.5 -134.5t-154.5 -39.5q-38 0 -70 7t-56 22.5t-37.5 40t-13.5 59.5q0 11 1.5 22t3.5 23z" />
    <glyph glyph-name="oacute" unicode="&#xf3;" 
d="M617 782l-202 -148h-137l131 148h208zM231 146q-1 -4 -1 -12q0 -37 40 -37q25 0 38 12.5t21 36.5l52 250q3 12 3 24q0 18 -9 29.5t-30 11.5q-28 0 -42.5 -19t-19.5 -46zM121 384q11 54 34 90.5t55 59t72.5 32.5t86.5 10q175 0 175 -135q0 -13 -2 -27t-5 -30l-47 -228
q-26 -95 -89.5 -134.5t-154.5 -39.5q-38 0 -70 7t-56 22.5t-37.5 40t-13.5 59.5q0 11 1.5 22t3.5 23z" />
    <glyph glyph-name="ocircumflex" unicode="&#xf4;" 
d="M231 146q-1 -4 -1 -12q0 -37 40 -37q25 0 38 12.5t21 36.5l52 250q3 12 3 24q0 18 -9 29.5t-30 11.5q-28 0 -42.5 -19t-19.5 -46zM326 762h165l90 -148h-148l-39 75l-72 -75h-147zM121 384q11 54 34 90.5t55 59t72.5 32.5t86.5 10q175 0 175 -135q0 -13 -2 -27t-5 -30
l-47 -228q-26 -95 -89.5 -134.5t-154.5 -39.5q-38 0 -70 7t-56 22.5t-37.5 40t-13.5 59.5q0 11 1.5 22t3.5 23z" />
    <glyph glyph-name="otilde" unicode="&#xf5;" 
d="M231 146q-1 -4 -1 -12q0 -37 40 -37q25 0 38 12.5t21 36.5l52 250q3 12 3 24q0 18 -9 29.5t-30 11.5q-28 0 -42.5 -19t-19.5 -46zM449 620q-23 0 -42.5 5.5t-36.5 13.5q-16 7 -30 12.5t-26 5.5q-18 0 -32 -13t-21 -30h-79q10 25 23.5 50t32 45.5t42 33t54.5 12.5
q24 0 43.5 -6t36.5 -13q16 -8 30 -14t28 -6q15 0 30.5 11.5t19.5 25.5h80q-9 -27 -22.5 -51t-33 -42t-43.5 -29t-54 -11zM121 384q11 54 34 90.5t55 59t72.5 32.5t86.5 10q175 0 175 -135q0 -13 -2 -27t-5 -30l-47 -228q-26 -95 -89.5 -134.5t-154.5 -39.5q-38 0 -70 7
t-56 22.5t-37.5 40t-13.5 59.5q0 11 1.5 22t3.5 23z" />
    <glyph glyph-name="odieresis" unicode="&#xf6;" 
d="M382 770l-27 -130h-158l27 130h158zM440 770h158l-27 -130h-158zM231 146q-1 -4 -1 -12q0 -37 40 -37q25 0 38 12.5t21 36.5l52 250q3 12 3 24q0 18 -9 29.5t-30 11.5q-28 0 -42.5 -19t-19.5 -46zM121 384q11 54 34 90.5t55 59t72.5 32.5t86.5 10q175 0 175 -135
q0 -13 -2 -27t-5 -30l-47 -228q-26 -95 -89.5 -134.5t-154.5 -39.5q-38 0 -70 7t-56 22.5t-37.5 40t-13.5 59.5q0 11 1.5 22t3.5 23z" />
    <glyph glyph-name="divide" unicode="&#xf7;" 
d="M432 492l-24 -115h-159l24 115h159zM355 122l-24 -115h-159l24 115h159zM89 307h449l-24 -115h-449z" />
    <glyph glyph-name="oslash" unicode="&#xf8;" 
d="M380 390q3 15 3 30q0 17 -7.5 29t-30.5 12q-28 0 -42.5 -19t-19.5 -46l-31 -147h2zM239 185l-8 -39q-1 -4 -1 -12q0 -37 40 -37q25 0 38 12.5t21 36.5l38 184h-2zM562 633l63 -46l-88 -100q3 -11 5 -22t2 -24t-2 -27.5t-5 -29.5l-47 -228q-26 -95 -89.5 -134.5
t-154.5 -39.5q-40 0 -73.5 8t-56.5 25l-74 -89l-58 47l89 102q-4 16 -4 38q0 10 1 20.5t4 22.5l47 228q11 54 34 90.5t55 59t72.5 32.5t86.5 10q81 0 123 -29z" />
    <glyph glyph-name="ugrave" unicode="&#xf9;" 
d="M416 782l69 -148h-137l-140 148h208zM301 0l14 69h-2q-9 -16 -23.5 -31.5t-31.5 -28t-36 -20t-38 -7.5q-121 0 -121 88q0 13 3 30l96 460h159l-83 -401q-1 -5 -1.5 -9t-0.5 -8q0 -13 5.5 -21.5t21.5 -8.5h4q21 1 36 13t20 34l83 401h159l-116 -560h-148z" />
    <glyph glyph-name="uacute" unicode="&#xfa;" 
d="M617 782l-202 -148h-137l131 148h208zM301 0l14 69h-2q-9 -16 -23.5 -31.5t-31.5 -28t-36 -20t-38 -7.5q-121 0 -121 88q0 13 3 30l96 460h159l-83 -401q-1 -5 -1.5 -9t-0.5 -8q0 -13 5.5 -21.5t21.5 -8.5h4q21 1 36 13t20 34l83 401h159l-116 -560h-148z" />
    <glyph glyph-name="ucircumflex" unicode="&#xfb;" 
d="M328 772h165l90 -148h-148l-39 75l-72 -75h-147zM301 0l14 69h-2q-9 -16 -23.5 -31.5t-31.5 -28t-36 -20t-38 -7.5q-121 0 -121 88q0 13 3 30l96 460h159l-83 -401q-1 -5 -1.5 -9t-0.5 -8q0 -13 5.5 -21.5t21.5 -8.5h4q21 1 36 13t20 34l83 401h159l-116 -560h-148z" />
    <glyph glyph-name="udieresis" unicode="&#xfc;" 
d="M440 770h158l-27 -130h-158zM382 770l-27 -130h-158l27 130h158zM301 0l14 69h-2q-9 -16 -23.5 -31.5t-31.5 -28t-36 -20t-38 -7.5q-121 0 -121 88q0 13 3 30l96 460h159l-83 -401q-1 -5 -1.5 -9t-0.5 -8q0 -13 5.5 -21.5t21.5 -8.5h4q21 1 36 13t20 34l83 401h159
l-116 -560h-148z" />
    <glyph glyph-name="yacute" unicode="&#xfd;" horiz-adv-x="444" 
d="M589 782l-202 -148h-137l131 148h208zM261 198h2l130 362h156l-201 -479q-27 -57 -47.5 -106.5t-48 -85.5t-68 -57t-105.5 -21q-21 0 -35.5 2.5t-26.5 2.5l25 118q8 -1 15 -1.5t15 -2.5q2 0 3.5 -0.5t3.5 -0.5q13 0 28.5 7.5t18.5 21.5q3 18 3 43q0 14 -0.5 27.5
t-0.5 24.5l-6 507h160z" />
    <glyph glyph-name="thorn" unicode="&#xfe;" 
d="M372 354q2 11 4.5 23.5t2.5 25.5q0 17 -7 30t-27 13q-32 0 -48 -29t-24 -70l-28 -132q-2 -13 -4 -25.5t-2 -24.5q0 -23 7.5 -38t26.5 -15q18 0 30 10t19.5 24.5t12 31.5t7.5 31zM197 750h159l-51 -246h2q22 33 57 52.5t77 19.5q29 0 49 -10t32 -27t17.5 -39.5t5.5 -47.5
q0 -33 -8 -68l-40 -194q-8 -36 -21 -73t-34 -67t-52.5 -49t-74.5 -19q-11 0 -24.5 3.5t-27.5 11.5t-27 21.5t-22 34.5h-2l-51 -242h-159z" />
    <glyph glyph-name="ydieresis" unicode="&#xff;" horiz-adv-x="444" 
d="M412 770h158l-27 -130h-158zM354 770l-27 -130h-158l27 130h158zM261 198h2l130 362h156l-201 -479q-27 -57 -47.5 -106.5t-48 -85.5t-68 -57t-105.5 -21q-21 0 -35.5 2.5t-26.5 2.5l25 118q8 -1 15 -1.5t15 -2.5q2 0 3.5 -0.5t3.5 -0.5q13 0 28.5 7.5t18.5 21.5
q3 18 3 43q0 14 -0.5 27.5t-0.5 24.5l-6 507h160z" />
    <glyph glyph-name="dotlessi" unicode="&#x131;" horiz-adv-x="278" 
d="M60 0l116 560h159l-116 -560h-159z" />
    <glyph glyph-name="Lslash" unicode="&#x141;" horiz-adv-x="444" 
d="M322 527l70 43l-27 -132l-70 -43l-51 -245h215l-31 -150h-391l59 288l-67 -42l27 132l68 42l68 330h176z" />
    <glyph glyph-name="lslash" unicode="&#x142;" horiz-adv-x="278" 
d="M213 750h159l-52 -252l73 37l-23 -107l-72 -37l-81 -391h-159l62 303l-72 -37l22 107l73 37z" />
    <glyph glyph-name="OE" unicode="&#x152;" horiz-adv-x="778" 
d="M450 532q2 12 4.5 25.5t2.5 25.5q0 18 -8 31t-31 16q-3 0 -5.5 0.5t-5.5 0.5q-24 0 -40 -11.5t-26.5 -28.5t-16 -38t-9.5 -39l-60 -289l-6 -32t-3 -30q0 -20 9.5 -32.5t38.5 -12.5q25 0 41 8.5t26 23t15 33.5t10 40zM364 64h-2q-29 -40 -68.5 -61t-84.5 -21
q-41 0 -67.5 12t-42 33t-22 48.5t-6.5 59.5q0 30 4.5 61.5t10.5 62.5l49 234q9 45 25.5 93.5t43.5 89t67 66.5t97 26q41 0 75.5 -19t51.5 -61h2l12 62h382l-31 -150h-227l-29 -139h220l-31 -150h-220l-34 -162h234l-31 -150h-392z" />
    <glyph glyph-name="oe" unicode="&#x153;" horiz-adv-x="722" 
d="M629 351l9 40q5 23 5 40q0 16 -6.5 27t-24.5 13h-6q-19 0 -34.5 -11t-22.5 -30q-8 -19 -12.5 -39t-9.5 -40h102zM381 409v7q0 20 -9.5 32.5t-32.5 12.5q-25 0 -40 -14.5t-20 -37.5l-55 -262q-2 -10 -2 -15q0 -35 42 -35q26 0 40 13t22 37zM767 246h-261l-10 -48
q-3 -14 -6.5 -29.5t-3.5 -29.5q0 -18 9.5 -30t37.5 -12q18 0 29.5 11t18.5 26.5t11 31.5t7 27h155q-20 -105 -80.5 -158t-171.5 -53q-38 0 -69 14.5t-48 42.5q-34 -30 -75 -43.5t-81 -13.5q-90 0 -127 34.5t-37 97.5q0 18 2.5 37.5t7.5 41.5l36 173q10 48 27.5 87t45.5 66.5
t68.5 42t95.5 14.5q42 0 79.5 -14t58.5 -45q39 33 73.5 46t80.5 13q74 0 118.5 -34t44.5 -100q0 -17 -3 -35z" />
    <glyph glyph-name="Scaron" unicode="&#x160;" 
d="M503 952h148l-151 -148h-165l-90 148h147l41 -75zM231 251l-11 -53q-3 -15 -3 -29q0 -23 12 -37.5t44 -14.5q31 0 50 23t24 52q3 12 3 22q0 18 -7 31t-18 23.5t-25 20t-27 18.5q-35 23 -64 46t-48 52q-13 20 -19.5 42.5t-6.5 51.5q0 24 6 56q22 106 92 159.5t173 53.5
q93 0 138.5 -45t45.5 -120q0 -34 -11 -78h-162q2 14 4.5 28t2.5 28q0 20 -8.5 35t-34.5 17h-7q-23 0 -39.5 -13.5t-24.5 -36.5q-5 -14 -5 -29q0 -20 11 -34.5t28 -28.5q43 -32 79.5 -54.5t62.5 -51.5q17 -20 26.5 -44.5t9.5 -59.5q0 -32 -9 -75q-23 -109 -92.5 -166.5
t-179.5 -57.5q-52 0 -89 11.5t-60.5 32t-34.5 47.5t-11 57q0 18 5 41l17 80h163z" />
    <glyph glyph-name="scaron" unicode="&#x161;" horiz-adv-x="444" 
d="M426 762h148l-152 -148h-165l-89 148h147l40 -75zM356 394q1 10 2.5 20t1.5 19q0 17 -8 27.5t-33 10.5q-23 0 -40 -11t-22 -36q-1 -4 -1 -11q0 -17 12 -27.5t26 -18.5q31 -16 62.5 -30t56.5 -32t40.5 -43t15.5 -62q0 -9 -1 -19t-3 -21q-10 -47 -33.5 -80.5t-57 -55.5
t-74 -32t-84.5 -10q-80 0 -128.5 30.5t-48.5 99.5q0 14 2 28t6 31h152q-5 -18 -5 -35q0 -20 9.5 -34.5t35.5 -14.5t44 13t24 40q1 3 1 10q0 20 -13 33q-21 13 -46.5 24.5t-50.5 24.5t-46.5 29t-36.5 37q-21 33 -21 72q0 15 3 33q9 45 32.5 78t56.5 54t72.5 31t81.5 10
q37 0 68.5 -8t54.5 -24t36 -41t13 -58q0 -24 -7 -51h-149z" />
    <glyph glyph-name="Ydieresis" unicode="&#x178;" horiz-adv-x="556" 
d="M507 960h158l-27 -130h-158zM449 960l-27 -130h-158l27 130h158zM381 505h2l141 245h176l-271 -435l-65 -315h-176l65 315l-87 435h178z" />
    <glyph glyph-name="Zcaron" unicode="&#x17d;" horiz-adv-x="444" 
d="M475 952h148l-151 -148h-165l-90 148h147l41 -75zM181 750h398l-29 -140l-313 -460h228l-31 -150h-424l27 134l319 466h-206z" />
    <glyph glyph-name="zcaron" unicode="&#x17e;" horiz-adv-x="389" 
d="M408 762h148l-152 -148h-165l-89 148h147l40 -75zM141 560h350l-24 -116l-249 -319h182l-25 -125h-361l23 111l249 324h-171z" />
    <glyph glyph-name="florin" unicode="&#x192;" 
d="M560 491l-23 -111h-119q-28 -76 -48 -131.5t-35.5 -97t-27.5 -71.5t-23 -54.5t-22 -46.5t-25 -47q-35 -60 -77.5 -92.5t-109.5 -32.5q-22 0 -42.5 4.5t-38.5 16.5l47 131q14 -17 35 -17q13 0 26 7q5 4 8.5 7t9.5 14t16.5 35.5t29 71.5t46 120t67.5 183h-103l23 111h124
q30 92 62 146t66 82t69 36t72 8q21 0 40 -5t36 -9l-53 -127q-9 4 -18.5 7t-19.5 3t-19 -4q-17 -6 -28.5 -23t-20 -37.5t-15 -41.5t-12.5 -35h103z" />
    <glyph glyph-name="circumflex" unicode="&#x2c6;" horiz-adv-x="333" 
d="M246 782h165l90 -148h-148l-39 75l-72 -75h-147z" />
    <glyph glyph-name="caron" unicode="&#x2c7;" horiz-adv-x="333" 
d="M384 782h148l-152 -148h-165l-89 148h147l40 -75z" />
    <glyph glyph-name="breve" unicode="&#x2d8;" horiz-adv-x="333" 
d="M228 787v-7q0 -18 8.5 -29t22 -17t30 -7.5t32.5 -1.5q38 0 65.5 11t47.5 51h77q-9 -39 -30 -67.5t-50.5 -47.5t-64 -28.5t-69.5 -9.5q-71 0 -111 27t-40 92q0 16 3 34h79z" />
    <glyph glyph-name="dotaccent" unicode="&#x2d9;" horiz-adv-x="333" 
d="M406 770l-27 -130h-159l27 130h159z" />
    <glyph glyph-name="ring" unicode="&#x2da;" horiz-adv-x="333" 
d="M333 800q-20 0 -39 -15.5t-24 -36.5q-1 -4 -1 -10q0 -17 11.5 -29.5t30.5 -12.5q21 0 39.5 16t23.5 36q1 3 1 10q0 17 -12 29.5t-30 12.5zM299 635q-41 0 -66.5 26t-25.5 64v11t2 12q5 23 18 43.5t32 35.5t41 24t45 9q40 0 65.5 -26t25.5 -64v-11q0 -5 -2 -11
q-5 -23 -18 -43.5t-31 -36t-40.5 -24.5t-45.5 -9z" />
    <glyph glyph-name="ogonek" unicode="&#x2db;" horiz-adv-x="333" 
d="M238 -190q-47 -15 -92 -15q-41 0 -69.5 18.5t-28.5 58.5v11q0 5 2 11q4 18 15 33.5t26 28.5t32 24t33 20h83l-1 -2q-26 -12 -45.5 -28.5t-23.5 -36.5q-1 -3 -1 -10q0 -16 10 -27.5t27 -11.5q14 0 25.5 3.5t25.5 8.5z" />
    <glyph glyph-name="tilde" unicode="&#x2dc;" horiz-adv-x="333" 
d="M370 640q-23 0 -43 5.5t-36 13.5q-17 7 -31 12.5t-26 5.5q-18 0 -32 -13t-21 -30h-79q10 25 23.5 50t32 45.5t42.5 33t55 12.5q24 0 43 -6t36 -13q17 -8 31 -14t28 -6q15 0 30 11.5t19 25.5h80q-9 -27 -22.5 -51t-32.5 -42t-43 -29t-54 -11z" />
    <glyph glyph-name="hungarumlaut" unicode="&#x2dd;" horiz-adv-x="333" 
d="M473 782h210l-204 -148h-136zM175 782h210l-204 -148h-136z" />
    <glyph glyph-name="endash" unicode="&#x2013;" 
d="M52 253l24 115h500l-24 -115h-500z" />
    <glyph glyph-name="emdash" unicode="&#x2014;" horiz-adv-x="1000" 
d="M52 253l24 115h1000l-24 -115h-1000z" />
    <glyph glyph-name="quoteleft" unicode="&#x2018;" horiz-adv-x="278" 
d="M367 711q-43 -2 -70 -28t-34 -68h84l-33 -160h-158l34 161q16 76 65 111.5t124 40.5z" />
    <glyph glyph-name="quoteright" unicode="&#x2019;" horiz-adv-x="278" 
d="M160 494q44 2 71 28t33 68h-84l33 160h158l-33 -161q-16 -76 -65.5 -111.5t-124.5 -40.5z" />
    <glyph glyph-name="quotesinglbase" unicode="&#x201a;" horiz-adv-x="278" 
d="M40 -95q43 2 70 28t34 68h-84l33 160h158l-33 -161q-16 -76 -65.5 -111.5t-124.5 -40.5z" />
    <glyph glyph-name="quotedblleft" unicode="&#x201c;" 
d="M598 711q-43 -2 -70 -28t-34 -68h84l-33 -160h-158l34 161q16 76 65 111.5t124 40.5zM358 711q-43 -2 -70 -28t-34 -68h84l-33 -160h-158l34 161q16 76 65 111.5t124 40.5z" />
    <glyph glyph-name="quotedblright" unicode="&#x201d;" 
d="M151 494q44 2 71 28t33 68h-84l33 160h158l-33 -161q-16 -76 -65.5 -111.5t-124.5 -40.5zM391 494q44 2 71 28t33 68h-84l33 160h158l-33 -161q-16 -76 -65.5 -111.5t-124.5 -40.5z" />
    <glyph glyph-name="quotedblbase" unicode="&#x201e;" 
d="M31 -95q43 2 70 28t34 68h-84l33 160h158l-33 -161q-16 -76 -65.5 -111.5t-124.5 -40.5zM272 -95q43 2 70 28t34 68h-84l33 160h158l-33 -161q-16 -76 -65.5 -111.5t-124.5 -40.5z" />
    <glyph glyph-name="dagger" unicode="&#x2020;" 
d="M109 386l28 135h141l47 229h159l-47 -229h143l-28 -135h-143l-116 -559h-159l116 559h-141z" />
    <glyph glyph-name="daggerdbl" unicode="&#x2021;" 
d="M178 38h-144l28 135h144l47 222h-144l28 135h144l45 220h159l-45 -220h142l-28 -135h-142l-47 -222h144l-28 -135h-144l-43 -209h-159z" />
    <glyph glyph-name="bullet" unicode="&#x2022;" horiz-adv-x="420" 
d="M475 375q-8 -39 -30 -73.5t-53 -60t-68.5 -40.5t-76.5 -15q-34 0 -62 11.5t-48 31.5t-31 48t-11 60q0 9 1 18.5t3 19.5q8 39 30 73t52.5 59.5t67.5 40t76 14.5q34 0 62.5 -11.5t48.5 -31.5t31.5 -47t11.5 -59q0 -9 -1 -18.5t-3 -19.5z" />
    <glyph glyph-name="ellipsis" unicode="&#x2026;" horiz-adv-x="1000" 
d="M415 0l35 171h169l-35 -171h-169zM749 0l35 171h169l-35 -171h-169zM82 0l35 171h169l-35 -171h-169z" />
    <glyph glyph-name="perthousand" unicode="&#x2030;" horiz-adv-x="1111" 
d="M291 661q-16 0 -25.5 -10.5t-14.5 -25t-8 -30.5t-5 -27q-4 -17 -8.5 -35t-4.5 -32t6.5 -22.5t24.5 -8.5q17 0 27.5 11t17 26.5t9.5 32t6 28.5q2 12 6.5 28t4.5 31q0 14 -6.5 24t-25.5 10h-4zM1005 278q-16 0 -25.5 -10.5t-14.5 -25t-8 -30.5t-5 -27q-4 -17 -8 -34.5
t-4 -31.5t6.5 -23t24.5 -9q17 0 27.5 11t16.5 26.5t9.5 32t5.5 28.5t6.5 28t4.5 31q0 14 -6.5 24t-25.5 10h-4zM632 278q-16 0 -25.5 -10.5t-14.5 -25t-8 -30.5t-5 -27q-4 -17 -8 -34.5t-4 -31.5t6.5 -23t24.5 -9q17 0 27.5 11t16.5 26.5t9.5 32t5.5 28.5t6.5 28t4.5 31
q0 14 -6.5 24t-25.5 10h-4zM236 -18h-82l497 768h83zM655 369q71 0 101.5 -27.5t30.5 -84.5q0 -32 -9 -74q-8 -39 -20.5 -73.5t-35 -59.5t-57 -39.5t-86.5 -14.5q-72 0 -101.5 29t-29.5 82q0 17 2.5 36t7.5 40q8 41 23 75t39 59t57 38.5t78 13.5zM1028 369q71 0 101.5 -27.5
t30.5 -84.5q0 -32 -9 -74q-8 -39 -20.5 -73.5t-35 -59.5t-57 -39.5t-86.5 -14.5q-72 0 -101.5 29t-29.5 82q0 17 2.5 36t7.5 40q8 41 23 75t39 59t57 38.5t78 13.5zM314 752q70 0 100.5 -27t30.5 -84q0 -33 -9 -75q-8 -39 -20.5 -73.5t-35 -59.5t-57 -39.5t-86.5 -14.5
q-73 0 -101.5 29t-28.5 83q0 33 9 75q9 41 24 75t39 59t57 38.5t78 13.5z" />
    <glyph glyph-name="guilsinglleft" unicode="&#x2039;" horiz-adv-x="278" 
d="M102 239l31 146l205 120l-27 -131l-115 -63l90 -58l-27 -130z" />
    <glyph glyph-name="guilsinglright" unicode="&#x203a;" horiz-adv-x="278" 
d="M96 253l114 58l-89 63l27 131l157 -120l-31 -146l-205 -116z" />
    <glyph glyph-name="fraction" unicode="&#x2044;" horiz-adv-x="167" 
d="M-168 0l565 750h84l-562 -750h-87z" />
    <glyph glyph-name="fraction" unicode="&#x2215;" horiz-adv-x="167" 
d="M-168 0l565 750h84l-562 -750h-87z" />
    <glyph glyph-name="trademark" unicode="&#x2122;" horiz-adv-x="860" 
d="M475 662h-119l-66 -316h-102l66 316h-114l18 88h335zM929 346h-93l66 316h-2l-178 -316h-62l-46 316h-2l-66 -316h-93l84 404h147l39 -249h2l141 249h147z" />
    <glyph glyph-name="minus" unicode="&#x2212;" 
d="M89 307h449l-24 -115h-449z" />
    <glyph glyph-name="fi" unicode="&#xfb01;" horiz-adv-x="556" 
d="M471 615l28 135h159l-28 -135h-159zM344 0l116 560h159l-116 -560h-159zM465 750l-23 -115h-34q-14 0 -25 -4t-13 -15l-12 -56h68l-24 -115h-68l-92 -445h-159l92 445h-64l24 115h63l10 48q16 80 63 111t124 31h70z" />
    <glyph glyph-name="fl" unicode="&#xfb02;" horiz-adv-x="556" 
d="M344 0l155 750h159l-155 -750h-159zM465 750l-23 -115h-34q-14 0 -25 -4t-13 -15l-12 -56h68l-24 -115h-68l-92 -445h-159l92 445h-64l24 115h63l10 48q16 80 63 111t124 31h70z" />
    <glyph glyph-name="nonbreakingspace" horiz-adv-x="250" 
 />
    </font>
</defs>
</svg>
