<?xml version="1.0" standalone="no"?>
<!DOCTYPE svg PUBLIC "-//W3C//DTD SVG 1.1//EN" "http://www.w3.org/Graphics/SVG/1.1/DTD/svg11.dtd" >
<svg xmlns="http://www.w3.org/2000/svg" xmlns:xlink="http://www.w3.org/1999/xlink" version="1.1">
<metadata>
Created by FontForge 20170731 at Tue Oct  9 23:04:56 2001
 By Aleksey,,,
Copyright (c) 1985, 1987, 1991, 1993 Adobe Systems Incorporated. All Rights Reserved.Helvetica is a trademark of Linotype-Hell AG and/or its subsidiaries.
</metadata>
<defs>
<font id="HelveticaLT-Condensed-Oblique" horiz-adv-x="500" >
  <font-face 
    font-family="Helvetica LT Condensed"
    font-weight="500"
    font-style="oblique"
    font-stretch="normal"
    units-per-em="1000"
    panose-1="2 0 6 6 4 0 0 2 0 4"
    ascent="800"
    descent="-200"
    x-height="556"
    cap-height="750"
    bbox="-174 -250 1116 990"
    underline-thickness="50"
    underline-position="-175"
    slope="-12"
    unicode-range="U+0020-FB02"
  />
<missing-glyph horiz-adv-x="250" 
 />
    <glyph glyph-name=".notdef" horiz-adv-x="250" 
 />
    <glyph glyph-name=".null" horiz-adv-x="0" 
 />
    <glyph glyph-name="nonmarkingreturn" horiz-adv-x="250" 
 />
    <glyph glyph-name="space" unicode=" " horiz-adv-x="250" 
 />
    <glyph glyph-name="space" unicode="&#xa0;" horiz-adv-x="250" 
 />
    <glyph glyph-name="exclam" unicode="!" horiz-adv-x="333" 
d="M121 0l20 100h91l-20 -100h-91zM229 520l47 230h91l-47 -230l-93 -337h-45z" />
    <glyph glyph-name="quotedbl" unicode="&#x22;" horiz-adv-x="250" 
d="M308 739h52l-47 -226h-52zM197 739h52l-47 -226h-52z" />
    <glyph glyph-name="numbersign" unicode="#" 
d="M338 313l63 124h-88l-62 -124h87zM164 254h-107l30 59h108l63 124h-109l30 59h109l131 254h55l-130 -254h88l129 254h56l-130 -254h111l-30 -59h-112l-63 -124h112l-28 -59h-115l-130 -254h-55l130 254h-87l-132 -254h-55z" />
    <glyph glyph-name="dollar" unicode="$" 
d="M366 675q-19 -1 -38 -7t-35.5 -19t-29 -34.5t-19.5 -53.5q-3 -17 -3 -30q0 -37 21.5 -57t53.5 -38zM280 62h9q58 0 87.5 33.5t40.5 88.5q2 12 3.5 22.5t1.5 19.5q0 20 -6 35t-17 26t-27 20.5t-37 18.5zM297 342q-28 14 -54 29.5t-46.5 34.5t-33 44t-12.5 58q0 10 1.5 20
t3.5 21q9 43 29 79t49.5 62.5t66.5 42t80 17.5l14 65h44l-14 -65q73 -3 107 -38.5t34 -96.5q0 -28 -8 -65h-81q3 14 5 29t2 29q0 18 -5.5 33.5t-21.5 24.5q-10 4 -20.5 6.5t-21.5 2.5h-5l-53 -255q37 -18 66 -33.5t49 -33.5t30.5 -40t10.5 -54q0 -25 -6 -56
q-20 -98 -81 -157t-162 -61l-21 -101h-42l21 101q-83 3 -118.5 41.5t-35.5 101.5q0 23 4 49t12 55h80q-5 -24 -9.5 -48t-4.5 -44q0 -34 18 -56t70 -22z" />
    <glyph glyph-name="percent" unicode="%" horiz-adv-x="833" 
d="M279 430q23 0 38.5 11t26 28t17 37t9.5 37q4 16 7.5 35.5t3.5 38.5q0 26 -10.5 44.5t-40.5 18.5q-25 0 -41.5 -14.5t-27.5 -35.5t-17 -44.5t-10 -42.5q-2 -12 -4 -25t-2 -26q0 -25 10.5 -43.5t40.5 -18.5zM632 56q23 0 39 11t26.5 28t16.5 37t10 37q3 16 6.5 35t3.5 38
q0 26 -10.5 45t-40.5 19q-25 0 -41.5 -14.5t-27 -35.5t-16.5 -44.5t-10 -42.5q-2 -12 -4.5 -25.5t-2.5 -26.5q0 -25 10.5 -43t40.5 -18zM259 -15h-54l494 765h51zM794 186q-11 -52 -28.5 -87.5t-40.5 -57.5t-51 -31.5t-59 -9.5h-3q-39 1 -67 27.5t-28 90.5q0 16 1.5 33.5
t6.5 37.5q7 35 20 66.5t34 55t51 37.5t70 14q29 0 48.5 -8.5t31 -23.5t16.5 -35t5 -43q0 -16 -1.5 -32.5t-5.5 -33.5zM347 736q28 0 47.5 -8.5t31.5 -23.5t17 -35.5t5 -43.5q0 -31 -8 -68q-20 -98 -58.5 -141t-101.5 -43h-9t-9 1q-48 4 -74.5 27t-26.5 80q0 17 2.5 36.5
t7.5 42.5q7 35 20.5 67t34.5 56t51 38.5t70 14.5z" />
    <glyph glyph-name="ampersand" unicode="&#x26;" horiz-adv-x="667" 
d="M389 469q39 26 70 56t40 76q2 6 2 12v11q0 25 -13 42t-42 17q-33 0 -56.5 -24t-30.5 -55q-3 -14 -3 -26q0 -30 10.5 -57.5t22.5 -51.5zM341 370q-27 -17 -49.5 -34.5t-40.5 -37.5t-30.5 -44t-18.5 -55q-4 -17 -4 -36q0 -50 31 -78t86 -28q38 0 74 20.5t65 49.5zM514 204
q38 69 58 140h74q-15 -54 -37.5 -106.5t-59.5 -100.5l70 -139h-101l-33 69q-85 -85 -194 -85q-87 0 -134 42.5t-47 118.5q0 27 6 57q9 43 27 75.5t44 59t59 49t71 43.5q-17 31 -28.5 61t-11.5 65q0 22 4 42q6 31 22 59t39 49.5t51.5 34t61.5 12.5q59 0 94.5 -29.5
t35.5 -83.5q0 -19 -4 -36q-6 -30 -23 -57.5t-40 -51t-50 -43t-54 -35.5z" />
    <glyph glyph-name="quotesingle" unicode="'" horiz-adv-x="250" 
d="M252 739h52l-47 -226h-52z" />
    <glyph glyph-name="parenleft" unicode="(" horiz-adv-x="333" 
d="M439 750q-24 -35 -54.5 -78t-61 -100t-59 -130.5t-48.5 -169.5q-24 -114 -24 -212q0 -70 12.5 -137.5t39.5 -137.5h-58q-32 78 -52 159t-20 169q0 73 16 147q15 74 38 136.5t54.5 120t72 114.5t91.5 119h53z" />
    <glyph glyph-name="parenright" unicode=")" horiz-adv-x="333" 
d="M4 -215q24 35 54.5 78t61 100t59 130.5t48.5 169.5q24 114 24 212q0 70 -12.5 137.5t-39.5 137.5h58q32 -79 52 -160.5t20 -169.5q0 -70 -15 -145q-15 -74 -38 -136.5t-54.5 -120t-72.5 -114.5t-92 -119h-53z" />
    <glyph glyph-name="asterisk" unicode="*" 
d="M355 625l26 125h52l-25 -122l120 41l6 -48l-122 -38l56 -96l-48 -32l-57 99l-92 -94l-37 27l94 93l-103 45l27 44z" />
    <glyph glyph-name="plus" unicode="+" 
d="M319 505h70l-44 -216h172l-15 -70h-172l-45 -219h-70l45 219h-171l15 70h171z" />
    <glyph glyph-name="comma" unicode="," horiz-adv-x="250" 
d="M80 0l20 100h91q-1 -6 -3.5 -20t-6.5 -31t-8.5 -35t-8.5 -32q-8 -31 -24 -60t-48 -48q-10 -7 -21 -11.5t-22 -8.5l10 45q5 1 12.5 4.5t12.5 8.5q20 18 30 41.5t15 46.5h-49z" />
    <glyph glyph-name="hyphen" unicode="-" horiz-adv-x="333" 
d="M102 275l17 83h243l-17 -83h-243z" />
    <glyph glyph-name="hyphen" unicode="&#xad;" horiz-adv-x="333" 
d="M102 275l17 83h243l-17 -83h-243z" />
    <glyph glyph-name="period" unicode="." horiz-adv-x="250" 
d="M80 0l20 100h91l-20 -100h-91z" />
    <glyph glyph-name="slash" unicode="/" horiz-adv-x="278" 
d="M-18 -27l403 777h61l-404 -777h-60z" />
    <glyph glyph-name="zero" unicode="0" 
d="M211 382q-6 -27 -12.5 -56t-12 -57t-9.5 -54.5t-4 -50.5q0 -46 19 -75t70 -29q46 0 77 30t51.5 77t33.5 104t24 111q4 19 9 41t9 45t6.5 46t2.5 45q0 23 -4 43.5t-14 36t-26 25t-41 11.5h-7q-31 0 -55 -17t-42 -44t-30.5 -60t-21.5 -65.5t-14.5 -61t-8.5 -45.5zM246 -15
q-45 0 -74 15.5t-46 41t-23.5 59.5t-6.5 72q0 51 9 103t17 93q7 35 17.5 77t25.5 84t36 82t50 70.5t67 49t87 18.5q46 0 76 -14t47.5 -38.5t24.5 -56.5t7 -68q0 -51 -10 -105t-19 -99q-9 -42 -20 -87t-26 -88t-36 -81t-50 -66.5t-66.5 -45t-86.5 -16.5z" />
    <glyph glyph-name="one" unicode="1" 
d="M347 546h-160l14 65q40 1 72 6t57.5 20t44 42t32.5 71h65l-155 -750h-83z" />
    <glyph glyph-name="two" unicode="2" 
d="M222 184q-32 -24 -50 -49t-27 -60h317l-15 -75h-403q9 41 23.5 81.5t39.5 80.5q13 20 34 39.5t41 35.5l171 138q26 21 44.5 38.5t31.5 36t22 40.5t15 53q6 27 6 49q0 38 -20 60.5t-69 22.5q-39 0 -64.5 -17t-42.5 -43.5t-26 -58t-15 -61.5h-83l10 46q8 42 27.5 80
t51.5 70q10 9 25 19.5t34.5 19t44.5 14.5t57 6q80 0 118.5 -40t38.5 -108q0 -30 -7 -61q-9 -41 -23.5 -73t-35.5 -59t-49 -51.5t-62 -50.5z" />
    <glyph glyph-name="three" unicode="3" 
d="M276 424q25 1 52.5 2t52.5 11.5t45 36.5t31 78q6 25 6 48q0 35 -18.5 55t-66.5 20q-35 0 -59 -12t-39.5 -32.5t-24.5 -47t-15 -55.5h-79q8 47 26.5 87.5t47.5 70.5t69 47t91 17q72 0 113 -37t41 -103q0 -11 -1.5 -22.5t-3.5 -23.5q-13 -61 -44 -104t-96 -64l-1 -2
q50 -11 72.5 -44t22.5 -79q0 -25 -6 -50q-11 -53 -32 -96t-53 -74.5t-75.5 -48.5t-99.5 -17q-87 0 -123.5 40.5t-36.5 107.5q0 38 11 87h82q-11 -36 -11 -68q0 -39 22 -65.5t79 -26.5q62 0 99.5 38t49.5 96q4 18 6 33t2 29q0 56 -36 74.5t-109 18.5h-7z" />
    <glyph glyph-name="four" unicode="4" 
d="M148 262h207l74 358h-2zM463 750h76l-101 -488h67l-16 -75h-67l-38 -187h-83l38 187h-273l16 77z" />
    <glyph glyph-name="five" unicode="5" 
d="M169 196q-7 -27 -7 -53q0 -38 20.5 -60.5t69.5 -22.5q33 0 59 15t45.5 40.5t32.5 58t21 67.5q8 40 8 73q0 22 -4.5 40.5t-15.5 32.5t-30 22t-47 8q-75 0 -119 -68h-74l124 386h319l-15 -75h-252l-79 -220l2 -2q30 27 60.5 40.5t69.5 13.5q40 0 68.5 -13t46.5 -34.5
t26.5 -51t8.5 -63.5q0 -37 -9 -76q-10 -50 -30 -98t-52 -86t-76 -61.5t-102 -23.5q-81 0 -122.5 37t-41.5 105q0 31 9 69h86z" />
    <glyph glyph-name="six" unicode="6" 
d="M422 242q3 16 5 31t2 29q0 42 -20.5 70.5t-74.5 28.5q-37 0 -62.5 -14t-42.5 -35.5t-27 -48.5t-16 -53q-12 -51 -12 -87q0 -57 26 -80t69 -23q37 0 63 17.5t44 44.5t29 59t17 61zM255 -15q-49 0 -81 14t-50.5 38.5t-26 57.5t-7.5 70q0 41 7 83.5t15 84.5q8 39 19 85
t27 92.5t39 89.5t54.5 76.5t73 53.5t95.5 20q71 0 106.5 -35.5t35.5 -97.5q0 -11 -1 -22.5t-3 -23.5h-85q4 17 4 36q0 34 -19.5 51t-62.5 17q-32 0 -57 -16t-44.5 -41.5t-34 -58t-25 -64.5t-18 -61.5t-12.5 -49.5h2q32 48 74 70t83 22q40 0 69 -12.5t48 -34.5t27.5 -51.5
t8.5 -63.5q0 -35 -7 -67q-12 -60 -37.5 -108.5t-59 -82.5t-74 -52.5t-83.5 -18.5z" />
    <glyph glyph-name="seven" unicode="7" 
d="M196 735h412l-14 -69q-138 -146 -235.5 -316t-149.5 -350h-93q59 180 163 347t245 313h-343z" />
    <glyph glyph-name="eight" unicode="8" 
d="M271 562q-2 -12 -3.5 -23t-1.5 -21q0 -37 18.5 -58t60.5 -21q27 0 47 9.5t34 26t23 38.5t14 46q5 25 5 43q0 32 -16.5 52.5t-58.5 20.5q-56 0 -83.5 -31t-38.5 -82zM177 218q-3 -15 -5 -30t-2 -29q0 -21 5 -39.5t16.5 -31.5t30 -20.5t46.5 -7.5q52 0 90.5 41t54.5 118
q5 28 5 48q0 42 -21 69.5t-72 27.5q-33 0 -58 -12t-43 -32.5t-29.5 -47t-17.5 -54.5zM272 406q-50 9 -70.5 38t-20.5 72q0 26 6 55q7 32 23.5 64t44 57.5t67 41.5t92.5 16q66 0 104 -32t38 -97q0 -25 -6 -55q-6 -29 -18 -55t-30 -47.5t-42.5 -36.5t-55.5 -21l-1 -2
q55 -10 79 -45.5t24 -83.5q0 -24 -6 -49q-10 -48 -30 -92t-50.5 -77t-73 -52.5t-96.5 -19.5q-85 0 -126.5 41t-41.5 116q0 17 2 35t6 38q9 45 29.5 79t46 57t53.5 36t52 17z" />
    <glyph glyph-name="nine" unicode="9" 
d="M469 490q8 37 8 72q0 22 -4.5 42.5t-15 36.5t-28 25t-44.5 9q-35 0 -61 -16t-44 -41.5t-29.5 -56t-17.5 -58.5q-8 -35 -8 -67q0 -21 4.5 -39.5t15 -32.5t27.5 -22t43 -8q35 0 61.5 13.5t45 35.5t30 50t17.5 57zM397 750q49 0 81 -14.5t51 -39t26.5 -57.5t7.5 -70
q0 -41 -7 -83.5t-15 -83.5q-8 -39 -19 -85t-27.5 -92.5t-39 -89.5t-54.5 -76.5t-73.5 -53.5t-95.5 -20q-71 0 -106.5 36t-35.5 97q0 11 1.5 22.5t3.5 23.5h85q-4 -17 -4 -36q0 -33 19.5 -50.5t62.5 -17.5q32 0 57 16t44.5 41.5t34 58t25 64.5t17.5 61.5t12 49.5h-2
q-32 -48 -74 -70t-83 -22t-69.5 12.5t-47 34t-27 51t-8.5 63.5q0 17 1.5 34t5.5 34q12 60 37 108.5t59 82.5t74 52.5t83 18.5z" />
    <glyph glyph-name="colon" unicode=":" horiz-adv-x="250" 
d="M172 447l21 100h91l-21 -100h-91zM80 0l20 100h91l-20 -100h-91z" />
    <glyph glyph-name="semicolon" unicode=";" horiz-adv-x="250" 
d="M172 447l21 100h91l-21 -100h-91zM100 100h91q-1 -6 -3.5 -20t-6.5 -31t-8.5 -35t-8.5 -32q-8 -31 -24 -60t-48 -48q-10 -7 -21 -11.5t-22 -8.5l10 45q5 1 12.5 4.5t12.5 8.5q20 18 30 41.5t15 46.5h-49z" />
    <glyph glyph-name="less" unicode="&#x3c;" 
d="M472 63l-16 -73l-368 232l13 64l465 232l-15 -73l-379 -191z" />
    <glyph glyph-name="equal" unicode="=" 
d="M482 124h-413l15 70h413zM522 314h-413l14 70h413z" />
    <glyph glyph-name="greater" unicode="&#x3e;" 
d="M433 254l-299 191l15 73l369 -232l-13 -64l-466 -232l16 73z" />
    <glyph glyph-name="question" unicode="?" 
d="M198 0l20 100h91l-20 -100h-91zM233 172q8 39 16 65t21 47.5t33 43t52 50.5q13 11 24.5 22.5t23.5 22.5q34 33 54 61.5t29 71.5q2 9 3 18.5t1 18.5q0 17 -4 33t-13.5 28t-24.5 19t-37 7q-39 0 -66.5 -14.5t-46 -38t-29 -53.5t-16.5 -60h-87q8 45 27 87.5t49.5 75.5t73 53
t97.5 20q79 0 124.5 -37.5t45.5 -105.5q0 -11 -1.5 -22t-3.5 -23q-10 -50 -30.5 -84.5t-48.5 -63.5t-61.5 -57.5t-69.5 -65.5q-6 -8 -12.5 -16.5t-10.5 -17.5q-10 -20 -14 -41.5t-9 -43.5h-89z" />
    <glyph glyph-name="at" unicode="@" horiz-adv-x="800" 
d="M542 536q-40 0 -77 -24.5t-67.5 -61.5t-51.5 -79t-28 -76q-3 -14 -3 -26q0 -29 14.5 -49.5t46.5 -20.5q20 0 39.5 9t36.5 22.5t32 30t26 31.5q13 18 26.5 39.5t26 44t22 45t13.5 42.5q2 10 2 16q0 24 -15.5 40.5t-42.5 16.5zM677 576h69l-166 -305q-6 -11 -14 -26
t-10 -26q-1 -2 -1 -7q0 -22 25 -22q17 0 36 7.5t38 19.5t35.5 26.5t28.5 27.5q32 35 54 78t31 86q6 28 6 53q0 50 -20 89.5t-53.5 67t-78.5 42t-96 14.5q-70 0 -135.5 -27t-119.5 -73t-92 -107.5t-52 -129.5q-7 -32 -7 -66q0 -56 20 -104.5t56 -84t85.5 -55.5t108.5 -20
q39 0 79 9.5t78.5 27.5t74 44t64.5 59h60q-33 -44 -76 -79t-91 -59.5t-99.5 -37.5t-100.5 -13q-70 0 -127.5 23t-98 63.5t-62.5 96t-22 120.5q0 41 9 83q16 79 60.5 148t107.5 120.5t138.5 81t154.5 29.5q65 0 121.5 -22t97.5 -65q67 -70 67 -166q0 -34 -7 -66
q-11 -51 -36 -96.5t-63 -87.5q-20 -22 -43 -42t-48.5 -35t-52.5 -24t-55 -9q-26 0 -49.5 12.5t-26.5 40.5q-29 -24 -64 -37.5t-67 -13.5q-55 0 -83.5 32.5t-28.5 81.5q0 20 4 37q10 51 39.5 105t71.5 98.5t94 73.5t108 29q35 0 63.5 -17t36.5 -50z" />
    <glyph glyph-name="A" unicode="A" horiz-adv-x="556" 
d="M422 690h-2l-182 -399h198zM380 750h110l56 -750h-92l-15 216h-237l-99 -216h-92z" />
    <glyph glyph-name="B" unicode="B" horiz-adv-x="556" 
d="M252 429h74q7 0 13.5 -0.5t13.5 -0.5q31 0 57 5.5t45.5 20t33.5 39.5t22 64q6 25 6 45q0 41 -29.5 57t-99.5 16h-12h-73zM309 75h3q66 0 100 34t49 107q6 30 6 51q0 31 -10.5 48.5t-28.5 26t-40.5 10.5t-46.5 2h-31h-74l-58 -279h131zM80 0l155 750h214h10
q80 0 114 -36.5t34 -97.5q0 -12 -1.5 -25t-3.5 -27q-5 -31 -15.5 -56.5t-27.5 -46t-42.5 -36t-61.5 -26.5v-2q56 -7 78 -37.5t22 -76.5q0 -31 -7 -62q-22 -109 -88 -165t-167 -56h-15h-198z" />
    <glyph glyph-name="C" unicode="C" horiz-adv-x="556" 
d="M529 525q6 30 6 57q0 23 -5.5 43t-18 34.5t-33 22.5t-50.5 8q-36 0 -64 -15.5t-49.5 -41t-37.5 -58t-27 -66.5t-18.5 -66t-12.5 -57q-4 -18 -9 -40t-9 -46t-7 -49.5t-3 -50.5q0 -29 5 -55t17 -45.5t32 -31t51 -11.5q37 0 63.5 14t45.5 37t32 52t23 60q5 13 8 25.5t8 25.5
h83q-4 -11 -7 -23t-7 -23q-6 -23 -12.5 -43.5t-15 -39.5t-20 -38t-29.5 -38q-38 -41 -82 -62.5t-98 -21.5t-89.5 15.5t-56.5 42t-29.5 62.5t-8.5 77q0 49 8.5 101.5t19.5 103.5q9 42 21 87t29.5 87t41.5 80t56.5 66t74.5 44.5t95 16.5q43 0 75 -12.5t53.5 -34.5t32 -52.5
t10.5 -67.5q0 -36 -9 -73h-83z" />
    <glyph glyph-name="D" unicode="D" horiz-adv-x="611" 
d="M180 75h133q46 0 82 17.5t64 56t48.5 98t35.5 143.5q7 41 11 77t4 67q0 66 -26 103.5t-94 37.5h-133zM82 0l155 750h206q60 0 99.5 -15.5t63.5 -43t34 -64.5t10 -80q0 -41 -7 -84t-18 -88q-17 -69 -40.5 -136t-61 -120t-91 -86t-129.5 -33h-221z" />
    <glyph glyph-name="E" unicode="E" 
d="M74 0l155 750h375l-15 -75h-292l-52 -248h274l-15 -75h-274l-58 -277h294l-15 -75h-377z" />
    <glyph glyph-name="F" unicode="F" horiz-adv-x="444" 
d="M74 0l155 750h352l-15 -75h-269l-51 -246h250l-16 -75h-250l-73 -354h-83z" />
    <glyph glyph-name="G" unicode="G" horiz-adv-x="611" 
d="M530 -6h-64l25 117h-2q-30 -64 -83 -96.5t-116 -32.5q-54 0 -89 16t-55.5 44t-29 65t-8.5 79q0 48 7.5 97t17.5 97q13 66 35.5 134t60.5 124t94.5 91.5t137.5 35.5q90 0 136 -44.5t46 -121.5q0 -29 -8 -67h-84q3 14 4 26.5t1 24.5q0 48 -25 76.5t-82 30.5h-4
q-60 0 -99.5 -31t-64.5 -78t-39 -101.5t-24 -102.5q-8 -39 -17.5 -88t-9.5 -95q0 -27 5 -51.5t16.5 -43t31 -30t49.5 -12.5h11q54 0 90 23t59.5 60t37 81.5t22.5 88.5h-167l16 75h250z" />
    <glyph glyph-name="H" unicode="H" horiz-adv-x="611" 
d="M79 0l155 750h83l-65 -313h287l65 313h83l-155 -750h-83l75 362h-287l-75 -362h-83z" />
    <glyph glyph-name="I" unicode="I" horiz-adv-x="278" 
d="M98 0l155 750h83l-155 -750h-83z" />
    <glyph glyph-name="J" unicode="J" horiz-adv-x="444" 
d="M153 235l-9 -44q-4 -18 -6.5 -35t-2.5 -32q0 -28 14 -46t55 -18q31 0 52 11t34.5 29.5t21 42t12.5 48.5l116 559h83l-117 -565q-12 -59 -33 -98t-49.5 -61.5t-63 -31.5t-73.5 -9q-44 0 -79 15t-49 56q-8 27 -8 56q0 36 7 69.5t12 53.5h83z" />
    <glyph glyph-name="K" unicode="K" horiz-adv-x="556" 
d="M79 0l155 750h83l-80 -385h2l351 385h104l-304 -314l156 -436h-102l-128 362l-99 -102l-54 -260h-84z" />
    <glyph glyph-name="L" unicode="L" 
d="M83 0l155 750h83l-140 -675h306l-15 -75h-389z" />
    <glyph glyph-name="M" unicode="M" horiz-adv-x="778" 
d="M711 750h146l-155 -750h-83l128 618q5 24 10.5 47.5t9.5 47.5h-2q-14 -33 -24 -56t-20 -45l-284 -612h-99l-28 621q-2 20 -2.5 40.5t-0.5 51.5h-2q-5 -24 -9 -48.5t-9 -48.5l-128 -616h-83l155 750h147l26 -585v-16q0 -20 -1.5 -42.5t-5.5 -52.5h2q10 29 19.5 56.5
t22.5 55.5z" />
    <glyph glyph-name="N" unicode="N" horiz-adv-x="611" 
d="M606 750h83l-155 -750h-136l-86 600q-2 17 -3.5 35t-1.5 38v19q0 10 1 21h-2q-5 -29 -10.5 -57.5t-11.5 -57.5l-124 -598h-83l155 750h135l86 -614q3 -17 5 -36.5t4 -45.5h2q3 20 6.5 41.5t8.5 42.5z" />
    <glyph glyph-name="O" unicode="O" horiz-adv-x="611" 
d="M547 389q9 42 14 80t5 71q0 68 -26.5 109t-92.5 41q-48 0 -84 -23.5t-62.5 -64.5t-44.5 -95.5t-31 -117.5q-12 -60 -19.5 -109t-7.5 -88q0 -67 26.5 -101t92.5 -34q52 0 88 21.5t61.5 63.5t44.5 104t36 143zM140 391q13 64 34.5 130.5t58.5 120.5t93.5 88.5t140.5 34.5
q55 0 91.5 -16t58 -44t30.5 -65t9 -79t-6.5 -85t-15.5 -85q-17 -78 -40 -151.5t-60.5 -131t-93.5 -92t-138 -34.5q-54 0 -90 15.5t-57.5 43.5t-30.5 66t-9 83q0 46 7 97t18 104z" />
    <glyph glyph-name="P" unicode="P" horiz-adv-x="556" 
d="M250 393h81q43 0 78 5t62 20t45.5 44t28.5 77q2 12 3.5 22.5t1.5 20.5q0 29 -10.5 47.5t-29.5 28.5t-45 13.5t-56 3.5h-14h-86zM86 0l155 750h197q22 0 45.5 -2t45.5 -7t41.5 -14.5t32.5 -25.5q19 -21 26.5 -47t7.5 -55q0 -28 -6 -58q-6 -31 -17.5 -61t-29.5 -56.5
t-43 -48t-58 -35.5q-21 -8 -46.5 -12.5t-52 -6.5t-52.5 -2.5t-47 -0.5h-50l-66 -318h-83z" />
    <glyph glyph-name="Q" unicode="Q" horiz-adv-x="611" 
d="M349 144l56 55l58 -56q9 11 20 34.5t22 53.5t21 63.5t16 63.5q12 60 19 109t7 87q0 68 -26.5 102t-92.5 34q-52 0 -88 -21.5t-61.5 -63.5t-44.5 -104t-36 -143q-9 -42 -14.5 -80.5t-5.5 -72.5q0 -66 25 -107t86 -41h5q26 1 48 6t48 22zM585 18l-53 -52l-69 70
q-15 -12 -34 -22t-40.5 -17t-43.5 -11t-43 -4q-54 0 -90 15.5t-57.5 43.5t-30.5 66t-9 83q0 46 7 97t18 104q9 43 21 87.5t30 86t42 78t57 63.5t75.5 43t97.5 16q57 0 94 -16.5t59 -44.5t31 -65.5t9 -79.5q0 -41 -6 -83.5t-15 -84.5q-4 -20 -14.5 -60t-26 -85.5t-36 -88
t-44.5 -67.5z" />
    <glyph glyph-name="R" unicode="R" horiz-adv-x="611" 
d="M253 405h131q15 0 40 3.5t51.5 17t49.5 41t32 76.5q4 19 4 38q0 34 -14 53t-34.5 28t-44 11t-42.5 2h-117zM169 0h-83l155 750h193q49 0 89.5 -6t69 -22t44 -43t15.5 -69q0 -34 -10 -74q-16 -66 -63 -110t-115 -53v-2q61 -6 83.5 -28t22.5 -74q0 -8 -0.5 -17.5
t-1.5 -20.5q-7 -42 -12 -83.5t-7 -83.5v-4q0 -6 0.5 -13t2.5 -14t5.5 -11.5t10.5 -4.5l-3 -17h-97q-3 18 -3 43q0 37 5 78t11 70q2 12 3.5 23t1.5 22q0 41 -23 67.5t-81 26.5h-145z" />
    <glyph glyph-name="S" unicode="S" horiz-adv-x="556" 
d="M514 553q7 24 7 48q0 40 -24 64.5t-73 24.5q-45 0 -74.5 -13t-47.5 -32.5t-27 -43t-13 -45.5q-3 -15 -3 -28q0 -53 53 -74q28 -11 55 -22.5t55 -22.5q38 -15 63.5 -30.5t41 -33t22 -36.5t6.5 -42q0 -29 -7 -60q-23 -107 -97 -166t-183 -59q-28 0 -56.5 5t-53 18t-43.5 36
t-28 60q-2 6 -2 12v14q0 26 5 56.5t10 54.5h83q-6 -25 -9.5 -46.5t-3.5 -40.5q0 -45 25.5 -69.5t91.5 -24.5q63 0 110 32.5t61 98.5q6 30 6 51q0 24 -7.5 38.5t-20.5 23.5t-31 15.5t-39 15.5q-14 6 -32 13t-36.5 14.5t-36 15t-30.5 15.5q-34 19 -47.5 46.5t-13.5 62.5
q0 14 2 29t5 32q10 46 33.5 84t56.5 65t74.5 41.5t87.5 14.5q85 0 131.5 -35t46.5 -106q0 -34 -10 -71h-83z" />
    <glyph glyph-name="T" unicode="T" 
d="M170 750h471l-15 -75h-194l-140 -675h-83l140 675h-194z" />
    <glyph glyph-name="U" unicode="U" horiz-adv-x="611" 
d="M236 750h83l-112 -539q-3 -13 -5 -27t-2 -29q0 -18 5 -36t18 -31.5t35.5 -22t58.5 -8.5q50 0 82 16t51 39t28 50t13 49l112 539h83l-118 -569q-21 -101 -92.5 -150t-173.5 -49q-88 0 -139 36t-51 111q0 23 6 52z" />
    <glyph glyph-name="V" unicode="V" horiz-adv-x="556" 
d="M608 750h92l-371 -750h-103l-60 750h92l30 -690h2z" />
    <glyph glyph-name="W" unicode="W" horiz-adv-x="833" 
d="M280 0h-103l-5 750h92l-9 -517q-2 -38 -4.5 -79t-9.5 -94h2q14 44 28 85t31 82l218 523h103l-8 -517q-1 -38 -4.5 -78t-9.5 -95h2q14 44 28 85t31 82l217 523h92l-331 -750h-103l5 509q1 37 4.5 78t11.5 103h-2q-17 -54 -31 -97t-31 -84z" />
    <glyph glyph-name="X" unicode="X" horiz-adv-x="556" 
d="M310 385l-132 365h98l97 -293l217 293h98l-281 -365l132 -385h-102l-94 314l-227 -314h-99z" />
    <glyph glyph-name="Y" unicode="Y" horiz-adv-x="556" 
d="M355 374l254 376h92l-322 -459l-60 -291h-83l60 291l-130 459h92z" />
    <glyph glyph-name="Z" unicode="Z" 
d="M28 0l14 72l480 603h-345l15 75h431l-15 -72l-479 -603h359l-15 -75h-445z" />
    <glyph glyph-name="bracketleft" unicode="[" horiz-adv-x="333" 
d="M56 -209l199 959h175l-12 -60h-97l-174 -837h97l-13 -62h-175z" />
    <glyph glyph-name="backslash" unicode="\" horiz-adv-x="250" 
d="M210 -27l-82 777h61l82 -777h-61z" />
    <glyph glyph-name="bracketright" unicode="]" horiz-adv-x="333" 
d="M14 -209l13 62h97l174 837h-97l12 60h175l-199 -959h-175z" />
    <glyph glyph-name="asciicircum" unicode="^" 
d="M429 750l71 -417h-54l-58 338l-196 -338h-53l241 417h49z" />
    <glyph glyph-name="underscore" unicode="_" 
d="M-25 -125l10 50h499l-10 -50h-499z" />
    <glyph glyph-name="grave" unicode="`" horiz-adv-x="333" 
d="M303 765l59 -141h-67l-101 141h109z" />
    <glyph glyph-name="a" unicode="a" horiz-adv-x="444" 
d="M349 300q-33 -17 -68 -31t-70 -29q-30 -13 -46.5 -40t-22.5 -56q-4 -19 -4 -38q0 -26 13.5 -40t49.5 -14q11 0 28.5 5t35.5 17.5t33.5 34.5t22.5 56zM417 0q-12 -2 -19 -4q-6 0 -11.5 -0.5t-10.5 -0.5q-33 0 -48 10.5t-15 44.5v11q0 7 1 14h-2q-11 -18 -27 -34.5t-35 -29
t-39.5 -19.5t-40.5 -7q-65 0 -91 26t-26 74q0 26 8 63q2 8 7 25t17 37.5t32 40t52 32.5q18 7 47 18t57.5 21.5t50.5 19t27 11.5q15 10 19 26t9 38q2 9 3 17.5t1 15.5q0 29 -18 41.5t-56 12.5q-27 0 -44.5 -6t-28.5 -18.5t-17.5 -31t-10.5 -42.5h-71q15 87 64.5 126t134.5 39
q40 0 65 -10t38.5 -25t18.5 -33t5 -34q0 -18 -3 -31.5t-4 -17.5l-67 -319q-1 -5 -2 -11.5t-1 -12.5q0 -13 9 -18q5 -2 16 -2h9t9 1z" />
    <glyph glyph-name="b" unicode="b" 
d="M203 264q-5 -26 -10.5 -55.5t-5.5 -58.5q0 -20 4 -37.5t13.5 -31t25.5 -21.5t40 -8q61 0 96 61.5t58 174.5q5 23 10 52.5t5 58.5q0 21 -3.5 40t-12.5 33.5t-23.5 23t-36.5 8.5q-44 0 -72 -26t-45.5 -63.5t-27 -79t-15.5 -71.5zM147 0h-72l155 750h79l-52 -251h2
q32 38 63 55t68 17q38 0 63.5 -13t41 -35t22 -51t6.5 -61q0 -24 -3 -49t-8 -48q-12 -59 -30 -118t-46 -106t-68 -76t-96 -29q-36 0 -65.5 16t-44.5 65h-2z" />
    <glyph glyph-name="c" unicode="c" horiz-adv-x="444" 
d="M339 504q-43 0 -71 -28t-46 -67.5t-28 -82t-16 -72.5q-5 -22 -9 -49t-4 -53q0 -20 3.5 -38t12 -32t23.5 -22t38 -8q32 0 53.5 12.5t36 33t23 45.5t15.5 51h75q-9 -40 -26 -77.5t-42.5 -67t-61 -47t-81.5 -17.5q-44 0 -73 11.5t-46 32.5t-24 49.5t-7 61.5q0 30 4.5 63.5
t11.5 67.5q10 51 27.5 104t46.5 96.5t72.5 71.5t107.5 28q68 0 100 -38.5t32 -96.5q0 -27 -6 -55h-74q2 12 3.5 23.5t1.5 22.5q0 32 -15 54.5t-57 22.5z" />
    <glyph glyph-name="d" unicode="d" 
d="M404 287q5 24 10 54.5t5 59.5q0 21 -3.5 39.5t-12.5 32.5t-24 22.5t-38 8.5q-25 0 -47.5 -11t-42 -36.5t-36 -68.5t-29.5 -107q-8 -37 -13.5 -71.5t-5.5 -63.5q0 -42 17.5 -68t65.5 -26q31 0 55 17t41 42.5t28 54t16 52.5zM500 750h79l-155 -750h-76l15 73h-2
q-18 -25 -35 -41.5t-35 -27t-38.5 -15t-45.5 -4.5q-36 0 -59.5 13t-37 34t-18.5 48t-5 55q0 46 8 86.5t11 57.5q10 61 30 114.5t49 93t66 62t82 22.5q43 0 68 -18t45 -54h2z" />
    <glyph glyph-name="e" unicode="e" horiz-adv-x="444" 
d="M382 336q4 20 8 44t4 47q0 16 -3 30t-10.5 24.5t-21 16.5t-33.5 6q-35 0 -57.5 -17t-37 -42.5t-23 -54.5t-14.5 -54h188zM429 185q-7 -41 -24 -77.5t-44 -63.5t-62.5 -43t-79.5 -16q-30 0 -54.5 8.5t-42.5 27t-27.5 49t-9.5 75.5q0 57 16 134q9 44 26.5 95t46 95t69.5 73
t96 29q40 0 66 -10.5t41 -29t21 -43.5t6 -53q0 -39 -7.5 -81.5t-14.5 -82.5h-270q-5 -27 -12.5 -62.5t-7.5 -68.5q0 -18 3.5 -34t12 -28t22.5 -19t36 -7q28 0 49.5 12t36 31t23 42.5t11.5 47.5h74z" />
    <glyph glyph-name="f" unicode="f" horiz-adv-x="278" 
d="M194 489h-81l14 67h80l10 47q5 25 13.5 55.5t28.5 51.5q20 23 48.5 32.5t66.5 9.5q9 0 19 -0.5t21 -1.5l-13 -67q-8 1 -16 1.5t-15 0.5q-31 0 -46.5 -14t-24.5 -56l-12 -59h87l-14 -67h-87l-101 -489h-79z" />
    <glyph glyph-name="g" unicode="g" 
d="M340 504q-39 0 -66 -25t-45 -60t-28.5 -74t-16.5 -67q-8 -36 -12 -67.5t-4 -57.5q0 -48 16 -74.5t54 -26.5q45 0 74.5 24.5t48 61t29 78t17.5 74.5q12 54 12 103q0 48 -17.5 79.5t-61.5 31.5zM462 556h79l-102 -489q-5 -26 -11 -48.5t-15 -44.5t-22 -43t-31 -43
q-35 -42 -79 -59.5t-90 -17.5q-62 0 -100.5 28.5t-38.5 90.5v9q0 3 1 8h77v-7q0 -34 19 -48t54 -14q48 0 76 20.5t44 50t23 61.5t12 55h-2q-34 -43 -66.5 -61.5t-70.5 -18.5q-60 0 -96 36t-36 125q0 28 4 62t12 74q9 44 26.5 94.5t45.5 94t68.5 72t95.5 28.5q38 0 67 -19
t41 -59h2z" />
    <glyph glyph-name="h" unicode="h" 
d="M152 0h-79l155 750h79l-53 -255h2q35 36 71.5 56t81.5 20q53 0 83 -24t30 -75q0 -10 -1.5 -20.5t-3.5 -22.5l-89 -429h-79l84 407q4 17 4 36q0 28 -15 44.5t-52 16.5q-45 0 -84 -31q-29 -22 -40 -46.5t-17 -54.5z" />
    <glyph glyph-name="i" unicode="i" horiz-adv-x="222" 
d="M207 650l20 100h79l-20 -100h-79zM72 0l115 556h79l-115 -556h-79z" />
    <glyph glyph-name="j" unicode="j" horiz-adv-x="222" 
d="M210 650l20 100h79l-20 -100h-79zM-11 -117h9q11 0 25 2.5t21 12.5q13 17 16.5 36t7.5 37l122 585h79l-120 -578q-10 -49 -23.5 -81t-33.5 -51.5t-49 -27.5t-69 -8z" />
    <glyph glyph-name="k" unicode="k" horiz-adv-x="444" 
d="M69 0l155 750h79l-94 -453h2l244 259h94l-217 -216l107 -340h-92l-82 277l-76 -79l-41 -198h-79z" />
    <glyph glyph-name="l" unicode="l" horiz-adv-x="222" 
d="M72 0l155 750h79l-155 -750h-79z" />
    <glyph glyph-name="m" unicode="m" horiz-adv-x="778" 
d="M155 0h-79l115 556h76l-15 -71h2q27 35 66.5 60.5t83.5 25.5q45 0 74 -24t40 -64q38 43 76 65.5t91 22.5q59 0 94 -39q10 -11 13.5 -26t3.5 -31q0 -20 -3.5 -39.5t-6.5 -33.5l-83 -402h-79l84 407q2 11 3.5 21t1.5 19q0 28 -15.5 42.5t-54.5 14.5q-43 -2 -80 -31
q-29 -22 -40 -46.5t-17 -54.5l-77 -372h-79l84 407q4 17 4 36q0 28 -15 44.5t-52 16.5q-45 0 -84 -31q-29 -22 -39 -46.5t-16 -54.5z" />
    <glyph glyph-name="n" unicode="n" 
d="M252 495h2q36 36 73 56t82 20q53 0 83 -24t30 -75q0 -10 -1.5 -20.5t-3.5 -22.5l-89 -429h-79l84 407q4 17 4 36q0 28 -15 44.5t-52 16.5q-45 0 -84 -31q-29 -22 -40 -46.5t-17 -54.5l-77 -372h-79l115 556h77z" />
    <glyph glyph-name="o" unicode="o" 
d="M423 272q16 76 16 127q0 57 -21 81t-64 24q-30 0 -55 -12.5t-45 -40.5t-36 -72t-29 -107q-14 -67 -14 -113q0 -51 19 -79t66 -28q35 0 61 16t45.5 45t33 69.5t23.5 89.5zM510 297q-19 -90 -45.5 -150t-59.5 -96t-73 -51t-86 -15q-35 0 -62.5 8.5t-47.5 28.5t-30.5 52.5
t-10.5 80.5q0 29 4 64.5t13 77.5q13 63 35.5 113.5t54.5 86.5t73.5 55t92.5 19q80 0 117 -44.5t37 -125.5q0 -47 -12 -104z" />
    <glyph glyph-name="p" unicode="p" 
d="M424 288q5 22 9 50t4 57q0 21 -3.5 41t-12 35t-23.5 24t-38 9q-39 0 -65 -24t-43 -59t-27 -73.5t-16 -68.5q-6 -26 -12.5 -60.5t-6.5 -67.5q0 -20 3.5 -38t12.5 -31.5t23.5 -21.5t37.5 -8q61 0 97.5 61.5t59.5 174.5zM111 -188h-79l155 744h76l-13 -62h2q27 39 62 57
t69 20q40 0 66.5 -13.5t42.5 -37t23 -53.5t7 -63q0 -23 -2.5 -45t-7.5 -44q-12 -59 -31 -118t-48.5 -106t-70.5 -76.5t-97 -29.5q-42 0 -64 19.5t-36 53.5h-2z" />
    <glyph glyph-name="q" unicode="q" 
d="M189 254q-5 -28 -8 -53.5t-3 -48.5q0 -45 15.5 -72.5t57.5 -27.5q40 0 67 25t44.5 60.5t27 74.5t15.5 68q5 26 11 59.5t6 65.5q0 40 -15.5 69t-58.5 30q-39 0 -66 -24t-45 -60.5t-29.5 -81t-18.5 -84.5zM465 556h76l-154 -740h-79l51 245h-2q-34 -38 -65 -57t-69 -19
q-66 0 -95 38t-29 119q0 53 12 128q7 47 24.5 100t46 97.5t67.5 74t89 29.5q38 0 67.5 -16.5t45.5 -55.5h2z" />
    <glyph glyph-name="r" unicode="r" horiz-adv-x="333" 
d="M253 465h2q33 50 71 74t90 24h11t11 -1l-16 -78q-17 3 -32 3q-62 0 -104 -41t-56 -109l-70 -337h-79l115 556h76z" />
    <glyph glyph-name="s" unicode="s" horiz-adv-x="444" 
d="M387 407q6 22 6 40q0 57 -74 57q-42 0 -69 -20t-36 -64q-2 -6 -2 -12v-10q0 -20 8.5 -32t21.5 -21t29.5 -15.5t33.5 -13.5q24 -12 47.5 -22.5t42 -24t30 -32.5t11.5 -47q0 -8 -1 -16.5t-3 -17.5q-8 -39 -28 -71t-48.5 -54t-65.5 -34t-79 -12h-3h-4q-36 0 -71.5 13.5
t-50.5 44.5q-8 16 -11.5 30.5t-3.5 28.5q0 15 3 30l6 30h75q-6 -26 -6 -45q0 -31 17.5 -48t59.5 -17q48 0 81.5 21.5t44.5 72.5q1 5 1.5 10t0.5 10q0 23 -11.5 37t-29 23t-37.5 15.5t-38 14.5q-50 20 -79 44t-29 71q0 10 1 20.5t4 22.5q7 36 25 65t44 49.5t58 31.5t68 11
q69 0 106.5 -26.5t37.5 -85.5q0 -24 -6 -52h-77z" />
    <glyph glyph-name="t" unicode="t" horiz-adv-x="278" 
d="M279 556h93l-14 -67h-92l-79 -379q-2 -6 -3.5 -12.5t-1.5 -11.5q0 -8 6.5 -13.5t26.5 -5.5h53l-13 -67h-87h-7q-27 0 -44.5 9t-17.5 43q0 14 5 39l83 398h-77l14 67h77l31 151h78z" />
    <glyph glyph-name="u" unicode="u" 
d="M360 73h-2q-29 -43 -69.5 -65.5t-81.5 -22.5q-52 0 -80.5 23t-28.5 74q0 10 1.5 21.5t3.5 23.5l89 429h79l-90 -432q-3 -15 -3 -27q0 -22 13 -33.5t46 -11.5q29 0 56.5 12.5t48.5 36.5q18 21 28.5 47.5t15.5 50.5l74 357h79l-115 -556h-79z" />
    <glyph glyph-name="v" unicode="v" horiz-adv-x="444" 
d="M128 556h82l24 -489h2l228 489h82l-282 -556h-86z" />
    <glyph glyph-name="w" unicode="w" horiz-adv-x="667" 
d="M481 67h2l199 489h82l-254 -556h-82l7 489h-2l-189 -489h-82l-28 556h82l-1 -489h2l190 489h82z" />
    <glyph glyph-name="x" unicode="x" horiz-adv-x="444" 
d="M134 556h82l83 -200l164 200h82l-216 -270l107 -286h-82l-84 222l-179 -222h-82l229 286z" />
    <glyph glyph-name="y" unicode="y" horiz-adv-x="444" 
d="M120 556h82l25 -482h2l229 482h82l-275 -531q-6 -12 -16.5 -32t-22 -41t-23 -40t-19.5 -29q-30 -39 -64 -56t-78 -17q-29 0 -54 9l13 70q13 -6 28 -9t29 -3q28 0 45.5 9.5t30 25t22.5 35t23 40.5z" />
    <glyph glyph-name="z" unicode="z" horiz-adv-x="389" 
d="M24 0l12 62l348 429h-247l13 65h329l-13 -65l-347 -426h260l-13 -65h-342z" />
    <glyph glyph-name="braceleft" unicode="{" horiz-adv-x="274" 
d="M180 17q-2 -9 -3 -16.5t-1 -15.5q0 -28 16 -46.5t54 -31.5v-2h-17q-72 0 -100.5 21t-28.5 68q0 13 2 27t5 31l35 165q2 11 4.5 21.5t2.5 20.5q0 26 -22 44q-10 9 -23.5 15t-28.5 10v2q25 2 42 10t31 19q22 19 28 35.5t11 39.5l38 186q6 29 19 57t45 47q33 20 64 23t68 3
v-2q-57 -15 -80 -41t-32 -69l-39 -187q-5 -24 -13 -43.5t-22 -35t-35.5 -26t-54.5 -16.5v-2q45 -11 61.5 -32t16.5 -52q0 -12 -2 -25.5t-5 -28.5z" />
    <glyph glyph-name="bar" unicode="|" horiz-adv-x="250" 
d="M312 750l-207 -1000h-64l207 1000h64z" />
    <glyph glyph-name="braceright" unicode="}" horiz-adv-x="274" 
d="M229 638q4 16 4 33q0 27 -16 46t-54 31v2h17q71 0 100 -21t29 -67q0 -28 -7 -59l-34 -165q-3 -11 -5 -21.5t-2 -20.5q0 -12 4.5 -23t16.5 -21q10 -9 24 -15t28 -10v-2q-25 -2 -42 -10t-31 -19q-22 -19 -28 -35.5t-11 -39.5l-38 -186q-6 -29 -19 -57t-45 -47
q-33 -20 -64 -23t-67 -3v2q56 15 79 41t32 69l39 187q5 24 13 43.5t22 35t35.5 26t54.5 16.5v2q-45 11 -61.5 32t-16.5 52q0 12 2 25.5t5 28.5z" />
    <glyph glyph-name="asciitilde" unicode="~" 
d="M230 332q22 0 44.5 -10.5t43.5 -24.5q23 -13 42.5 -24t35.5 -11q14 0 27.5 8t26.5 20t24 26.5t20 28.5l24 -47q-13 -20 -28.5 -40t-33.5 -36t-37 -25.5t-40 -9.5q-11 0 -25 5t-27.5 12t-26.5 14.5t-22 12.5q-14 8 -30 16.5t-34 8.5q-16 0 -30.5 -8.5t-27 -21.5t-23.5 -29
t-21 -31l-24 48q14 21 29.5 42t33.5 38t37.5 27.5t41.5 10.5z" />
    <glyph glyph-name="Euro" 
d="M225 285q-1 -8 -1 -15v-15q0 -36 6 -71t20 -62.5t37 -44.5t58 -17q23 0 41.5 2.5t34.5 8.5t31 16t33 24l-19 -89q-30 -19 -65.5 -28t-70.5 -9q-55 0 -92.5 19.5t-60.5 53t-33 77.5t-10 94q0 27 3 56h-63l19 44h49l6 30q2 12 5 23.5t6 23.5h-60l19 44h54q20 62 49 117
t69 95.5t90.5 64t113.5 23.5q42 0 80.5 -13.5t63.5 -40.5l-37 -84q-14 16 -27 27.5t-28 19.5t-34.5 12t-44.5 4q-43 0 -76.5 -21t-59.5 -53.5t-44.5 -72.5t-30.5 -78h271l-19 -44h-263q-6 -23 -9 -40q-2 -9 -3.5 -18t-3.5 -19h244l-19 -44h-229z" />
    <glyph glyph-name="Euro" unicode="&#x20ac;" 
d="M225 285q-1 -8 -1 -15v-15q0 -36 6 -71t20 -62.5t37 -44.5t58 -17q23 0 41.5 2.5t34.5 8.5t31 16t33 24l-19 -89q-30 -19 -65.5 -28t-70.5 -9q-55 0 -92.5 19.5t-60.5 53t-33 77.5t-10 94q0 27 3 56h-63l19 44h49l6 30q2 12 5 23.5t6 23.5h-60l19 44h54q20 62 49 117
t69 95.5t90.5 64t113.5 23.5q42 0 80.5 -13.5t63.5 -40.5l-37 -84q-14 16 -27 27.5t-28 19.5t-34.5 12t-44.5 4q-43 0 -76.5 -21t-59.5 -53.5t-44.5 -72.5t-30.5 -78h271l-19 -44h-263q-6 -23 -9 -40q-2 -9 -3.5 -18t-3.5 -19h244l-19 -44h-229z" />
    <glyph glyph-name="exclamdown" unicode="&#xa1;" horiz-adv-x="333" 
d="M330 571l-21 -100h-91l21 100h91zM269 388l-47 -337l-48 -230h-91l48 230l93 337h45z" />
    <glyph glyph-name="cent" unicode="&#xa2;" 
d="M364 489q-4 2 -9 2h-10q-23 0 -40 -8t-30.5 -21.5t-23 -31t-17.5 -36.5q-16 -38 -26.5 -77t-18.5 -78q-5 -20 -8 -42t-3 -45q0 -18 3 -34.5t10 -30.5zM142 -137h-48l62 143q-25 15 -41 41q-9 23 -13 47.5t-4 50.5q0 30 4 60t11 60q7 36 20.5 80.5t35 85.5t54 73t77.5 44
q17 5 32.5 6.5t32.5 1.5q14 0 26 -3l50 114h50l-55 -127q29 -14 45 -40.5t16 -64.5q0 -17 -1 -32t-3 -31h-78q5 28 5 49q0 15 -3.5 27.5t-11.5 20.5l-179 -413q6 -3 14 -3.5t17 -0.5q32 0 53 12.5t35 32t22.5 44.5t15.5 49h74q-2 -13 -6.5 -25t-8.5 -24q-12 -33 -28.5 -61.5
t-46.5 -53.5q-23 -19 -57.5 -30t-61.5 -11q-28 0 -50 6z" />
    <glyph glyph-name="sterling" unicode="&#xa3;" 
d="M100 338l9 44h75q-10 29 -16.5 57.5t-6.5 58.5q0 13 1 25.5t4 26.5q6 31 21.5 62t38.5 57q39 43 86.5 62t108.5 19q78 0 121.5 -38.5t43.5 -110.5q0 -8 -0.5 -15t-1.5 -15q-2 -12 -3.5 -24.5t-5.5 -24.5h-83q0 2 1.5 8.5t3 14.5t3 16.5t1.5 15.5v7q0 46 -26.5 68.5
t-74.5 22.5q-63 0 -100.5 -38t-49.5 -97q-4 -19 -4 -42q0 -31 7 -60.5t16 -55.5h164l-9 -44h-145q1 -5 2 -8.5t1 -8.5q3 -11 3 -24q0 -8 -1 -16.5t-3 -16.5q-6 -31 -21.5 -59t-36.5 -53.5t-46 -47.5t-51 -40l1 -2q37 21 77 27q18 3 37 3q23 0 40 -4q17 -6 36 -10.5t37 -9.5
q13 -4 29 -4q23 0 46.5 9t47.5 24l14 -67q-20 -13 -35.5 -20.5t-30.5 -12t-31 -6t-37 -1.5q-11 0 -25 3.5t-29 8.5t-29.5 10t-26.5 8q-29 6 -56 6q-35 0 -63.5 -11.5t-60.5 -29.5l-28 61q29 20 54.5 41t46.5 45t36 52t22 62q2 10 3 19t1 19q0 14 -2 27.5t-5 26.5h-95z" />
    <glyph glyph-name="currency" unicode="&#xa4;" 
d="M350 481q-35 0 -66 -14t-56.5 -38t-43.5 -57t-26 -72q-2 -11 -3.5 -21.5t-1.5 -21.5q0 -58 32 -96.5t87 -38.5q34 0 65.5 14t57 38.5t44 57.5t26.5 71q5 25 5 44q0 28 -8 52.5t-22.5 42.5t-35.5 28.5t-48 10.5h-3h-3zM98 152q-9 23 -13.5 44.5t-4.5 45.5q0 26 6 58
q9 45 26 80t48 71l-30 43l58 53l30 -43q36 26 73.5 37.5t75.5 11.5q37 0 66.5 -13t54.5 -36l49 43l36 -53l-47 -43q9 -23 13.5 -44.5t4.5 -45.5q0 -28 -8 -66q-9 -42 -26.5 -75t-45.5 -68l29 -42l-58 -53l-31 43q-71 -50 -149 -50q-38 0 -66.5 13.5t-54.5 36.5l-48 -43
l-36 53z" />
    <glyph glyph-name="yen" unicode="&#xa5;" 
d="M265 291l-127 459h100l89 -376l252 376h94l-326 -459l-6 -29h138l-9 -44h-138l-16 -76h138l-9 -44h-138l-20 -98h-82l20 98h-138l9 44h138l16 76h-138l9 44h138z" />
    <glyph glyph-name="brokenbar" unicode="&#xa6;" horiz-adv-x="250" 
d="M297 675l-73 -350h-64l73 350h64zM129 175h64l-73 -350h-64z" />
    <glyph glyph-name="section" unicode="&#xa7;" 
d="M231 214q8 -6 24 -18.5t33 -26t31 -25t19 -15.5q17 11 33 22.5t29 25t22.5 29.5t13.5 36q1 5 1.5 9t0.5 8q0 10 -4 20.5t-13 23t-25 27.5t-40 35q-20 16 -38 30.5t-36 27.5q-16 -10 -32 -20.5t-30.5 -23t-24.5 -27.5t-14 -34q-2 -8 -3 -14t-1 -12q0 -15 11 -31.5
t44 -45.5zM139 -21q-4 -19 -4 -39q0 -38 20 -59.5t66 -21.5q42 0 75.5 22t43.5 67q2 6 2 12v10q0 16 -6.5 30.5t-23 31.5t-44 39t-68.5 53q-29 22 -49.5 40t-33.5 35t-18.5 34t-5.5 35q0 8 1 16.5t3 17.5q12 57 52 95t94 61q-47 35 -47 97q0 8 1 16.5t3 16.5q8 38 27.5 68
t47.5 51t62.5 32t72.5 11q69 0 104 -33.5t35 -92.5q0 -23 -6 -50h-82q4 17 4 35q0 34 -18.5 53t-60.5 19q-38 0 -67.5 -23t-37.5 -61q-2 -8 -3 -15t-1 -13q0 -9 4 -18t16 -21t32.5 -29.5t53.5 -43.5q25 -20 49.5 -37.5t44.5 -37t32.5 -42.5t12.5 -53q0 -15 -3 -31
q-6 -29 -19.5 -52.5t-32 -43.5t-42 -37t-48.5 -33q23 -20 36 -43t13 -53q0 -8 -1 -16t-3 -17q-17 -83 -77 -126t-150 -43q-69 0 -106.5 36.5t-37.5 96.5q0 27 7 54h81z" />
    <glyph glyph-name="dieresis" unicode="&#xa8;" horiz-adv-x="333" 
d="M337 650l20 100h79l-20 -100h-79zM286 750l-20 -100h-79l20 100h79z" />
    <glyph glyph-name="copyright" unicode="&#xa9;" horiz-adv-x="800" 
d="M662 303q-11 -35 -33 -63t-50.5 -48t-62 -31t-67.5 -11q-42 0 -75 13t-55.5 36t-34.5 54.5t-12 69.5q0 26 6 55q10 48 33.5 89t57.5 71.5t77.5 47.5t93.5 17q69 0 111.5 -37.5t42.5 -105.5v-6h-58v4q0 45 -29.5 71t-75.5 26q-38 0 -70.5 -14t-57.5 -38t-42 -56t-24 -68
q-5 -25 -5 -45q0 -57 31.5 -96.5t95.5 -39.5q23 0 46 7.5t42.5 21t34 33t22.5 43.5h58zM409 40q69 0 135 26t120.5 71.5t93 106.5t52.5 131q4 18 5.5 35.5t1.5 34.5q0 56 -19.5 104t-55 83t-85.5 55t-110 20q-69 0 -135.5 -26t-121 -71t-93 -105.5t-53.5 -129.5
q-7 -34 -7 -69q0 -57 19.5 -106t55.5 -84.5t86 -55.5t111 -20zM397 -18q-71 0 -130 23.5t-101 65t-65.5 98.5t-23.5 125q0 20 1.5 40t6.5 41q17 80 62.5 151t110 124t143 84t159.5 31q70 0 128.5 -23.5t100.5 -65.5t65.5 -98.5t23.5 -122.5q0 -40 -9 -80
q-17 -82 -62.5 -153.5t-109.5 -125t-141.5 -84t-158.5 -30.5z" />
    <glyph glyph-name="ordfeminine" unicode="&#xaa;" horiz-adv-x="300" 
d="M316 602q-21 -11 -43.5 -19t-45.5 -17q-20 -8 -29.5 -24.5t-13.5 -33.5q-3 -12 -3 -22q0 -15 9 -24t33 -9q7 0 18.5 3t23 10.5t21 21t13.5 33.5zM363 422q-3 -1 -6 -1t-6 -1h-16q-22 0 -31 5.5t-9 24.5v8t1 9h-2q-13 -22 -39 -38t-52 -16q-42 0 -59 16t-17 45q0 8 1 17.5
t3 19.5q1 4 4 14.5t10.5 22.5t20.5 24t34 20q12 4 30.5 10.5t36.5 13t32.5 11.5t17.5 7q10 6 12.5 15.5t4.5 22.5q2 5 2 9v10q0 18 -11 25.5t-37 7.5q-35 0 -47 -14.5t-18 -43.5h-46q9 52 41.5 75.5t87.5 23.5q26 0 42.5 -6t25.5 -15.5t12 -20.5t3 -21q0 -11 -2 -18.5
t-2 -9.5l-40 -191q-1 -4 -2 -7.5t-1 -7.5q0 -8 7 -11q3 -1 10 -1q8 0 12 1z" />
    <glyph glyph-name="guillemotleft" unicode="&#xab;" 
d="M517 495l-17 -83l-121 -102l79 -102l-18 -83l-118 156l13 61zM338 495l-17 -83l-121 -102l79 -102l-18 -83l-118 156l13 61z" />
    <glyph glyph-name="logicalnot" unicode="&#xac;" 
d="M452 314h-343l14 70h413l-55 -267h-70z" />
    <glyph glyph-name="registered" unicode="&#xae;" horiz-adv-x="800" 
d="M473 399h33q21 0 43.5 2t42 10t34 24t20.5 44q1 5 1.5 9.5t0.5 9.5q0 18 -9 29t-23 17t-32 7.5t-36 1.5h-124l-32 -154h81zM628 155h-65l-82 202h-97l-42 -202h-56l91 440h193q27 0 53.5 -3t47.5 -21q17 -11 25.5 -30t8.5 -41q0 -11 -3 -23q-7 -33 -22.5 -55.5t-37.5 -37
t-48.5 -21t-54.5 -6.5zM547 707q-69 0 -135.5 -26t-121 -71.5t-93 -106t-53.5 -129.5q-7 -34 -7 -68q0 -57 19.5 -106t55.5 -84.5t86 -55.5t111 -20q69 0 135 26t120.5 71t93 106t52.5 131q4 18 5.5 35.5t1.5 34.5q0 57 -19.5 105t-55 83t-85.5 55t-110 20zM560 765
q70 0 128.5 -23.5t100.5 -65t65.5 -98.5t23.5 -123q0 -38 -9 -80q-17 -82 -62.5 -153.5t-109.5 -125t-141.5 -84t-158.5 -30.5q-71 0 -130 23.5t-101 65t-65.5 98.5t-23.5 125q0 20 1.5 40t6.5 41q17 81 62.5 152t110 124t143 83.5t159.5 30.5z" />
    <glyph glyph-name="macron" unicode="&#xaf;" horiz-adv-x="333" 
d="M146 657l12 58h313l-12 -58h-313z" />
    <glyph glyph-name="macron" unicode="&#x2c9;" horiz-adv-x="333" 
d="M146 657l12 58h313l-12 -58h-313z" />
    <glyph glyph-name="degree" unicode="&#xb0;" horiz-adv-x="400" 
d="M412 600q1 5 1.5 9t0.5 9q0 30 -20 50t-52 20q-18 0 -35.5 -7t-32 -19t-25 -28t-13.5 -34q-1 -5 -1.5 -9t-0.5 -9q0 -30 20 -50t52 -20q18 0 35.5 7t32 19t24.5 28t14 34zM474 600q-6 -31 -23.5 -58.5t-42.5 -47.5t-54.5 -32t-60.5 -12q-55 0 -88.5 34t-33.5 85
q0 16 3 31q6 31 23.5 58t42 47.5t54.5 32.5t61 12q27 0 49.5 -9t38.5 -25.5t25 -38.5t9 -47q0 -15 -3 -30z" />
    <glyph glyph-name="plusminus" unicode="&#xb1;" 
d="M58 70h413l-14 -70h-413zM319 505h70l-32 -156h172l-14 -70h-172l-34 -159h-70l34 159h-171l14 70h171z" />
    <glyph glyph-name="twosuperior" unicode="&#xb2;" horiz-adv-x="300" 
d="M195 410q-17 -14 -27 -25.5t-15 -32.5h201l-11 -52h-262q6 24 14.5 48.5t25.5 48.5q8 12 21.5 28.5t25.5 26.5l107 80q29 21 44.5 43t21.5 51q3 13 3 26q0 21 -11.5 33.5t-40.5 12.5q-22 0 -36.5 -9t-24 -23.5t-14.5 -32.5t-8 -36h-62l5 28q5 25 17.5 47.5t32.5 42.5
q14 11 38 23t66 12q52 0 77.5 -24t25.5 -66q0 -19 -4 -35q-5 -25 -14 -44t-22.5 -35.5t-31 -31t-39.5 -30.5z" />
    <glyph glyph-name="threesuperior" unicode="&#xb3;" horiz-adv-x="300" 
d="M231 560h10h17q12 0 24 2t22.5 9t18.5 21t13 38q2 8 3 15.5t1 13.5q0 19 -11 29t-38 10q-39 0 -55.5 -23.5t-23.5 -57.5h-58q5 28 16.5 52.5t30 42.5t44.5 28t59 10q47 0 74 -23t27 -63q0 -13 -3 -26q-8 -36 -27.5 -62t-61.5 -38v-2q33 -7 48 -27t15 -49q0 -14 -3 -27
q-14 -63 -54 -102.5t-113 -39.5q-57 0 -81.5 25t-24.5 67q0 23 6 49h59q-6 -18 -6 -35q0 -23 14.5 -39t47.5 -16q35 0 56.5 20.5t28.5 55.5q4 19 4 35q0 31 -19.5 41t-64.5 10h-7z" />
    <glyph glyph-name="acute" unicode="&#xb4;" horiz-adv-x="333" 
d="M348 765h109l-161 -141h-67z" />
    <glyph glyph-name="mu" unicode="&#xb5;" 
d="M358 73h-2q-29 -43 -69.5 -65.5t-81.5 -22.5q-16 0 -28 7t-23 11l-40 -192h-79l155 745h79l-90 -432q-3 -15 -3 -27q0 -22 13 -33.5t46 -11.5q29 0 56.5 12.5t48.5 36.5q18 21 28.5 47.5t15.5 50.5l74 357h79l-115 -556h-79z" />
    <glyph glyph-name="mu" unicode="&#x3bc;" 
d="M358 73h-2q-29 -43 -69.5 -65.5t-81.5 -22.5q-16 0 -28 7t-23 11l-40 -192h-79l155 745h79l-90 -432q-3 -15 -3 -27q0 -22 13 -33.5t46 -11.5q29 0 56.5 12.5t48.5 36.5q18 21 28.5 47.5t15.5 50.5l74 357h79l-115 -556h-79z" />
    <glyph glyph-name="paragraph" unicode="&#xb6;" horiz-adv-x="440" 
d="M233 366h-1q-27 0 -49 11t-38 30.5t-25 46.5t-9 58q0 11 1 22t3 22q9 42 30.5 80.5t51.5 65.5q19 16 36 25.5t34 14.5t34.5 6.5t36.5 1.5h208l-180 -866h-79l167 799h-76l-167 -799h-79z" />
    <glyph glyph-name="periodcentered" unicode="&#xb7;" horiz-adv-x="250" 
d="M122 204l21 100h91l-21 -100h-91z" />
    <glyph glyph-name="periodcentered" unicode="&#x2219;" horiz-adv-x="250" 
d="M122 204l21 100h91l-21 -100h-91z" />
    <glyph glyph-name="cedilla" unicode="&#xb8;" horiz-adv-x="333" 
d="M83 -86l81 86h48l-59 -60l2 -2q9 3 24 3q12 0 25.5 -3t25 -9.5t18.5 -17.5t7 -27q0 -4 -0.5 -7.5t-1.5 -8.5q-5 -26 -19.5 -44t-34.5 -28.5t-43.5 -15t-45.5 -4.5h-8q-21 3 -40.5 8t-38.5 13l26 40q15 -6 29 -10.5t32 -4.5q24 0 36 6.5t22 16.5q9 9 9 23q0 9 -4.5 17.5
t-15.5 13.5q-9 4 -21 4q-10 0 -20 -2.5t-20 -5.5z" />
    <glyph glyph-name="onesuperior" unicode="&#xb9;" horiz-adv-x="300" 
d="M196 624l9 43q26 0 47 3.5t37.5 12.5t28.5 25t20 42h50l-93 -450h-62l67 324h-104z" />
    <glyph glyph-name="ordmasculine" unicode="&#xba;" horiz-adv-x="300" 
d="M195 585q-8 -38 -8 -64q0 -32 12.5 -50t44.5 -18q23 0 39.5 9.5t28.5 27t20 42t14 53.5q5 23 7.5 41.5t2.5 33.5q0 35 -13.5 50t-42.5 15q-40 0 -64.5 -32t-40.5 -108zM403 600q-5 -27 -13.5 -54t-22.5 -53q-23 -42 -55 -61t-72 -19q-48 0 -72.5 19t-30.5 61
q-1 8 -1.5 15t-0.5 15q0 19 2.5 38t6.5 39q5 23 13.5 45.5t19.5 42.5q20 36 55.5 56.5t76.5 20.5t68 -20.5t32 -56.5q1 -6 1 -12v-12q0 -15 -1.5 -31t-5.5 -33z" />
    <glyph glyph-name="guillemotright" unicode="&#xbb;" 
d="M110 125l18 83l121 102l-79 102l17 83l119 -156l-13 -61zM289 125l18 83l121 102l-79 102l17 83l119 -156l-13 -61z" />
    <glyph glyph-name="onequarter" unicode="&#xbc;" horiz-adv-x="750" 
d="M515 157h135l45 215h-2zM163 624l9 43q26 0 47 3.5t37.5 12.5t28.5 25t20 42h50l-93 -450h-62l67 324h-104zM750 750h63l-607 -750h-63zM713 450h58l-61 -293h38l-10 -50h-38l-22 -107h-60l22 107h-177l11 54z" />
    <glyph glyph-name="onehalf" unicode="&#xbd;" horiz-adv-x="750" 
d="M171 624l9 43q26 0 47 3.5t37.5 12.5t28.5 25t20 42h50l-93 -450h-62l67 324h-104zM698 750h63l-607 -750h-63zM560 110q-17 -14 -27 -25.5t-15 -32.5h201l-10 -52h-262q5 24 14 48.5t26 48.5q8 12 21 28.5t26 26.5l107 80q29 21 44 43t21 51q3 15 3 27q0 21 -11.5 33
t-40.5 12q-22 0 -36.5 -9t-23.5 -23.5t-14.5 -32.5t-8.5 -36h-62l6 28q5 25 17 47.5t33 42.5q14 11 38 23t66 12q53 0 78 -24.5t25 -66.5q0 -8 -1 -16.5t-3 -17.5q-5 -25 -14.5 -44t-22.5 -35.5t-30.5 -31t-39.5 -30.5z" />
    <glyph glyph-name="threequarters" unicode="&#xbe;" horiz-adv-x="750" 
d="M529 157h135l45 215h-2zM764 750h63l-607 -750h-63zM235 560h10h17q12 0 24 2t22.5 9t18.5 21t13 38q2 8 3 15.5t1 13.5q0 19 -11 29t-38 10q-39 0 -55.5 -23.5t-23.5 -57.5h-58q5 28 16.5 52.5t30 42.5t44.5 28t59 10q47 0 74 -23t27 -63q0 -13 -3 -26q-8 -36 -27.5 -62
t-61.5 -38v-2q33 -7 48 -27t15 -49q0 -14 -3 -27q-14 -63 -54 -102.5t-113 -39.5q-57 0 -81.5 25t-24.5 67q0 23 6 49h59q-6 -18 -6 -35q0 -23 14.5 -39t47.5 -16q35 0 56.5 20.5t28.5 55.5q4 19 4 35q0 31 -19.5 41t-64.5 10h-7zM727 450h58l-61 -293h38l-10 -50h-38
l-22 -107h-60l22 107h-177l11 54z" />
    <glyph glyph-name="questiondown" unicode="&#xbf;" 
d="M418 559l-21 -100h-91l21 100h91zM449 46q-8 -45 -26.5 -87.5t-49.5 -75.5t-73.5 -53t-97.5 -20q-79 0 -124.5 37.5t-45.5 105.5q0 11 1.5 22t3.5 23q10 50 31 84t48 63t59.5 57.5t67.5 67.5q15 17 23 29.5t12.5 25t7 27t7.5 35.5h89q-8 -39 -16 -64.5t-20.5 -47
t-32.5 -43t-53 -50.5q-22 -20 -43 -39.5t-38.5 -41t-30.5 -45.5t-19 -52q-2 -9 -3 -18t-1 -18q0 -35 18 -61.5t62 -26.5q39 0 66.5 14.5t45.5 38t28.5 53.5t16.5 60h87z" />
    <glyph glyph-name="Agrave" unicode="&#xc0;" horiz-adv-x="556" 
d="M455 959l60 -141h-67l-102 141h109zM422 690h-2l-182 -399h198zM380 750h110l56 -750h-92l-15 216h-237l-99 -216h-92z" />
    <glyph glyph-name="Aacute" unicode="&#xc1;" horiz-adv-x="556" 
d="M500 959h109l-160 -141h-67zM422 690h-2l-182 -399h198zM380 750h110l56 -750h-92l-15 216h-237l-99 -216h-92z" />
    <glyph glyph-name="Acircumflex" unicode="&#xc2;" horiz-adv-x="556" 
d="M468 912l-85 -94h-80l128 141h93l71 -141h-80zM422 690h-2l-182 -399h198zM380 750h110l56 -750h-92l-15 216h-237l-99 -216h-92z" />
    <glyph glyph-name="Atilde" unicode="&#xc3;" horiz-adv-x="556" 
d="M645 943q-6 -21 -17.5 -41t-27.5 -35t-36 -24t-44 -9q-16 0 -34.5 6.5t-32.5 11.5q-16 6 -33.5 13t-35.5 7q-17 0 -34 -14t-22 -31h-48q6 21 17.5 41t27.5 35t36 24t44 9q16 0 34.5 -6.5t32.5 -11.5q16 -6 33.5 -13t35.5 -7q17 0 34 14t22 31h48zM422 690h-2l-182 -399
h198zM380 750h110l56 -750h-92l-15 216h-237l-99 -216h-92z" />
    <glyph glyph-name="Adieresis" unicode="&#xc4;" horiz-adv-x="556" 
d="M489 844l21 100h79l-21 -100h-79zM439 944l-21 -100h-79l21 100h79zM422 690h-2l-182 -399h198zM380 750h110l56 -750h-92l-15 216h-237l-99 -216h-92z" />
    <glyph glyph-name="Aring" unicode="&#xc5;" horiz-adv-x="556" 
d="M475 950q-12 0 -24 -5t-22.5 -13.5t-18 -19.5t-10.5 -23q-1 -4 -1 -11q0 -21 14 -36t36 -15q25 0 47.5 18.5t27.5 43.5q1 4 1 11q0 21 -14.5 35.5t-35.5 14.5zM441 787q-36 0 -59.5 23.5t-23.5 58.5q0 5 0.5 10t1.5 10q4 21 16.5 39t29 32t36.5 22t41 8q36 0 59.5 -23
t23.5 -58v-10t-2 -10q-4 -21 -16 -39.5t-28.5 -32.5t-37 -22t-41.5 -8zM422 690h-2l-182 -399h198zM380 750h110l56 -750h-92l-15 216h-237l-99 -216h-92z" />
    <glyph glyph-name="AE" unicode="&#xc6;" horiz-adv-x="833" 
d="M486 290l80 385h-14l-263 -385h197zM471 215h-233l-144 -215h-94l521 750h419l-15 -75h-276l-52 -248h257l-15 -75h-257l-58 -277h273l-15 -75h-355z" />
    <glyph glyph-name="Ccedilla" unicode="&#xc7;" horiz-adv-x="556" 
d="M155 -163q15 -6 29 -10.5t32 -4.5q24 0 36 6.5t22 16.5q9 9 9 23q0 9 -4.5 17.5t-15.5 13.5q-9 4 -21 4q-10 0 -20 -2.5t-20 -5.5l-13 19l65 70q-44 5 -73 22t-46 43t-24 59t-7 71q0 49 8.5 101.5t19.5 103.5q9 42 21 87t29.5 87t41.5 80t56.5 66t74.5 44.5t95 16.5
q43 0 75 -12.5t53.5 -34.5t32 -52.5t10.5 -67.5q0 -36 -9 -73h-83q6 30 6 57q0 23 -5.5 43t-18 34.5t-33 22.5t-50.5 8q-36 0 -64 -15.5t-49.5 -41t-37.5 -58t-27 -66.5t-18.5 -66t-12.5 -57q-4 -18 -9 -40t-9 -46t-7 -49.5t-3 -50.5q0 -29 5 -55t17 -45.5t32 -31t51 -11.5
q37 0 63.5 14t45.5 37t32 52t23 60q5 13 8 25.5t8 25.5h83q-4 -11 -7 -23t-7 -23q-6 -23 -12.5 -43.5t-15 -39.5t-20 -38t-29.5 -38q-35 -38 -76 -59.5t-91 -23.5l-42 -43l2 -2q9 3 24 3q12 0 25.5 -3t25 -9.5t18.5 -17.5t7 -27q0 -4 -0.5 -7.5t-1.5 -8.5q-5 -26 -19.5 -44
t-34.5 -28.5t-43.5 -15t-45.5 -4.5h-8q-21 3 -40.5 8t-38.5 13z" />
    <glyph glyph-name="Egrave" unicode="&#xc8;" 
d="M427 959l60 -141h-67l-102 141h109zM74 0l155 750h375l-15 -75h-292l-52 -248h274l-15 -75h-274l-58 -277h294l-15 -75h-377z" />
    <glyph glyph-name="Eacute" unicode="&#xc9;" 
d="M472 959h109l-160 -141h-67zM74 0l155 750h375l-15 -75h-292l-52 -248h274l-15 -75h-274l-58 -277h294l-15 -75h-377z" />
    <glyph glyph-name="Ecircumflex" unicode="&#xca;" 
d="M440 912l-85 -94h-80l128 141h93l71 -141h-80zM74 0l155 750h375l-15 -75h-292l-52 -248h274l-15 -75h-274l-58 -277h294l-15 -75h-377z" />
    <glyph glyph-name="Edieresis" unicode="&#xcb;" 
d="M411 944l-21 -100h-79l21 100h79zM461 844l21 100h79l-21 -100h-79zM74 0l155 750h375l-15 -75h-292l-52 -248h274l-15 -75h-274l-58 -277h294l-15 -75h-377z" />
    <glyph glyph-name="Igrave" unicode="&#xcc;" horiz-adv-x="278" 
d="M316 959l60 -141h-67l-102 141h109zM98 0l155 750h83l-155 -750h-83z" />
    <glyph glyph-name="Iacute" unicode="&#xcd;" horiz-adv-x="278" 
d="M361 959h109l-160 -141h-67zM98 0l155 750h83l-155 -750h-83z" />
    <glyph glyph-name="Icircumflex" unicode="&#xce;" horiz-adv-x="278" 
d="M329 912l-85 -94h-80l128 141h93l71 -141h-80zM98 0l155 750h83l-155 -750h-83z" />
    <glyph glyph-name="Idieresis" unicode="&#xcf;" horiz-adv-x="278" 
d="M300 944l-21 -100h-79l21 100h79zM350 844l21 100h79l-21 -100h-79zM98 0l155 750h83l-155 -750h-83z" />
    <glyph glyph-name="Eth" unicode="&#xd0;" horiz-adv-x="611" 
d="M261 465h149l-11 -53h-149l-70 -337h133q46 0 81 17.5t62 56t48 98t39 143.5q8 42 13 77.5t5 66.5q0 66 -27.5 103.5t-95.5 37.5h-133zM167 412h-73l11 53h73l59 285h206q60 0 99 -15.5t62.5 -43t33 -64.5t9.5 -80q0 -41 -6.5 -84t-15.5 -88q-14 -69 -37.5 -136
t-61.5 -120t-92.5 -86t-130.5 -33h-221z" />
    <glyph glyph-name="Ntilde" unicode="&#xd1;" horiz-adv-x="611" 
d="M672 943q-6 -21 -17.5 -41t-27.5 -35t-36 -24t-44 -9q-16 0 -34.5 6.5t-32.5 11.5q-16 6 -33.5 13t-35.5 7q-17 0 -34 -14t-22 -31h-48q6 21 17.5 41t27.5 35t36 24t44 9q16 0 34.5 -6.5t32.5 -11.5q16 -6 33.5 -13t35.5 -7q17 0 34 14t22 31h48zM606 750h83l-155 -750
h-136l-86 600q-2 17 -3.5 35t-1.5 38v19q0 10 1 21h-2q-5 -29 -10.5 -57.5t-11.5 -57.5l-124 -598h-83l155 750h135l86 -614q3 -17 5 -36.5t4 -45.5h2q3 20 6.5 41.5t8.5 42.5z" />
    <glyph glyph-name="Ograve" unicode="&#xd2;" horiz-adv-x="611" 
d="M482 959l60 -141h-67l-102 141h109zM547 389q9 42 14 80t5 71q0 68 -26.5 109t-92.5 41q-48 0 -84 -23.5t-62.5 -64.5t-44.5 -95.5t-31 -117.5q-12 -60 -19.5 -109t-7.5 -88q0 -67 26.5 -101t92.5 -34q52 0 88 21.5t61.5 63.5t44.5 104t36 143zM140 391q13 64 34.5 130.5
t58.5 120.5t93.5 88.5t140.5 34.5q55 0 91.5 -16t58 -44t30.5 -65t9 -79t-6.5 -85t-15.5 -85q-17 -78 -40 -151.5t-60.5 -131t-93.5 -92t-138 -34.5q-54 0 -90 15.5t-57.5 43.5t-30.5 66t-9 83q0 46 7 97t18 104z" />
    <glyph glyph-name="Oacute" unicode="&#xd3;" horiz-adv-x="611" 
d="M527 959h109l-160 -141h-67zM547 389q9 42 14 80t5 71q0 68 -26.5 109t-92.5 41q-48 0 -84 -23.5t-62.5 -64.5t-44.5 -95.5t-31 -117.5q-12 -60 -19.5 -109t-7.5 -88q0 -67 26.5 -101t92.5 -34q52 0 88 21.5t61.5 63.5t44.5 104t36 143zM140 391q13 64 34.5 130.5
t58.5 120.5t93.5 88.5t140.5 34.5q55 0 91.5 -16t58 -44t30.5 -65t9 -79t-6.5 -85t-15.5 -85q-17 -78 -40 -151.5t-60.5 -131t-93.5 -92t-138 -34.5q-54 0 -90 15.5t-57.5 43.5t-30.5 66t-9 83q0 46 7 97t18 104z" />
    <glyph glyph-name="Ocircumflex" unicode="&#xd4;" horiz-adv-x="611" 
d="M495 912l-85 -94h-80l128 141h93l71 -141h-80zM547 389q9 42 14 80t5 71q0 68 -26.5 109t-92.5 41q-48 0 -84 -23.5t-62.5 -64.5t-44.5 -95.5t-31 -117.5q-12 -60 -19.5 -109t-7.5 -88q0 -67 26.5 -101t92.5 -34q52 0 88 21.5t61.5 63.5t44.5 104t36 143zM140 391
q13 64 34.5 130.5t58.5 120.5t93.5 88.5t140.5 34.5q55 0 91.5 -16t58 -44t30.5 -65t9 -79t-6.5 -85t-15.5 -85q-17 -78 -40 -151.5t-60.5 -131t-93.5 -92t-138 -34.5q-54 0 -90 15.5t-57.5 43.5t-30.5 66t-9 83q0 46 7 97t18 104z" />
    <glyph glyph-name="Otilde" unicode="&#xd5;" horiz-adv-x="611" 
d="M672 943q-6 -21 -17.5 -41t-27.5 -35t-36 -24t-44 -9q-16 0 -34.5 6.5t-32.5 11.5q-16 6 -33.5 13t-35.5 7q-17 0 -34 -14t-22 -31h-48q6 21 17.5 41t27.5 35t36 24t44 9q16 0 34.5 -6.5t32.5 -11.5q16 -6 33.5 -13t35.5 -7q17 0 34 14t22 31h48zM547 389q9 42 14 80
t5 71q0 68 -26.5 109t-92.5 41q-48 0 -84 -23.5t-62.5 -64.5t-44.5 -95.5t-31 -117.5q-12 -60 -19.5 -109t-7.5 -88q0 -67 26.5 -101t92.5 -34q52 0 88 21.5t61.5 63.5t44.5 104t36 143zM140 391q13 64 34.5 130.5t58.5 120.5t93.5 88.5t140.5 34.5q55 0 91.5 -16t58 -44
t30.5 -65t9 -79t-6.5 -85t-15.5 -85q-17 -78 -40 -151.5t-60.5 -131t-93.5 -92t-138 -34.5q-54 0 -90 15.5t-57.5 43.5t-30.5 66t-9 83q0 46 7 97t18 104z" />
    <glyph glyph-name="Odieresis" unicode="&#xd6;" horiz-adv-x="611" 
d="M516 844l21 100h79l-21 -100h-79zM466 944l-21 -100h-79l21 100h79zM547 389q9 42 14 80t5 71q0 68 -26.5 109t-92.5 41q-48 0 -84 -23.5t-62.5 -64.5t-44.5 -95.5t-31 -117.5q-12 -60 -19.5 -109t-7.5 -88q0 -67 26.5 -101t92.5 -34q52 0 88 21.5t61.5 63.5t44.5 104
t36 143zM140 391q13 64 34.5 130.5t58.5 120.5t93.5 88.5t140.5 34.5q55 0 91.5 -16t58 -44t30.5 -65t9 -79t-6.5 -85t-15.5 -85q-17 -78 -40 -151.5t-60.5 -131t-93.5 -92t-138 -34.5q-54 0 -90 15.5t-57.5 43.5t-30.5 66t-9 83q0 46 7 97t18 104z" />
    <glyph glyph-name="multiply" unicode="&#xd7;" 
d="M129 411l60 49l123 -157l191 158l39 -50l-190 -157l125 -157l-61 -49l-124 157l-191 -157l-37 49l189 157z" />
    <glyph glyph-name="Oslash" unicode="&#xd8;" horiz-adv-x="611" 
d="M558 624q-12 35 -38.5 49.5t-70.5 16.5h-9q-45 0 -79.5 -23.5t-60.5 -64t-44 -95t-30 -115.5q-11 -58 -17.5 -105t-6.5 -84v-8zM207 139q10 -39 36 -60.5t76 -21.5q52 0 88 22t62 64.5t45 105t36 143.5q9 42 14 81.5t5 73.5v14t-1 13zM57 -43l-32 24l101 122
q-6 20 -8.5 43.5t-2.5 48.5q0 46 7 96t18 103q13 64 34.5 130.5t58 119.5t93 87t140.5 34q59 0 96.5 -16.5t58.5 -48.5l80 96l32 -22l-93 -112q9 -24 12.5 -51.5t3.5 -56.5q0 -39 -5.5 -79.5t-14.5 -80.5q-17 -78 -40.5 -152t-61.5 -132t-94.5 -93t-138.5 -35q-63 0 -101 22
t-58 57z" />
    <glyph glyph-name="Ugrave" unicode="&#xd9;" horiz-adv-x="611" 
d="M482 959l60 -141h-67l-102 141h109zM236 750h83l-112 -539q-3 -13 -5 -27t-2 -29q0 -18 5 -36t18 -31.5t35.5 -22t58.5 -8.5q50 0 82 16t51 39t28 50t13 49l112 539h83l-118 -569q-21 -101 -92.5 -150t-173.5 -49q-88 0 -139 36t-51 111q0 23 6 52z" />
    <glyph glyph-name="Uacute" unicode="&#xda;" horiz-adv-x="611" 
d="M527 959h109l-160 -141h-67zM236 750h83l-112 -539q-3 -13 -5 -27t-2 -29q0 -18 5 -36t18 -31.5t35.5 -22t58.5 -8.5q50 0 82 16t51 39t28 50t13 49l112 539h83l-118 -569q-21 -101 -92.5 -150t-173.5 -49q-88 0 -139 36t-51 111q0 23 6 52z" />
    <glyph glyph-name="Ucircumflex" unicode="&#xdb;" horiz-adv-x="611" 
d="M495 912l-85 -94h-80l128 141h93l71 -141h-80zM236 750h83l-112 -539q-3 -13 -5 -27t-2 -29q0 -18 5 -36t18 -31.5t35.5 -22t58.5 -8.5q50 0 82 16t51 39t28 50t13 49l112 539h83l-118 -569q-21 -101 -92.5 -150t-173.5 -49q-88 0 -139 36t-51 111q0 23 6 52z" />
    <glyph glyph-name="Udieresis" unicode="&#xdc;" horiz-adv-x="611" 
d="M466 944l-21 -100h-79l21 100h79zM516 844l21 100h79l-21 -100h-79zM236 750h83l-112 -539q-3 -13 -5 -27t-2 -29q0 -18 5 -36t18 -31.5t35.5 -22t58.5 -8.5q50 0 82 16t51 39t28 50t13 49l112 539h83l-118 -569q-21 -101 -92.5 -150t-173.5 -49q-88 0 -139 36t-51 111
q0 23 6 52z" />
    <glyph glyph-name="Yacute" unicode="&#xdd;" horiz-adv-x="556" 
d="M500 959h109l-160 -141h-67zM355 374l254 376h92l-322 -459l-60 -291h-83l60 291l-130 459h92z" />
    <glyph glyph-name="Thorn" unicode="&#xde;" horiz-adv-x="556" 
d="M228 287h81q43 0 78 4.5t62 20t45.5 44.5t28.5 77q2 12 3.5 22.5t1.5 20.5q0 31 -12 49t-32.5 28t-49 13t-61.5 3h-86zM241 750h83l-22 -106h114q22 0 45.5 -2t45.5 -7t41.5 -14.5t32.5 -25.5q18 -21 26 -47.5t8 -55.5t-6 -57q-6 -31 -17.5 -61.5t-29.5 -57t-43 -48
t-58 -34.5q-21 -8 -46.5 -12.5t-52 -6.5t-52.5 -2.5t-47 -0.5h-50l-44 -212h-83z" />
    <glyph glyph-name="germandbls" unicode="&#xdf;" 
d="M326 460q60 0 92 27.5t44 85.5q5 23 5 41q0 36 -18.5 60t-63.5 24q-25 0 -47 -13t-39 -33q-14 -21 -21.5 -48t-12.5 -50l-115 -554h-79l111 538q10 46 24 86t51 78q33 34 71 48.5t80 14.5q69 0 103 -37.5t34 -97.5q0 -23 -6 -50q-10 -48 -34.5 -87t-75.5 -61
q42 -18 57 -51t15 -75q0 -19 -2.5 -39t-6.5 -40q-9 -42 -24.5 -83.5t-39.5 -74.5t-58 -53.5t-80 -20.5h-3q-17 0 -35 2.5t-30 12.5l16 78q11 -11 27.5 -19t36.5 -8q9 0 14 1q20 4 35 20t26 38t18 46.5t12 46.5q5 21 9.5 47t4.5 51q0 17 -3 31t-11 25q-8 10 -19 15.5
t-23.5 7.5t-26 2.5t-26.5 0.5z" />
    <glyph glyph-name="agrave" unicode="&#xe0;" horiz-adv-x="444" 
d="M359 765l59 -141h-67l-101 141h109zM349 300q-33 -17 -68 -31t-70 -29q-30 -13 -46.5 -40t-22.5 -56q-4 -19 -4 -38q0 -26 13.5 -40t49.5 -14q11 0 28.5 5t35.5 17.5t33.5 34.5t22.5 56zM417 0q-12 -2 -19 -4q-6 0 -11.5 -0.5t-10.5 -0.5q-33 0 -48 10.5t-15 44.5v11
q0 7 1 14h-2q-11 -18 -27 -34.5t-35 -29t-39.5 -19.5t-40.5 -7q-65 0 -91 26t-26 74q0 26 8 63q2 8 7 25t17 37.5t32 40t52 32.5q18 7 47 18t57.5 21.5t50.5 19t27 11.5q15 10 19 26t9 38q2 9 3 17.5t1 15.5q0 29 -18 41.5t-56 12.5q-27 0 -44.5 -6t-28.5 -18.5t-17.5 -31
t-10.5 -42.5h-71q15 87 64.5 126t134.5 39q40 0 65 -10t38.5 -25t18.5 -33t5 -34q0 -18 -3 -31.5t-4 -17.5l-67 -319q-1 -5 -2 -11.5t-1 -12.5q0 -13 9 -18q5 -2 16 -2h9t9 1z" />
    <glyph glyph-name="aacute" unicode="&#xe1;" horiz-adv-x="444" 
d="M404 765h109l-161 -141h-67zM349 300q-33 -17 -68 -31t-70 -29q-30 -13 -46.5 -40t-22.5 -56q-4 -19 -4 -38q0 -26 13.5 -40t49.5 -14q11 0 28.5 5t35.5 17.5t33.5 34.5t22.5 56zM417 0q-12 -2 -19 -4q-6 0 -11.5 -0.5t-10.5 -0.5q-33 0 -48 10.5t-15 44.5v11q0 7 1 14
h-2q-11 -18 -27 -34.5t-35 -29t-39.5 -19.5t-40.5 -7q-65 0 -91 26t-26 74q0 26 8 63q2 8 7 25t17 37.5t32 40t52 32.5q18 7 47 18t57.5 21.5t50.5 19t27 11.5q15 10 19 26t9 38q2 9 3 17.5t1 15.5q0 29 -18 41.5t-56 12.5q-27 0 -44.5 -6t-28.5 -18.5t-17.5 -31
t-10.5 -42.5h-71q15 87 64.5 126t134.5 39q40 0 65 -10t38.5 -25t18.5 -33t5 -34q0 -18 -3 -31.5t-4 -17.5l-67 -319q-1 -5 -2 -11.5t-1 -12.5q0 -13 9 -18q5 -2 16 -2h9t9 1z" />
    <glyph glyph-name="acircumflex" unicode="&#xe2;" horiz-adv-x="444" 
d="M372 718l-86 -94h-80l129 141h93l70 -141h-80zM349 300q-33 -17 -68 -31t-70 -29q-30 -13 -46.5 -40t-22.5 -56q-4 -19 -4 -38q0 -26 13.5 -40t49.5 -14q11 0 28.5 5t35.5 17.5t33.5 34.5t22.5 56zM417 0q-12 -2 -19 -4q-6 0 -11.5 -0.5t-10.5 -0.5q-33 0 -48 10.5
t-15 44.5v11q0 7 1 14h-2q-11 -18 -27 -34.5t-35 -29t-39.5 -19.5t-40.5 -7q-65 0 -91 26t-26 74q0 26 8 63q2 8 7 25t17 37.5t32 40t52 32.5q18 7 47 18t57.5 21.5t50.5 19t27 11.5q15 10 19 26t9 38q2 9 3 17.5t1 15.5q0 29 -18 41.5t-56 12.5q-27 0 -44.5 -6t-28.5 -18.5
t-17.5 -31t-10.5 -42.5h-71q15 87 64.5 126t134.5 39q40 0 65 -10t38.5 -25t18.5 -33t5 -34q0 -18 -3 -31.5t-4 -17.5l-67 -319q-1 -5 -2 -11.5t-1 -12.5q0 -13 9 -18q5 -2 16 -2h9t9 1z" />
    <glyph glyph-name="atilde" unicode="&#xe3;" horiz-adv-x="444" 
d="M548 749q-6 -21 -17.5 -41t-27.5 -35t-35.5 -24t-43.5 -9q-16 0 -35 6.5t-33 11.5q-15 6 -33 13t-36 7q-17 0 -33.5 -14t-21.5 -31h-48q6 21 17.5 41t27.5 35t36 24t44 9q16 0 34.5 -6.5t32.5 -11.5q15 -6 33 -13t36 -7q17 0 33.5 14t21.5 31h48zM349 300
q-33 -17 -68 -31t-70 -29q-30 -13 -46.5 -40t-22.5 -56q-4 -19 -4 -38q0 -26 13.5 -40t49.5 -14q11 0 28.5 5t35.5 17.5t33.5 34.5t22.5 56zM417 0q-12 -2 -19 -4q-6 0 -11.5 -0.5t-10.5 -0.5q-33 0 -48 10.5t-15 44.5v11q0 7 1 14h-2q-11 -18 -27 -34.5t-35 -29
t-39.5 -19.5t-40.5 -7q-65 0 -91 26t-26 74q0 26 8 63q2 8 7 25t17 37.5t32 40t52 32.5q18 7 47 18t57.5 21.5t50.5 19t27 11.5q15 10 19 26t9 38q2 9 3 17.5t1 15.5q0 29 -18 41.5t-56 12.5q-27 0 -44.5 -6t-28.5 -18.5t-17.5 -31t-10.5 -42.5h-71q15 87 64.5 126t134.5 39
q40 0 65 -10t38.5 -25t18.5 -33t5 -34q0 -18 -3 -31.5t-4 -17.5l-67 -319q-1 -5 -2 -11.5t-1 -12.5q0 -13 9 -18q5 -2 16 -2h9t9 1z" />
    <glyph glyph-name="adieresis" unicode="&#xe4;" horiz-adv-x="444" 
d="M393 650l20 100h79l-20 -100h-79zM342 750l-20 -100h-79l20 100h79zM349 300q-33 -17 -68 -31t-70 -29q-30 -13 -46.5 -40t-22.5 -56q-4 -19 -4 -38q0 -26 13.5 -40t49.5 -14q11 0 28.5 5t35.5 17.5t33.5 34.5t22.5 56zM417 0q-12 -2 -19 -4q-6 0 -11.5 -0.5t-10.5 -0.5
q-33 0 -48 10.5t-15 44.5v11q0 7 1 14h-2q-11 -18 -27 -34.5t-35 -29t-39.5 -19.5t-40.5 -7q-65 0 -91 26t-26 74q0 26 8 63q2 8 7 25t17 37.5t32 40t52 32.5q18 7 47 18t57.5 21.5t50.5 19t27 11.5q15 10 19 26t9 38q2 9 3 17.5t1 15.5q0 29 -18 41.5t-56 12.5
q-27 0 -44.5 -6t-28.5 -18.5t-17.5 -31t-10.5 -42.5h-71q15 87 64.5 126t134.5 39q40 0 65 -10t38.5 -25t18.5 -33t5 -34q0 -18 -3 -31.5t-4 -17.5l-67 -319q-1 -5 -2 -11.5t-1 -12.5q0 -13 9 -18q5 -2 16 -2h9t9 1z" />
    <glyph glyph-name="aring" unicode="&#xe5;" horiz-adv-x="444" 
d="M370 786q-12 0 -24 -5t-22.5 -13.5t-18 -19.5t-10.5 -23q-1 -4 -1 -11q0 -21 14 -36t36 -15q25 0 47.5 18.5t27.5 43.5q1 4 1 11q0 21 -14.5 35.5t-35.5 14.5zM349 300q-33 -17 -68 -31t-70 -29q-30 -13 -46.5 -40t-22.5 -56q-4 -19 -4 -38q0 -26 13.5 -40t49.5 -14
q11 0 28.5 5t35.5 17.5t33.5 34.5t22.5 56zM336 623q-36 0 -59.5 23.5t-23.5 58.5q0 5 0.5 10t1.5 10q4 21 16.5 39t29 32t36.5 22t41 8q36 0 59.5 -23t23.5 -58v-10t-2 -10q-4 -21 -16 -39.5t-28.5 -32.5t-37 -22t-41.5 -8zM417 0q-12 -2 -19 -4q-6 0 -11.5 -0.5
t-10.5 -0.5q-33 0 -48 10.5t-15 44.5v11q0 7 1 14h-2q-11 -18 -27 -34.5t-35 -29t-39.5 -19.5t-40.5 -7q-65 0 -91 26t-26 74q0 26 8 63q2 8 7 25t17 37.5t32 40t52 32.5q18 7 47 18t57.5 21.5t50.5 19t27 11.5q15 10 19 26t9 38q2 9 3 17.5t1 15.5q0 29 -18 41.5t-56 12.5
q-27 0 -44.5 -6t-28.5 -18.5t-17.5 -31t-10.5 -42.5h-71q15 87 64.5 126t134.5 39q40 0 65 -10t38.5 -25t18.5 -33t5 -34q0 -18 -3 -31.5t-4 -17.5l-67 -319q-1 -5 -2 -11.5t-1 -12.5q0 -13 9 -18q5 -2 16 -2h9t9 1z" />
    <glyph glyph-name="ae" unicode="&#xe6;" horiz-adv-x="667" 
d="M617 335q1 5 6.5 30t5.5 54q0 16 -2.5 31t-9.5 26.5t-19 18.5t-31 7q-35 0 -57 -16.5t-35.5 -41t-21.5 -54t-14 -55.5h178zM350 299l-63 -27q-27 -12 -51.5 -22.5t-44.5 -25t-34 -35t-21 -52.5q-3 -14 -3 -26q0 -26 14.5 -42.5t47.5 -16.5q27 0 51 9.5t44 31.5
q17 18 25 48.5t18 76.5zM426 270q-1 -5 -5 -20.5t-8 -36.5t-7 -44.5t-3 -45.5q0 -26 6 -44q8 -18 24.5 -22.5t38.5 -4.5q28 0 47.5 12t33 30.5t22 41.5t13.5 45h73q-8 -39 -24 -74.5t-41 -62.5t-59.5 -43t-77.5 -16q-54 0 -82.5 21.5t-40.5 69.5q-73 -91 -177 -91
q-58 0 -84 29t-26 76q0 11 1.5 22t3.5 23q13 62 39.5 94t62.5 51q37 20 81 32t93 32q25 11 35.5 29.5t14.5 38.5q2 9 3 17t1 15q0 58 -73 58q-48 0 -72 -28t-32 -70h-75q5 25 18 54.5t35.5 54.5t56.5 41.5t81 16.5q38 0 70.5 -15t48.5 -48q28 29 63 45t72 16q39 0 64 -11
t40 -30.5t21 -45t6 -55.5q0 -38 -7 -78.5t-15 -78.5h-260z" />
    <glyph glyph-name="ccedilla" unicode="&#xe7;" horiz-adv-x="444" 
d="M207 -13q-36 4 -59.5 17t-37.5 33.5t-20 47t-6 56.5t4.5 63t11.5 67q10 51 27.5 104t46.5 96.5t72.5 71.5t107.5 28q68 0 100 -38.5t32 -96.5q0 -27 -6 -55h-74q2 12 3.5 23.5t1.5 22.5q0 32 -15 54.5t-57 22.5q-43 0 -71 -28t-46 -67.5t-28 -82t-16 -72.5q-5 -22 -9 -49
t-4 -53q0 -20 3.5 -38t12 -32t23.5 -22t38 -8q32 0 53.5 12.5t36 33t23 45.5t15.5 51h75q-9 -38 -24 -73.5t-38 -64t-54.5 -47t-72.5 -22.5l-47 -47l2 -2q9 3 24 3q12 0 25.5 -3t25 -9.5t18.5 -17.5t7 -27q0 -4 -0.5 -7.5t-1.5 -8.5q-5 -26 -19.5 -44t-34.5 -28.5t-43.5 -15
t-45.5 -4.5h-8q-21 3 -40.5 8t-38.5 13l26 40q15 -6 29 -10.5t32 -4.5q24 0 36 6.5t22 16.5q9 9 9 23q0 9 -4.5 17.5t-15.5 13.5q-9 4 -21 4q-10 0 -20 -2.5t-20 -5.5l-13 19z" />
    <glyph glyph-name="egrave" unicode="&#xe8;" horiz-adv-x="444" 
d="M359 765l59 -141h-67l-101 141h109zM382 336q4 20 8 44t4 47q0 16 -3 30t-10.5 24.5t-21 16.5t-33.5 6q-35 0 -57.5 -17t-37 -42.5t-23 -54.5t-14.5 -54h188zM429 185q-7 -41 -24 -77.5t-44 -63.5t-62.5 -43t-79.5 -16q-30 0 -54.5 8.5t-42.5 27t-27.5 49t-9.5 75.5
q0 57 16 134q9 44 26.5 95t46 95t69.5 73t96 29q40 0 66 -10.5t41 -29t21 -43.5t6 -53q0 -39 -7.5 -81.5t-14.5 -82.5h-270q-5 -27 -12.5 -62.5t-7.5 -68.5q0 -18 3.5 -34t12 -28t22.5 -19t36 -7q28 0 49.5 12t36 31t23 42.5t11.5 47.5h74z" />
    <glyph glyph-name="eacute" unicode="&#xe9;" horiz-adv-x="444" 
d="M404 765h109l-161 -141h-67zM382 336q4 20 8 44t4 47q0 16 -3 30t-10.5 24.5t-21 16.5t-33.5 6q-35 0 -57.5 -17t-37 -42.5t-23 -54.5t-14.5 -54h188zM429 185q-7 -41 -24 -77.5t-44 -63.5t-62.5 -43t-79.5 -16q-30 0 -54.5 8.5t-42.5 27t-27.5 49t-9.5 75.5q0 57 16 134
q9 44 26.5 95t46 95t69.5 73t96 29q40 0 66 -10.5t41 -29t21 -43.5t6 -53q0 -39 -7.5 -81.5t-14.5 -82.5h-270q-5 -27 -12.5 -62.5t-7.5 -68.5q0 -18 3.5 -34t12 -28t22.5 -19t36 -7q28 0 49.5 12t36 31t23 42.5t11.5 47.5h74z" />
    <glyph glyph-name="ecircumflex" unicode="&#xea;" horiz-adv-x="444" 
d="M372 718l-86 -94h-80l129 141h93l70 -141h-80zM382 336q4 20 8 44t4 47q0 16 -3 30t-10.5 24.5t-21 16.5t-33.5 6q-35 0 -57.5 -17t-37 -42.5t-23 -54.5t-14.5 -54h188zM429 185q-7 -41 -24 -77.5t-44 -63.5t-62.5 -43t-79.5 -16q-30 0 -54.5 8.5t-42.5 27t-27.5 49
t-9.5 75.5q0 57 16 134q9 44 26.5 95t46 95t69.5 73t96 29q40 0 66 -10.5t41 -29t21 -43.5t6 -53q0 -39 -7.5 -81.5t-14.5 -82.5h-270q-5 -27 -12.5 -62.5t-7.5 -68.5q0 -18 3.5 -34t12 -28t22.5 -19t36 -7q28 0 49.5 12t36 31t23 42.5t11.5 47.5h74z" />
    <glyph glyph-name="edieresis" unicode="&#xeb;" horiz-adv-x="444" 
d="M393 650l20 100h79l-20 -100h-79zM342 750l-20 -100h-79l20 100h79zM382 336q4 20 8 44t4 47q0 16 -3 30t-10.5 24.5t-21 16.5t-33.5 6q-35 0 -57.5 -17t-37 -42.5t-23 -54.5t-14.5 -54h188zM429 185q-7 -41 -24 -77.5t-44 -63.5t-62.5 -43t-79.5 -16q-30 0 -54.5 8.5
t-42.5 27t-27.5 49t-9.5 75.5q0 57 16 134q9 44 26.5 95t46 95t69.5 73t96 29q40 0 66 -10.5t41 -29t21 -43.5t6 -53q0 -39 -7.5 -81.5t-14.5 -82.5h-270q-5 -27 -12.5 -62.5t-7.5 -68.5q0 -18 3.5 -34t12 -28t22.5 -19t36 -7q28 0 49.5 12t36 31t23 42.5t11.5 47.5h74z" />
    <glyph glyph-name="igrave" unicode="&#xec;" horiz-adv-x="222" 
d="M248 765l59 -141h-67l-101 141h109zM72 0l115 556h79l-115 -556h-79z" />
    <glyph glyph-name="iacute" unicode="&#xed;" horiz-adv-x="222" 
d="M293 765h109l-161 -141h-67zM72 0l115 556h79l-115 -556h-79z" />
    <glyph glyph-name="icircumflex" unicode="&#xee;" horiz-adv-x="222" 
d="M261 718l-86 -94h-80l129 141h93l70 -141h-80zM72 0l115 556h79l-115 -556h-79z" />
    <glyph glyph-name="idieresis" unicode="&#xef;" horiz-adv-x="222" 
d="M231 750l-20 -100h-79l20 100h79zM282 650l20 100h79l-20 -100h-79zM72 0l115 556h79l-115 -556h-79z" />
    <glyph glyph-name="eth" unicode="&#xf0;" 
d="M189 272q-14 -67 -14 -113q0 -51 19 -79t66 -28q35 0 61 16t45.5 45t33 69.5t23.5 89.5q16 76 16 127q0 57 -21 81t-64 24q-30 0 -55 -12.5t-45 -40.5t-36 -72t-29 -107zM326 725q-11 14 -25 33t-26 31l53 42q10 -11 17 -18.5t13 -14.5t13 -15.5t16 -20.5l82 51l22 -31
l-83 -51q54 -69 84.5 -146.5t30.5 -168.5q0 -58 -13 -119q-19 -90 -45.5 -150t-59.5 -96t-73 -51t-86 -15q-35 0 -62.5 8.5t-47.5 28.5t-30.5 52.5t-10.5 80.5q0 29 4 64.5t13 77.5q13 63 35.5 113.5t54.5 86.5t73.5 55t92.5 19q15 0 30 -3.5t23 -11.5l3 2q-4 15 -13 33
t-19.5 36.5t-22 36t-20.5 30.5l-87 -53l-23 31z" />
    <glyph glyph-name="ntilde" unicode="&#xf1;" 
d="M576 749q-6 -21 -17.5 -41t-27.5 -35t-35.5 -24t-43.5 -9q-16 0 -35 6.5t-33 11.5q-15 6 -33 13t-36 7q-17 0 -33.5 -14t-21.5 -31h-48q6 21 17.5 41t27.5 35t36 24t44 9q16 0 34.5 -6.5t32.5 -11.5q15 -6 33 -13t36 -7q17 0 33.5 14t21.5 31h48zM252 495h2q36 36 73 56
t82 20q53 0 83 -24t30 -75q0 -10 -1.5 -20.5t-3.5 -22.5l-89 -429h-79l84 407q4 17 4 36q0 28 -15 44.5t-52 16.5q-45 0 -84 -31q-29 -22 -40 -46.5t-17 -54.5l-77 -372h-79l115 556h77z" />
    <glyph glyph-name="ograve" unicode="&#xf2;" 
d="M387 765l59 -141h-67l-101 141h109zM423 272q16 76 16 127q0 57 -21 81t-64 24q-30 0 -55 -12.5t-45 -40.5t-36 -72t-29 -107q-14 -67 -14 -113q0 -51 19 -79t66 -28q35 0 61 16t45.5 45t33 69.5t23.5 89.5zM510 297q-19 -90 -45.5 -150t-59.5 -96t-73 -51t-86 -15
q-35 0 -62.5 8.5t-47.5 28.5t-30.5 52.5t-10.5 80.5q0 29 4 64.5t13 77.5q13 63 35.5 113.5t54.5 86.5t73.5 55t92.5 19q80 0 117 -44.5t37 -125.5q0 -47 -12 -104z" />
    <glyph glyph-name="oacute" unicode="&#xf3;" 
d="M432 765h109l-161 -141h-67zM423 272q16 76 16 127q0 57 -21 81t-64 24q-30 0 -55 -12.5t-45 -40.5t-36 -72t-29 -107q-14 -67 -14 -113q0 -51 19 -79t66 -28q35 0 61 16t45.5 45t33 69.5t23.5 89.5zM510 297q-19 -90 -45.5 -150t-59.5 -96t-73 -51t-86 -15
q-35 0 -62.5 8.5t-47.5 28.5t-30.5 52.5t-10.5 80.5q0 29 4 64.5t13 77.5q13 63 35.5 113.5t54.5 86.5t73.5 55t92.5 19q80 0 117 -44.5t37 -125.5q0 -47 -12 -104z" />
    <glyph glyph-name="ocircumflex" unicode="&#xf4;" 
d="M400 718l-86 -94h-80l129 141h93l70 -141h-80zM423 272q16 76 16 127q0 57 -21 81t-64 24q-30 0 -55 -12.5t-45 -40.5t-36 -72t-29 -107q-14 -67 -14 -113q0 -51 19 -79t66 -28q35 0 61 16t45.5 45t33 69.5t23.5 89.5zM510 297q-19 -90 -45.5 -150t-59.5 -96t-73 -51
t-86 -15q-35 0 -62.5 8.5t-47.5 28.5t-30.5 52.5t-10.5 80.5q0 29 4 64.5t13 77.5q13 63 35.5 113.5t54.5 86.5t73.5 55t92.5 19q80 0 117 -44.5t37 -125.5q0 -47 -12 -104z" />
    <glyph glyph-name="otilde" unicode="&#xf5;" 
d="M576 749q-6 -21 -17.5 -41t-27.5 -35t-35.5 -24t-43.5 -9q-16 0 -35 6.5t-33 11.5q-15 6 -33 13t-36 7q-17 0 -33.5 -14t-21.5 -31h-48q6 21 17.5 41t27.5 35t36 24t44 9q16 0 34.5 -6.5t32.5 -11.5q15 -6 33 -13t36 -7q17 0 33.5 14t21.5 31h48zM423 272q16 76 16 127
q0 57 -21 81t-64 24q-30 0 -55 -12.5t-45 -40.5t-36 -72t-29 -107q-14 -67 -14 -113q0 -51 19 -79t66 -28q35 0 61 16t45.5 45t33 69.5t23.5 89.5zM510 297q-19 -90 -45.5 -150t-59.5 -96t-73 -51t-86 -15q-35 0 -62.5 8.5t-47.5 28.5t-30.5 52.5t-10.5 80.5q0 29 4 64.5
t13 77.5q13 63 35.5 113.5t54.5 86.5t73.5 55t92.5 19q80 0 117 -44.5t37 -125.5q0 -47 -12 -104z" />
    <glyph glyph-name="odieresis" unicode="&#xf6;" 
d="M421 650l20 100h79l-20 -100h-79zM370 750l-20 -100h-79l20 100h79zM423 272q16 76 16 127q0 57 -21 81t-64 24q-30 0 -55 -12.5t-45 -40.5t-36 -72t-29 -107q-14 -67 -14 -113q0 -51 19 -79t66 -28q35 0 61 16t45.5 45t33 69.5t23.5 89.5zM510 297q-19 -90 -45.5 -150
t-59.5 -96t-73 -51t-86 -15q-35 0 -62.5 8.5t-47.5 28.5t-30.5 52.5t-10.5 80.5q0 29 4 64.5t13 77.5q13 63 35.5 113.5t54.5 86.5t73.5 55t92.5 19q80 0 117 -44.5t37 -125.5q0 -47 -12 -104z" />
    <glyph glyph-name="divide" unicode="&#xf7;" 
d="M294 405l20 100h79l-20 -100h-79zM210 3l21 100h79l-21 -100h-79zM104 289h413l-15 -70h-413z" />
    <glyph glyph-name="oslash" unicode="&#xf8;" 
d="M184 108q8 -26 26 -41t51 -15q35 0 61 16t45 45.5t32.5 70t23.5 89.5q14 68 14 110v8zM434 437q-10 67 -79 67q-31 0 -55.5 -12.5t-45 -40t-36.5 -71.5t-29 -107q-8 -35 -9.5 -66t-1.5 -56zM46 -46l-27 19l88 99q-5 14 -8.5 34t-3.5 50q0 26 3.5 61t13.5 81
q27 127 90 200t166 73q44 0 77.5 -15.5t52.5 -47.5l67 74l23 -23l-75 -83q9 -23 9 -69q0 -25 -3 -53t-9 -56q-18 -90 -45 -150t-60 -96.5t-71.5 -51.5t-79.5 -15q-95 0 -131 55z" />
    <glyph glyph-name="ugrave" unicode="&#xf9;" 
d="M387 765l59 -141h-67l-101 141h109zM360 73h-2q-29 -43 -69.5 -65.5t-81.5 -22.5q-52 0 -80.5 23t-28.5 74q0 10 1.5 21.5t3.5 23.5l89 429h79l-90 -432q-3 -15 -3 -27q0 -22 13 -33.5t46 -11.5q29 0 56.5 12.5t48.5 36.5q18 21 28.5 47.5t15.5 50.5l74 357h79l-115 -556
h-79z" />
    <glyph glyph-name="uacute" unicode="&#xfa;" 
d="M432 765h109l-161 -141h-67zM360 73h-2q-29 -43 -69.5 -65.5t-81.5 -22.5q-52 0 -80.5 23t-28.5 74q0 10 1.5 21.5t3.5 23.5l89 429h79l-90 -432q-3 -15 -3 -27q0 -22 13 -33.5t46 -11.5q29 0 56.5 12.5t48.5 36.5q18 21 28.5 47.5t15.5 50.5l74 357h79l-115 -556h-79z
" />
    <glyph glyph-name="ucircumflex" unicode="&#xfb;" 
d="M400 718l-86 -94h-80l129 141h93l70 -141h-80zM360 73h-2q-29 -43 -69.5 -65.5t-81.5 -22.5q-52 0 -80.5 23t-28.5 74q0 10 1.5 21.5t3.5 23.5l89 429h79l-90 -432q-3 -15 -3 -27q0 -22 13 -33.5t46 -11.5q29 0 56.5 12.5t48.5 36.5q18 21 28.5 47.5t15.5 50.5l74 357h79
l-115 -556h-79z" />
    <glyph glyph-name="udieresis" unicode="&#xfc;" 
d="M370 750l-20 -100h-79l20 100h79zM421 650l20 100h79l-20 -100h-79zM360 73h-2q-29 -43 -69.5 -65.5t-81.5 -22.5q-52 0 -80.5 23t-28.5 74q0 10 1.5 21.5t3.5 23.5l89 429h79l-90 -432q-3 -15 -3 -27q0 -22 13 -33.5t46 -11.5q29 0 56.5 12.5t48.5 36.5q18 21 28.5 47.5
t15.5 50.5l74 357h79l-115 -556h-79z" />
    <glyph glyph-name="yacute" unicode="&#xfd;" horiz-adv-x="444" 
d="M404 765h109l-161 -141h-67zM120 556h82l25 -482h2l229 482h82l-275 -531q-6 -12 -16.5 -32t-22 -41t-23 -40t-19.5 -29q-30 -39 -64 -56t-78 -17q-29 0 -54 9l13 70q13 -6 28 -9t29 -3q28 0 45.5 9.5t30 25t22.5 35t23 40.5z" />
    <glyph glyph-name="thorn" unicode="&#xfe;" 
d="M209 279q-8 -34 -12.5 -66.5t-4.5 -61.5q0 -44 16 -71.5t59 -27.5q61 0 97.5 61.5t59.5 174.5q6 29 10 56.5t4 52.5q0 47 -17 77t-61 30q-39 0 -65 -24t-43 -59t-27 -73.5t-16 -68.5zM227 750h79l-53 -256h2q25 39 59.5 58t68.5 19q39 0 65 -12.5t42.5 -34.5t23.5 -52
t7 -65q0 -26 -3.5 -54.5t-9.5 -58.5q-10 -46 -28 -100t-47 -100.5t-70.5 -77.5t-97.5 -31q-42 0 -64 19.5t-36 53.5h-2l-52 -246h-79z" />
    <glyph glyph-name="ydieresis" unicode="&#xff;" horiz-adv-x="444" 
d="M342 750l-20 -100h-79l20 100h79zM393 650l20 100h79l-20 -100h-79zM120 556h82l25 -482h2l229 482h82l-275 -531q-6 -12 -16.5 -32t-22 -41t-23 -40t-19.5 -29q-30 -39 -64 -56t-78 -17q-29 0 -54 9l13 70q13 -6 28 -9t29 -3q28 0 45.5 9.5t30 25t22.5 35t23 40.5z" />
    <glyph glyph-name="dotlessi" unicode="&#x131;" horiz-adv-x="222" 
d="M72 0l115 556h79l-115 -556h-79z" />
    <glyph glyph-name="Lslash" unicode="&#x141;" 
d="M150 325l-113 -81l19 88l112 81l70 337h83l-55 -267l160 116l-18 -88l-160 -116l-67 -320h306l-15 -75h-389z" />
    <glyph glyph-name="lslash" unicode="&#x142;" horiz-adv-x="222" 
d="M149 372l-92 -55l16 74l91 53l63 306h79l-53 -255l91 53l-14 -68l-91 -55l-88 -425h-79z" />
    <glyph glyph-name="OE" unicode="&#x152;" horiz-adv-x="833" 
d="M538 540q6 27 6 50q0 51 -27 75.5t-74 24.5q-56 0 -99 -31.5t-69 -96.5q-9 -21 -17.5 -48t-16.5 -54.5t-14.5 -55t-11.5 -49.5q-7 -32 -13 -72.5t-6 -80.5q0 -29 4.5 -55t16.5 -46t32.5 -32t52.5 -12t59.5 9.5t50 31.5t39 58.5t26.5 91.5zM800 75l-15 -75h-351l12 59h-2
q-20 -19 -38 -33t-36 -23.5t-37 -14.5t-41 -6h-9q-41 0 -70.5 12.5t-49.5 33.5t-31.5 50t-16.5 62q-3 31 -3 63q0 42 5 83t16 88q8 35 16 68.5t19.5 66.5t26.5 65.5t36 64.5q40 60 96 93t122 33q41 0 73 -20t52 -59h2l13 64h353l-15 -75h-275l-51 -246h257l-16 -75h-257
l-58 -279h273z" />
    <glyph glyph-name="oe" unicode="&#x153;" horiz-adv-x="722" 
d="M669 339q3 21 7.5 46t4.5 48q0 29 -13 50t-53 21q-35 0 -57.5 -17t-36.5 -41.5t-22.5 -53.5t-14.5 -53h185zM177 266q-5 -25 -11 -56.5t-6 -61.5q0 -20 3.5 -37t12.5 -30.5t24.5 -21t38.5 -7.5q36 0 59.5 15t40.5 44.5t29 73.5t24 101q8 42 13 73.5t5 56.5q0 47 -17 67.5
t-55 20.5q-44 0 -72 -26t-45.5 -63t-27.5 -78t-16 -71zM470 274l-10 -55q-4 -20 -7.5 -42.5t-3.5 -43.5q0 -33 14.5 -57t55.5 -24q28 0 47.5 12.5t32.5 32t22 43t16 44.5h75q-8 -28 -23.5 -62.5t-40 -65t-59 -51t-80.5 -20.5t-78 20t-47 60q-31 -38 -72 -59t-86 -21
q-43 0 -71.5 12t-45 32.5t-23 48.5t-6.5 60q0 36 6 75t14 76q30 146 90 214t151 68q45 0 82 -19t53 -59q29 36 65 57t79 21q40 0 66.5 -12.5t41.5 -33t21 -47t6 -54.5q0 -25 -3.5 -49.5t-8 -45t-8.5 -35t-5 -20.5h-260z" />
    <glyph glyph-name="Scaron" unicode="&#x160;" horiz-adv-x="556" 
d="M458 865l86 94h80l-129 -141h-93l-70 141h80zM514 553q7 24 7 48q0 40 -24 64.5t-73 24.5q-45 0 -74.5 -13t-47.5 -32.5t-27 -43t-13 -45.5q-3 -15 -3 -28q0 -53 53 -74q28 -11 55 -22.5t55 -22.5q38 -15 63.5 -30.5t41 -33t22 -36.5t6.5 -42q0 -29 -7 -60
q-23 -107 -97 -166t-183 -59q-28 0 -56.5 5t-53 18t-43.5 36t-28 60q-2 6 -2 12v14q0 26 5 56.5t10 54.5h83q-6 -25 -9.5 -46.5t-3.5 -40.5q0 -45 25.5 -69.5t91.5 -24.5q63 0 110 32.5t61 98.5q6 30 6 51q0 24 -7.5 38.5t-20.5 23.5t-31 15.5t-39 15.5q-14 6 -32 13
t-36.5 14.5t-36 15t-30.5 15.5q-34 19 -47.5 46.5t-13.5 62.5q0 14 2 29t5 32q10 46 33.5 84t56.5 65t74.5 41.5t87.5 14.5q85 0 131.5 -35t46.5 -106q0 -34 -10 -71h-83z" />
    <glyph glyph-name="scaron" unicode="&#x161;" horiz-adv-x="444" 
d="M362 671l86 94h80l-130 -141h-93l-69 141h80zM387 407q6 22 6 40q0 57 -74 57q-42 0 -69 -20t-36 -64q-2 -6 -2 -12v-10q0 -20 8.5 -32t21.5 -21t29.5 -15.5t33.5 -13.5q24 -12 47.5 -22.5t42 -24t30 -32.5t11.5 -47q0 -8 -1 -16.5t-3 -17.5q-8 -39 -28 -71t-48.5 -54
t-65.5 -34t-79 -12h-3h-4q-36 0 -71.5 13.5t-50.5 44.5q-8 16 -11.5 30.5t-3.5 28.5q0 15 3 30l6 30h75q-6 -26 -6 -45q0 -31 17.5 -48t59.5 -17q48 0 81.5 21.5t44.5 72.5q1 5 1.5 10t0.5 10q0 23 -11.5 37t-29 23t-37.5 15.5t-38 14.5q-50 20 -79 44t-29 71q0 10 1 20.5
t4 22.5q7 36 25 65t44 49.5t58 31.5t68 11q69 0 106.5 -26.5t37.5 -85.5q0 -24 -6 -52h-77z" />
    <glyph glyph-name="Ydieresis" unicode="&#x178;" horiz-adv-x="556" 
d="M439 944l-21 -100h-79l21 100h79zM489 844l21 100h79l-21 -100h-79zM355 374l254 376h92l-322 -459l-60 -291h-83l60 291l-130 459h92z" />
    <glyph glyph-name="Zcaron" unicode="&#x17d;" 
d="M430 865l86 94h80l-129 -141h-93l-70 141h80zM28 0l14 72l480 603h-345l15 75h431l-15 -72l-479 -603h359l-15 -75h-445z" />
    <glyph glyph-name="zcaron" unicode="&#x17e;" horiz-adv-x="389" 
d="M334 671l86 94h80l-130 -141h-93l-69 141h80zM24 0l12 62l348 429h-247l13 65h329l-13 -65l-347 -426h260l-13 -65h-342z" />
    <glyph glyph-name="florin" unicode="&#x192;" 
d="M-3 -111q11 -11 40 -11q14 0 28.5 3t27.5 10q10 6 21.5 22.5t22 38t20.5 46.5t18 47l135 363h-110l14 67h122q15 39 34 87t46.5 89.5t65.5 70t91 28.5q18 0 35.5 -2.5t32.5 -8.5l-33 -77q-8 11 -20.5 16t-27.5 5q-24 0 -41 -12t-29.5 -29.5t-21.5 -38.5t-17 -39
q-11 -23 -19.5 -45.5t-16.5 -43.5h121l-14 -67h-130l-120 -329q-12 -32 -28 -70.5t-35 -74t-40.5 -63.5t-42.5 -39t-45 -17.5t-48 -6.5q-33 0 -60 13z" />
    <glyph glyph-name="circumflex" unicode="&#x2c6;" horiz-adv-x="333" 
d="M316 718l-86 -94h-80l129 141h93l70 -141h-80z" />
    <glyph glyph-name="caron" unicode="&#x2c7;" horiz-adv-x="333" 
d="M306 671l86 94h80l-130 -141h-93l-69 141h80z" />
    <glyph glyph-name="breve" unicode="&#x2d8;" horiz-adv-x="333" 
d="M220 765q0 -42 24.5 -59.5t65.5 -17.5q42 0 72 17t49 60h49q-18 -71 -69 -103.5t-118 -32.5q-55 0 -90 25t-35 80q0 14 3 31h49z" />
    <glyph glyph-name="dotaccent" unicode="&#x2d9;" horiz-adv-x="250" 
d="M221 650l20 100h79l-20 -100h-79z" />
    <glyph glyph-name="ring" unicode="&#x2da;" horiz-adv-x="250" 
d="M282 756q-12 0 -24 -5t-22.5 -13.5t-18 -19.5t-10.5 -23q-1 -4 -1 -12q0 -20 14 -35t36 -15q25 0 47.5 18.5t27.5 43.5q1 4 1 11q0 21 -14.5 35.5t-35.5 14.5zM248 593q-36 0 -59.5 23.5t-23.5 58.5v10t2 10q4 21 16 39t29 32t37 22t41 8q36 0 59.5 -23t23.5 -58v-10
t-2 -10q-5 -21 -16.5 -39.5t-28.5 -32.5t-37 -22t-41 -8z" />
    <glyph glyph-name="ogonek" unicode="&#x2db;" horiz-adv-x="333" 
d="M98 13q-6 -8 -13.5 -18.5t-13.5 -22.5t-11 -23.5t-6 -20.5q-1 -4 -1.5 -7t-0.5 -6q0 -18 13 -27t34 -9h9h7q29 0 43.5 9t29.5 20l-16 -79q-47 -20 -88 -20q-20 0 -39 4.5t-34 14t-24 23.5t-9 34q0 10 3 22q5 24 20.5 54t29.5 52h67z" />
    <glyph glyph-name="tilde" unicode="&#x2dc;" horiz-adv-x="333" 
d="M492 749q-6 -21 -17.5 -41t-27.5 -35t-35.5 -24t-43.5 -9q-16 0 -35 6.5t-33 11.5q-15 6 -33 13t-36 7q-17 0 -33.5 -14t-21.5 -31h-48q6 21 17.5 41t27.5 35t36 24t44 9q16 0 34.5 -6.5t32.5 -11.5q15 -6 33 -13t36 -7q17 0 33.5 14t21.5 31h48z" />
    <glyph glyph-name="hungarumlaut" unicode="&#x2dd;" horiz-adv-x="333" 
d="M490 765h109l-161 -141h-67zM309 765h109l-161 -141h-67z" />
    <glyph glyph-name="endash" unicode="&#x2013;" 
d="M71 345h500l-14 -70h-500z" />
    <glyph glyph-name="emdash" unicode="&#x2014;" horiz-adv-x="1000" 
d="M71 345h1000l-14 -70h-1000z" />
    <glyph glyph-name="quoteleft" unicode="&#x2018;" horiz-adv-x="222" 
d="M308 722q-17 -3 -29 -14.5t-20.5 -26.5t-13.5 -31.5t-8 -29.5h49l-20 -99h-94l21 99q6 24 14.5 46.5t23 42t35.5 35t51 23.5z" />
    <glyph glyph-name="quoteright" unicode="&#x2019;" horiz-adv-x="222" 
d="M178 549q17 3 29 14.5t20 26.5t13 31t8 30h-49l20 99h94l-20 -98q-5 -24 -14 -47.5t-24 -43t-36 -34.5t-51 -23z" />
    <glyph glyph-name="quotesinglbase" unicode="&#x201a;" horiz-adv-x="222" 
d="M43 -101q16 3 28 14.5t20.5 26.5t13.5 31t8 30h-49l20 99h94l-20 -100q-5 -23 -14 -45.5t-23.5 -42t-36 -35t-51.5 -23.5z" />
    <glyph glyph-name="quotedblleft" unicode="&#x201c;" horiz-adv-x="389" 
d="M306 722q-17 -3 -29 -14.5t-20.5 -26.5t-13.5 -31.5t-8 -29.5h49l-20 -99h-94l21 99q5 22 14 45t23 43t35.5 35.5t51.5 23.5zM477 722q-17 -3 -29 -14.5t-20.5 -26.5t-13.5 -31.5t-8 -29.5h49l-20 -99h-94l20 99q5 23 14 46t23.5 42.5t36 35t51.5 23.5z" />
    <glyph glyph-name="quotedblright" unicode="&#x201d;" horiz-adv-x="389" 
d="M347 549q17 3 29 14.5t20 26.5t13 31t8 30h-49l20 99h94l-21 -99q-5 -23 -14 -46t-23.5 -42.5t-35.5 -35t-51 -23.5zM176 549q17 3 29 14.5t20 26.5t13 31t8 30h-49l20 99h94l-20 -99q-5 -23 -14 -46t-23.5 -42.5t-36 -35t-51.5 -23.5z" />
    <glyph glyph-name="quotedblbase" unicode="&#x201e;" horiz-adv-x="389" 
d="M212 -101q16 3 28 14.5t20.5 26.5t13.5 31t8 29h-49l20 100h94l-21 -100q-5 -21 -13.5 -43.5t-22.5 -42.5t-35.5 -35.5t-52.5 -24.5zM41 -101q16 3 28 14.5t20.5 26.5t13.5 31t8 29h-49l20 100h94l-20 -100q-5 -21 -13 -43t-22.5 -42t-36.5 -36t-53 -25z" />
    <glyph glyph-name="dagger" unicode="&#x2020;" 
d="M305 457h-170l14 70h170l46 223h80l-46 -223h171l-14 -70h-171l-132 -633h-80z" />
    <glyph glyph-name="daggerdbl" unicode="&#x2021;" 
d="M49 51l15 70h171l68 328h-169l14 70h170l48 231h80l-48 -231h171l-14 -70h-171l-68 -328h171l-15 -70h-171l-47 -227h-80l47 227h-172z" />
    <glyph glyph-name="bullet" unicode="&#x2022;" horiz-adv-x="333" 
d="M395 375q-6 -31 -24 -59t-42.5 -49t-55 -33t-61.5 -12q-27 0 -50 9.5t-39 26t-25 39t-9 48.5q0 15 3 30q7 31 24.5 59t42.5 49t55 33.5t61 12.5q55 0 89 -35t34 -87q0 -16 -3 -32z" />
    <glyph glyph-name="ellipsis" unicode="&#x2026;" horiz-adv-x="1000" 
d="M454 0l20 100h91l-20 -100h-91zM878 0h-91l20 100h91zM121 0l20 100h91l-20 -100h-91z" />
    <glyph glyph-name="perthousand" unicode="&#x2030;" horiz-adv-x="1111" 
d="M322 680q-25 0 -42 -14.5t-27.5 -36t-16.5 -45.5t-10 -43q-2 -11 -4 -23.5t-2 -24.5q0 -24 10.5 -41.5t41.5 -17.5q23 0 38.5 10t25.5 26t16 35t10 36q3 16 6.5 35.5t3.5 39.5q0 26 -10 45t-40 19zM998 306q-25 0 -41.5 -14.5t-27 -35.5t-16.5 -44.5t-10 -42.5
q-2 -12 -4.5 -25.5t-2.5 -26.5q0 -25 10.5 -43t40.5 -18q23 0 39 11t26.5 28t16.5 37t10 37q3 16 6.5 35t3.5 38q0 26 -10.5 45t-40.5 19zM645 306q-25 0 -41.5 -14.5t-27 -35.5t-16.5 -44.5t-10 -42.5q-2 -12 -4.5 -25.5t-2.5 -26.5q0 -25 10.5 -43t40.5 -18q23 0 39 11
t26.5 28t16.5 37t10 37q3 16 6.5 35t3.5 38q0 26 -10.5 45t-40.5 19zM234 -16h-53l498 766h55zM433 560q-11 -51 -25.5 -86t-35.5 -56t-48 -30.5t-62 -9.5h-6q-48 1 -75 24t-27 81q0 17 2.5 37t7.5 43q7 35 20 66.5t34 55t51 37.5t70 14q29 0 48.5 -8.5t31 -23.5t16.5 -35
t5 -43q0 -16 -1.5 -32.5t-5.5 -33.5zM1109 186q-21 -102 -59.5 -144t-107.5 -42h-6q-49 2 -77 27t-28 85q0 32 9 77q7 35 20 66.5t34 55t51 37.5t70 14q29 0 48.5 -8.5t31 -23.5t16.5 -35t5 -43q0 -16 -1.5 -32.5t-5.5 -33.5zM756 186q-11 -52 -26 -87.5t-35.5 -57.5
t-47.5 -31.5t-62 -9.5h-3q-49 1 -76.5 26t-27.5 85q0 33 9 78q7 35 20 66.5t34 55t51 37.5t70 14q29 0 48.5 -8.5t31 -23.5t16.5 -35t5 -43q0 -16 -1.5 -32.5t-5.5 -33.5z" />
    <glyph glyph-name="guilsinglleft" unicode="&#x2039;" horiz-adv-x="278" 
d="M317 495l-17 -83l-121 -102l79 -102l-18 -83l-118 156l13 61z" />
    <glyph glyph-name="guilsinglright" unicode="&#x203a;" horiz-adv-x="278" 
d="M88 125l18 83l121 102l-79 102l17 83l119 -156l-13 -61z" />
    <glyph glyph-name="fraction" unicode="&#x2044;" horiz-adv-x="167" 
d="M433 750h63l-607 -750h-63z" />
    <glyph glyph-name="fraction" unicode="&#x2215;" horiz-adv-x="167" 
d="M433 750h63l-607 -750h-63z" />
    <glyph glyph-name="trademark" unicode="&#x2122;" horiz-adv-x="750" 
d="M423 690h-109l-75 -361h-61l75 361h-110l12 60h280zM787 329h-55l75 361h-2l-193 -361h-32l-40 361h-2l-75 -361h-55l87 421h89l37 -297h2l163 297h88z" />
    <glyph glyph-name="minus" unicode="&#x2212;" 
d="M104 289h413l-15 -70h-413z" />
    <glyph glyph-name="fi" unicode="&#xfb01;" 
d="M560 650h-79l20 100h79zM427 0h-79l115 556h79zM194 489h-81l14 67h80l10 47q5 25 13.5 55.5t28.5 51.5q20 23 48.5 32.5t66.5 9.5q9 0 19 -0.5t21 -1.5l-13 -67q-8 1 -16 1.5t-15 0.5q-31 0 -46.5 -14t-24.5 -56l-12 -59h87l-14 -67h-87l-101 -489h-79z" />
    <glyph glyph-name="fl" unicode="&#xfb02;" 
d="M346 0l155 750h79l-155 -750h-79zM194 489h-81l14 67h80l10 47q5 25 13.5 55.5t28.5 51.5q20 23 48.5 32.5t66.5 9.5q9 0 19 -0.5t21 -1.5l-13 -67q-8 1 -16 1.5t-15 0.5q-31 0 -46.5 -14t-24.5 -56l-12 -59h87l-14 -67h-87l-101 -489h-79z" />
    <glyph glyph-name="nonbreakingspace" horiz-adv-x="250" 
 />
    </font>
</defs>
</svg>
